<svg width="32" height="32" fill="none" xmlns="http://www.w3.org/2000/svg"><path d="M16 19.52c9.457 0 14.455-2.475 14.844-2.677.013-.008.018-.02.023-.033.016-.267.026-.535.026-.807 0-.271-.01-.54-.026-.806-.002-.013-.008-.028-.023-.034-.389-.202-5.387-2.678-14.844-2.678-9.458 0-14.455 2.474-14.844 2.676-.013.008-.018.02-.023.033-.016.269-.026.535-.026.807 0 .271.01.54.026.806.002.013.007.028.023.033.389.203 5.386 2.68 14.844 2.68z" fill="url(#paint0_radial)"/><path d="M16 6.573c-5.953 0-10.134.98-12.512 1.757a13.685 13.685 0 00-2.087 4.867.04.04 0 00.039.005c1.216-.563 6.1-2.543 14.56-2.543 8.459 0 13.344 1.98 14.56 2.543a.04.04 0 00.038-.005 13.705 13.705 0 00-2.086-4.867C26.13 7.554 21.952 6.573 16 6.573z" fill="url(#paint1_radial)"/><path d="M5.426 25.973c2.699 2.588 6.44 4.19 10.574 4.19 4.135 0 7.875-1.602 10.574-4.19-2.468.622-5.994 1.2-10.574 1.2s-8.106-.578-10.574-1.2z" fill="url(#paint2_radial)"/><path d="M5.426 6.028C8.125 3.44 11.866 1.838 16 1.838c4.135 0 7.875 1.602 10.574 4.19-2.468-.622-5.994-1.2-10.574-1.2s-8.106.578-10.574 1.2z" fill="url(#paint3_radial)"/><path d="M16 25.389c-5.953 0-10.134-.98-12.512-1.756a13.685 13.685 0 01-2.087-4.867.04.04 0 01.039-.005c1.216.563 6.1 2.542 14.56 2.542 8.459 0 13.344-1.98 14.56-2.543a.04.04 0 01.038.006 13.705 13.705 0 01-2.086 4.867c-2.381.778-6.56 1.756-12.512 1.756z" fill="url(#paint4_radial)"/><defs><radialGradient id="paint0_radial" cx="0" cy="0" r="1" gradientUnits="userSpaceOnUse" gradientTransform="rotate(11.066 -68.654 -31.599) scale(41.3487)"><stop stop-color="#FEAE6F"/><stop offset=".316" stop-color="#FF9B73"/><stop offset=".631" stop-color="#D66F8D"/><stop offset=".855" stop-color="#8E54A5"/><stop offset=".991" stop-color="#6050B0"/></radialGradient><radialGradient id="paint1_radial" cx="0" cy="0" r="1" gradientUnits="userSpaceOnUse" gradientTransform="rotate(9.144 -68.147 27.72) scale(37.8607 22.8963)"><stop offset=".021" stop-color="#FEAE6F"/><stop offset=".497" stop-color="#D66F8D"/><stop offset=".795" stop-color="#8E54A5"/><stop offset=".984" stop-color="#7652AB"/></radialGradient><radialGradient id="paint2_radial" cx="0" cy="0" r="1" gradientUnits="userSpaceOnUse" gradientTransform="translate(10.675 19.24) scale(17.7131)"><stop offset=".071" stop-color="#FF9B73"/><stop offset=".261" stop-color="#F4A575"/><stop offset=".368" stop-color="#EE977B"/><stop offset=".57" stop-color="#DF7389"/><stop offset=".607" stop-color="#DC6B8C"/><stop offset=".612" stop-color="#DA6B8D"/><stop offset=".731" stop-color="#B06099"/><stop offset=".839" stop-color="#9259A2"/><stop offset=".931" stop-color="#8055A7"/><stop offset=".996" stop-color="#7953A9"/></radialGradient><radialGradient id="paint3_radial" cx="0" cy="0" r="1" gradientUnits="userSpaceOnUse" gradientTransform="rotate(1.325 -491.65 275.1) scale(22.152)"><stop offset=".109" stop-color="#FEAE6F"/><stop offset=".391" stop-color="#FEAE6F"/><stop offset=".641" stop-color="#DF7389"/><stop offset=".907" stop-color="#B56398"/><stop offset=".996" stop-color="#7852AA"/></radialGradient><radialGradient id="paint4_radial" cx="0" cy="0" r="1" gradientUnits="userSpaceOnUse" gradientTransform="rotate(4.712 -235.086 -170.104) scale(46.7544)"><stop offset=".071" stop-color="#FF9B73"/><stop offset=".39" stop-color="#F4A575"/><stop offset=".589" stop-color="#DF7389"/><stop offset=".645" stop-color="#DC6B8C"/><stop offset=".915" stop-color="#7953A9"/></radialGradient></defs></svg>