<svg xmlns="http://www.w3.org/2000/svg" viewBox="0 0 1215 1214"><linearGradient id="a" gradientUnits="userSpaceOnUse" x1="620.726" y1="753.991" x2="496.561" y2="501.718" gradientTransform="rotate(180 607.506 607)"><stop offset="0" stop-color="#d66f8d" stop-opacity="0"/><stop offset="1" stop-color="#d66fc6"/></linearGradient><path d="M474.2 535.6c19.3 20.9 52 22.5 72.9 3.2 18.1-16.2 41.4-24.8 65.8-23.7 24.4 1.2 46.9 11.4 63.5 29.6 16.2 18.1 24.8 41.4 23.7 65.8-1.2 24.4-11.4 46.9-29.6 63.5-20.9 19.3-22.5 52-3.2 72.9 19.3 20.9 52 22.5 72.9 3.2 38.2-35.1 60.7-82.8 63.1-134.8 2.4-52-15.8-101.7-50.8-139.9-35.1-38.2-82.8-60.7-134.8-63.1-52-2.4-101.7 15.8-139.9 50.8C467.6 473 462 486 461.2 499c-.8 13.3 3.9 26.7 13 36.6z" fill="url(#a)"/><linearGradient id="b" gradientUnits="userSpaceOnUse" x1="117.668" y1="204.822" x2="189.966" y2="915.65" gradientTransform="rotate(180 607.506 607)"><stop offset=".232" stop-color="#8453a8"/><stop offset="1" stop-color="#d66fc6" stop-opacity="0"/></linearGradient><path d="M952.7 952.2C1111.2 793.8 1141.1 549 1026 357c-17-28-7.9-64.3 20.1-81.2 28-16.9 64.3-7.9 81.2 20.1 143.5 238.5 106 542.4-91.1 739.5-22.9 23.3-60.3 23.3-83.6 0-11.8-11.8-17.3-26.8-17.3-42.2.1-15 6-30 17.4-41z" fill="url(#b)"/><linearGradient id="c" gradientUnits="userSpaceOnUse" x1="814.439" y1="730.003" x2="549.988" y2="440.866" gradientTransform="rotate(180 607.506 607)"><stop offset=".232" stop-color="#d66fc6"/><stop offset="1" stop-color="#d66f8d" stop-opacity="0"/></linearGradient><path d="M466.3 738.2c35.1 38.2 82.8 60.7 134.8 63.1 52 2.4 101.7-15.8 139.9-50.8 20.9-19.3 22.5-52 3.2-72.9-19.3-20.9-52-22.5-72.9-3.2-18.1 16.2-41.4 24.8-65.8 23.6-24.4-1.2-46.9-11.4-63.5-29.6-33.9-37.4-31.1-95.4 5.9-129.3 20.9-19.3 22.5-52 3.2-72.9-19.3-20.9-52-22.5-72.9-3.2-39.8 36.3-60.7 85.1-63.1 134.8-2.4 49.7 14.5 100.6 51.2 140.4z" fill="url(#c)"/><linearGradient id="d" gradientUnits="userSpaceOnUse" x1="206.207" y1="1097.404" x2="917.059" y2="1026.183" gradientTransform="rotate(180 607.506 607)"><stop offset=".232" stop-color="#8453a8"/><stop offset="1" stop-color="#d66fc6" stop-opacity="0"/></linearGradient><path d="M951.1 260C791.9 102 546.7 72.8 355.5 189.1c-28 16.9-64.3 8.3-81.2-19.7-17-28-8.3-64.3 19.7-81.2 238.1-144.3 542.4-108 740.3 88.3 23.3 22.9 23.3 60.3.4 83.6-11.8 11.4-26.8 17.3-42.2 17.3-15 0-29.9-5.9-41.4-17.4z" fill="url(#d)"/><linearGradient id="e" gradientUnits="userSpaceOnUse" x1="211.011" y1="604.515" x2="613.072" y2="1061.76" gradientTransform="rotate(180 607.506 607)"><stop offset="0" stop-color="#8e54a5"/><stop offset=".803" stop-color="#d66fc6" stop-opacity="0"/></linearGradient><path d="M894 606.5c0-131.7-89.1-246-216.8-277.9-27.6-6.7-44.1-34.7-37.4-62.3 6.7-27.6 34.7-44.5 62.3-37.4 173.8 43.4 295.2 199.1 295.2 378 0 28.4-23.3 51.6-51.6 51.6-28.5.1-51.7-22.8-51.7-52z" fill="url(#e)"/><linearGradient id="f" gradientUnits="userSpaceOnUse" x1="1005.211" y1="143.184" x2="336.987" y2="136.108" gradientTransform="rotate(180 607.506 607)"><stop offset=".232" stop-color="#8453a8"/><stop offset="1" stop-color="#d66fc6" stop-opacity="0"/></linearGradient><path d="M260.5 950.2c157.7 159.2 402.5 190.4 594.8 76.1 28.4-16.9 64.6-7.5 81.2 20.5 16.9 28.4 7.5 64.6-20.5 81.2-238.9 141.9-542.8 103.3-739.1-94.6-22.9-23.3-22.9-60.7.4-83.6 11.8-11.4 26.8-17 42.2-17 15 .5 30 6 41 17.4z" fill="url(#f)"/><linearGradient id="g" gradientUnits="userSpaceOnUse" x1="1113.988" y1="1044.374" x2="999.848" y2="312.141" gradientTransform="rotate(180 607.506 607)"><stop offset=".232" stop-color="#8453a8"/><stop offset="1" stop-color="#d66fc6" stop-opacity="0"/></linearGradient><path d="M265.3 258.9c-160 156.9-192.4 401.7-78.8 594.4 16.6 28 7.1 64.3-20.9 80.8-28 16.6-64.2 7.1-80.8-20.9-141.2-239.7-101-543.6 97.7-738.7 23.2-22.9 60.7-22.5 83.6.8 11.4 11.8 17.3 26.8 16.9 42.2 0 14.9-5.9 29.9-17.7 41.4z" fill="url(#g)"/><linearGradient id="h" gradientUnits="userSpaceOnUse" x1="603.734" y1="1002.729" x2="1076.746" y2="594.756" gradientTransform="rotate(180 607.506 607)"><stop offset="0" stop-color="#8e54a5"/><stop offset=".049" stop-color="#8e54a5"/><stop offset=".737" stop-color="#d66fc6" stop-opacity="0"/></linearGradient><path d="M607.4 320c-131.7 0-246 89.1-277.9 216.8-6.7 27.6-34.7 44.1-62.3 37.4-27.6-6.7-44.5-34.7-37.4-62.3 43.4-173.4 198.7-294.8 378-294.8 28.4 0 51.6 23.3 51.6 51.6 0 28.4-23.2 51.6-52 51.3z" fill="url(#h)"/><linearGradient id="i" gradientUnits="userSpaceOnUse" x1="621.631" y1="176.952" x2="209.717" y2="612.513" gradientTransform="rotate(180 607.506 607)"><stop offset="0" stop-color="#8d54a5"/><stop offset=".098" stop-color="#8d54a5"/><stop offset=".85" stop-color="#d66fc6" stop-opacity="0"/></linearGradient><path d="M607.8 893.9c131.7 0 246-89.1 277.9-216.8 6.7-27.6 34.7-44.1 62.3-37.4 27.6 6.7 44.5 34.7 37.4 62.3-43.4 173.4-198.7 294.8-378 294.8-28.4 0-51.6-23.3-51.6-51.6 0-28.9 22.8-51.7 52-51.3z" fill="url(#i)"/><linearGradient id="j" gradientUnits="userSpaceOnUse" x1="995.295" y1="599.172" x2="632.653" y2="189.228" gradientTransform="rotate(180 607.506 607)"><stop offset="0" stop-color="#8d54a5"/><stop offset=".852" stop-color="#d66fc6" stop-opacity="0"/></linearGradient><path d="M320.5 606.9c0 131.7 89.1 246 216.8 277.9 27.6 6.7 44.1 34.7 37.4 62.3-6.7 27.6-34.7 44.5-62.3 37.4-173.4-43.4-294.8-198.7-294.8-378 0-28.4 23.3-51.6 51.6-51.6 28.8 0 51.6 23.2 51.3 52z" fill="url(#j)"/></svg>