<svg width="24" height="24" fill="none" xmlns="http://www.w3.org/2000/svg"><path fill-rule="evenodd" clip-rule="evenodd" d="M12 24c6.627 0 12-5.373 12-12S18.627 0 12 0 0 5.373 0 12s5.373 12 12 12z" fill="url(#paint0_linear)"/><path fill-rule="evenodd" clip-rule="evenodd" d="M12 24c6.627 0 12-5.373 12-12S18.627 0 12 0 0 5.373 0 12s5.373 12 12 12z" fill="url(#paint1_linear)"/><path d="M5.335 5.759l2.085.872c.031.013.067-.001.082-.03l1.034-2.01c.028-.051.103-.043.115.012l.618 2.173c.009.03.04.052.073.045l2.215-.446c.055-.012.098.051.066.098L10.308 8.31c-.017.027-.014.065.01.084l1.73 1.453a.063.063 0 01-.039.11l-2.257.119c-.033.003-.06.03-.059.06l-.058 2.26c-.001.055-.071.082-.11.041l-1.498-1.69a.06.06 0 00-.084-.007l-1.801 1.363a.063.063 0 01-.1-.063l.387-2.226a.064.064 0 00-.048-.072l-2.189-.56c-.055-.014-.065-.09-.015-.114L6.16 7.98a.064.064 0 00.028-.082l-.928-2.06c-.031-.049.02-.103.076-.08z" fill="#fff"/><path d="M11.997 12.008l1.535.497 1.285-.983v1.613l1.33.918-1.537.498-.458 1.55-.95-1.307-1.612.043.945-1.308-.538-1.521zM18.518 18.085a1 1 0 10-1.433-1.395 1 1 0 001.433 1.395z" fill="#FFF0D9"/><defs><linearGradient id="paint0_linear" x1="7.442" y1="33.717" x2="30.981" y2="15.121" gradientUnits="userSpaceOnUse"><stop stop-color="#FFB36D"/><stop offset="1" stop-color="#F88"/></linearGradient><linearGradient id="paint1_linear" x1="-7.985" y1="1.498" x2="38.006" y2="28.148" gradientUnits="userSpaceOnUse"><stop stop-color="#FFD9A2"/><stop offset="1" stop-color="#FFAE8D"/></linearGradient></defs></svg>