<svg width="44" height="44" fill="none" xmlns="http://www.w3.org/2000/svg"><path fill-rule="evenodd" clip-rule="evenodd" d="M22.027 43.616c11.874 0 21.5-9.626 21.5-21.5S33.9.616 22.027.616s-21.5 9.626-21.5 21.5 9.626 21.5 21.5 21.5z" fill="url(#paint0_linear)"/><path opacity=".691" d="M16.458 19.512a2.972 2.972 0 10-4.204 4.203 2.972 2.972 0 004.204-4.203z" fill="#fff"/><path opacity=".668" fill-rule="evenodd" clip-rule="evenodd" d="M14.477 25.512h-.316c-3.321.009-6.011 2.73-6.02 6.09v.43c0 .237.19.428.423.428h11.507a.425.425 0 00.422-.427v-.43c-.01-3.359-2.697-6.08-6.016-6.09z" fill="url(#paint1_linear)"/><path d="M20.664 10.908c2-1.403 4.39-2.137 6.832-2.098a11.577 11.577 0 016.832 2.098c1.812 1.337 2.934 3.195 2.934 5.267 0 2.072-1.118 3.933-2.934 5.271a11.577 11.577 0 01-6.832 2.098c-.868 0-1.734-.088-2.585-.262a11.718 11.718 0 01-2.098-.636l-3.565 2.203a.613.613 0 01-.879-.79l1.55-3.224a7.213 7.213 0 01-1.52-1.966 5.822 5.822 0 01-.669-2.69c0-2.072 1.119-3.934 2.934-5.271zm6.967 8.735a.817.817 0 00-.814.821c0 .454.364.821.814.821.45 0 .814-.367.814-.821a.817.817 0 00-.814-.821zm0-8.596c-.35 0-.686.149-.923.409-.238.26-.356.61-.327.962l.505 5.248.002.021a.75.75 0 00.743.67.75.75 0 00.745-.69l.505-5.249.002-.032a1.272 1.272 0 00-.329-.93 1.25 1.25 0 00-.923-.409z" fill="#fff"/><defs><linearGradient id="paint0_linear" x1="-13.779" y1="3.301" x2="68.621" y2="51.049" gradientUnits="userSpaceOnUse"><stop stop-color="#FFD9A2"/><stop offset="1" stop-color="#FFAE8D"/></linearGradient><linearGradient id="paint1_linear" x1="30.563" y1="32.958" x2="26.676" y2="23.146" gradientUnits="userSpaceOnUse"><stop stop-color="#fff" stop-opacity=".01"/><stop offset="1" stop-color="#fff"/></linearGradient></defs></svg>