<svg width="270" height="181" fill="none" xmlns="http://www.w3.org/2000/svg"><ellipse cx="135.001" cy="90.498" rx="134.637" ry="89.998" fill="url(#paint0_linear)"/><mask id="a" maskUnits="userSpaceOnUse" x="0" y="0" width="270" height="181"><ellipse cx="135.001" cy="90.498" rx="134.637" ry="89.998" fill="url(#paint1_linear)"/></mask><path d="M194.727 44.48l3.613 3.71c.055.054.14.057.198.01l3.985-3.31c.104-.082.255.003.231.13l-.647 5.138c-.008.074.039.148.113.162l5.075 1.047c.126.025.16.198.05.266l-4.423 2.695c-.06.041-.088.12-.054.187l2.344 4.615c.055.115-.051.247-.18.2l-4.866-1.778c-.071-.025-.151.008-.178.075l-2.152 4.713c-.051.115-.224.11-.269-.013l-1.643-4.909a.14.14 0 00-.17-.093l-5.024 1.26a.144.144 0 01-.154-.222l2.813-4.35c.044-.063.021-.147-.037-.193l-4.115-3.146c-.105-.082-.058-.246.071-.255l5.155-.516a.147.147 0 00.131-.148l-.1-4.84c.003-.223.074-.597.233-.435zM99.977 83.53l.79 5.118a.148.148 0 00.155.123l5.166-.383c.133-.006.207.15.114.239l-3.51 3.81c-.049.056-.054.143-.002.197l3.525 3.798c.089.093.016.254-.113.246l-5.166-.373c-.073 0-.142.047-.152.121l-.77 5.119c-.022.126-.185.171-.263.059l-2.934-4.27c-.044-.062-.128-.081-.188-.043l-4.488 2.59c-.109.063-.247-.041-.212-.168l1.511-4.95a.141.141 0 00-.085-.175l-4.822-1.89a.144.144 0 01.003-.27l4.815-1.91c.073-.025.103-.107.083-.178l-1.525-4.95c-.038-.128.096-.234.205-.167l4.497 2.572a.147.147 0 00.193-.045l2.727-3.999c.139-.182.415-.445.446-.222zM245.001 96.994l1.901 4.817a.148.148 0 00.178.086l4.954-1.515c.128-.035.235.101.163.208l-2.581 4.491c-.035.066-.021.152.042.193l4.277 2.926c.107.071.071.243-.057.264l-5.12.778c-.071.015-.128.078-.122.152l.38 5.162c.006.128-.142.208-.243.116l-3.805-3.517c-.056-.05-.143-.05-.193 0l-3.805 3.517c-.092.086-.249.015-.243-.116l.38-5.162a.143.143 0 00-.122-.152l-5.12-.778a.144.144 0 01-.057-.264l4.274-2.926c.066-.041.077-.127.042-.193l-2.581-4.491c-.066-.115.041-.249.163-.208l4.954 1.515a.146.146 0 00.178-.086l1.777-4.503c.095-.21.303-.525.386-.314zM44.835 118.591l1.9 4.818c.03.071.108.107.179.086l4.954-1.515c.128-.035.235.101.163.208l-2.58 4.491c-.036.065-.022.151.04.193l4.278 2.926c.107.071.071.243-.057.264l-5.12.778c-.071.015-.128.077-.122.152l.38 5.162c.006.127-.142.207-.243.115l-3.805-3.516c-.056-.051-.142-.051-.193 0l-3.805 3.516c-.092.087-.25.015-.243-.115l.38-5.162a.142.142 0 00-.122-.152l-5.12-.778a.144.144 0 01-.057-.264l4.274-2.926c.066-.042.077-.128.042-.193l-2.581-4.491c-.066-.116.041-.249.163-.208l4.954 1.515a.147.147 0 00.178-.086l1.777-4.503c.095-.211.303-.526.386-.315zM77.66 43.559l1.792 3.626 4.013.591-2.896 2.822.677 3.992-3.585-1.89-3.585 1.89.686-3.992-2.896-2.822 4.004-.59 1.79-3.627zM168.573 109.631l1.791 3.626 4.013.591-2.896 2.822.677 3.992-3.585-1.889-3.585 1.889.686-3.992-2.896-2.822 4.004-.591 1.791-3.626zM114.562 130.793l1.791 3.626 4.013.592-2.896 2.821.677 3.992-3.585-1.889-3.585 1.889.686-3.992-2.895-2.821 4.003-.592 1.791-3.626zM73.918 100.664l1.79 3.627 4.013.591-2.895 2.821.677 3.992-3.585-1.889-3.585 1.889.686-3.992-2.896-2.821 4.004-.591 1.79-3.627zM34.861 71.264l1.194 2.417 2.673.392-1.93 1.88.451 2.659-2.388-1.257-2.388 1.26.458-2.658L31 74.073l2.667-.392 1.194-2.417zM89.08 117.877l1.195 2.418 2.673.392-1.93 1.88.45 2.658-2.387-1.259-2.388 1.259.457-2.658-1.93-1.88 2.667-.392 1.194-2.418zM138.633 31l1.194 2.418 2.673.392-1.931 1.88.452 2.658-2.388-1.26-2.388 1.26.457-2.658-1.931-1.88 2.668-.392L138.633 31zM169.47 87.46l1.194 2.419 2.673.392-1.931 1.88.452 2.658-2.388-1.26-2.388 1.26.457-2.658-1.931-1.88 2.668-.392 1.194-2.418z" fill="#4C499C"/><path d="M193.555 60.863L172.405 87.6" stroke="#4C499C" stroke-width=".75" stroke-miterlimit="10" stroke-linecap="round" stroke-linejoin="round"/><path d="M118 91h-11M164 92h-12" stroke="#4C499C" stroke-miterlimit="10" stroke-linecap="round" stroke-linejoin="round" stroke-dasharray="2 3"/><path d="M95.656 82.187L83.5 52M71.5 52.5L39 72M66.82 111.471l-12.113 9.1M107.404 133.852l-13.142-10.637M86.704 118.521l-6.98-8.31M103.34 99.543l10.91 28.671M169.472 95.74l-.809 11.977M237 112.42l-19.262 11.224-42.238-7.724M163.082 118.031l-44.671 14.21M191.141 47.612L143.5 36.5" stroke="#4C499C" stroke-width=".75" stroke-miterlimit="10" stroke-linecap="round" stroke-linejoin="round"/><path d="M135 104.246c7.593 0 13.748-6.155 13.748-13.748 0-7.593-6.155-13.748-13.748-13.748-7.593 0-13.748 6.155-13.748 13.748 0 7.593 6.155 13.748 13.748 13.748z" fill="#5F5BC1"/><path d="M134.989 98.946c-.545 0-.996-.179-1.354-.537a1.78 1.78 0 01-.536-1.306c0-.514.179-.953.536-1.319.358-.365.809-.548 1.354-.548.528 0 .98.183 1.353.548.373.366.56.805.56 1.319 0 .497-.187.929-.56 1.295a1.864 1.864 0 01-1.353.548zm-.7-4.783l-.677-6.884v-5.226h2.73v5.226l-.653 6.884h-1.4z" fill="#fff"/><defs><linearGradient id="paint0_linear" x1="345.076" y1="-26.243" x2="41.647" y2="288.913" gradientUnits="userSpaceOnUse"><stop offset="0" stop-color="#1E1B6D"/><stop offset="1" stop-color="#373582"/></linearGradient><linearGradient id="paint1_linear" x1="135.002" y1="180.495" x2="135.002" y2=".5" gradientUnits="userSpaceOnUse"><stop offset="0" stop-color="#373582"/><stop offset="1" stop-color="#1A185D"/></linearGradient></defs></svg>