<svg width="270" height="180" fill="none" xmlns="http://www.w3.org/2000/svg"><ellipse cx="134.637" cy="89.998" rx="134.637" ry="89.998" fill="#131143"/><path fill-rule="evenodd" clip-rule="evenodd" d="M219.489 152.605l1.8-1.03-1.84-.96-1.02-1.8-.97 1.83-1.8 1.03 1.84.97 1.03 1.8.96-1.84z" fill="#403D85"/><path d="M177.356 23.914c.48 0 .48-.75 0-.75-.49 0-.49.75 0 .75zM166.266 32.922c.48 0 .48-.75 0-.75s-.48.75 0 .75zM189.136 37.313c.48 0 .48-.75 0-.75s-.48.75 0 .75zM178.046 36.852c.48 0 .48-.75 0-.75s-.48.75 0 .75zM208.776 48.402c.48 0 .48-.75 0-.75-.49 0-.49.75 0 .75zM208.536 38.473c.48 0 .48-.75 0-.75s-.48.75 0 .75zM199.526 33.383c.48 0 .48-.75 0-.75s-.48.75 0 .75zM218.476 52.332c.48 0 .48-.75 0-.75s-.49.75 0 .75z" fill="#403D85"/><path fill-rule="evenodd" clip-rule="evenodd" d="M168.806 23.313l.91.52-.93.48-.52.92-.49-.93-.91-.53.93-.48.52-.92.49.94zM215.796 43.633l.91.52-.93.49-.52.91-.49-.93-.91-.52.93-.49.52-.91.49.93zM179.516 42.042l.92.52-.94.49-.52.91-.49-.93-.91-.52.93-.49.52-.92.49.94zM184.926 12.723l1.8 1.03-1.84.96-1.02 1.8-.97-1.83-1.8-1.03 1.84-.97 1.03-1.8.96 1.84z" fill="#403D85"/><path d="M240.1 91.836c.48 0 .48.75 0 .75-.49 0-.49-.75 0-.75zM229.01 82.828c.48 0 .48.75 0 .75s-.48-.75 0-.75zM251.88 78.438c.48 0 .48.75 0 .75s-.48-.75 0-.75zM240.79 78.898c.48 0 .48.75 0 .75s-.48-.75 0-.75z" fill="#403D85"/><path fill-rule="evenodd" clip-rule="evenodd" d="M231.55 92.437l.91-.52-.93-.48-.52-.92-.49.93-.91.53.93.48.52.92.49-.94zM242.26 73.708l.92-.52-.94-.49-.52-.91-.49.93-.91.52.93.49.52.92.49-.94zM247.67 103.027l1.8-1.03-1.84-.96-1.02-1.8-.97 1.83-1.8 1.03 1.84.97 1.03 1.8.96-1.84z" fill="#403D85"/><path d="M26.088 98.031c.48 0 .48-.75 0-.75-.49 0-.49.75 0 .75zM14.998 107.039c.48 0 .48-.75 0-.75s-.48.75 0 .75zM37.868 111.43c.48 0 .48-.75 0-.75s-.48.75 0 .75zM26.778 110.969c.48 0 .48-.75 0-.75s-.48.75 0 .75z" fill="#403D85"/><path fill-rule="evenodd" clip-rule="evenodd" d="M17.538 97.43l.91.52-.93.48-.52.92-.49-.93-.91-.53.93-.48.52-.92.49.94zM28.248 116.159l.92.52-.94.49-.52.91-.49-.93-.91-.52.93-.49.52-.92.49.94zM33.658 86.84l1.8 1.03-1.84.96-1.02 1.8-.97-1.83-1.8-1.03 1.84-.97 1.03-1.8.96 1.84z" fill="#403D85"/><path d="M98.05 147.129c.48 0 .48-.75 0-.75-.49 0-.49.75 0 .75zM86.96 156.141c.48 0 .48-.75 0-.75s-.48.75 0 .75zM109.83 160.529c.48 0 .48-.75 0-.75s-.48.75 0 .75zM98.74 160.07c.48 0 .48-.75 0-.75s-.48.75 0 .75zM129.471 171.619c.48 0 .48-.75 0-.75-.49 0-.49.75 0 .75zM129.231 161.689c.48 0 .48-.75 0-.75s-.48.75 0 .75zM120.221 156.6c.48 0 .48-.75 0-.75s-.48.75 0 .75zM139.171 175.551c.48 0 .48-.75 0-.75s-.49.75 0 .75z" fill="#403D85"/><path fill-rule="evenodd" clip-rule="evenodd" d="M89.5 146.53l.91.52-.93.48-.52.92-.49-.93-.91-.53.93-.48.52-.92.49.94zM136.491 166.85l.91.52-.93.49-.52.91-.49-.93-.91-.52.93-.49.52-.91.49.93zM100.211 165.26l.92.52-.94.49-.52.91-.49-.93-.91-.52.93-.49.52-.92.49.94zM59.468 150.84l1.8 1.03-1.84.96-1.02 1.8-.97-1.83-1.8-1.03 1.84-.97 1.03-1.8.96 1.84z" fill="#403D85"/><path d="M50.05 33.54c.48 0 .48-.75 0-.75-.49 0-.49.75 0 .75zM38.96 42.55c.48 0 .48-.75 0-.75s-.48.75 0 .75zM61.83 46.94c.48 0 .48-.75 0-.75s-.48.75 0 .75zM50.74 46.48c.48 0 .48-.75 0-.75s-.48.75 0 .75zM81.47 58.03c.48 0 .48-.75 0-.75-.49 0-.49.75 0 .75zM81.23 48.1c.48 0 .48-.75 0-.75s-.48.75 0 .75zM72.22 43.01c.48 0 .48-.75 0-.75s-.48.75 0 .75zM91.17 61.96c.48 0 .48-.75 0-.75s-.49.75 0 .75z" fill="#403D85"/><path fill-rule="evenodd" clip-rule="evenodd" d="M41.5 32.94l.91.52-.93.48-.52.92-.49-.93-.91-.53.93-.48.52-.92.49.94zM88.49 53.26l.91.52-.93.49-.52.91-.49-.93-.91-.52.93-.49.52-.91.49.93zM52.21 51.67l.92.52-.94.49-.52.91-.49-.93-.91-.52.93-.49.52-.92.49.94z" fill="#403D85"/><circle cx="222.47" cy="32.532" r="1.487" fill="url(#paint0_linear)" fill-opacity=".05"/><circle cx="134.092" cy="35.507" r="1.487" fill="url(#paint1_linear)" fill-opacity=".05"/><circle cx="183.263" cy="159.487" r="1.487" fill="url(#paint2_linear)" fill-opacity=".05"/><circle cx="231.624" cy="145.202" r="1.487" fill="url(#paint3_linear)" fill-opacity=".05"/><circle cx="236.404" cy="53.819" r="1.487" fill="url(#paint4_linear)" fill-opacity=".05"/><circle cx="43.125" cy="140.487" r="1.487" fill="url(#paint5_linear)" fill-opacity=".05"/><circle cx="20.125" cy="67.487" r="1.487" fill="url(#paint6_linear)" fill-opacity=".05"/><circle cx="142.386" cy="163.495" r="1.487" fill="url(#paint7_linear)" fill-opacity=".05"/><circle opacity=".8" cx="111.991" cy="49.081" r="1.487" fill="#403D85"/><circle opacity=".8" cx="70.642" cy="131.352" r="1.487" fill="#403D85"/><circle opacity=".8" cx="180.381" cy="143.716" r="1.487" fill="#403D85"/><circle opacity=".8" cx="230.137" cy="120.003" r="1.487" fill="#403D85"/><circle opacity=".8" cx="109.324" cy="167.686" r=".686" fill="#403D85"/><circle opacity=".8" cx="241.996" cy="65.511" r=".686" fill="#403D85"/><circle opacity=".8" cx="87.287" cy="23.655" r=".686" fill="#403D85"/><circle opacity=".8" cx="184.627" cy="74.809" r=".686" fill="#403D85"/><circle opacity=".8" cx="64.298" cy="104.868" r=".686" fill="#403D85"/><circle opacity=".8" cx="166.324" cy="168.163" r=".686" fill="#403D85"/><path d="M178.296 71.126c-4.482-5.508-10.569-9.859-18.261-13.052-7.692-3.192-16.095-4.789-25.207-4.789-6.797 0-13.295.943-19.493 2.829-6.199 1.885-11.539 4.434-16.02 7.646-4.483 3.211-8.048 7.03-10.7 11.454-2.652 4.425-3.977 9.066-3.977 13.92 0 5.602 1.689 10.85 5.069 15.742 3.38 4.891 8 9 13.864 12.323a35.613 35.613 0 01-1.457 4.256c-.56 1.345-1.064 2.448-1.512 3.306-.449.859-1.055 1.812-1.821 2.857-.765 1.046-1.344 1.784-1.736 2.212-.392.43-1.036 1.141-1.933 2.129-.896.99-1.475 1.634-1.736 1.933-.038.018-.187.187-.448.504l-.392.475-.337.504c-.186.281-.27.458-.252.531.019.073-.019.261-.112.559-.093.3-.084.524.028.674v.056c.15.672.477 1.213.98 1.624.504.41 1.075.578 1.71.502 2.427-.298 4.555-.707 6.385-1.231 9.784-2.503 18.373-7.02 25.767-13.556 2.8.298 5.508.448 8.122.448 9.112 0 17.514-1.597 25.207-4.791 7.692-3.192 13.779-7.543 18.26-13.05 4.482-5.506 6.722-11.51 6.722-18.007.001-6.498-2.24-12.501-6.72-18.008z" fill="url(#paint8_linear)"/><path fill-rule="evenodd" clip-rule="evenodd" d="M110.638 77a1 1 0 011-1h23a1 1 0 010 2h-23a1 1 0 01-1-1zM110.638 85a1 1 0 011-1h47a1 1 0 010 2h-47a1 1 0 01-1-1zM110.638 101a1 1 0 011-1h47a1 1 0 010 2h-47a1 1 0 01-1-1zM110.638 93a1 1 0 011-1h47a1 1 0 010 2h-47a1 1 0 01-1-1z" fill="#fff" fill-opacity=".67"/><defs><linearGradient id="paint0_linear" x1="222.47" y1="34.019" x2="222.47" y2="31.045" gradientUnits="userSpaceOnUse"><stop offset="0" stop-color="#6050B0"/><stop offset="1" stop-color="#351C75"/></linearGradient><linearGradient id="paint1_linear" x1="134.092" y1="36.993" x2="134.092" y2="34.02" gradientUnits="userSpaceOnUse"><stop offset="0" stop-color="#6050B0"/><stop offset="1" stop-color="#351C75"/></linearGradient><linearGradient id="paint2_linear" x1="183.263" y1="160.974" x2="183.263" y2="158" gradientUnits="userSpaceOnUse"><stop offset="0" stop-color="#6050B0"/><stop offset="1" stop-color="#351C75"/></linearGradient><linearGradient id="paint3_linear" x1="231.624" y1="146.689" x2="231.624" y2="143.715" gradientUnits="userSpaceOnUse"><stop offset="0" stop-color="#6050B0"/><stop offset="1" stop-color="#351C75"/></linearGradient><linearGradient id="paint4_linear" x1="236.404" y1="55.306" x2="236.404" y2="52.332" gradientUnits="userSpaceOnUse"><stop offset="0" stop-color="#6050B0"/><stop offset="1" stop-color="#351C75"/></linearGradient><linearGradient id="paint5_linear" x1="43.125" y1="141.974" x2="43.125" y2="139" gradientUnits="userSpaceOnUse"><stop offset="0" stop-color="#6050B0"/><stop offset="1" stop-color="#351C75"/></linearGradient><linearGradient id="paint6_linear" x1="20.125" y1="68.974" x2="20.125" y2="66" gradientUnits="userSpaceOnUse"><stop offset="0" stop-color="#6050B0"/><stop offset="1" stop-color="#351C75"/></linearGradient><linearGradient id="paint7_linear" x1="142.386" y1="164.982" x2="142.386" y2="162.008" gradientUnits="userSpaceOnUse"><stop offset="0" stop-color="#6050B0"/><stop offset="1" stop-color="#351C75"/></linearGradient><linearGradient id="paint8_linear" x1="213.138" y1="40.499" x2="71.138" y2="155.499" gradientUnits="userSpaceOnUse"><stop offset="0" stop-color="#1E1B6D"/><stop offset="1" stop-color="#373582"/></linearGradient></defs></svg>