<svg width="180" height="180" fill="none" xmlns="http://www.w3.org/2000/svg"><path fill-rule="evenodd" clip-rule="evenodd" d="M180 89.97c0 49.544-40.295 89.707-90 89.707S0 139.514 0 89.97 40.295.264 90 .264s90 40.162 90 89.706z" fill="#15134A"/><path d="M151.835 102.258c.48 0 .48.75 0 .75-.49 0-.49-.75 0-.75zM140.745 93.246c.48 0 .48.75 0 .75s-.48-.75 0-.75zM163.615 88.857c.48 0 .48.75 0 .75s-.48-.75 0-.75zM152.525 89.316c.48 0 .48.75 0 .75s-.48-.75 0-.75zM174.005 92.787c.48 0 .48.75 0 .75s-.48-.75 0-.75z" fill="#403D85"/><path fill-rule="evenodd" clip-rule="evenodd" d="M153.995 84.126l.92-.52-.94-.49-.52-.91-.49.93-.91.52.93.49.52.92.49-.94zM159.405 113.447l1.8-1.03-1.84-.96-1.02-1.8-.97 1.83-1.8 1.03 1.84.97 1.03 1.8.96-1.84z" fill="#403D85"/><path d="M49.723 52.227c.48 0 .48-.75 0-.75-.49 0-.49.75 0 .75zM27.784 58.584c.48 0 .48-.75 0-.75s-.48.75 0 .75zM61.503 65.627c.48 0 .48-.75 0-.75s-.48.75 0 .75zM50.413 65.168c.48 0 .48-.75 0-.75s-.48.75 0 .75zM81.143 76.717c.48 0 .48-.75 0-.75-.49 0-.49.75 0 .75zM80.903 66.787c.48 0 .48-.75 0-.75s-.48.75 0 .75zM71.893 61.697c.48 0 .48-.75 0-.75s-.48.75 0 .75zM90.843 80.648c.48 0 .48-.75 0-.75s-.49.75 0 .75z" fill="#403D85"/><path fill-rule="evenodd" clip-rule="evenodd" d="M41.173 51.627l.91.52-.93.48-.52.92-.49-.93-.91-.53.93-.48.52-.92.49.94zM127.993 77.647l.91.52-.93.49-.52.91-.49-.93-.91-.52.93-.49.52-.91.49.93zM13.407 73.092l1.8 1.03-1.84.96-1.02 1.8-.97-1.83-1.8-1.03 1.84-.97 1.03-1.8.96 1.84z" fill="#403D85"/><path d="M89.554 32.613c.48 0 .48-.75 0-.75-.49 0-.49.75 0 .75zM78.464 41.621c.48 0 .48-.75 0-.75s-.48.75 0 .75zM101.334 46.012c.48 0 .48-.75 0-.75s-.48.75 0 .75zM90.244 45.55c.48 0 .48-.75 0-.75s-.48.75 0 .75zM120.974 57.102c.48 0 .48-.75 0-.75-.49 0-.49.75 0 .75zM120.734 47.172c.48 0 .48-.75 0-.75s-.48.75 0 .75zM111.724 42.082c.48 0 .48-.75 0-.75s-.48.75 0 .75zM130.674 61.031c.48 0 .48-.75 0-.75s-.49.75 0 .75z" fill="#403D85"/><path fill-rule="evenodd" clip-rule="evenodd" d="M81.004 32.012l.91.52-.93.48-.52.92-.49-.93-.91-.53.93-.48.52-.92.49.94zM13.66 99.5l.91.521-.93.48-.52.92-.49-.93-.91-.53.93-.48.52-.92.49.94zM127.994 52.332l.91.52-.93.49-.52.91-.49-.93-.91-.52.93-.49.52-.91.49.93zM91.714 50.74l.92.52-.94.49-.52.91-.49-.93-.91-.52.93-.49.52-.92.49.94zM97.124 21.422l1.8 1.03-1.84.96-1.02 1.8-.97-1.83-1.8-1.03 1.84-.97 1.03-1.8.96 1.84z" fill="#403D85"/><path d="M107.579 89.566c.48 0 .48-.75 0-.75-.49 0-.49.75 0 .75z" fill="#403D85"/><path d="M85.64 95.924c.48 0 .48-.75 0-.75s-.48.75 0 .75z" fill="#fff"/><path d="M119.359 102.965c.48 0 .48-.75 0-.75s-.48.75 0 .75zM108.269 102.506c.48 0 .48-.75 0-.75s-.48.75 0 .75zM138.999 114.055c.48 0 .48-.75 0-.75-.49 0-.49.75 0 .75zM138.759 104.125c.48 0 .48-.75 0-.75s-.48.75 0 .75zM129.749 99.035c.48 0 .48-.75 0-.75s-.48.75 0 .75zM148.699 117.986c.48 0 .48-.75 0-.75s-.49.75 0 .75z" fill="#403D85"/><path fill-rule="evenodd" clip-rule="evenodd" d="M94.029 88.965l.91.52-.93.48-.52.92-.49-.93-.91-.53.93-.48.52-.92.49.94zM146.019 109.285l.91.52-.93.49-.52.91-.49-.93-.91-.52.93-.49.52-.91.49.93z" fill="#403D85"/><path fill-rule="evenodd" clip-rule="evenodd" d="M78.937 103.26l1.8 1.03-1.84.96-1.02 1.8-.97-1.83-1.8-1.03 1.84-.97 1.03-1.8.96 1.84z" fill="#fff"/><path d="M13.8 124.199c.48 0 .48-.75 0-.75s-.48.75 0 .75zM27.44 132.289c.48 0 .48-.75 0-.75-.49 0-.49.75 0 .75zM27.2 122.359c.48 0 .48-.75 0-.75s-.48.75 0 .75zM37.14 136.221c.48 0 .48-.75 0-.75s-.49.75 0 .75z" fill="#403D85"/><path fill-rule="evenodd" clip-rule="evenodd" d="M34.46 127.52l.91.52-.93.49-.52.91-.49-.93-.91-.52.93-.49.52-.91.49.93z" fill="#403D85"/><circle cx="41.021" cy="33.35" r="1.487" fill="#403D85"/><circle cx="130.108" cy="131.526" r="1.487" fill="#403D85"/><circle opacity=".8" cx="61.968" cy="19.6" r="1.487" fill="#403D85"/><circle opacity=".8" cx="87.216" cy="8.276" r=".686" fill="#403D85"/><path fill="url(#paint0_linear)" d="M60.889 114.164h18.578v24.593H60.889z"/><path d="M33.727 62.443c-7.44 15.755 4.801 40.137 28.826 56.139 24.025 16.002 51.241 17.901 62.912 4.964L33.727 62.443z" fill="url(#paint1_linear)"/><path d="M42.509 141.83a3.074 3.074 0 013.074-3.074h49.19a3.074 3.074 0 013.073 3.074v4.612H42.51v-4.612z" fill="#211E70"/><path stroke="#373389" stroke-width="1.537" d="M97.948 65.152l-40.496 13.66M98.214 65.33l3.003 42.63M98.342 64.85L78.743 94.275"/><rect x="34.679" y="59.219" width="112.212" height="4.749" rx="2.375" transform="rotate(33.666 34.68 59.219)" fill="#1E1B68"/><circle cx="98.123" cy="64.424" r="4.5" fill="#373389"/><path fill-rule="evenodd" clip-rule="evenodd" d="M159.933 146.441c-16.501 20.277-41.699 33.236-69.933 33.236-28.235 0-53.432-12.959-69.933-33.236h139.866z" fill="#0A0923" fill-opacity=".3"/><path fill-rule="evenodd" clip-rule="evenodd" d="M164.208 61.42h-40.653a5.659 5.659 0 01-5.664-5.654V15.172a5.659 5.659 0 015.664-5.654h40.653a5.66 5.66 0 015.666 5.654v40.594a5.66 5.66 0 01-5.666 5.654z" fill="url(#paint2_linear)"/><g clip-path="url(#clip0)" fill="#fff"><path d="M154.401 23.87h-21.179a3.81 3.81 0 00-3.811 3.797V43.5a3.81 3.81 0 003.811 3.798h21.179a3.808 3.808 0 003.81-3.798V27.667a3.808 3.808 0 00-3.81-3.798zm1.484 19.63c0 .815-.666 1.479-1.484 1.479h-21.179a1.483 1.483 0 01-1.484-1.48V27.668c0-.815.666-1.479 1.484-1.479h21.179c.818 0 1.484.664 1.484 1.48V43.5z"/><path d="M158.001 27.003a1.166 1.166 0 00-1.62-.285l-12.57 8.77-12.569-8.77a1.165 1.165 0 00-1.62.285 1.156 1.156 0 00.286 1.614l13.236 9.236a1.164 1.164 0 001.334 0l13.237-9.236c.526-.367.654-1.09.286-1.614z"/></g><defs><linearGradient id="paint0_linear" x1="70.178" y1="138.757" x2="70.178" y2="114.164" gradientUnits="userSpaceOnUse"><stop offset="0" stop-color="#1E1B6D"/><stop offset="1" stop-color="#15154E"/></linearGradient><linearGradient id="paint1_linear" x1="62.554" y1="118.582" x2="79.596" y2="92.995" gradientUnits="userSpaceOnUse"><stop offset="0" stop-color="#1E1B6D"/><stop offset="1" stop-color="#15154E"/></linearGradient><linearGradient id="paint2_linear" x1="74" y1="100" x2="170" y2="16" gradientUnits="userSpaceOnUse"><stop stop-color="#E9507D"/><stop offset="1" stop-color="#9B32A5"/></linearGradient><clipPath id="clip0"><path fill="#fff" transform="translate(129.411 21.23)" d="M0 0h28.8v28.706H0z"/></clipPath></defs></svg>