<svg width="181" height="180" fill="none" xmlns="http://www.w3.org/2000/svg"><circle cx="90.512" cy="90" r="90" fill="#FF6D6D" fill-opacity=".2"/><circle cx="90.515" cy="89.998" r="44.855" fill="url(#paint0_linear)"/><path d="M106.416 74.092h0a1.693 1.693 0 00-2.394 0l-29.415 29.415a1.692 1.692 0 102.394 2.393l29.415-29.415a1.692 1.692 0 000-2.393z" fill="#fff" stroke="#fff" stroke-width=".8"/><path d="M106.416 103.507h0a1.692 1.692 0 010 2.393h0a1.689 1.689 0 01-2.394 0s0 0 0 0L74.607 76.485a1.692 1.692 0 010-2.393s0 0 0 0m31.809 29.415L76.718 74.375a1.293 1.293 0 00-1.828 0l-.282-.283m31.808 29.415L77.001 74.092l29.415 29.415zM74.608 74.092a1.693 1.693 0 012.393 0h-2.394z" fill="#fff" stroke="#fff" stroke-width=".8"/><defs><linearGradient id="paint0_linear" x1="11.596" y1="242.075" x2="118.095" y2="59.815" gradientUnits="userSpaceOnUse"><stop stop-color="#CF5050"/><stop offset="1" stop-color="#FF6D6D"/></linearGradient></defs></svg>