<svg width="181" height="181" fill="none" xmlns="http://www.w3.org/2000/svg"><circle cx="90.512" cy="90.5" r="90" fill="#9B32A5" fill-opacity=".2"/><circle cx="90.509" cy="90.498" r="44.855" fill="url(#paint0_linear)"/><g clip-path="url(#clip0)" fill="#fff"><path d="M105.824 73.5h-30.63a5.518 5.518 0 00-5.512 5.511v22.974a5.517 5.517 0 005.511 5.511h30.631a5.517 5.517 0 005.512-5.511V79.011a5.518 5.518 0 00-5.512-5.511zm2.147 28.485a2.149 2.149 0 01-2.147 2.146h-30.63a2.149 2.149 0 01-2.147-2.146V79.011c0-1.183.963-2.146 2.146-2.146h30.631c1.184 0 2.147.963 2.147 2.147v22.973z"/><path d="M111.032 78.048a1.683 1.683 0 00-2.344-.413L90.508 90.36 72.33 77.634a1.683 1.683 0 10-1.93 2.757l19.145 13.401a1.68 1.68 0 001.93 0l19.144-13.4a1.682 1.682 0 00.414-2.344z"/></g><defs><linearGradient id="paint0_linear" x1="-30.09" y1="202.034" x2="135.804" y2="57.102" gradientUnits="userSpaceOnUse"><stop stop-color="#E9507D"/><stop offset="1" stop-color="#9B32A5"/></linearGradient><clipPath id="clip0"><path fill="#fff" transform="translate(69.682 69.672)" d="M0 0h41.655v41.655H0z"/></clipPath></defs></svg>