<svg width="1534" height="942" fill="none" xmlns="http://www.w3.org/2000/svg"><path fill="url(#paint0_linear)" d="M0 0h1534v942H0z"/><path d="M1286.31 72.823c1.14 0 1.14-1.782 0-1.782-1.16 0-1.16 1.782 0 1.782zM1259.96 94.23c1.15 0 1.15-1.783 0-1.783-1.14 0-1.14 1.782 0 1.782zM1314.3 104.659c1.14 0 1.14-1.782 0-1.782s-1.14 1.782 0 1.782zM1287.95 103.565c1.14 0 1.14-1.782 0-1.782s-1.14 1.782 0 1.782zM1360.96 131.007c1.15 0 1.15-1.782 0-1.782-1.16 0-1.16 1.782 0 1.782zM1360.39 107.415c1.15 0 1.15-1.782 0-1.782-1.14 0-1.14 1.782 0 1.782zM1338.99 95.321c1.14 0 1.14-1.782 0-1.782s-1.14 1.782 0 1.782zM1384.01 140.346c1.14 0 1.14-1.782 0-1.782s-1.16 1.782 0 1.782z" fill="#403D85"/><path fill-rule="evenodd" clip-rule="evenodd" d="M1266 71.397l2.16 1.236-2.21 1.14-1.23 2.186-1.17-2.21-2.16-1.259 2.21-1.14 1.24-2.186 1.16 2.233zM1377.64 119.676l2.17 1.236-2.21 1.164-1.24 2.162-1.16-2.209-2.17-1.236 2.21-1.164 1.24-2.162 1.16 2.209zM1291.45 115.895l2.18 1.236-2.23 1.164-1.24 2.162-1.16-2.209-2.16-1.236 2.21-1.164 1.23-2.186 1.17 2.233zM1304.3 46.235l4.28 2.447-4.38 2.281-2.42 4.277-2.3-4.348-4.28-2.447 4.37-2.305 2.45-4.277 2.28 4.372z" fill="#403D85"/><path d="M1435.39 234.208c1.14 0 1.14 1.782 0 1.782-1.17 0-1.17-1.782 0-1.782zM1409.04 212.802c1.14 0 1.14 1.782 0 1.782s-1.14-1.782 0-1.782zM1463.38 202.372c1.14 0 1.14 1.782 0 1.782s-1.14-1.782 0-1.782zM1437.03 203.466c1.14 0 1.14 1.782 0 1.782s-1.14-1.782 0-1.782zM1510.04 176.025c1.14 0 1.14 1.782 0 1.782-1.16 0-1.16-1.782 0-1.782zM1509.47 199.616c1.14 0 1.14 1.782 0 1.782s-1.14-1.782 0-1.782zM1488.06 211.71c1.14 0 1.14 1.782 0 1.782s-1.14-1.782 0-1.782zM1533.09 166.685c1.14 0 1.14 1.782 0 1.782s-1.17-1.782 0-1.782z" fill="#403D85"/><path fill-rule="evenodd" clip-rule="evenodd" d="M1415.08 235.634l2.16-1.236-2.21-1.14-1.24-2.186-1.16 2.21-2.16 1.259 2.21 1.14 1.23 2.186 1.17-2.233zM1526.72 187.355l2.16-1.236-2.21-1.164-1.23-2.162-1.17 2.21-2.16 1.235 2.21 1.164 1.24 2.162 1.16-2.209zM1440.52 191.136l2.19-1.236-2.24-1.164-1.23-2.162-1.17 2.21-2.16 1.235 2.21 1.164 1.24 2.186 1.16-2.233zM1453.37 260.796l4.28-2.447-4.37-2.281-2.42-4.276-2.31 4.347-4.28 2.448 4.38 2.304 2.44 4.277 2.28-4.372z" fill="#403D85"/><path d="M1284.59 355.52c1.14 0 1.14-1.782 0-1.782-1.16 0-1.16 1.782 0 1.782zM1258.24 376.926c1.14 0 1.14-1.781 0-1.781s-1.14 1.781 0 1.781zM1312.58 387.356c1.14 0 1.14-1.782 0-1.782s-1.14 1.782 0 1.782zM1286.23 386.262c1.14 0 1.14-1.782 0-1.782s-1.14 1.782 0 1.782zM1359.24 413.704c1.14 0 1.14-1.782 0-1.782-1.16 0-1.16 1.782 0 1.782zM1358.67 390.112c1.14 0 1.14-1.782 0-1.782s-1.14 1.782 0 1.782zM1337.27 378.018c1.14 0 1.14-1.782 0-1.782s-1.14 1.782 0 1.782zM1382.29 423.044c1.14 0 1.14-1.782 0-1.782s-1.16 1.782 0 1.782z" fill="#403D85"/><path fill-rule="evenodd" clip-rule="evenodd" d="M1264.28 354.095l2.16 1.235-2.21 1.141-1.23 2.185-1.17-2.209-2.16-1.259 2.21-1.141 1.23-2.186 1.17 2.234zM1375.92 402.374l2.17 1.235-2.21 1.164-1.24 2.162-1.16-2.209-2.17-1.236 2.21-1.164 1.24-2.162 1.16 2.21zM1289.73 398.593l2.18 1.235-2.23 1.164-1.24 2.163-1.16-2.21-2.16-1.236 2.21-1.164 1.23-2.186 1.17 2.234zM1302.58 328.932l4.28 2.447-4.38 2.281-2.42 4.277-2.3-4.348-4.28-2.447 4.37-2.305 2.45-4.276 2.28 4.371z" fill="#403D85"/><path d="M1068.14 161.967c1.14 0 1.14-1.781 0-1.781-1.17 0-1.17 1.781 0 1.781zM1041.79 183.374c1.14 0 1.14-1.782 0-1.782s-1.14 1.782 0 1.782zM1096.13 193.803c1.14 0 1.14-1.782 0-1.782s-1.14 1.782 0 1.782zM1069.78 192.712c1.14 0 1.14-1.782 0-1.782s-1.14 1.782 0 1.782zM1142.79 220.153c1.14 0 1.14-1.782 0-1.782-1.17 0-1.17 1.782 0 1.782zM1142.22 196.559c1.14 0 1.14-1.782 0-1.782s-1.14 1.782 0 1.782zM1120.81 184.467c1.14 0 1.14-1.781 0-1.781s-1.14 1.781 0 1.781zM1165.84 229.491c1.14 0 1.14-1.782 0-1.782s-1.17 1.782 0 1.782z" fill="#403D85"/><path fill-rule="evenodd" clip-rule="evenodd" d="M1047.82 160.542l2.17 1.235-2.21 1.141-1.24 2.186-1.16-2.21-2.17-1.259 2.21-1.141 1.24-2.185 1.16 2.233zM1159.47 208.821l2.16 1.235-2.21 1.165-1.23 2.162-1.17-2.21-2.16-1.235 2.21-1.165 1.23-2.162 1.17 2.21zM1073.27 205.042l2.19 1.235-2.24 1.165-1.23 2.162-1.17-2.21-2.16-1.235 2.21-1.165 1.24-2.185 1.16 2.233z" fill="#403D85"/><circle opacity=".8" cx="1221.87" cy="37.824" r="3.533" fill="#403D85"/><circle opacity=".8" cx="1114.52" cy="120.636" r="1.796" fill="#403D85"/><circle opacity=".8" cx="1012.53" cy="173.56" r="3.533" fill="#403D85"/><circle opacity=".8" cx="1288.33" cy="17.641" r="1.631" fill="#403D85"/><path d="M284.629 72.823c-1.141 0-1.141-1.782 0-1.782 1.164 0 1.164 1.782 0 1.782zM310.978 94.23c-1.141 0-1.141-1.783 0-1.783 1.14 0 1.14 1.782 0 1.782zM256.641 104.659c-1.141 0-1.141-1.782 0-1.782 1.14 0 1.14 1.782 0 1.782zM282.989 103.565c-1.14 0-1.14-1.782 0-1.782 1.141 0 1.141 1.782 0 1.782zM209.977 131.007c-1.14 0-1.14-1.782 0-1.782 1.165 0 1.165 1.782 0 1.782zM210.547 107.415c-1.14 0-1.14-1.782 0-1.782 1.141 0 1.141 1.782 0 1.782zM231.954 95.321c-1.14 0-1.14-1.782 0-1.782 1.141 0 1.141 1.782 0 1.782zM186.931 140.346c-1.141 0-1.141-1.782 0-1.782 1.14 0 1.164 1.782 0 1.782z" fill="#403D85"/><path fill-rule="evenodd" clip-rule="evenodd" d="M304.943 71.397l-2.162 1.236 2.209 1.14 1.236 2.186 1.164-2.21 2.162-1.259-2.209-1.14-1.236-2.186-1.164 2.233zM193.298 119.676l-2.162 1.236 2.21 1.164 1.235 2.162 1.165-2.209 2.162-1.236-2.21-1.164-1.235-2.162-1.165 2.209zM279.497 115.895l-2.186 1.236 2.233 1.164 1.236 2.162 1.164-2.209 2.162-1.236-2.21-1.164-1.235-2.186-1.164 2.233zM266.643 46.235l-4.277 2.447 4.372 2.281 2.423 4.277 2.305-4.348 4.277-2.447-4.372-2.305-2.447-4.277-2.281 4.372z" fill="#403D85"/><path d="M135.554 234.208c-1.141 0-1.141 1.782 0 1.782 1.164 0 1.164-1.782 0-1.782zM161.902 212.802c-1.14 0-1.14 1.782 0 1.782 1.141 0 1.141-1.782 0-1.782zM107.566 202.372c-1.141 0-1.141 1.782 0 1.782 1.14 0 1.14-1.782 0-1.782zM133.914 203.466c-1.14 0-1.14 1.782 0 1.782 1.141 0 1.141-1.782 0-1.782zM60.902 176.025c-1.14 0-1.14 1.782 0 1.782 1.164 0 1.164-1.782 0-1.782zM61.472 199.616c-1.14 0-1.14 1.782 0 1.782s1.14-1.782 0-1.782zM82.879 211.71c-1.14 0-1.14 1.782 0 1.782s1.14-1.782 0-1.782zM37.855 166.685c-1.14 0-1.14 1.782 0 1.782s1.165-1.782 0-1.782z" fill="#403D85"/><path fill-rule="evenodd" clip-rule="evenodd" d="M155.868 235.634l-2.162-1.236 2.209-1.14 1.236-2.186 1.164 2.21 2.162 1.259-2.21 1.14-1.235 2.186-1.164-2.233zM44.223 187.355l-2.162-1.236 2.21-1.164 1.235-2.162 1.164 2.21 2.163 1.235-2.21 1.164-1.236 2.162-1.164-2.209zM130.421 191.136l-2.185-1.236 2.233-1.164 1.235-2.162 1.165 2.21 2.162 1.235-2.21 1.164-1.235 2.186-1.165-2.233zM117.568 260.796l-4.277-2.447 4.372-2.281 2.423-4.276 2.305 4.347 4.276 2.448-4.371 2.304-2.447 4.277-2.281-4.372z" fill="#403D85"/><path d="M286.35 355.52c-1.141 0-1.141-1.782 0-1.782 1.164 0 1.164 1.782 0 1.782zM312.698 376.926c-1.14 0-1.14-1.781 0-1.781 1.141 0 1.141 1.781 0 1.781zM258.361 387.356c-1.14 0-1.14-1.782 0-1.782 1.141 0 1.141 1.782 0 1.782zM284.71 386.262c-1.14 0-1.14-1.782 0-1.782 1.141 0 1.141 1.782 0 1.782zM211.698 413.704c-1.14 0-1.14-1.782 0-1.782 1.164 0 1.164 1.782 0 1.782zM212.268 390.112c-1.14 0-1.14-1.782 0-1.782 1.141 0 1.141 1.782 0 1.782zM233.675 378.018c-1.141 0-1.141-1.782 0-1.782 1.14 0 1.14 1.782 0 1.782zM188.651 423.044c-1.14 0-1.14-1.782 0-1.782 1.141 0 1.165 1.782 0 1.782z" fill="#403D85"/><path fill-rule="evenodd" clip-rule="evenodd" d="M306.664 354.095l-2.162 1.235 2.209 1.141 1.236 2.185 1.164-2.209 2.162-1.259-2.21-1.141-1.235-2.186-1.164 2.234zM195.019 402.374l-2.162 1.235 2.21 1.164 1.235 2.162 1.164-2.209 2.162-1.236-2.209-1.164-1.236-2.162-1.164 2.21zM281.217 398.593l-2.185 1.235 2.233 1.164 1.235 2.163 1.165-2.21 2.162-1.236-2.21-1.164-1.235-2.186-1.165 2.234zM268.364 328.932l-4.277 2.447 4.372 2.281 2.423 4.277 2.305-4.348 4.276-2.447-4.371-2.305-2.448-4.276-2.28 4.371z" fill="#403D85"/><path d="M502.805 161.967c-1.141 0-1.141-1.781 0-1.781 1.164 0 1.164 1.781 0 1.781zM529.153 183.374c-1.14 0-1.14-1.782 0-1.782 1.141 0 1.141 1.782 0 1.782zM474.817 193.803c-1.141 0-1.141-1.782 0-1.782 1.14 0 1.14 1.782 0 1.782zM501.165 192.712c-1.14 0-1.14-1.782 0-1.782 1.141 0 1.141 1.782 0 1.782zM428.153 220.153c-1.14 0-1.14-1.782 0-1.782 1.164 0 1.164 1.782 0 1.782zM428.723 196.559c-1.14 0-1.14-1.782 0-1.782 1.141 0 1.141 1.782 0 1.782zM450.13 184.467c-1.14 0-1.14-1.781 0-1.781s1.14 1.781 0 1.781zM405.106 229.491c-1.14 0-1.14-1.782 0-1.782 1.141 0 1.165 1.782 0 1.782z" fill="#403D85"/><path fill-rule="evenodd" clip-rule="evenodd" d="M523.119 160.542l-2.162 1.235 2.209 1.141 1.236 2.186 1.164-2.21 2.162-1.259-2.21-1.141-1.235-2.185-1.164 2.233zM411.474 208.821l-2.162 1.235 2.21 1.165 1.235 2.162 1.164-2.21 2.162-1.235-2.209-1.165-1.236-2.162-1.164 2.21zM497.672 205.042l-2.185 1.235 2.233 1.165 1.235 2.162 1.165-2.21 2.162-1.235-2.21-1.165-1.235-2.185-1.165 2.233z" fill="#403D85"/><circle opacity=".8" r="3.533" transform="matrix(-1 0 0 1 349.071 37.824)" fill="#403D85"/><circle opacity=".8" r="1.796" transform="matrix(-1 0 0 1 456.427 120.636)" fill="#403D85"/><circle opacity=".8" r="3.533" transform="matrix(-1 0 0 1 558.409 173.56)" fill="#403D85"/><circle opacity=".8" r="1.631" transform="matrix(-1 0 0 1 282.607 17.64)" fill="#403D85"/><path d="M1251.63 586.823c-1.14 0-1.14-1.782 0-1.782 1.16 0 1.16 1.782 0 1.782zM1277.98 608.229c-1.14 0-1.14-1.782 0-1.782s1.14 1.782 0 1.782zM1223.64 618.659c-1.14 0-1.14-1.782 0-1.782s1.14 1.782 0 1.782zM1249.99 617.565c-1.14 0-1.14-1.782 0-1.782s1.14 1.782 0 1.782zM1176.98 645.007c-1.14 0-1.14-1.782 0-1.782 1.16 0 1.16 1.782 0 1.782zM1177.55 621.415c-1.14 0-1.14-1.782 0-1.782s1.14 1.782 0 1.782zM1198.96 609.321c-1.15 0-1.15-1.782 0-1.782 1.14 0 1.14 1.782 0 1.782zM1153.93 654.346c-1.14 0-1.14-1.782 0-1.782s1.17 1.782 0 1.782z" fill="#403D85"/><path fill-rule="evenodd" clip-rule="evenodd" d="M1271.94 585.397l-2.16 1.236 2.21 1.14 1.24 2.186 1.16-2.209 2.16-1.26-2.21-1.14-1.23-2.186-1.17 2.233zM1160.3 633.676l-2.16 1.236 2.21 1.164 1.23 2.162 1.17-2.209 2.16-1.236-2.21-1.164-1.24-2.162-1.16 2.209zM1246.5 629.895l-2.19 1.236 2.24 1.164 1.23 2.162 1.16-2.209 2.17-1.236-2.21-1.164-1.24-2.186-1.16 2.233zM1233.64 560.235l-4.27 2.447 4.37 2.281 2.42 4.277 2.31-4.348 4.27-2.447-4.37-2.305-2.45-4.277-2.28 4.372z" fill="#403D85"/><path d="M1102.55 748.208c-1.14 0-1.14 1.782 0 1.782 1.17 0 1.17-1.782 0-1.782zM1128.9 726.802c-1.14 0-1.14 1.782 0 1.782s1.14-1.782 0-1.782zM1074.57 716.372c-1.14 0-1.14 1.782 0 1.782s1.14-1.782 0-1.782zM1100.92 717.466c-1.15 0-1.15 1.782 0 1.782 1.14 0 1.14-1.782 0-1.782zM1027.9 690.025c-1.14 0-1.14 1.782 0 1.782 1.17 0 1.17-1.782 0-1.782zM1028.47 713.616c-1.14 0-1.14 1.782 0 1.782s1.14-1.782 0-1.782zM1049.88 725.71c-1.14 0-1.14 1.782 0 1.782s1.14-1.782 0-1.782zM1004.86 680.685c-1.14 0-1.14 1.782 0 1.782s1.16-1.782 0-1.782z" fill="#403D85"/><path fill-rule="evenodd" clip-rule="evenodd" d="M1122.87 749.634l-2.16-1.236 2.21-1.14 1.23-2.186 1.17 2.21 2.16 1.259-2.21 1.14-1.24 2.186-1.16-2.233zM1011.22 701.355l-2.16-1.236 2.21-1.164 1.24-2.162 1.16 2.21 2.16 1.235-2.21 1.164-1.23 2.162-1.17-2.209zM1097.42 705.136l-2.18-1.236 2.23-1.164 1.24-2.162 1.16 2.21 2.16 1.235-2.21 1.164-1.23 2.186-1.17-2.233zM1084.57 774.796l-4.28-2.447 4.37-2.281 2.43-4.276 2.3 4.347 4.28 2.448-4.37 2.304-2.45 4.277-2.28-4.372z" fill="#403D85"/><path d="M1253.35 869.52c-1.14 0-1.14-1.782 0-1.782 1.16 0 1.16 1.782 0 1.782zM1279.7 890.926c-1.14 0-1.14-1.781 0-1.781s1.14 1.781 0 1.781zM1225.36 901.356c-1.14 0-1.14-1.782 0-1.782s1.14 1.782 0 1.782zM1251.71 900.262c-1.14 0-1.14-1.782 0-1.782s1.14 1.782 0 1.782zM1178.7 927.704c-1.14 0-1.14-1.782 0-1.782 1.16 0 1.16 1.782 0 1.782zM1179.27 904.112c-1.14 0-1.14-1.782 0-1.782s1.14 1.782 0 1.782zM1200.68 892.018c-1.14 0-1.14-1.782 0-1.782s1.14 1.782 0 1.782zM1155.65 937.044c-1.14 0-1.14-1.782 0-1.782s1.17 1.782 0 1.782z" fill="#403D85"/><path fill-rule="evenodd" clip-rule="evenodd" d="M1273.66 868.095l-2.16 1.235 2.21 1.141 1.24 2.185 1.16-2.209 2.16-1.259-2.21-1.141-1.23-2.186-1.17 2.234zM1162.02 916.374l-2.16 1.235 2.21 1.164 1.23 2.162 1.17-2.209 2.16-1.236-2.21-1.164-1.24-2.162-1.16 2.21zM1248.22 912.593l-2.19 1.235 2.24 1.164 1.23 2.163 1.17-2.21 2.16-1.236-2.21-1.164-1.24-2.186-1.16 2.234zM1235.36 842.932l-4.27 2.447 4.37 2.281 2.42 4.277 2.31-4.348 4.27-2.447-4.37-2.305-2.44-4.276-2.29 4.371z" fill="#403D85"/><path d="M1469.81 675.967c-1.14 0-1.14-1.781 0-1.781 1.16 0 1.16 1.781 0 1.781zM1496.15 697.374c-1.14 0-1.14-1.782 0-1.782s1.14 1.782 0 1.782zM1441.82 707.803c-1.14 0-1.14-1.782 0-1.782s1.14 1.782 0 1.782zM1468.17 706.712c-1.14 0-1.14-1.782 0-1.782s1.14 1.782 0 1.782zM1395.15 734.153c-1.14 0-1.14-1.782 0-1.782 1.17 0 1.17 1.782 0 1.782zM1395.72 710.559c-1.14 0-1.14-1.782 0-1.782s1.14 1.782 0 1.782zM1417.13 698.467c-1.14 0-1.14-1.781 0-1.781s1.14 1.781 0 1.781zM1372.11 743.491c-1.14 0-1.14-1.782 0-1.782s1.16 1.782 0 1.782z" fill="#403D85"/><path fill-rule="evenodd" clip-rule="evenodd" d="M1490.12 674.542l-2.16 1.235 2.21 1.141 1.23 2.186 1.17-2.21 2.16-1.259-2.21-1.141-1.24-2.185-1.16 2.233zM1378.48 722.821l-2.17 1.235 2.21 1.165 1.24 2.162 1.16-2.21 2.16-1.235-2.21-1.165-1.23-2.162-1.16 2.21zM1464.67 719.042l-2.18 1.235 2.23 1.165 1.24 2.162 1.16-2.21 2.16-1.235-2.21-1.165-1.23-2.185-1.17 2.233z" fill="#403D85"/><circle opacity=".8" r="3.533" transform="matrix(-1 0 0 1 1316.07 551.824)" fill="#403D85"/><circle opacity=".8" r="1.796" transform="matrix(-1 0 0 1 1423.43 634.636)" fill="#403D85"/><circle opacity=".8" r="3.533" transform="matrix(-1 0 0 1 1525.41 687.56)" fill="#403D85"/><circle opacity=".8" r="1.631" transform="matrix(-1 0 0 1 1249.61 531.641)" fill="#403D85"/><path d="M525.22 640.639c0-1.141 1.781-1.141 1.781 0 0 1.164-1.781 1.164-1.781 0zM503.813 666.988c0-1.14 1.782-1.14 1.782 0 0 1.141-1.782 1.141-1.782 0zM493.384 612.651c0-1.141 1.782-1.141 1.782 0 0 1.14-1.782 1.14-1.782 0zM494.476 639c0-1.14 1.782-1.14 1.782 0 0 1.141-1.782 1.141-1.782 0zM467.035 565.988c0-1.14 1.782-1.14 1.782 0 0 1.164-1.782 1.164-1.782 0zM490.627 566.559c0-1.141 1.782-1.141 1.782 0 0 1.14-1.782 1.14-1.782 0zM502.72 587.965c0-1.14 1.782-1.14 1.782 0s-1.782 1.14-1.782 0zM457.696 542.94c0-1.14 1.782-1.14 1.782 0 0 1.141-1.782 1.165-1.782 0z" fill="#403D85"/><path fill-rule="evenodd" clip-rule="evenodd" d="M526.645 660.953l-1.235-2.162-1.141 2.21-2.186 1.235 2.21 1.164 1.259 2.162 1.141-2.209 2.185-1.236-2.233-1.164zM478.366 549.309l-1.235-2.162-1.165 2.209-2.162 1.236 2.21 1.164 1.235 2.162 1.165-2.21 2.162-1.235-2.21-1.164zM482.145 635.508l-1.235-2.186-1.165 2.233-2.162 1.236 2.21 1.164 1.235 2.162 1.165-2.209 2.185-1.236-2.233-1.164zM551.807 622.654l-2.448-4.277-2.281 4.372-4.276 2.424 4.348 2.304 2.447 4.277 2.305-4.372 4.276-2.447-4.371-2.281z" fill="#403D85"/><path d="M363.833 491.562c0-1.14-1.782-1.14-1.782 0 0 1.165 1.782 1.165 1.782 0zM385.239 517.912c0-1.14-1.781-1.14-1.781 0 0 1.141 1.781 1.141 1.781 0zM395.669 463.574c0-1.14-1.782-1.14-1.782 0 0 1.141 1.782 1.141 1.782 0zM394.576 489.924c0-1.14-1.782-1.14-1.782 0s1.782 1.14 1.782 0zM422.018 416.912c0-1.14-1.782-1.14-1.782 0 0 1.164 1.782 1.164 1.782 0zM398.425 417.483c0-1.141-1.781-1.141-1.781 0 0 1.14 1.781 1.14 1.781 0zM386.332 438.889c0-1.141-1.782-1.141-1.782 0 0 1.14 1.782 1.14 1.782 0zM431.357 393.864c0-1.14-1.782-1.14-1.782 0 0 1.141 1.782 1.164 1.782 0z" fill="#403D85"/><path fill-rule="evenodd" clip-rule="evenodd" d="M362.407 511.877l1.236-2.162 1.14 2.21 2.186 1.235-2.21 1.164-1.259 2.162-1.14-2.209-2.186-1.236 2.233-1.164zM410.686 400.233l1.236-2.163 1.164 2.21 2.162 1.235-2.21 1.165-1.235 2.162-1.164-2.21-2.162-1.235 2.209-1.164zM406.907 486.432l1.236-2.186 1.164 2.233 2.162 1.236-2.21 1.164-1.235 2.162-1.164-2.21-2.186-1.235 2.233-1.164zM337.246 473.578l2.447-4.277 2.281 4.372 4.276 2.423-4.347 2.305-2.448 4.277-2.304-4.372-4.277-2.447 4.372-2.281z" fill="#403D85"/><path d="M242.524 642.359c0-1.14 1.782-1.14 1.782 0 0 1.164-1.782 1.164-1.782 0zM221.117 668.709c0-1.14 1.782-1.14 1.782 0 0 1.141-1.782 1.141-1.782 0zM210.687 614.371c0-1.14 1.782-1.14 1.782 0 0 1.141-1.782 1.141-1.782 0zM211.781 640.721c0-1.141 1.782-1.141 1.782 0-.001 1.14-1.782 1.14-1.782 0zM184.339 567.709c0-1.141 1.782-1.141 1.782 0 0 1.164-1.782 1.164-1.782 0zM207.931 568.279c0-1.14 1.782-1.14 1.782 0 0 1.141-1.782 1.141-1.782 0zM220.024 589.686c0-1.141 1.782-1.141 1.782 0 0 1.14-1.782 1.14-1.782 0zM175 544.661c0-1.14 1.782-1.14 1.782 0 0 1.141-1.782 1.164-1.782 0z" fill="#403D85"/><path fill-rule="evenodd" clip-rule="evenodd" d="M243.949 662.674l-1.235-2.162-1.141 2.209-2.186 1.236 2.21 1.164 1.259 2.162 1.141-2.209 2.186-1.236-2.234-1.164zM195.67 551.029l-1.235-2.162-1.164 2.21-2.162 1.235 2.209 1.165 1.236 2.162 1.164-2.21 2.162-1.235-2.21-1.165zM199.449 637.229l-1.235-2.186-1.164 2.233-2.163 1.236 2.21 1.164 1.236 2.162 1.164-2.21 2.186-1.235-2.234-1.164zM269.111 624.375l-2.447-4.277-2.281 4.372-4.277 2.423 4.348 2.305 2.447 4.277 2.305-4.372 4.276-2.447-4.371-2.281z" fill="#403D85"/><path d="M436.076 858.814c0-1.14 1.782-1.14 1.782 0 0 1.165-1.782 1.165-1.782 0zM414.669 885.164c0-1.14 1.782-1.14 1.782 0 0 1.141-1.782 1.141-1.782 0zM404.24 830.826c0-1.14 1.782-1.14 1.782 0 0 1.141-1.782 1.141-1.782 0zM405.333 857.176c0-1.141 1.782-1.141 1.782 0 0 1.14-1.782 1.14-1.782 0zM377.891 784.164c0-1.14 1.782-1.14 1.782 0 0 1.164-1.782 1.164-1.782 0zM401.483 784.735c0-1.141 1.782-1.141 1.782 0 0 1.14-1.782 1.14-1.782 0zM413.576 806.141c0-1.141 1.782-1.141 1.782 0 0 1.14-1.782 1.14-1.782 0zM368.552 761.116c0-1.14 1.782-1.14 1.782 0 0 1.141-1.782 1.164-1.782 0z" fill="#403D85"/><path fill-rule="evenodd" clip-rule="evenodd" d="M437.501 879.129l-1.235-2.162-1.14 2.209-2.186 1.236 2.209 1.164 1.26 2.162 1.14-2.209 2.186-1.236-2.234-1.164zM389.223 767.484l-1.236-2.162-1.164 2.21-2.162 1.235 2.209 1.165 1.236 2.162 1.164-2.21 2.162-1.235-2.209-1.165zM393.001 853.684l-1.235-2.186-1.164 2.233-2.162 1.236 2.209 1.164 1.236 2.162 1.164-2.21 2.186-1.235-2.234-1.164z" fill="#403D85"/><circle opacity=".8" r="3.533" transform="matrix(0 -1 -1 0 560.218 705.082)" fill="#403D85"/><circle opacity=".8" r="1.796" transform="matrix(0 -1 -1 0 477.406 812.438)" fill="#403D85"/><circle opacity=".8" r="3.533" transform="matrix(0 -1 -1 0 424.482 914.42)" fill="#403D85"/><circle opacity=".8" r="1.631" transform="matrix(0 -1 -1 0 580.402 638.619)" fill="#403D85"/><path d="M56.628 755.823c-1.14 0-1.14-1.782 0-1.782 1.164 0 1.164 1.782 0 1.782zM82.978 777.229c-1.14 0-1.14-1.782 0-1.782s1.14 1.782 0 1.782zM28.64 787.659c-1.14 0-1.14-1.782 0-1.782s1.14 1.782 0 1.782zM54.989 786.565c-1.14 0-1.14-1.782 0-1.782s1.14 1.782 0 1.782z" fill="#403D85"/><path fill-rule="evenodd" clip-rule="evenodd" d="M76.943 754.397l-2.162 1.236 2.21 1.14 1.235 2.186 1.164-2.209 2.162-1.26-2.21-1.14-1.235-2.186-1.164 2.233zM51.497 798.895l-2.186 1.236 2.233 1.164 1.236 2.162 1.164-2.209 2.162-1.236-2.21-1.164-1.235-2.186-1.164 2.233zM38.643 729.235l-4.277 2.447 4.372 2.281 2.423 4.277 2.305-4.348 4.277-2.447-4.372-2.305-2.447-4.277-2.281 4.372z" fill="#403D85"/><path d="M274.805 844.967c-1.141 0-1.141-1.781 0-1.781 1.164 0 1.164 1.781 0 1.781zM301.153 866.374c-1.14 0-1.14-1.782 0-1.782 1.141 0 1.141 1.782 0 1.782zM246.817 876.803c-1.141 0-1.141-1.782 0-1.782 1.14 0 1.14 1.782 0 1.782zM273.165 875.712c-1.14 0-1.14-1.782 0-1.782 1.141 0 1.141 1.782 0 1.782zM200.153 903.153c-1.14 0-1.14-1.782 0-1.782 1.164 0 1.164 1.782 0 1.782zM200.723 879.559c-1.14 0-1.14-1.782 0-1.782 1.141 0 1.141 1.782 0 1.782zM222.13 867.467c-1.14 0-1.14-1.781 0-1.781s1.14 1.781 0 1.781zM177.106 912.491c-1.14 0-1.14-1.782 0-1.782 1.141 0 1.165 1.782 0 1.782z" fill="#403D85"/><path fill-rule="evenodd" clip-rule="evenodd" d="M295.119 843.542l-2.162 1.235 2.209 1.141 1.236 2.186 1.164-2.21 2.162-1.259-2.21-1.141-1.235-2.185-1.164 2.233zM183.474 891.821l-2.162 1.235 2.21 1.165 1.235 2.162 1.164-2.21 2.162-1.235-2.209-1.165-1.236-2.162-1.164 2.21zM269.672 888.042l-2.185 1.235 2.233 1.165 1.235 2.162 1.165-2.21 2.162-1.235-2.21-1.165-1.235-2.185-1.165 2.233z" fill="#403D85"/><circle opacity=".8" r="3.533" transform="matrix(-1 0 0 1 121.071 720.824)" fill="#403D85"/><circle opacity=".8" r="1.631" transform="matrix(-1 0 0 1 54.608 700.641)" fill="#403D85"/><defs><linearGradient id="paint0_linear" x1="767.008" y1="941.995" x2="767.008" y2="0" gradientUnits="userSpaceOnUse"><stop offset="0" stop-color="#373582"/><stop offset="1" stop-color="#1A185D"/></linearGradient></defs></svg>