<svg width="203" height="202" fill="none" xmlns="http://www.w3.org/2000/svg"><mask id="a" maskUnits="userSpaceOnUse" x="0" y="0" width="203" height="202"><path fill="#C4C4C4" d="M0 0h202.002v202H0z"/></mask><g mask="url(#a)"><circle cx="100.991" cy="100.988" r="100.991" fill="#131143"/><mask id="b" maskUnits="userSpaceOnUse" x="0" y="-1" width="202" height="203"><circle cx="100.991" cy="100.988" r="100.991" fill="#BFB9DF"/></mask><g mask="url(#b)"><circle cx="13.568" cy="188.689" r="98.003" fill="url(#paint0_linear)"/><circle cx="12.857" cy="188.817" r="98.004" fill="url(#paint1_linear)"/><path d="M12.856 188.817v98.004c-45.37 0-82.149-43.878-82.149-98.004 0-54.126 36.78-98.005 82.15-98.005v98.005z" fill="url(#paint2_linear)"/><path d="M12.856 286.822c33.456 0 60.578-43.878 60.578-98.004 0-54.126-27.122-98.005-60.578-98.005v196.009z" fill="#27247B" fill-opacity=".2"/></g><g clip-path="url(#clip0)"><mask id="c" maskUnits="userSpaceOnUse" x="-1" y="-1" width="204" height="204"><circle cx="101.185" cy="101.317" r="101.385" fill="#BFB9DF"/></mask><g mask="url(#c)"><path d="M83.86 86.297c-11.786 8.06-14.846 24.244-6.838 35.987 8.069 11.729 24.306 14.75 36.106 6.75L281.486 14.276 252.232-28.4 83.86 86.297z" fill="url(#paint3_linear)"/><path d="M88.962 96.016c-7.45 5.089-9.376 15.255-4.281 22.67 5.094 7.414 15.294 9.315 22.744 4.226l106.021-72.21-18.402-26.91L88.962 96.017z" fill="url(#paint4_linear)"/><path d="M132.369 86.573s-21.663 28.165-26.723 31.621c-5.06 3.457-11.975 2.152-15.436-2.883-3.46-5.036-2.138-11.928 2.922-15.384 5.06-3.457 39.237-13.354 39.237-13.354z" fill="url(#paint5_linear)"/><circle opacity=".8" cx="88.231" cy="59.121" r="1.5" fill="#403D85"/><circle opacity=".8" cx="67.377" cy="20.494" r=".88" fill="#403D85"/></g></g><path d="M124.648 29.035c.482 0 .482-.754 0-.754-.493 0-.493.754 0 .754zM113.503 38.086c.483 0 .483-.754 0-.754-.482 0-.482.754 0 .754zM136.484 42.502c.482 0 .482-.754 0-.754-.483 0-.483.754 0 .754zM125.34 42.037c.483 0 .483-.754 0-.754-.482 0-.482.754 0 .754zM89.868 39.691c.483 0 .483-.754 0-.754-.492 0-.492.754 0 .754zM89.627 29.713c.483 0 .483-.754 0-.754-.482 0-.482.754 0 .754zM146.925 38.55c.483 0 .483-.753 0-.753-.482 0-.482.754 0 .754zM99.618 43.64c.482 0 .482-.753 0-.753-.483 0-.493.753 0 .753z" fill="#403D85"/><path fill-rule="evenodd" clip-rule="evenodd" d="M116.055 28.433l.914.522-.934.483-.523.924-.492-.934-.915-.533.935-.482.523-.925.492.945zM109.999 53.802l.915.522-.935.493-.522.914-.493-.934-.914-.523.934-.492.523-.915.492.935zM126.819 47.253l.924.523-.945.492-.522.914-.492-.934-.915-.523.935-.492.522-.924.493.944zM132.254 17.79l1.809 1.035-1.849.965-1.025 1.809-.975-1.84-1.809-1.034 1.849-.975 1.035-1.809.965 1.85z" fill="#403D85"/><path d="M187.698 97.291c.483 0 .483.754 0 .754-.492 0-.492-.754 0-.754zM176.554 88.24c.482 0 .482.754 0 .754s-.482-.754 0-.754zM199.535 83.825c.482 0 .482.753 0 .753-.483 0-.483-.754 0-.754zM188.392 84.29c.482 0 .482.753 0 .753s-.482-.754 0-.754z" fill="#403D85"/><path fill-rule="evenodd" clip-rule="evenodd" d="M179.106 97.893l.914-.522-.934-.483-.523-.924-.492.934-.915.533.935.482.522.925.493-.945zM189.868 79.073l.925-.522-.945-.493-.522-.914-.493.934-.914.523.934.492.523.925.492-.945zM195.305 108.536l1.808-1.035-1.849-.965-1.024-1.809-.975 1.839-1.809 1.035 1.849.975 1.035 1.809.965-1.849z" fill="#403D85"/><path d="M123.921 148.599c.482 0 .482-.753 0-.753-.492 0-.492.753 0 .753zM112.777 157.65c.482 0 .482-.754 0-.754-.483 0-.483.754 0 .754zM135.757 162.066c.483 0 .483-.754 0-.754-.482 0-.482.754 0 .754zM124.615 161.601c.482 0 .482-.753 0-.753-.483 0-.483.753 0 .753zM155.494 173.209c.483 0 .483-.754 0-.754-.492 0-.492.754 0 .754zM155.251 163.228c.483 0 .483-.753 0-.753-.482 0-.482.753 0 .753zM146.2 158.115c.482 0 .482-.754 0-.754-.483 0-.483.754 0 .754zM165.242 177.156c.482 0 .482-.754 0-.754-.483 0-.493.754 0 .754z" fill="#403D85"/><path fill-rule="evenodd" clip-rule="evenodd" d="M115.328 147.997l.915.523-.935.482-.522.925-.493-.935-.914-.532.934-.483.523-.924.492.944zM162.548 168.417l.914.522-.934.493-.523.914-.492-.934-.914-.523.934-.492.523-.915.492.935zM126.091 166.818l.925.522-.945.493-.523.914-.492-.935-.914-.522.934-.492.523-.925.492.945zM131.527 137.355l1.809 1.035-1.849.964-1.025 1.809-.975-1.839-1.808-1.035 1.849-.974 1.035-1.809.964 1.849z" fill="#403D85"/><path d="M32.374 66.738c.482 0 .482-.754 0-.754-.492 0-.492.754 0 .754zM21.23 75.79c.482 0 .482-.753 0-.753s-.482.754 0 .754zM44.21 80.205c.483 0 .483-.754 0-.754-.482 0-.482.754 0 .754zM33.068 79.738c.482 0 .482-.754 0-.754s-.482.754 0 .754zM63.947 91.347c.483 0 .483-.753 0-.753-.492 0-.492.753 0 .753zM63.705 81.369c.482 0 .482-.754 0-.754-.483 0-.483.754 0 .754zM54.653 76.254c.482 0 .482-.754 0-.754-.483 0-.483.754 0 .754zM73.695 95.297c.482 0 .482-.754 0-.754-.483 0-.493.754 0 .754z" fill="#403D85"/><path fill-rule="evenodd" clip-rule="evenodd" d="M23.782 66.136l.914.523-.935.482-.522.924-.492-.934-.915-.533.935-.482.522-.925.492.945zM71.001 86.554l.915.522-.935.493-.522.914-.493-.934-.914-.523.934-.492.523-.915.492.935zM34.544 84.956l.925.523-.945.492-.523.915-.492-.935-.914-.522.934-.493.523-.924.492.944z" fill="#403D85"/><circle opacity=".8" cx="97.393" cy="14.236" r="1.494" fill="#403D85"/><circle opacity=".8" cx="51.988" cy="49.26" r=".76" fill="#403D85"/><circle opacity=".8" cx="8.856" cy="71.643" r="1.494" fill="#403D85"/><circle opacity=".8" cx="125.501" cy="5.699" r=".69" fill="#fff"/></g><defs><linearGradient id="paint0_linear" x1="34.62" y1="189.485" x2="276.885" y2="35.473" gradientUnits="userSpaceOnUse"><stop stop-color="#211E74"/><stop offset="1" stop-color="#7C78DC"/></linearGradient><linearGradient id="paint1_linear" x1="33.91" y1="189.613" x2="276.177" y2="35.599" gradientUnits="userSpaceOnUse"><stop stop-color="#211E74"/><stop offset="1" stop-color="#7C78DC"/></linearGradient><linearGradient id="paint2_linear" x1="-9.212" y1="107.965" x2="143.342" y2="35.139" gradientUnits="userSpaceOnUse"><stop stop-color="#211E74"/><stop offset="1" stop-color="#7C78DC"/></linearGradient><linearGradient id="paint3_linear" x1="77.068" y1="122.281" x2="266.512" y2="-7.578" gradientUnits="userSpaceOnUse"><stop stop-color="#F2CC33" stop-opacity=".2"/><stop offset=".999" stop-color="#DA185E" stop-opacity="0"/></linearGradient><linearGradient id="paint4_linear" x1="84.664" y1="118.683" x2="203.944" y2="36.919" gradientUnits="userSpaceOnUse"><stop stop-color="#FFC46D" stop-opacity=".8"/><stop offset=".28" stop-color="#E98644" stop-opacity=".511"/><stop offset=".62" stop-color="#DE3757" stop-opacity=".161"/><stop offset=".776" stop-color="#DA185E" stop-opacity="0"/></linearGradient><linearGradient id="paint5_linear" x1="90.198" y1="115.291" x2="132.303" y2="86.429" gradientUnits="userSpaceOnUse"><stop stop-color="#FFC46D"/><stop offset="1" stop-color="#FFC46D" stop-opacity=".3"/></linearGradient><clipPath id="clip0"><path fill="#fff" transform="rotate(-12.832 103.016 -219.531)" d="M0 0h225.1v124.356H0z"/></clipPath></defs></svg>