<svg width="1534" height="942" viewBox="0 0 1534 942" fill="none" xmlns="http://www.w3.org/2000/svg">
<rect width="1534" height="942" fill="url(#paint0_linear)"/>
<path d="M1286.31 72.823C1287.45 72.823 1287.45 71.041 1286.31 71.041C1285.15 71.041 1285.15 72.823 1286.31 72.823Z" fill="#403D85"/>
<path d="M1259.96 94.2292C1261.11 94.2292 1261.11 92.4473 1259.96 92.4473C1258.82 92.4473 1258.82 94.2292 1259.96 94.2292Z" fill="#403D85"/>
<path d="M1314.3 104.659C1315.44 104.659 1315.44 102.877 1314.3 102.877C1313.16 102.877 1313.16 104.659 1314.3 104.659Z" fill="#403D85"/>
<path d="M1287.95 103.565C1289.09 103.565 1289.09 101.783 1287.95 101.783C1286.81 101.783 1286.81 103.565 1287.95 103.565Z" fill="#403D85"/>
<path d="M1360.96 131.007C1362.11 131.007 1362.11 129.225 1360.96 129.225C1359.8 129.225 1359.8 131.007 1360.96 131.007Z" fill="#403D85"/>
<path d="M1360.39 107.415C1361.54 107.415 1361.54 105.633 1360.39 105.633C1359.25 105.633 1359.25 107.415 1360.39 107.415Z" fill="#403D85"/>
<path d="M1338.99 95.321C1340.13 95.321 1340.13 93.5391 1338.99 93.5391C1337.85 93.5391 1337.85 95.321 1338.99 95.321Z" fill="#403D85"/>
<path d="M1384.01 140.346C1385.15 140.346 1385.15 138.564 1384.01 138.564C1382.87 138.564 1382.85 140.346 1384.01 140.346Z" fill="#403D85"/>
<path fill-rule="evenodd" clip-rule="evenodd" d="M1266 71.3974L1268.16 72.6329L1265.95 73.7734L1264.72 75.9592L1263.55 73.7496L1261.39 72.4904L1263.6 71.3499L1264.84 69.1641L1266 71.3974Z" fill="#403D85"/>
<path fill-rule="evenodd" clip-rule="evenodd" d="M1377.64 119.676L1379.81 120.912L1377.6 122.076L1376.36 124.238L1375.2 122.029L1373.03 120.793L1375.24 119.629L1376.48 117.467L1377.64 119.676Z" fill="#403D85"/>
<path fill-rule="evenodd" clip-rule="evenodd" d="M1291.45 115.895L1293.63 117.131L1291.4 118.295L1290.16 120.457L1289 118.248L1286.84 117.012L1289.05 115.848L1290.28 113.662L1291.45 115.895Z" fill="#403D85"/>
<path fill-rule="evenodd" clip-rule="evenodd" d="M1304.3 46.235L1308.58 48.6822L1304.2 50.9631L1301.78 55.2397L1299.48 50.8918L1295.2 48.4446L1299.57 46.1399L1302.02 41.8633L1304.3 46.235Z" fill="#403D85"/>
<path d="M1435.39 234.208C1436.53 234.208 1436.53 235.99 1435.39 235.99C1434.22 235.99 1434.22 234.208 1435.39 234.208Z" fill="#403D85"/>
<path d="M1409.04 212.802C1410.18 212.802 1410.18 214.584 1409.04 214.584C1407.9 214.584 1407.9 212.802 1409.04 212.802Z" fill="#403D85"/>
<path d="M1463.38 202.372C1464.52 202.372 1464.52 204.154 1463.38 204.154C1462.24 204.154 1462.24 202.372 1463.38 202.372Z" fill="#403D85"/>
<path d="M1437.03 203.466C1438.17 203.466 1438.17 205.248 1437.03 205.248C1435.89 205.248 1435.89 203.466 1437.03 203.466Z" fill="#403D85"/>
<path d="M1510.04 176.025C1511.18 176.025 1511.18 177.807 1510.04 177.807C1508.88 177.807 1508.88 176.025 1510.04 176.025Z" fill="#403D85"/>
<path d="M1509.47 199.616C1510.61 199.616 1510.61 201.398 1509.47 201.398C1508.33 201.398 1508.33 199.616 1509.47 199.616Z" fill="#403D85"/>
<path d="M1488.06 211.71C1489.2 211.71 1489.2 213.492 1488.06 213.492C1486.92 213.492 1486.92 211.71 1488.06 211.71Z" fill="#403D85"/>
<path d="M1533.09 166.685C1534.23 166.685 1534.23 168.467 1533.09 168.467C1531.95 168.467 1531.92 166.685 1533.09 166.685Z" fill="#403D85"/>
<path fill-rule="evenodd" clip-rule="evenodd" d="M1415.08 235.634L1417.24 234.398L1415.03 233.258L1413.79 231.072L1412.63 233.282L1410.47 234.541L1412.68 235.681L1413.91 237.867L1415.08 235.634Z" fill="#403D85"/>
<path fill-rule="evenodd" clip-rule="evenodd" d="M1526.72 187.355L1528.88 186.119L1526.67 184.955L1525.44 182.793L1524.27 185.003L1522.11 186.238L1524.32 187.402L1525.56 189.564L1526.72 187.355Z" fill="#403D85"/>
<path fill-rule="evenodd" clip-rule="evenodd" d="M1440.52 191.136L1442.71 189.9L1440.47 188.736L1439.24 186.574L1438.07 188.784L1435.91 190.019L1438.12 191.183L1439.36 193.369L1440.52 191.136Z" fill="#403D85"/>
<path fill-rule="evenodd" clip-rule="evenodd" d="M1453.37 260.796L1457.65 258.349L1453.28 256.068L1450.86 251.792L1448.55 256.139L1444.27 258.587L1448.65 260.891L1451.09 265.168L1453.37 260.796Z" fill="#403D85"/>
<path d="M1284.59 355.52C1285.73 355.52 1285.73 353.738 1284.59 353.738C1283.43 353.738 1283.43 355.52 1284.59 355.52Z" fill="#403D85"/>
<path d="M1258.24 376.926C1259.38 376.926 1259.38 375.145 1258.24 375.145C1257.1 375.145 1257.1 376.926 1258.24 376.926Z" fill="#403D85"/>
<path d="M1312.58 387.356C1313.72 387.356 1313.72 385.574 1312.58 385.574C1311.44 385.574 1311.44 387.356 1312.58 387.356Z" fill="#403D85"/>
<path d="M1286.23 386.262C1287.37 386.262 1287.37 384.48 1286.23 384.48C1285.09 384.48 1285.09 386.262 1286.23 386.262Z" fill="#403D85"/>
<path d="M1359.24 413.704C1360.38 413.704 1360.38 411.922 1359.24 411.922C1358.08 411.922 1358.08 413.704 1359.24 413.704Z" fill="#403D85"/>
<path d="M1358.67 390.112C1359.81 390.112 1359.81 388.33 1358.67 388.33C1357.53 388.33 1357.53 390.112 1358.67 390.112Z" fill="#403D85"/>
<path d="M1337.27 378.018C1338.41 378.018 1338.41 376.236 1337.27 376.236C1336.13 376.236 1336.13 378.018 1337.27 378.018Z" fill="#403D85"/>
<path d="M1382.29 423.044C1383.43 423.044 1383.43 421.262 1382.29 421.262C1381.15 421.262 1381.13 423.044 1382.29 423.044Z" fill="#403D85"/>
<path fill-rule="evenodd" clip-rule="evenodd" d="M1264.28 354.095L1266.44 355.33L1264.23 356.471L1263 358.656L1261.83 356.447L1259.67 355.188L1261.88 354.047L1263.11 351.861L1264.28 354.095Z" fill="#403D85"/>
<path fill-rule="evenodd" clip-rule="evenodd" d="M1375.92 402.374L1378.09 403.609L1375.88 404.773L1374.64 406.935L1373.48 404.726L1371.31 403.49L1373.52 402.326L1374.76 400.164L1375.92 402.374Z" fill="#403D85"/>
<path fill-rule="evenodd" clip-rule="evenodd" d="M1289.73 398.593L1291.91 399.828L1289.68 400.992L1288.44 403.155L1287.28 400.945L1285.12 399.709L1287.33 398.545L1288.56 396.359L1289.73 398.593Z" fill="#403D85"/>
<path fill-rule="evenodd" clip-rule="evenodd" d="M1302.58 328.932L1306.86 331.379L1302.48 333.66L1300.06 337.937L1297.76 333.589L1293.48 331.142L1297.85 328.837L1300.3 324.561L1302.58 328.932Z" fill="#403D85"/>
<path d="M1068.14 161.967C1069.28 161.967 1069.28 160.186 1068.14 160.186C1066.97 160.186 1066.97 161.967 1068.14 161.967Z" fill="#403D85"/>
<path d="M1041.79 183.374C1042.93 183.374 1042.93 181.592 1041.79 181.592C1040.65 181.592 1040.65 183.374 1041.79 183.374Z" fill="#403D85"/>
<path d="M1096.13 193.803C1097.27 193.803 1097.27 192.021 1096.13 192.021C1094.99 192.021 1094.99 193.803 1096.13 193.803Z" fill="#403D85"/>
<path d="M1069.78 192.712C1070.92 192.712 1070.92 190.93 1069.78 190.93C1068.64 190.93 1068.64 192.712 1069.78 192.712Z" fill="#403D85"/>
<path d="M1142.79 220.153C1143.93 220.153 1143.93 218.371 1142.79 218.371C1141.62 218.371 1141.62 220.153 1142.79 220.153Z" fill="#403D85"/>
<path d="M1142.22 196.559C1143.36 196.559 1143.36 194.777 1142.22 194.777C1141.08 194.777 1141.08 196.559 1142.22 196.559Z" fill="#403D85"/>
<path d="M1120.81 184.467C1121.95 184.467 1121.95 182.686 1120.81 182.686C1119.67 182.686 1119.67 184.467 1120.81 184.467Z" fill="#403D85"/>
<path d="M1165.84 229.491C1166.98 229.491 1166.98 227.709 1165.84 227.709C1164.7 227.709 1164.67 229.491 1165.84 229.491Z" fill="#403D85"/>
<path fill-rule="evenodd" clip-rule="evenodd" d="M1047.82 160.542L1049.99 161.777L1047.78 162.918L1046.54 165.104L1045.38 162.894L1043.21 161.635L1045.42 160.494L1046.66 158.309L1047.82 160.542Z" fill="#403D85"/>
<path fill-rule="evenodd" clip-rule="evenodd" d="M1159.47 208.821L1161.63 210.056L1159.42 211.221L1158.19 213.383L1157.02 211.173L1154.86 209.938L1157.07 208.773L1158.3 206.611L1159.47 208.821Z" fill="#403D85"/>
<path fill-rule="evenodd" clip-rule="evenodd" d="M1073.27 205.042L1075.46 206.277L1073.22 207.442L1071.99 209.604L1070.82 207.394L1068.66 206.159L1070.87 204.994L1072.11 202.809L1073.27 205.042Z" fill="#403D85"/>
<circle opacity="0.8" cx="1221.87" cy="37.824" r="3.53303" fill="#403D85"/>
<circle opacity="0.8" cx="1114.52" cy="120.636" r="1.79622" fill="#403D85"/>
<circle opacity="0.8" cx="1012.53" cy="173.56" r="3.53303" fill="#403D85"/>
<circle opacity="0.8" cx="1288.33" cy="17.6406" r="1.6308" fill="#403D85"/>
<path d="M284.629 72.823C283.488 72.823 283.488 71.041 284.629 71.041C285.793 71.041 285.793 72.823 284.629 72.823Z" fill="#403D85"/>
<path d="M310.978 94.2292C309.837 94.2292 309.837 92.4473 310.978 92.4473C312.118 92.4473 312.118 94.2292 310.978 94.2292Z" fill="#403D85"/>
<path d="M256.641 104.659C255.5 104.659 255.5 102.877 256.641 102.877C257.781 102.877 257.781 104.659 256.641 104.659Z" fill="#403D85"/>
<path d="M282.989 103.565C281.849 103.565 281.849 101.783 282.989 101.783C284.13 101.783 284.13 103.565 282.989 103.565Z" fill="#403D85"/>
<path d="M209.977 131.007C208.837 131.007 208.837 129.225 209.977 129.225C211.142 129.225 211.142 131.007 209.977 131.007Z" fill="#403D85"/>
<path d="M210.547 107.415C209.407 107.415 209.407 105.633 210.547 105.633C211.688 105.633 211.688 107.415 210.547 107.415Z" fill="#403D85"/>
<path d="M231.954 95.321C230.814 95.321 230.814 93.5391 231.954 93.5391C233.095 93.5391 233.095 95.321 231.954 95.321Z" fill="#403D85"/>
<path d="M186.931 140.346C185.79 140.346 185.79 138.564 186.931 138.564C188.071 138.564 188.095 140.346 186.931 140.346Z" fill="#403D85"/>
<path fill-rule="evenodd" clip-rule="evenodd" d="M304.943 71.3974L302.781 72.6329L304.99 73.7734L306.226 75.9592L307.39 73.7496L309.552 72.4904L307.343 71.3499L306.107 69.1641L304.943 71.3974Z" fill="#403D85"/>
<path fill-rule="evenodd" clip-rule="evenodd" d="M193.298 119.676L191.136 120.912L193.346 122.076L194.581 124.238L195.746 122.029L197.908 120.793L195.698 119.629L194.463 117.467L193.298 119.676Z" fill="#403D85"/>
<path fill-rule="evenodd" clip-rule="evenodd" d="M279.497 115.895L277.311 117.131L279.544 118.295L280.78 120.457L281.944 118.248L284.106 117.012L281.896 115.848L280.661 113.662L279.497 115.895Z" fill="#403D85"/>
<path fill-rule="evenodd" clip-rule="evenodd" d="M266.643 46.235L262.366 48.6822L266.738 50.9631L269.161 55.2397L271.466 50.8918L275.743 48.4446L271.371 46.1399L268.924 41.8633L266.643 46.235Z" fill="#403D85"/>
<path d="M135.554 234.208C134.413 234.208 134.413 235.99 135.554 235.99C136.718 235.99 136.718 234.208 135.554 234.208Z" fill="#403D85"/>
<path d="M161.902 212.802C160.762 212.802 160.762 214.584 161.902 214.584C163.043 214.584 163.043 212.802 161.902 212.802Z" fill="#403D85"/>
<path d="M107.566 202.372C106.425 202.372 106.425 204.154 107.566 204.154C108.706 204.154 108.706 202.372 107.566 202.372Z" fill="#403D85"/>
<path d="M133.914 203.466C132.774 203.466 132.774 205.248 133.914 205.248C135.055 205.248 135.055 203.466 133.914 203.466Z" fill="#403D85"/>
<path d="M60.9022 176.025C59.7618 176.025 59.7618 177.807 60.9022 177.807C62.0664 177.807 62.0664 176.025 60.9022 176.025Z" fill="#403D85"/>
<path d="M61.4723 199.616C60.3319 199.616 60.3319 201.398 61.4723 201.398C62.6127 201.398 62.6127 199.616 61.4723 199.616Z" fill="#403D85"/>
<path d="M82.879 211.71C81.7386 211.71 81.7386 213.492 82.879 213.492C84.0195 213.492 84.0195 211.71 82.879 211.71Z" fill="#403D85"/>
<path d="M37.8555 166.685C36.715 166.685 36.715 168.467 37.8555 168.467C38.9959 168.467 39.0197 166.685 37.8555 166.685Z" fill="#403D85"/>
<path fill-rule="evenodd" clip-rule="evenodd" d="M155.868 235.634L153.706 234.398L155.915 233.258L157.151 231.072L158.315 233.282L160.477 234.541L158.267 235.681L157.032 237.867L155.868 235.634Z" fill="#403D85"/>
<path fill-rule="evenodd" clip-rule="evenodd" d="M44.2232 187.355L42.0611 186.119L44.2707 184.955L45.5062 182.793L46.6704 185.003L48.8325 186.238L46.6229 187.402L45.3874 189.564L44.2232 187.355Z" fill="#403D85"/>
<path fill-rule="evenodd" clip-rule="evenodd" d="M130.421 191.136L128.236 189.9L130.469 188.736L131.704 186.574L132.869 188.784L135.031 190.019L132.821 191.183L131.586 193.369L130.421 191.136Z" fill="#403D85"/>
<path fill-rule="evenodd" clip-rule="evenodd" d="M117.568 260.796L113.291 258.349L117.663 256.068L120.086 251.792L122.391 256.139L126.667 258.587L122.296 260.891L119.849 265.168L117.568 260.796Z" fill="#403D85"/>
<path d="M286.35 355.52C285.209 355.52 285.209 353.738 286.35 353.738C287.514 353.738 287.514 355.52 286.35 355.52Z" fill="#403D85"/>
<path d="M312.698 376.926C311.558 376.926 311.558 375.145 312.698 375.145C313.839 375.145 313.839 376.926 312.698 376.926Z" fill="#403D85"/>
<path d="M258.361 387.356C257.221 387.356 257.221 385.574 258.361 385.574C259.502 385.574 259.502 387.356 258.361 387.356Z" fill="#403D85"/>
<path d="M284.71 386.262C283.57 386.262 283.57 384.48 284.71 384.48C285.851 384.48 285.851 386.262 284.71 386.262Z" fill="#403D85"/>
<path d="M211.698 413.704C210.558 413.704 210.558 411.922 211.698 411.922C212.862 411.922 212.862 413.704 211.698 413.704Z" fill="#403D85"/>
<path d="M212.268 390.112C211.128 390.112 211.128 388.33 212.268 388.33C213.409 388.33 213.409 390.112 212.268 390.112Z" fill="#403D85"/>
<path d="M233.675 378.018C232.534 378.018 232.534 376.236 233.675 376.236C234.815 376.236 234.815 378.018 233.675 378.018Z" fill="#403D85"/>
<path d="M188.651 423.044C187.511 423.044 187.511 421.262 188.651 421.262C189.792 421.262 189.816 423.044 188.651 423.044Z" fill="#403D85"/>
<path fill-rule="evenodd" clip-rule="evenodd" d="M306.664 354.095L304.502 355.33L306.711 356.471L307.947 358.656L309.111 356.447L311.273 355.188L309.063 354.047L307.828 351.861L306.664 354.095Z" fill="#403D85"/>
<path fill-rule="evenodd" clip-rule="evenodd" d="M195.019 402.374L192.857 403.609L195.067 404.773L196.302 406.935L197.466 404.726L199.628 403.49L197.419 402.326L196.183 400.164L195.019 402.374Z" fill="#403D85"/>
<path fill-rule="evenodd" clip-rule="evenodd" d="M281.217 398.593L279.032 399.828L281.265 400.992L282.5 403.155L283.665 400.945L285.827 399.709L283.617 398.545L282.382 396.359L281.217 398.593Z" fill="#403D85"/>
<path fill-rule="evenodd" clip-rule="evenodd" d="M268.364 328.932L264.087 331.379L268.459 333.66L270.882 337.937L273.187 333.589L277.463 331.142L273.092 328.837L270.644 324.561L268.364 328.932Z" fill="#403D85"/>
<path d="M502.805 161.967C501.664 161.967 501.664 160.186 502.805 160.186C503.969 160.186 503.969 161.967 502.805 161.967Z" fill="#403D85"/>
<path d="M529.153 183.374C528.013 183.374 528.013 181.592 529.153 181.592C530.294 181.592 530.294 183.374 529.153 183.374Z" fill="#403D85"/>
<path d="M474.817 193.803C473.676 193.803 473.676 192.021 474.817 192.021C475.957 192.021 475.957 193.803 474.817 193.803Z" fill="#403D85"/>
<path d="M501.165 192.712C500.025 192.712 500.025 190.93 501.165 190.93C502.306 190.93 502.306 192.712 501.165 192.712Z" fill="#403D85"/>
<path d="M428.153 220.153C427.013 220.153 427.013 218.371 428.153 218.371C429.317 218.371 429.317 220.153 428.153 220.153Z" fill="#403D85"/>
<path d="M428.723 196.559C427.583 196.559 427.583 194.777 428.723 194.777C429.864 194.777 429.864 196.559 428.723 196.559Z" fill="#403D85"/>
<path d="M450.13 184.467C448.99 184.467 448.99 182.686 450.13 182.686C451.27 182.686 451.27 184.467 450.13 184.467Z" fill="#403D85"/>
<path d="M405.106 229.491C403.966 229.491 403.966 227.709 405.106 227.709C406.247 227.709 406.271 229.491 405.106 229.491Z" fill="#403D85"/>
<path fill-rule="evenodd" clip-rule="evenodd" d="M523.119 160.542L520.957 161.777L523.166 162.918L524.402 165.104L525.566 162.894L527.728 161.635L525.518 160.494L524.283 158.309L523.119 160.542Z" fill="#403D85"/>
<path fill-rule="evenodd" clip-rule="evenodd" d="M411.474 208.821L409.312 210.056L411.522 211.221L412.757 213.383L413.921 211.173L416.083 209.938L413.874 208.773L412.638 206.611L411.474 208.821Z" fill="#403D85"/>
<path fill-rule="evenodd" clip-rule="evenodd" d="M497.672 205.042L495.487 206.277L497.72 207.442L498.955 209.604L500.12 207.394L502.282 206.159L500.072 204.994L498.837 202.809L497.672 205.042Z" fill="#403D85"/>
<circle opacity="0.8" r="3.53303" transform="matrix(-1 0 0 1 349.071 37.824)" fill="#403D85"/>
<circle opacity="0.8" r="1.79622" transform="matrix(-1 -1.29123e-09 -1.29123e-09 1 456.427 120.636)" fill="#403D85"/>
<circle opacity="0.8" r="3.53303" transform="matrix(-1 0 0 1 558.409 173.56)" fill="#403D85"/>
<circle opacity="0.8" r="1.6308" transform="matrix(-1 0 0 1 282.607 17.6406)" fill="#403D85"/>
<path d="M1251.63 586.823C1250.49 586.823 1250.49 585.041 1251.63 585.041C1252.79 585.041 1252.79 586.823 1251.63 586.823Z" fill="#403D85"/>
<path d="M1277.98 608.229C1276.84 608.229 1276.84 606.447 1277.98 606.447C1279.12 606.447 1279.12 608.229 1277.98 608.229Z" fill="#403D85"/>
<path d="M1223.64 618.659C1222.5 618.659 1222.5 616.877 1223.64 616.877C1224.78 616.877 1224.78 618.659 1223.64 618.659Z" fill="#403D85"/>
<path d="M1249.99 617.565C1248.85 617.565 1248.85 615.783 1249.99 615.783C1251.13 615.783 1251.13 617.565 1249.99 617.565Z" fill="#403D85"/>
<path d="M1176.98 645.007C1175.84 645.007 1175.84 643.225 1176.98 643.225C1178.14 643.225 1178.14 645.007 1176.98 645.007Z" fill="#403D85"/>
<path d="M1177.55 621.415C1176.41 621.415 1176.41 619.633 1177.55 619.633C1178.69 619.633 1178.69 621.415 1177.55 621.415Z" fill="#403D85"/>
<path d="M1198.96 609.321C1197.81 609.321 1197.81 607.539 1198.96 607.539C1200.1 607.539 1200.1 609.321 1198.96 609.321Z" fill="#403D85"/>
<path d="M1153.93 654.346C1152.79 654.346 1152.79 652.564 1153.93 652.564C1155.07 652.564 1155.1 654.346 1153.93 654.346Z" fill="#403D85"/>
<path fill-rule="evenodd" clip-rule="evenodd" d="M1271.94 585.397L1269.78 586.633L1271.99 587.773L1273.23 589.959L1274.39 587.75L1276.55 586.49L1274.34 585.35L1273.11 583.164L1271.94 585.397Z" fill="#403D85"/>
<path fill-rule="evenodd" clip-rule="evenodd" d="M1160.3 633.676L1158.14 634.912L1160.35 636.076L1161.58 638.238L1162.75 636.029L1164.91 634.793L1162.7 633.629L1161.46 631.467L1160.3 633.676Z" fill="#403D85"/>
<path fill-rule="evenodd" clip-rule="evenodd" d="M1246.5 629.895L1244.31 631.131L1246.55 632.295L1247.78 634.457L1248.94 632.248L1251.11 631.012L1248.9 629.848L1247.66 627.662L1246.5 629.895Z" fill="#403D85"/>
<path fill-rule="evenodd" clip-rule="evenodd" d="M1233.64 560.235L1229.37 562.682L1233.74 564.963L1236.16 569.24L1238.47 564.892L1242.74 562.445L1238.37 560.14L1235.92 555.863L1233.64 560.235Z" fill="#403D85"/>
<path d="M1102.55 748.208C1101.41 748.208 1101.41 749.99 1102.55 749.99C1103.72 749.99 1103.72 748.208 1102.55 748.208Z" fill="#403D85"/>
<path d="M1128.9 726.802C1127.76 726.802 1127.76 728.584 1128.9 728.584C1130.04 728.584 1130.04 726.802 1128.9 726.802Z" fill="#403D85"/>
<path d="M1074.57 716.372C1073.43 716.372 1073.43 718.154 1074.57 718.154C1075.71 718.154 1075.71 716.372 1074.57 716.372Z" fill="#403D85"/>
<path d="M1100.92 717.466C1099.77 717.466 1099.77 719.248 1100.92 719.248C1102.06 719.248 1102.06 717.466 1100.92 717.466Z" fill="#403D85"/>
<path d="M1027.9 690.025C1026.76 690.025 1026.76 691.807 1027.9 691.807C1029.07 691.807 1029.07 690.025 1027.9 690.025Z" fill="#403D85"/>
<path d="M1028.47 713.616C1027.33 713.616 1027.33 715.398 1028.47 715.398C1029.61 715.398 1029.61 713.616 1028.47 713.616Z" fill="#403D85"/>
<path d="M1049.88 725.71C1048.74 725.71 1048.74 727.492 1049.88 727.492C1051.02 727.492 1051.02 725.71 1049.88 725.71Z" fill="#403D85"/>
<path d="M1004.86 680.685C1003.72 680.685 1003.72 682.467 1004.86 682.467C1006 682.467 1006.02 680.685 1004.86 680.685Z" fill="#403D85"/>
<path fill-rule="evenodd" clip-rule="evenodd" d="M1122.87 749.634L1120.71 748.398L1122.92 747.258L1124.15 745.072L1125.32 747.282L1127.48 748.541L1125.27 749.681L1124.03 751.867L1122.87 749.634Z" fill="#403D85"/>
<path fill-rule="evenodd" clip-rule="evenodd" d="M1011.22 701.355L1009.06 700.119L1011.27 698.955L1012.51 696.793L1013.67 699.003L1015.83 700.238L1013.62 701.402L1012.39 703.564L1011.22 701.355Z" fill="#403D85"/>
<path fill-rule="evenodd" clip-rule="evenodd" d="M1097.42 705.136L1095.24 703.9L1097.47 702.736L1098.71 700.574L1099.87 702.784L1102.03 704.019L1099.82 705.183L1098.59 707.369L1097.42 705.136Z" fill="#403D85"/>
<path fill-rule="evenodd" clip-rule="evenodd" d="M1084.57 774.796L1080.29 772.349L1084.66 770.068L1087.09 765.792L1089.39 770.139L1093.67 772.587L1089.3 774.891L1086.85 779.168L1084.57 774.796Z" fill="#403D85"/>
<path d="M1253.35 869.52C1252.21 869.52 1252.21 867.738 1253.35 867.738C1254.51 867.738 1254.51 869.52 1253.35 869.52Z" fill="#403D85"/>
<path d="M1279.7 890.926C1278.56 890.926 1278.56 889.145 1279.7 889.145C1280.84 889.145 1280.84 890.926 1279.7 890.926Z" fill="#403D85"/>
<path d="M1225.36 901.356C1224.22 901.356 1224.22 899.574 1225.36 899.574C1226.5 899.574 1226.5 901.356 1225.36 901.356Z" fill="#403D85"/>
<path d="M1251.71 900.262C1250.57 900.262 1250.57 898.48 1251.71 898.48C1252.85 898.48 1252.85 900.262 1251.71 900.262Z" fill="#403D85"/>
<path d="M1178.7 927.704C1177.56 927.704 1177.56 925.922 1178.7 925.922C1179.86 925.922 1179.86 927.704 1178.7 927.704Z" fill="#403D85"/>
<path d="M1179.27 904.112C1178.13 904.112 1178.13 902.33 1179.27 902.33C1180.41 902.33 1180.41 904.112 1179.27 904.112Z" fill="#403D85"/>
<path d="M1200.68 892.018C1199.54 892.018 1199.54 890.236 1200.68 890.236C1201.82 890.236 1201.82 892.018 1200.68 892.018Z" fill="#403D85"/>
<path d="M1155.65 937.044C1154.51 937.044 1154.51 935.262 1155.65 935.262C1156.79 935.262 1156.82 937.044 1155.65 937.044Z" fill="#403D85"/>
<path fill-rule="evenodd" clip-rule="evenodd" d="M1273.66 868.095L1271.5 869.33L1273.71 870.471L1274.95 872.656L1276.11 870.447L1278.27 869.188L1276.06 868.047L1274.83 865.861L1273.66 868.095Z" fill="#403D85"/>
<path fill-rule="evenodd" clip-rule="evenodd" d="M1162.02 916.374L1159.86 917.609L1162.07 918.773L1163.3 920.935L1164.47 918.726L1166.63 917.49L1164.42 916.326L1163.18 914.164L1162.02 916.374Z" fill="#403D85"/>
<path fill-rule="evenodd" clip-rule="evenodd" d="M1248.22 912.593L1246.03 913.828L1248.27 914.992L1249.5 917.155L1250.67 914.945L1252.83 913.709L1250.62 912.545L1249.38 910.359L1248.22 912.593Z" fill="#403D85"/>
<path fill-rule="evenodd" clip-rule="evenodd" d="M1235.36 842.932L1231.09 845.379L1235.46 847.66L1237.88 851.937L1240.19 847.589L1244.46 845.142L1240.09 842.837L1237.65 838.561L1235.36 842.932Z" fill="#403D85"/>
<path d="M1469.81 675.967C1468.67 675.967 1468.67 674.186 1469.81 674.186C1470.97 674.186 1470.97 675.967 1469.81 675.967Z" fill="#403D85"/>
<path d="M1496.15 697.374C1495.01 697.374 1495.01 695.592 1496.15 695.592C1497.29 695.592 1497.29 697.374 1496.15 697.374Z" fill="#403D85"/>
<path d="M1441.82 707.803C1440.68 707.803 1440.68 706.021 1441.82 706.021C1442.96 706.021 1442.96 707.803 1441.82 707.803Z" fill="#403D85"/>
<path d="M1468.17 706.712C1467.03 706.712 1467.03 704.93 1468.17 704.93C1469.31 704.93 1469.31 706.712 1468.17 706.712Z" fill="#403D85"/>
<path d="M1395.15 734.153C1394.01 734.153 1394.01 732.371 1395.15 732.371C1396.32 732.371 1396.32 734.153 1395.15 734.153Z" fill="#403D85"/>
<path d="M1395.72 710.559C1394.58 710.559 1394.58 708.777 1395.72 708.777C1396.86 708.777 1396.86 710.559 1395.72 710.559Z" fill="#403D85"/>
<path d="M1417.13 698.467C1415.99 698.467 1415.99 696.686 1417.13 696.686C1418.27 696.686 1418.27 698.467 1417.13 698.467Z" fill="#403D85"/>
<path d="M1372.11 743.491C1370.97 743.491 1370.97 741.709 1372.11 741.709C1373.25 741.709 1373.27 743.491 1372.11 743.491Z" fill="#403D85"/>
<path fill-rule="evenodd" clip-rule="evenodd" d="M1490.12 674.542L1487.96 675.777L1490.17 676.918L1491.4 679.104L1492.57 676.894L1494.73 675.635L1492.52 674.494L1491.28 672.309L1490.12 674.542Z" fill="#403D85"/>
<path fill-rule="evenodd" clip-rule="evenodd" d="M1378.48 722.821L1376.31 724.056L1378.52 725.221L1379.76 727.383L1380.92 725.173L1383.08 723.938L1380.87 722.773L1379.64 720.611L1378.48 722.821Z" fill="#403D85"/>
<path fill-rule="evenodd" clip-rule="evenodd" d="M1464.67 719.042L1462.49 720.277L1464.72 721.442L1465.96 723.604L1467.12 721.394L1469.28 720.159L1467.07 718.994L1465.84 716.809L1464.67 719.042Z" fill="#403D85"/>
<circle opacity="0.8" r="3.53303" transform="matrix(-1 0 0 1 1316.07 551.824)" fill="#403D85"/>
<circle opacity="0.8" r="1.79622" transform="matrix(-1 -1.29123e-09 -1.29123e-09 1 1423.43 634.636)" fill="#403D85"/>
<circle opacity="0.8" r="3.53303" transform="matrix(-1 0 0 1 1525.41 687.56)" fill="#403D85"/>
<circle opacity="0.8" r="1.6308" transform="matrix(-1 0 0 1 1249.61 531.641)" fill="#403D85"/>
<path d="M525.22 640.639C525.22 639.498 527.001 639.498 527.001 640.639C527.001 641.803 525.22 641.803 525.22 640.639Z" fill="#403D85"/>
<path d="M503.813 666.988C503.813 665.848 505.595 665.848 505.595 666.988C505.595 668.129 503.813 668.129 503.813 666.988Z" fill="#403D85"/>
<path d="M493.384 612.651C493.384 611.51 495.166 611.51 495.166 612.651C495.166 613.791 493.384 613.791 493.384 612.651Z" fill="#403D85"/>
<path d="M494.476 639C494.476 637.86 496.258 637.86 496.258 639C496.258 640.141 494.476 640.141 494.476 639Z" fill="#403D85"/>
<path d="M467.035 565.988C467.035 564.848 468.817 564.848 468.817 565.988C468.817 567.152 467.035 567.152 467.035 565.988Z" fill="#403D85"/>
<path d="M490.627 566.559C490.627 565.418 492.409 565.418 492.409 566.559C492.409 567.699 490.627 567.699 490.627 566.559Z" fill="#403D85"/>
<path d="M502.72 587.965C502.72 586.825 504.502 586.825 504.502 587.965C504.502 589.105 502.72 589.105 502.72 587.965Z" fill="#403D85"/>
<path d="M457.696 542.94C457.696 541.8 459.478 541.8 459.478 542.94C459.478 544.081 457.696 544.105 457.696 542.94Z" fill="#403D85"/>
<path fill-rule="evenodd" clip-rule="evenodd" d="M526.645 660.953L525.41 658.791L524.269 661.001L522.083 662.236L524.293 663.4L525.552 665.562L526.693 663.353L528.878 662.117L526.645 660.953Z" fill="#403D85"/>
<path fill-rule="evenodd" clip-rule="evenodd" d="M478.366 549.309L477.131 547.147L475.966 549.356L473.804 550.592L476.014 551.756L477.249 553.918L478.414 551.708L480.576 550.473L478.366 549.309Z" fill="#403D85"/>
<path fill-rule="evenodd" clip-rule="evenodd" d="M482.145 635.508L480.91 633.322L479.745 635.555L477.583 636.791L479.793 637.955L481.028 640.117L482.193 637.908L484.378 636.672L482.145 635.508Z" fill="#403D85"/>
<path fill-rule="evenodd" clip-rule="evenodd" d="M551.807 622.654L549.359 618.377L547.078 622.749L542.802 625.173L547.15 627.477L549.597 631.754L551.902 627.382L556.178 624.935L551.807 622.654Z" fill="#403D85"/>
<path d="M363.833 491.562C363.833 490.422 362.051 490.422 362.051 491.562C362.051 492.727 363.833 492.727 363.833 491.562Z" fill="#403D85"/>
<path d="M385.239 517.912C385.239 516.772 383.458 516.772 383.458 517.912C383.458 519.053 385.239 519.053 385.239 517.912Z" fill="#403D85"/>
<path d="M395.669 463.574C395.669 462.434 393.887 462.434 393.887 463.574C393.887 464.715 395.669 464.715 395.669 463.574Z" fill="#403D85"/>
<path d="M394.576 489.924C394.576 488.784 392.794 488.784 392.794 489.924C392.794 491.064 394.576 491.064 394.576 489.924Z" fill="#403D85"/>
<path d="M422.018 416.912C422.018 415.772 420.236 415.772 420.236 416.912C420.236 418.076 422.018 418.076 422.018 416.912Z" fill="#403D85"/>
<path d="M398.425 417.483C398.425 416.342 396.644 416.342 396.644 417.483C396.644 418.623 398.425 418.623 398.425 417.483Z" fill="#403D85"/>
<path d="M386.332 438.889C386.332 437.748 384.55 437.748 384.55 438.889C384.55 440.029 386.332 440.029 386.332 438.889Z" fill="#403D85"/>
<path d="M431.357 393.864C431.357 392.724 429.575 392.724 429.575 393.864C429.575 395.005 431.357 395.028 431.357 393.864Z" fill="#403D85"/>
<path fill-rule="evenodd" clip-rule="evenodd" d="M362.407 511.877L363.643 509.715L364.783 511.925L366.969 513.16L364.759 514.324L363.5 516.486L362.36 514.277L360.174 513.041L362.407 511.877Z" fill="#403D85"/>
<path fill-rule="evenodd" clip-rule="evenodd" d="M410.686 400.233L411.922 398.07L413.086 400.28L415.248 401.515L413.038 402.68L411.803 404.842L410.639 402.632L408.477 401.397L410.686 400.233Z" fill="#403D85"/>
<path fill-rule="evenodd" clip-rule="evenodd" d="M406.907 486.432L408.143 484.246L409.307 486.479L411.469 487.715L409.259 488.879L408.024 491.041L406.86 488.831L404.674 487.596L406.907 486.432Z" fill="#403D85"/>
<path fill-rule="evenodd" clip-rule="evenodd" d="M337.246 473.578L339.693 469.301L341.974 473.673L346.25 476.096L341.903 478.401L339.455 482.678L337.151 478.306L332.874 475.859L337.246 473.578Z" fill="#403D85"/>
<path d="M242.524 642.359C242.524 641.219 244.306 641.219 244.306 642.359C244.306 643.523 242.524 643.523 242.524 642.359Z" fill="#403D85"/>
<path d="M221.117 668.709C221.117 667.569 222.899 667.569 222.899 668.709C222.899 669.85 221.117 669.85 221.117 668.709Z" fill="#403D85"/>
<path d="M210.687 614.371C210.687 613.231 212.469 613.231 212.469 614.371C212.469 615.512 210.687 615.512 210.687 614.371Z" fill="#403D85"/>
<path d="M211.781 640.721C211.781 639.58 213.563 639.58 213.563 640.721C213.562 641.861 211.781 641.861 211.781 640.721Z" fill="#403D85"/>
<path d="M184.339 567.709C184.339 566.568 186.121 566.568 186.121 567.709C186.121 568.873 184.339 568.873 184.339 567.709Z" fill="#403D85"/>
<path d="M207.931 568.279C207.931 567.139 209.713 567.139 209.713 568.279C209.713 569.42 207.931 569.42 207.931 568.279Z" fill="#403D85"/>
<path d="M220.024 589.686C220.024 588.545 221.806 588.545 221.806 589.686C221.806 590.826 220.024 590.826 220.024 589.686Z" fill="#403D85"/>
<path d="M175 544.661C175 543.521 176.782 543.521 176.782 544.661C176.782 545.802 175 545.825 175 544.661Z" fill="#403D85"/>
<path fill-rule="evenodd" clip-rule="evenodd" d="M243.949 662.674L242.714 660.512L241.573 662.721L239.387 663.957L241.597 665.121L242.856 667.283L243.997 665.074L246.183 663.838L243.949 662.674Z" fill="#403D85"/>
<path fill-rule="evenodd" clip-rule="evenodd" d="M195.67 551.029L194.435 548.867L193.271 551.077L191.109 552.312L193.318 553.477L194.554 555.639L195.718 553.429L197.88 552.194L195.67 551.029Z" fill="#403D85"/>
<path fill-rule="evenodd" clip-rule="evenodd" d="M199.449 637.229L198.214 635.043L197.05 637.276L194.887 638.512L197.097 639.676L198.333 641.838L199.497 639.628L201.683 638.393L199.449 637.229Z" fill="#403D85"/>
<path fill-rule="evenodd" clip-rule="evenodd" d="M269.111 624.375L266.664 620.098L264.383 624.47L260.106 626.893L264.454 629.198L266.901 633.475L269.206 629.103L273.482 626.656L269.111 624.375Z" fill="#403D85"/>
<path d="M436.076 858.814C436.076 857.674 437.858 857.674 437.858 858.814C437.858 859.979 436.076 859.979 436.076 858.814Z" fill="#403D85"/>
<path d="M414.669 885.164C414.669 884.024 416.451 884.024 416.451 885.164C416.451 886.305 414.669 886.305 414.669 885.164Z" fill="#403D85"/>
<path d="M404.24 830.826C404.24 829.686 406.022 829.686 406.022 830.826C406.022 831.967 404.24 831.967 404.24 830.826Z" fill="#403D85"/>
<path d="M405.333 857.176C405.333 856.035 407.115 856.035 407.115 857.176C407.115 858.316 405.333 858.316 405.333 857.176Z" fill="#403D85"/>
<path d="M377.891 784.164C377.891 783.024 379.673 783.024 379.673 784.164C379.673 785.328 377.891 785.328 377.891 784.164Z" fill="#403D85"/>
<path d="M401.483 784.735C401.483 783.594 403.265 783.594 403.265 784.735C403.265 785.875 401.483 785.875 401.483 784.735Z" fill="#403D85"/>
<path d="M413.576 806.141C413.576 805 415.358 805 415.358 806.141C415.358 807.281 413.576 807.281 413.576 806.141Z" fill="#403D85"/>
<path d="M368.552 761.116C368.552 759.976 370.334 759.976 370.334 761.116C370.334 762.257 368.552 762.28 368.552 761.116Z" fill="#403D85"/>
<path fill-rule="evenodd" clip-rule="evenodd" d="M437.501 879.129L436.266 876.967L435.126 879.176L432.94 880.412L435.149 881.576L436.409 883.738L437.549 881.529L439.735 880.293L437.501 879.129Z" fill="#403D85"/>
<path fill-rule="evenodd" clip-rule="evenodd" d="M389.223 767.484L387.987 765.322L386.823 767.532L384.661 768.767L386.87 769.932L388.106 772.094L389.27 769.884L391.432 768.649L389.223 767.484Z" fill="#403D85"/>
<path fill-rule="evenodd" clip-rule="evenodd" d="M393.001 853.684L391.766 851.498L390.602 853.731L388.44 854.967L390.649 856.131L391.885 858.293L393.049 856.083L395.235 854.848L393.001 853.684Z" fill="#403D85"/>
<circle opacity="0.8" r="3.53303" transform="matrix(1.19249e-08 -1 -1 -1.19249e-08 560.218 705.082)" fill="#403D85"/>
<circle opacity="0.8" r="1.79622" transform="matrix(1.32161e-08 -1 -1 -1.32161e-08 477.406 812.438)" fill="#403D85"/>
<circle opacity="0.8" r="3.53303" transform="matrix(1.19249e-08 -1 -1 -1.19249e-08 424.482 914.42)" fill="#403D85"/>
<circle opacity="0.8" r="1.6308" transform="matrix(1.19249e-08 -1 -1 -1.19249e-08 580.402 638.619)" fill="#403D85"/>
<path d="M56.6283 755.823C55.4879 755.823 55.4879 754.041 56.6283 754.041C57.7925 754.041 57.7925 755.823 56.6283 755.823Z" fill="#403D85"/>
<path d="M82.9777 777.229C81.8372 777.229 81.8372 775.447 82.9777 775.447C84.1181 775.447 84.1181 777.229 82.9777 777.229Z" fill="#403D85"/>
<path d="M28.6403 787.659C27.4998 787.659 27.4998 785.877 28.6403 785.877C29.7807 785.877 29.7807 787.659 28.6403 787.659Z" fill="#403D85"/>
<path d="M54.9889 786.565C53.8485 786.565 53.8485 784.783 54.9889 784.783C56.1293 784.783 56.1293 786.565 54.9889 786.565Z" fill="#403D85"/>
<path fill-rule="evenodd" clip-rule="evenodd" d="M76.9429 754.397L74.7808 755.633L76.9905 756.773L78.2259 758.959L79.3901 756.75L81.5522 755.49L79.3426 754.35L78.1071 752.164L76.9429 754.397Z" fill="#403D85"/>
<path fill-rule="evenodd" clip-rule="evenodd" d="M51.4967 798.895L49.3108 800.131L51.5442 801.295L52.7797 803.457L53.9439 801.248L56.106 800.012L53.8963 798.848L52.6609 796.662L51.4967 798.895Z" fill="#403D85"/>
<path fill-rule="evenodd" clip-rule="evenodd" d="M38.6429 729.235L34.3662 731.682L38.7379 733.963L41.1614 738.24L43.466 733.892L47.7427 731.445L43.371 729.14L40.9238 724.863L38.6429 729.235Z" fill="#403D85"/>
<path d="M274.805 844.967C273.664 844.967 273.664 843.186 274.805 843.186C275.969 843.186 275.969 844.967 274.805 844.967Z" fill="#403D85"/>
<path d="M301.153 866.374C300.013 866.374 300.013 864.592 301.153 864.592C302.294 864.592 302.294 866.374 301.153 866.374Z" fill="#403D85"/>
<path d="M246.817 876.803C245.676 876.803 245.676 875.021 246.817 875.021C247.957 875.021 247.957 876.803 246.817 876.803Z" fill="#403D85"/>
<path d="M273.165 875.712C272.025 875.712 272.025 873.93 273.165 873.93C274.306 873.93 274.306 875.712 273.165 875.712Z" fill="#403D85"/>
<path d="M200.153 903.153C199.013 903.153 199.013 901.371 200.153 901.371C201.317 901.371 201.317 903.153 200.153 903.153Z" fill="#403D85"/>
<path d="M200.723 879.559C199.583 879.559 199.583 877.777 200.723 877.777C201.864 877.777 201.864 879.559 200.723 879.559Z" fill="#403D85"/>
<path d="M222.13 867.467C220.99 867.467 220.99 865.686 222.13 865.686C223.27 865.686 223.27 867.467 222.13 867.467Z" fill="#403D85"/>
<path d="M177.106 912.491C175.966 912.491 175.966 910.709 177.106 910.709C178.247 910.709 178.271 912.491 177.106 912.491Z" fill="#403D85"/>
<path fill-rule="evenodd" clip-rule="evenodd" d="M295.119 843.542L292.957 844.777L295.166 845.918L296.402 848.104L297.566 845.894L299.728 844.635L297.518 843.494L296.283 841.309L295.119 843.542Z" fill="#403D85"/>
<path fill-rule="evenodd" clip-rule="evenodd" d="M183.474 891.821L181.312 893.056L183.522 894.221L184.757 896.383L185.921 894.173L188.083 892.938L185.874 891.773L184.638 889.611L183.474 891.821Z" fill="#403D85"/>
<path fill-rule="evenodd" clip-rule="evenodd" d="M269.672 888.042L267.487 889.277L269.72 890.442L270.955 892.604L272.12 890.394L274.282 889.159L272.072 887.994L270.837 885.809L269.672 888.042Z" fill="#403D85"/>
<circle opacity="0.8" r="3.53303" transform="matrix(-1 0 0 1 121.071 720.824)" fill="#403D85"/>
<circle opacity="0.8" r="1.6308" transform="matrix(-1 0 0 1 54.6075 700.641)" fill="#403D85"/>
<defs>
<linearGradient id="paint0_linear" x1="767.008" y1="941.995" x2="767.008" y2="0" gradientUnits="userSpaceOnUse">
<stop offset="0.000490735" stop-color="#373582"/>
<stop offset="1" stop-color="#1A185D"/>
</linearGradient>
</defs>
</svg>
