<svg width="166" height="31" fill="none" xmlns="http://www.w3.org/2000/svg"><path d="M51.973 22.922c-4.716 0-7.815-2.454-7.815-6.933 0-4.48 3.1-6.934 7.815-6.934 2.95 0 5.168.99 6.46 2.993l1.055-.538C58.067 9.335 55.548 8 51.995 8c-5.642 0-8.98 3.145-8.98 7.989 0 4.844 3.338 7.989 8.936 7.989 3.596 0 6.116-1.336 7.537-3.51l-1.055-.539c-1.271 2.004-3.51 2.993-6.46 2.993zm12.418-.452v-6.094h11.025v-1.055H64.39V9.486h12.856V8.453H63.272v15.073h14.19V22.47h-13.07zm18.232 0V8.452h-1.12v15.073h13.028V22.47l-11.908.001zm16.276 0v-6.094h11.025v-1.055H98.899V9.486h12.855V8.453H97.779v15.073h14.191V22.47H98.9zm24.113-7.213c-3.769-.345-6.913-.905-6.913-2.993 0-2.218 3.467-3.23 6.374-3.209 2.67.022 4.952.71 6.46 2.326l.883-.732C128.244 9.055 125.703 8 122.43 8c-3.876 0-7.493 1.529-7.493 4.285 0 2.842 3.79 3.661 7.687 4.027 4.328.409 6.847.99 6.847 3.079 0 2.046-2.304 3.531-6.459 3.531-3.209 0-5.943-.925-7.795-2.971l-.819.796c1.96 2.132 5.082 3.23 8.571 3.23 4.931 0 7.644-2.024 7.644-4.65 0-2.821-3.101-3.683-7.601-4.07zm24.715-6.805H131.9v1.012h7.343v14.061h1.118V9.465h7.365l.001-1.013zm4.353 14.018v-6.094h11.025v-1.055H152.08V9.486h12.854V8.453H150.96v15.073h14.19V22.47h-13.07z" fill="#fff"/><path d="M16.449 19.352c10.35 0 15.819-2.71 16.245-2.93.014-.01.02-.023.025-.037.017-.292.028-.586.028-.883 0-.297-.011-.591-.028-.883-.003-.014-.008-.03-.025-.036-.426-.221-5.895-2.93-16.245-2.93-10.35 0-15.82 2.706-16.245 2.927-.014.009-.02.023-.026.037-.016.294-.028.585-.028.882 0 .297.012.591.028.883.003.014.009.03.026.036.426.222 5.895 2.934 16.245 2.934z" fill="url(#paint0_radial)"/><path d="M16.449 5.184c-6.515 0-11.09 1.073-13.693 1.922a14.977 14.977 0 00-2.283 5.326.045.045 0 00.042.005c1.33-.616 6.676-2.782 15.934-2.782 9.257 0 14.603 2.166 15.934 2.783.014.005.03.002.042-.006a15 15 0 00-2.284-5.326c-2.605-.85-7.178-1.922-13.692-1.922z" fill="url(#paint1_radial)"/><path d="M4.877 26.414c2.953 2.833 7.047 4.587 11.571 4.587 4.526 0 8.619-1.754 11.572-4.587-2.7.68-6.559 1.314-11.572 1.314-5.012 0-8.87-.633-11.571-1.314z" fill="url(#paint2_radial)"/><path d="M4.877 4.586C7.83 1.753 11.924-.001 16.448-.001c4.526 0 8.619 1.754 11.572 4.587-2.7-.68-6.559-1.314-11.572-1.314-5.012 0-8.87.633-11.571 1.314z" fill="url(#paint3_radial)"/><path d="M16.449 25.776c-6.515 0-11.09-1.073-13.693-1.922a14.977 14.977 0 01-2.283-5.326.044.044 0 01.042-.006c1.33.617 6.676 2.783 15.934 2.783 9.257 0 14.603-2.166 15.934-2.783a.045.045 0 01.042.006 14.999 14.999 0 01-2.284 5.326c-2.605.852-7.178 1.922-13.692 1.922z" fill="url(#paint4_radial)"/><defs><radialGradient id="paint0_radial" cx="0" cy="0" r="1" gradientUnits="userSpaceOnUse" gradientTransform="rotate(11.066 -65.282 -41.062) scale(45.2505)"><stop stop-color="#FEAE6F"/><stop offset=".316" stop-color="#FF9B73"/><stop offset=".631" stop-color="#D66F8D"/><stop offset=".855" stop-color="#8E54A5"/><stop offset=".991" stop-color="#6050B0"/></radialGradient><radialGradient id="paint1_radial" cx="0" cy="0" r="1" gradientUnits="userSpaceOnUse" gradientTransform="rotate(9.144 -62.54 22.697) scale(41.4333 25.0568)"><stop offset=".021" stop-color="#FEAE6F"/><stop offset=".497" stop-color="#D66F8D"/><stop offset=".795" stop-color="#8E54A5"/><stop offset=".984" stop-color="#7652AB"/></radialGradient><radialGradient id="paint2_radial" cx="0" cy="0" r="1" gradientUnits="userSpaceOnUse" gradientTransform="translate(10.621 19.046) scale(19.3845)"><stop offset=".071" stop-color="#FF9B73"/><stop offset=".261" stop-color="#F4A575"/><stop offset=".368" stop-color="#EE977B"/><stop offset=".57" stop-color="#DF7389"/><stop offset=".607" stop-color="#DC6B8C"/><stop offset=".612" stop-color="#DA6B8D"/><stop offset=".731" stop-color="#B06099"/><stop offset=".839" stop-color="#9259A2"/><stop offset=".931" stop-color="#8055A7"/><stop offset=".996" stop-color="#7953A9"/></radialGradient><radialGradient id="paint3_radial" cx="0" cy="0" r="1" gradientUnits="userSpaceOnUse" gradientTransform="rotate(1.325 -451.578 254.145) scale(24.2423)"><stop offset=".109" stop-color="#FEAE6F"/><stop offset=".391" stop-color="#FEAE6F"/><stop offset=".641" stop-color="#DF7389"/><stop offset=".907" stop-color="#B56398"/><stop offset=".996" stop-color="#7852AA"/></radialGradient><radialGradient id="paint4_radial" cx="0" cy="0" r="1" gradientUnits="userSpaceOnUse" gradientTransform="rotate(4.712 -233.39 -200.054) scale(51.1663)"><stop offset=".071" stop-color="#FF9B73"/><stop offset=".39" stop-color="#F4A575"/><stop offset=".589" stop-color="#DF7389"/><stop offset=".645" stop-color="#DC6B8C"/><stop offset=".915" stop-color="#7953A9"/></radialGradient></defs></svg>