<svg width="44" height="44" fill="none" xmlns="http://www.w3.org/2000/svg"><path fill-rule="evenodd" clip-rule="evenodd" d="M21.969 43.117c11.874 0 21.5-9.626 21.5-21.5s-9.626-21.5-21.5-21.5-21.5 9.626-21.5 21.5 9.626 21.5 21.5 21.5z" fill="url(#paint0_linear)"/><path d="M18.844 27.62c0 .68.558 1.238 1.239 1.238h6.422l-.824 3.93c-.1.461.043.942.377 1.274l.985.986 6.117-6.116c.335-.335.545-.798.545-1.313v-8.047c0-1.027-.83-1.857-1.857-1.857h-8.36a1.85 1.85 0 00-1.709 1.132L18.974 25.4c-.08.21-.13.432-.13.674v1.548-.002z" fill="#7465BD" fill-opacity=".8"/><path d="M24.788 16.23a1.242 1.242 0 00-1.238-1.239h-6.422l.824-3.93c.099-.461-.043-.942-.378-1.274L16.59 8.8l-6.116 6.117c-.336.334-.546.799-.546 1.312v8.047c0 1.027.83 1.857 1.858 1.857h8.36c.767 0 1.428-.464 1.708-1.132l2.805-6.55c.08-.21.13-.433.13-.674V16.23z" fill="#BDBAD4"/><defs><linearGradient id="paint0_linear" x1=".469" y1="8.793" x2="45.315" y2="40.523" gradientUnits="userSpaceOnUse"><stop stop-color="#3B3381"/><stop offset="1" stop-color="#322773"/></linearGradient></defs></svg>