<svg width="44" height="44" fill="none" xmlns="http://www.w3.org/2000/svg"><path fill-rule="evenodd" clip-rule="evenodd" d="M21.968 43.5c11.874 0 21.5-9.626 21.5-21.5S33.842.5 21.968.5.468 10.126.468 22s9.626 21.5 21.5 21.5z" fill="url(#paint0_linear)"/><path d="M31.062 17.232c-.937-1.152-2.21-2.062-3.82-2.73-1.61-.668-3.367-1.002-5.274-1.002-1.421 0-2.78.197-4.078.592-1.297.394-2.414.927-3.351 1.599-.938.672-1.684 1.47-2.239 2.396-.554.925-.832 1.896-.832 2.912 0 1.171.354 2.269 1.06 3.292.708 1.023 1.675 1.883 2.901 2.578-.086.312-.187.61-.305.89a9.092 9.092 0 01-.316.692c-.094.18-.22.379-.38.597-.161.219-.282.373-.364.463l-.404.445c-.188.207-.309.342-.364.405a.828.828 0 00-.093.105l-.082.1-.07.105c-.04.059-.057.096-.054.11a.31.31 0 01-.023.118c-.02.063-.018.11.006.14v.012c.031.141.1.254.205.34a.459.459 0 00.357.105 8.8 8.8 0 001.336-.257c2.047-.524 3.844-1.469 5.391-2.836.586.063 1.152.094 1.7.094 1.905 0 3.663-.334 5.273-1.002 1.609-.668 2.883-1.578 3.82-2.73.938-1.152 1.406-2.407 1.406-3.766 0-1.36-.468-2.615-1.406-3.767z" fill="#fff" fill-opacity=".67"/><defs><linearGradient id="paint0_linear" x1=".468" y1="9.176" x2="45.315" y2="40.906" gradientUnits="userSpaceOnUse"><stop stop-color="#3B3381"/><stop offset="1" stop-color="#322773"/></linearGradient></defs></svg>