<svg width="44" height="44" fill="none" xmlns="http://www.w3.org/2000/svg"><path fill-rule="evenodd" clip-rule="evenodd" d="M22.032 43.99c11.874 0 21.5-9.626 21.5-21.5S33.906.99 22.032.99s-21.5 9.626-21.5 21.5 9.626 21.5 21.5 21.5z" fill="url(#paint0_linear)"/><path fill-rule="evenodd" clip-rule="evenodd" d="M22.032 43.99c11.874 0 21.5-9.626 21.5-21.5S33.906.99 22.032.99s-21.5 9.626-21.5 21.5 9.626 21.5 21.5 21.5z" fill="url(#paint1_linear)"/><path d="M15.542 17.975c1.75.597 4.068.925 6.528.925s4.78-.328 6.528-.925c1.864-.635 2.89-1.527 2.89-2.51 0-.984-1.026-1.876-2.89-2.511-1.749-.596-4.067-.925-6.528-.925-2.46 0-4.779.329-6.528.925-1.864.635-2.89 1.527-2.89 2.51 0 .984 1.026 1.876 2.89 2.511z" fill="#fff" fill-opacity=".87"/><path opacity=".668" fill-rule="evenodd" clip-rule="evenodd" d="M30.846 19.287c-.148 0-.308.05-.49.153-.268.152-.606.268-.965.391l-.103.036c-1.957.677-4.52 1.05-7.218 1.05-2.697 0-5.26-.373-7.217-1.05-.554-.191-.707-.251-.912-.356a1.26 1.26 0 00-.575-.165.671.671 0 00-.67.504 1.47 1.47 0 00-.044.354c0 .997 1.026 1.901 2.89 2.546 1.75.604 4.068.938 6.528.938s4.78-.334 6.528-.938c1.864-.645 2.89-1.549 2.89-2.546a1.49 1.49 0 00-.075-.466c-.129-.392-.41-.45-.567-.45zM30.846 23.918c-.148 0-.308.05-.49.153-.267.151-.605.268-.964.391l-.104.036c-1.957.677-4.52 1.05-7.218 1.05-2.697 0-5.26-.373-7.217-1.05-.554-.191-.707-.252-.912-.357a1.26 1.26 0 00-.575-.164.671.671 0 00-.67.503 1.47 1.47 0 00-.044.354c0 .998 1.026 1.902 2.89 2.547 1.75.604 4.068.937 6.528.937s4.78-.333 6.528-.937c1.864-.645 2.89-1.55 2.89-2.547 0-.155-.025-.31-.075-.465-.129-.392-.41-.451-.567-.451zM30.846 28.55c-.148 0-.308.05-.49.153-.268.152-.607.269-.965.392l-.103.036c-1.957.677-4.52 1.05-7.218 1.05-2.697 0-5.26-.373-7.217-1.05-.554-.191-.707-.252-.912-.357a1.26 1.26 0 00-.575-.164.671.671 0 00-.67.503 1.47 1.47 0 00-.044.354c0 .998 1.026 1.902 2.89 2.547 1.75.604 4.068.937 6.528.937s4.78-.333 6.528-.938c1.864-.644 2.89-1.548 2.89-2.546a1.49 1.49 0 00-.075-.465c-.129-.393-.41-.451-.567-.451z" fill="#B0A8D8" fill-opacity=".8"/><defs><linearGradient id="paint0_linear" x1="-13.774" y1="3.675" x2="68.626" y2="51.423" gradientUnits="userSpaceOnUse"><stop stop-color="#FFECD0"/><stop offset="1" stop-color="#FFD7C6"/></linearGradient><linearGradient id="paint1_linear" x1=".532" y1="9.666" x2="45.378" y2="41.396" gradientUnits="userSpaceOnUse"><stop stop-color="#6C5BC2"/><stop offset="1" stop-color="#5A42AC"/></linearGradient></defs></svg>