<svg width="50" height="50" viewBox="0 0 50 50" fill="none" xmlns="http://www.w3.org/2000/svg">
<circle opacity="0.2" cx="25" cy="25" r="25" fill="#2BC58E"/>
<path fill-rule="evenodd" clip-rule="evenodd" d="M14.0008 33.7908C13.9454 27.7254 16.7686 24.3605 22.4703 23.696C23.0954 23.6955 23.4197 23.6948 25.0495 23.6957L27.7058 23.696C33.3076 24.2756 36.1086 27.7106 36.1086 34.0008C30.4385 33.9672 23.2584 33.9672 14.5682 34.0008L14.0008 33.7908Z" fill="#2BC58E"/>
<path d="M25.0809 22.2008C27.6216 22.2008 29.6812 20.1411 29.6812 17.6004C29.6812 15.0597 27.6216 13 25.0809 13C22.5401 13 20.4805 15.0597 20.4805 17.6004C20.4805 20.1411 22.5401 22.2008 25.0809 22.2008Z" fill="#2BC58E"/>
</svg>
