<svg width="44" height="44" fill="none" xmlns="http://www.w3.org/2000/svg"><path fill-rule="evenodd" clip-rule="evenodd" d="M22.496 43.117c11.874 0 21.5-9.626 21.5-21.5S34.37.117 22.496.117s-21.5 9.626-21.5 21.5 9.625 21.5 21.5 21.5z" fill="url(#paint0_linear)"/><path d="M16.723 18.82a2.972 2.972 0 10-4.204 4.202 2.972 2.972 0 004.204-4.202z" fill="#7465BD" fill-opacity=".8"/><path fill-rule="evenodd" clip-rule="evenodd" d="M14.742 24.82h-.316c-3.321.009-6.011 2.73-6.02 6.09v.43c0 .237.19.428.423.428h11.507a.425.425 0 00.423-.427v-.43c-.01-3.36-2.698-6.08-6.017-6.09z" fill="#7465BD" fill-opacity=".8"/><path d="M21.376 10.167c2-1.402 4.391-2.136 6.832-2.097a11.577 11.577 0 016.833 2.097c1.811 1.338 2.933 3.196 2.933 5.268 0 2.072-1.118 3.933-2.933 5.27a11.577 11.577 0 01-6.833 2.099c-.868 0-1.734-.088-2.584-.262a11.716 11.716 0 01-2.099-.636l-3.565 2.203a.613.613 0 01-.878-.79l1.55-3.224a7.22 7.22 0 01-1.521-1.966 5.822 5.822 0 01-.668-2.69c0-2.073 1.118-3.934 2.933-5.272zm6.967 8.736a.818.818 0 00-.814.82c0 .454.364.822.814.822.45 0 .814-.368.814-.821a.818.818 0 00-.814-.821zm0-8.596c-.35 0-.686.148-.923.409-.238.26-.356.61-.327.962l.506 5.248.002.021a.75.75 0 00.742.67.75.75 0 00.745-.69l.505-5.249.002-.032a1.272 1.272 0 00-.329-.93 1.25 1.25 0 00-.923-.409z" fill="#BDBAD4"/><defs><linearGradient id="paint0_linear" x1=".996" y1="8.793" x2="45.842" y2="40.523" gradientUnits="userSpaceOnUse"><stop stop-color="#3B3381"/><stop offset="1" stop-color="#322773"/></linearGradient></defs></svg>