<svg width="43" height="43" viewBox="0 0 43 43" fill="none" xmlns="http://www.w3.org/2000/svg">
<path fill-rule="evenodd" clip-rule="evenodd" d="M21.5 43C33.3741 43 43 33.3741 43 21.5C43 9.62588 33.3741 0 21.5 0C9.62588 0 0 9.62588 0 21.5C0 33.3741 9.62588 43 21.5 43Z" fill="url(#paint0_linear)"/>
<path fill-rule="evenodd" clip-rule="evenodd" d="M21.5 43C33.3741 43 43 33.3741 43 21.5C43 9.62588 33.3741 0 21.5 0C9.62588 0 0 9.62588 0 21.5C0 33.3741 9.62588 43 21.5 43Z" fill="url(#paint1_linear)"/>
<path d="M21.5004 24.7328C30.1887 24.7328 34.7798 22.4584 35.1373 22.2726C35.149 22.2656 35.1537 22.2538 35.1584 22.242C35.1725 21.9974 35.182 21.7505 35.182 21.5012C35.182 21.2519 35.1725 21.0049 35.1584 20.7603C35.1561 20.7485 35.1514 20.7344 35.1373 20.7297C34.7798 20.5439 30.1887 18.2695 21.5004 18.2695C12.8121 18.2695 8.22104 20.5416 7.86354 20.7274C7.85178 20.7344 7.84707 20.7462 7.84237 20.7579C7.82826 21.0049 7.81885 21.2495 7.81885 21.4988C7.81885 21.7481 7.82826 21.9951 7.84237 22.2397C7.84472 22.2515 7.84942 22.2656 7.86354 22.2703C8.22104 22.4561 12.8121 24.7328 21.5004 24.7328Z" fill="white" fill-opacity="0.87"/>
<path d="M21.5004 12.8398C16.032 12.8398 12.1912 13.7407 10.0062 14.4533C9.09366 15.7939 8.43275 17.3039 8.08936 18.9245C8.09876 18.9315 8.11288 18.9339 8.12464 18.9292C9.24183 18.4117 13.7294 16.5936 21.5004 16.5936C29.2714 16.5936 33.759 18.4117 34.8762 18.9292C34.888 18.9339 34.9021 18.9315 34.9115 18.9245C34.5681 17.3039 33.9072 15.7963 32.9946 14.4533C30.8073 13.7407 26.9688 12.8398 21.5004 12.8398Z" fill="white" fill-opacity="0.87"/>
<path d="M11.7866 30.6602C14.2656 33.038 17.7019 34.5104 21.5004 34.5104C25.2988 34.5104 28.7351 33.038 31.2141 30.6602C28.9468 31.2317 25.7081 31.7632 21.5004 31.7632C17.2926 31.7632 14.0539 31.2317 11.7866 30.6602Z" fill="white" fill-opacity="0.87"/>
<path d="M11.7866 12.3379C14.2656 9.96002 17.7019 8.48767 21.5004 8.48767C25.2988 8.48767 28.7351 9.96002 31.2141 12.3379C28.9468 11.7664 25.7081 11.2348 21.5004 11.2348C17.2926 11.2348 14.0539 11.7664 11.7866 12.3379Z" fill="white" fill-opacity="0.87"/>
<path d="M21.5004 30.125C16.032 30.125 12.1912 29.2242 10.0062 28.5115C9.09366 27.1709 8.43275 25.6609 8.08936 24.0404C8.09876 24.0333 8.11288 24.0309 8.12464 24.0357C9.24183 24.5531 13.7294 26.3712 21.5004 26.3712C29.2714 26.3712 33.759 24.5531 34.8762 24.0357C34.888 24.0309 34.9021 24.0333 34.9115 24.0404C34.5681 25.6609 33.9072 27.1685 32.9946 28.5115C30.8073 29.2265 26.9688 30.125 21.5004 30.125Z" fill="white" fill-opacity="0.87"/>
<defs>
<linearGradient id="paint0_linear" x1="13.3344" y1="60.4102" x2="55.5081" y2="27.0927" gradientUnits="userSpaceOnUse">
<stop stop-color="#FFB36D"/>
<stop offset="1" stop-color="#FF8888"/>
</linearGradient>
<linearGradient id="paint1_linear" x1="9.38848e-07" y1="8.67608" x2="44.8463" y2="40.406" gradientUnits="userSpaceOnUse">
<stop stop-color="#6C5BC2"/>
<stop offset="1" stop-color="#5A42AC"/>
</linearGradient>
</defs>
</svg>
