<svg width="44" height="44" fill="none" xmlns="http://www.w3.org/2000/svg"><path fill-rule="evenodd" clip-rule="evenodd" d="M22.496 43.725c11.874 0 21.5-9.626 21.5-21.5 0-11.875-9.626-21.5-21.5-21.5s-21.5 9.626-21.5 21.5 9.625 21.5 21.5 21.5z" fill="url(#paint0_linear)"/><path d="M16.723 19.428a2.972 2.972 0 10-4.204 4.202 2.972 2.972 0 004.204-4.202z" fill="#B0A8D8" fill-opacity=".8"/><path fill-rule="evenodd" clip-rule="evenodd" d="M14.742 25.428h-.316c-3.321.008-6.011 2.73-6.02 6.09v.43c0 .236.19.428.423.428h11.507a.425.425 0 00.423-.428v-.43c-.01-3.359-2.698-6.08-6.017-6.09z" fill="#B0A8D8" fill-opacity=".8"/><path d="M21.376 10.775c2-1.403 4.391-2.137 6.832-2.098a11.577 11.577 0 016.833 2.098c1.811 1.338 2.933 3.195 2.933 5.267 0 2.072-1.118 3.934-2.933 5.271a11.578 11.578 0 01-6.833 2.098c-.868 0-1.734-.087-2.584-.262a11.708 11.708 0 01-2.099-.636l-3.565 2.203a.613.613 0 01-.878-.789l1.55-3.224a7.219 7.219 0 01-1.521-1.967 5.823 5.823 0 01-.668-2.69c0-2.072 1.118-3.933 2.933-5.271zm6.967 8.735a.818.818 0 00-.814.821c0 .454.364.821.814.821.45 0 .814-.367.814-.82a.818.818 0 00-.814-.822zm0-8.595c-.35 0-.686.148-.923.408-.238.26-.356.61-.327.963l.506 5.248.002.02a.75.75 0 00.742.67.75.75 0 00.745-.69l.505-5.248.002-.032a1.272 1.272 0 00-.329-.93 1.25 1.25 0 00-.923-.41z" fill="#fff" fill-opacity=".87"/><defs><linearGradient id="paint0_linear" x1=".996" y1="9.401" x2="45.842" y2="41.131" gradientUnits="userSpaceOnUse"><stop stop-color="#6C5BC2"/><stop offset="1" stop-color="#5A42AC"/></linearGradient></defs></svg>