<svg width="48" height="49" fill="none" xmlns="http://www.w3.org/2000/svg"><circle cx="24" cy="24.5" r="24" fill="url(#paint0_linear)" fill-opacity=".3"/><path d="M34.5 23.786v-2.143c0-.79-.672-1.429-1.5-1.429H16.5c-.827 0-1.5-.64-1.5-1.428 0-.788.673-1.429 1.5-1.429H33c.828 0 1.5-.64 1.5-1.428 0-.79-.672-1.429-1.5-1.429H16.5c-2.482 0-4.5 1.922-4.5 4.286v12.857c0 1.578 1.343 2.857 3 2.857h18c.828 0 1.5-.64 1.5-1.429V30.93c.828 0 1.5-.64 1.5-1.429v-4.286c0-.789-.672-1.428-1.5-1.428zm-2.25 5c-.828 0-1.5-.64-1.5-1.429s.672-1.428 1.5-1.428 1.5.64 1.5 1.428c0 .79-.672 1.429-1.5 1.429z" fill="url(#paint1_linear)"/><defs><linearGradient id="paint0_linear" x1="-15.97" y1="3.497" x2="76.012" y2="56.797" gradientUnits="userSpaceOnUse"><stop stop-color="#E9507D" stop-opacity=".8"/><stop offset="1" stop-color="#EE7FA0" stop-opacity=".8"/></linearGradient><linearGradient id="paint1_linear" x1="43.5" y1="7" x2="6.967" y2="45.42" gradientUnits="userSpaceOnUse"><stop stop-color="#F56D95"/><stop offset="1" stop-color="#B65AD5"/></linearGradient></defs></svg>