<svg width="70" height="71" fill="none" xmlns="http://www.w3.org/2000/svg"><path d="M35 70.182c19.33 0 35-15.67 35-35s-15.67-35-35-35-35 15.67-35 35 15.67 35 35 35z" fill="url(#paint0_linear)"/><path d="M34.996 10.346l4.722 13.265 12.71-6.041-6.04 12.71 13.265 4.715-13.266 4.722 6.042 12.71-12.71-6.04-4.723 13.265-4.714-13.266-12.711 6.042 6.041-12.71-13.265-4.723 13.266-4.714L17.57 17.57l12.71 6.041 4.715-13.265z" fill="url(#paint1_linear)"/><path d="M34.996 10.346l4.722 13.265 12.71-6.041-6.04 12.71 13.265 4.715-13.266 4.722 6.042 12.71-12.71-6.04-4.723 13.265-4.714-13.266-12.711 6.042 6.041-12.71-13.265-4.723 13.266-4.714L17.57 17.57l12.71 6.041 4.715-13.265z" fill="url(#paint2_linear)"/><path d="M44.108 12.087l-.515 14.072 14.043-.916-10.311 9.577 10.584 9.284-14.072-.515.916 14.043-9.578-10.311-9.29 10.58.522-14.068-14.043.916 10.311-9.578-10.581-9.29 14.069.522-.916-14.044 9.578 10.312 9.283-10.584z" fill="url(#paint3_linear)"/><defs><linearGradient id="paint0_linear" x1="0" y1="14.306" x2="73.006" y2="65.959" gradientUnits="userSpaceOnUse"><stop stop-color="#6050B0"/><stop offset="1" stop-color="#4D3895"/></linearGradient><linearGradient id="paint1_linear" x1="-5.144" y1="65.708" x2="93.079" y2="48.806" gradientUnits="userSpaceOnUse"><stop stop-color="#fff" stop-opacity=".8"/><stop offset=".776" stop-color="#fff" stop-opacity="0"/></linearGradient><linearGradient id="paint2_linear" x1="-5.144" y1="65.708" x2="93.079" y2="48.806" gradientUnits="userSpaceOnUse"><stop stop-color="#fff" stop-opacity=".8"/><stop offset=".776" stop-color="#fff" stop-opacity="0"/></linearGradient><linearGradient id="paint3_linear" x1="-13.651" y1="48.693" x2="83.864" y2="69.291" gradientUnits="userSpaceOnUse"><stop stop-color="#fff" stop-opacity=".8"/><stop offset=".776" stop-color="#fff" stop-opacity="0"/></linearGradient></defs></svg>