<svg width="50" height="50" fill="none" xmlns="http://www.w3.org/2000/svg"><circle cx="25" cy="25" r="25" fill="#2BC58E" fill-opacity=".2"/><mask id="a" maskUnits="userSpaceOnUse" x="0" y="0" width="50" height="50"><circle cx="25" cy="25" r="25" fill="#26C395"/></mask><g mask="url(#a)" stroke="#2ED2A1" stroke-width=".5" stroke-miterlimit="10"><path d="M24.94 46c12.411 0 22.472-8.13 22.472-18.158 0-10.029-10.06-18.158-22.471-18.158-12.41 0-22.472 8.13-22.472 18.158S12.53 46 24.941 46z"/><path d="M24.94 51.237c15.601 0 28.248-12.083 28.248-26.988 0-14.906-12.647-26.99-28.247-26.99S-3.306 9.344-3.306 24.25c0 14.905 12.646 26.988 28.247 26.988z"/><path d="M25.042-29v69.972M-12-24.086S4.82-16.114 12.005 3.02c7.185 19.135 5.445 32.452 5.445 32.452M32.5 35.664s-1.74-13.361 5.445-32.559c5.831-15.58 18.008-23.783 22.39-26.322M8.785 32.276S4.527 21.752-6.346 13.226C-17.22 4.7-29.571 5.79-29.571 5.79M41.095 32.276s4.259-10.524 15.132-19.05C67.1 4.7 79.45 5.79 79.45 5.79M10.232 36.345s-9.11-2.683-19.548 3.405M35.278 40.022s2.564 4.623 2.564 14.863M14.663 40.022s-2.42 5.476-2.42 14.863M40.226 35.517s9.11-2.683 19.547 3.405" stroke-linecap="round" stroke-linejoin="round"/><path d="M24.94 42.248c8.923 0 16.156-4.607 16.156-10.29 0-5.684-7.233-10.292-16.156-10.292-8.922 0-16.155 4.607-16.155 10.291s7.233 10.291 16.155 10.291z"/><path d="M24.94 40.926c4.43 0 8.023-1.772 8.023-3.957 0-2.186-3.593-3.957-8.024-3.957-4.43 0-8.023 1.771-8.023 3.957 0 2.185 3.592 3.957 8.023 3.957z"/></g><circle cx="32.003" cy="21.934" r="5.471" fill="url(#paint0_linear)"/><defs><linearGradient id="paint0_linear" x1="29.5" y1="24.5" x2="40.5" y2="16" gradientUnits="userSpaceOnUse"><stop stop-color="#A46DDF"/><stop offset="1" stop-color="#BE90EF"/></linearGradient></defs></svg>