<svg width="44" height="44" fill="none" xmlns="http://www.w3.org/2000/svg"><path fill-rule="evenodd" clip-rule="evenodd" d="M21.887 43.99c11.874 0 21.5-9.626 21.5-21.5S33.761.99 21.887.99s-21.5 9.626-21.5 21.5 9.626 21.5 21.5 21.5z" fill="url(#paint0_linear)"/><path d="M30.841 16.744c-.938-1.153-2.211-2.063-3.82-2.73-1.61-.668-3.367-1.002-5.274-1.002-1.422 0-2.781.197-4.078.591-1.297.395-2.414.928-3.351 1.6-.938.671-1.684 1.47-2.239 2.396-.555.925-.832 1.896-.832 2.911 0 1.172.354 2.27 1.06 3.293.708 1.023 1.674 1.883 2.901 2.578-.086.312-.188.609-.305.89a9.115 9.115 0 01-.316.691c-.094.18-.22.38-.381.598-.16.219-.281.373-.363.463l-.405.445a41.84 41.84 0 00-.363.404.828.828 0 00-.094.106l-.082.1-.07.105c-.04.058-.057.095-.053.11a.31.31 0 01-.023.118c-.02.062-.018.11.006.14v.012c.031.14.1.254.205.34a.459.459 0 00.357.105 8.8 8.8 0 001.336-.258c2.047-.523 3.844-1.468 5.39-2.835.587.062 1.153.094 1.7.094 1.906 0 3.664-.334 5.273-1.002 1.61-.668 2.883-1.578 3.82-2.73.938-1.152 1.407-2.408 1.407-3.767s-.469-2.615-1.406-3.767z" fill="#fff" fill-opacity=".87"/><defs><linearGradient id="paint0_linear" x1=".387" y1="9.666" x2="45.233" y2="41.396" gradientUnits="userSpaceOnUse"><stop stop-color="#6C5BC2"/><stop offset="1" stop-color="#5A42AC"/></linearGradient></defs></svg>