<svg width="85" height="84" fill="none" xmlns="http://www.w3.org/2000/svg"><g clip-path="url(#clip0)"><path d="M62.067 26.824L45.45 17.309a6.372 6.372 0 00-6.387.02l-16.556 9.63a6.409 6.409 0 00-3.178 5.533l.065 19.157a6.418 6.418 0 003.218 5.524l16.613 9.513a6.376 6.376 0 006.391-.019l16.561-9.632a6.427 6.427 0 003.162-5.543l-.066-19.156a6.421 6.421 0 00-3.206-5.512z" fill="#FFDD0F" fill-opacity=".2"/><path fill-rule="evenodd" clip-rule="evenodd" d="M44.952 18.176a5.371 5.371 0 00-5.385.017l-16.556 9.63a5.411 5.411 0 00-2.682 4.667v.002l.065 19.15v.002a5.416 5.416 0 002.716 4.662l16.613 9.513a5.376 5.376 0 005.39-.015l16.556-9.63.003-.002a5.427 5.427 0 002.667-4.677v-.002l-.065-19.15v-.001a5.421 5.421 0 00-2.705-4.651l-.002-.001-16.615-9.514zm17.115 8.648a6.422 6.422 0 013.206 5.512l.066 19.156a6.427 6.427 0 01-3.162 5.543l-16.56 9.633a6.376 6.376 0 01-6.392.018l-16.613-9.513a6.417 6.417 0 01-3.218-5.525l-.065-19.156a6.408 6.408 0 013.178-5.533l16.556-9.63a6.372 6.372 0 016.387-.02l16.617 9.515z" fill="url(#paint0_linear)"/><path d="M54.53 32.62l-10.27-5.881a3.938 3.938 0 00-3.948.012L30.08 32.703a3.96 3.96 0 00-1.964 3.42l.04 11.84a3.966 3.966 0 001.988 3.416l10.268 5.88a3.942 3.942 0 003.95-.012l10.236-5.953a3.972 3.972 0 001.954-3.427l-.04-11.84a3.969 3.969 0 00-1.982-3.407zM113.267 26.65L96.65 17.135a6.374 6.374 0 00-6.387.02l-16.556 9.63a6.407 6.407 0 00-3.178 5.535l.065 19.156a6.415 6.415 0 003.218 5.525l16.613 9.512a6.377 6.377 0 006.391-.018l16.561-9.633a6.422 6.422 0 003.162-5.542l-.065-19.156a6.427 6.427 0 00-3.207-5.514z" fill="#FFDD0F" fill-opacity=".2"/><path fill-rule="evenodd" clip-rule="evenodd" d="M96.151 18.002a5.373 5.373 0 00-5.384.017h-.001L74.21 27.65a5.41 5.41 0 00-2.682 4.669v.002l.065 19.15v.001a5.415 5.415 0 002.715 4.662h.002l16.612 9.514a5.378 5.378 0 005.39-.016l16.556-9.63.003-.001a5.434 5.434 0 002.667-4.677v-.002l-.065-19.15v-.002a5.418 5.418 0 00-2.707-4.653l-16.615-9.514zm17.116 8.648a6.425 6.425 0 013.207 5.514l.065 19.156a6.424 6.424 0 01-3.162 5.542l-16.56 9.633a6.376 6.376 0 01-6.392.018L73.812 57a6.416 6.416 0 01-3.218-5.524l-.065-19.156a6.406 6.406 0 013.178-5.535l16.556-9.63a6.373 6.373 0 016.387-.02l16.617 9.515z" fill="url(#paint1_linear)"/><path d="M105.729 32.446l-10.27-5.881a3.939 3.939 0 00-3.948.013L81.28 32.529a3.96 3.96 0 00-1.965 3.42l.04 11.84a3.966 3.966 0 001.99 3.416l10.267 5.88a3.94 3.94 0 003.95-.012l10.235-5.953a3.975 3.975 0 001.955-3.426l-.041-11.84a3.967 3.967 0 00-1.981-3.408zM10.068 27L-6.55 17.484a6.371 6.371 0 00-6.387.021l-16.556 9.63a6.41 6.41 0 00-3.177 5.533l.065 19.156a6.416 6.416 0 003.217 5.525l16.613 9.512a6.376 6.376 0 006.392-.018l16.56-9.632a6.428 6.428 0 003.162-5.543l-.065-19.156A6.422 6.422 0 0010.068 27z" fill="#FFDD0F" fill-opacity=".2"/><path fill-rule="evenodd" clip-rule="evenodd" d="M-7.048 18.351a5.372 5.372 0 00-5.384.018h-.002L-28.989 28a5.41 5.41 0 00-2.681 4.667v.002l.065 19.15v.002a5.415 5.415 0 002.716 4.661l16.613 9.514a5.376 5.376 0 005.39-.016L9.67 56.35l.002-.001a5.427 5.427 0 002.667-4.679l-.065-19.15v-.001a5.421 5.421 0 00-2.707-4.653l-16.615-9.514zm20.322 14.16l.065 19.157a6.428 6.428 0 01-3.161 5.543l-16.561 9.632a6.377 6.377 0 01-6.392.018l-16.612-9.513a6.416 6.416 0 01-3.218-5.524l-.065-19.156a6.408 6.408 0 013.177-5.533l16.556-9.63a6.373 6.373 0 016.387-.02L10.068 27a6.421 6.421 0 013.206 5.512z" fill="url(#paint2_linear)"/><path d="M2.53 32.797l-10.27-5.88a3.938 3.938 0 00-3.947.012l-10.233 5.952a3.96 3.96 0 00-1.964 3.42l.04 11.84a3.965 3.965 0 001.989 3.416l10.267 5.88a3.941 3.941 0 003.95-.012l10.236-5.954a3.973 3.973 0 001.954-3.425l-.04-11.84a3.969 3.969 0 00-1.982-3.409zM87.548-18.775L70.931-28.29a6.37 6.37 0 00-6.387.02l-16.556 9.63a6.408 6.408 0 00-3.178 5.533l.065 19.157a6.417 6.417 0 003.218 5.524l16.613 9.513a6.376 6.376 0 006.391-.018l16.561-9.633a6.427 6.427 0 003.162-5.542l-.065-19.156a6.422 6.422 0 00-3.207-5.512z" fill="#FFDD0F" fill-opacity=".2"/><path fill-rule="evenodd" clip-rule="evenodd" d="M70.432-27.424a5.37 5.37 0 00-5.384.017l-.001.001-16.555 9.63a5.41 5.41 0 00-2.682 4.667v.002l.065 19.15v.001a5.417 5.417 0 002.716 4.662l16.613 9.513a5.376 5.376 0 005.39-.015l16.556-9.63.002-.001a5.428 5.428 0 002.668-4.677v-.002l-.065-19.15v-.002a5.422 5.422 0 00-2.706-4.65l-.002-.001-16.615-9.515zm17.116 8.65a6.423 6.423 0 013.207 5.51l.065 19.157a6.428 6.428 0 01-3.162 5.542l-16.56 9.633a6.376 6.376 0 01-6.392.018l-16.613-9.513a6.417 6.417 0 01-3.218-5.524l-.065-19.157a6.409 6.409 0 013.178-5.532l16.556-9.63a6.37 6.37 0 016.387-.02l16.617 9.515z" fill="url(#paint3_linear)"/><path d="M80.01-12.98l-10.27-5.88a3.936 3.936 0 00-3.947.012l-10.232 5.952a3.96 3.96 0 00-1.964 3.42l.04 11.84a3.966 3.966 0 001.988 3.415l10.268 5.88a3.94 3.94 0 003.95-.011l10.235-5.954a3.972 3.972 0 001.955-3.425l-.04-11.84a3.969 3.969 0 00-1.982-3.409z" fill="#FFDD0F" fill-opacity=".2"/><path d="M75.353-9.397l-6.349-3.635a2.435 2.435 0 00-2.44.008l-6.322 3.679a2.447 2.447 0 00-1.214 2.114l.025 7.317a2.45 2.45 0 001.229 2.11l6.346 3.634a2.436 2.436 0 002.441-.007l6.326-3.68A2.455 2.455 0 0076.603.028l-.025-7.318a2.454 2.454 0 00-1.225-2.106z" fill="#FFDD0F"/><path d="M35.45-18.6l-16.617-9.515a6.372 6.372 0 00-6.386.02l-16.557 9.63a6.408 6.408 0 00-3.177 5.533l.064 19.157a6.417 6.417 0 003.218 5.524l16.613 9.513A6.377 6.377 0 0019 21.244l16.56-9.633a6.426 6.426 0 003.162-5.542l-.065-19.157a6.42 6.42 0 00-3.206-5.512z" fill="#FFDD0F" fill-opacity=".2"/><path fill-rule="evenodd" clip-rule="evenodd" d="M18.335-27.248a5.37 5.37 0 00-5.384.017l-.002.001-16.554 9.63s0-.001 0 0a5.411 5.411 0 00-2.682 4.667v.001l.064 19.15v.002a5.417 5.417 0 002.715 4.661l.002.001 16.613 9.513a5.378 5.378 0 005.39-.015l16.556-9.63.002-.002a5.428 5.428 0 002.667-4.678l-.065-19.15v-.003a5.42 5.42 0 00-2.705-4.65l-.002-.001-16.615-9.514zM35.45-18.6a6.422 6.422 0 013.206 5.512l.065 19.157a6.427 6.427 0 01-3.161 5.542L19 21.244a6.376 6.376 0 01-6.392.018l-16.613-9.513a6.417 6.417 0 01-3.218-5.524l-.064-19.157a6.408 6.408 0 013.177-5.533l16.557-9.63a6.372 6.372 0 016.386-.02L35.451-18.6z" fill="url(#paint4_linear)"/><path d="M87.548 72.424l-16.617-9.516a6.37 6.37 0 00-6.387.021l-16.556 9.63a6.408 6.408 0 00-3.178 5.534l.065 19.156a6.418 6.418 0 003.218 5.525l16.613 9.513a6.375 6.375 0 006.391-.018l16.561-9.633a6.43 6.43 0 003.162-5.542l-.065-19.157a6.421 6.421 0 00-3.207-5.513z" fill="#FFDD0F" fill-opacity=".2"/><path fill-rule="evenodd" clip-rule="evenodd" d="M71.097 112.269l16.561-9.633a6.43 6.43 0 003.162-5.542l-.065-19.157a6.421 6.421 0 00-3.207-5.513l-16.617-9.516a6.37 6.37 0 00-6.387.021l-16.556 9.63a6.408 6.408 0 00-3.178 5.534l.065 19.156a6.418 6.418 0 003.218 5.525l16.613 9.513a6.375 6.375 0 006.391-.018zm-22.506-10.362l16.613 9.513a5.372 5.372 0 005.39-.015l16.556-9.63.002-.002a5.43 5.43 0 002.668-4.677v-.001l-.065-19.15v-.002a5.423 5.423 0 00-2.708-4.654l-16.615-9.514a5.37 5.37 0 00-5.384.018h-.001l-16.555 9.63a5.411 5.411 0 00-2.682 4.668v.002l.065 19.15v.002a5.416 5.416 0 002.716 4.662z" fill="url(#paint5_linear)"/><path d="M80.01 78.103l-10.27-5.88a3.937 3.937 0 00-3.947.013l-10.232 5.952a3.96 3.96 0 00-1.964 3.42l.04 11.84a3.966 3.966 0 001.988 3.414l10.268 5.879a3.94 3.94 0 003.95-.011l10.235-5.953a3.972 3.972 0 001.955-3.426l-.04-11.84a3.969 3.969 0 00-1.982-3.408z" fill="#FFDD0F" fill-opacity=".2"/><path d="M75.353 81.802l-6.349-3.634a2.433 2.433 0 00-2.44.007l-6.322 3.679a2.449 2.449 0 00-1.214 2.114l.025 7.317a2.451 2.451 0 001.229 2.11l6.346 3.634a2.436 2.436 0 002.441-.007l6.326-3.68a2.455 2.455 0 001.208-2.116l-.025-7.318a2.454 2.454 0 00-1.225-2.106z" fill="#FFDD0F"/><path d="M35.548 72.601l-16.617-9.515a6.37 6.37 0 00-6.387.02l-16.556 9.63a6.408 6.408 0 00-3.178 5.535l.065 19.156a6.419 6.419 0 003.218 5.525l16.613 9.512a6.376 6.376 0 006.392-.018l16.56-9.632a6.43 6.43 0 003.162-5.543l-.065-19.156a6.421 6.421 0 00-3.207-5.514z" fill="#FFDD0F" fill-opacity=".2"/><path fill-rule="evenodd" clip-rule="evenodd" d="M18.433 63.953a5.372 5.372 0 00-5.385.017v.001l-16.556 9.63a5.41 5.41 0 00-2.682 4.668v.002l.065 19.15v.001a5.414 5.414 0 002.717 4.663l16.613 9.513a5.372 5.372 0 005.389-.015l16.556-9.631.003-.001a5.427 5.427 0 002.667-4.677v-.002l-.065-19.15v-.002a5.421 5.421 0 00-2.705-4.652l-.002-.001-16.616-9.514zm17.115 8.648a6.422 6.422 0 013.207 5.514l.065 19.156a6.43 6.43 0 01-3.162 5.543l-16.56 9.632a6.367 6.367 0 01-6.392.018l-16.613-9.512a6.426 6.426 0 01-3.218-5.525l-.065-19.156a6.408 6.408 0 013.178-5.534l16.556-9.63a6.371 6.371 0 016.387-.02L35.548 72.6z" fill="url(#paint6_linear)"/><path d="M2.41-2.404l-10.27-5.88a3.938 3.938 0 00-3.948.012L-22.041-2.32a3.96 3.96 0 00-1.964 3.42l.04 11.84a3.964 3.964 0 001.989 3.415l10.267 5.88a3.94 3.94 0 003.95-.011L2.478 16.27a3.972 3.972 0 001.954-3.425l-.04-11.84a3.969 3.969 0 00-1.98-3.409z" fill="#FFDD0F"/><path d="M27.878-12.98l-10.271-5.88a3.936 3.936 0 00-3.947.012L3.427-12.896a3.96 3.96 0 00-1.964 3.42l.04 11.84a3.966 3.966 0 001.989 3.415l10.267 5.88a3.94 3.94 0 003.95-.011l10.236-5.954a3.972 3.972 0 001.954-3.425l-.04-11.84a3.969 3.969 0 00-1.982-3.409zM27.878 77.985l-10.271-5.881a3.938 3.938 0 00-3.947.013L3.427 78.069a3.96 3.96 0 00-1.964 3.42l.04 11.84a3.966 3.966 0 001.989 3.415l10.267 5.88a3.939 3.939 0 003.95-.011l10.236-5.954a3.972 3.972 0 001.954-3.425l-.04-11.84a3.969 3.969 0 00-1.982-3.409z" fill="#FFDD0F" fill-opacity=".2"/></g><defs><linearGradient id="paint0_linear" x1="42.334" y1="24.586" x2="42.334" y2="88.429" gradientUnits="userSpaceOnUse"><stop stop-color="#FFDD0F" stop-opacity=".8"/><stop offset="1" stop-color="#FFDD0F" stop-opacity="0"/></linearGradient><linearGradient id="paint1_linear" x1="93.534" y1="24.413" x2="93.534" y2="88.258" gradientUnits="userSpaceOnUse"><stop stop-color="#FFDD0F" stop-opacity=".8"/><stop offset="1" stop-color="#FFDD0F" stop-opacity="0"/></linearGradient><linearGradient id="paint2_linear" x1="-9.666" y1="24.762" x2="-9.666" y2="88.605" gradientUnits="userSpaceOnUse"><stop stop-color="#FFDD0F" stop-opacity=".8"/><stop offset="1" stop-color="#FFDD0F" stop-opacity="0"/></linearGradient><linearGradient id="paint3_linear" x1="67.815" y1="-21.013" x2="67.815" y2="42.83" gradientUnits="userSpaceOnUse"><stop stop-color="#FFDD0F"/><stop offset="1" stop-color="#FFDD0F" stop-opacity="0"/></linearGradient><linearGradient id="paint4_linear" x1="15.717" y1="-20.837" x2="15.717" y2="43.006" gradientUnits="userSpaceOnUse"><stop stop-color="#FFDD0F"/><stop offset="1" stop-color="#FFDD0F" stop-opacity="0"/></linearGradient><linearGradient id="paint5_linear" x1="67.815" y1="70.186" x2="67.815" y2="134.031" gradientUnits="userSpaceOnUse"><stop stop-color="#FFDD0F" stop-opacity=".8"/><stop offset="1" stop-color="#FFDD0F" stop-opacity="0"/></linearGradient><linearGradient id="paint6_linear" x1="15.815" y1="70.364" x2="15.815" y2="87.999" gradientUnits="userSpaceOnUse"><stop stop-color="#FFDD0F" stop-opacity=".8"/><stop offset="1" stop-color="#FFDD0F" stop-opacity="0"/></linearGradient><clipPath id="clip0"><rect x=".334" width="84" height="84" rx="42" fill="#fff"/></clipPath></defs></svg>