<svg width="44" height="44" fill="none" xmlns="http://www.w3.org/2000/svg"><path fill-rule="evenodd" clip-rule="evenodd" d="M21.969 43.5c11.874 0 21.5-9.626 21.5-21.5S33.843.5 21.969.5.469 10.126.469 22s9.626 21.5 21.5 21.5z" fill="url(#paint0_linear)"/><path fill-rule="evenodd" clip-rule="evenodd" d="M18.635 26.27c-.044-4.892 2.233-7.607 6.832-8.143h4.223c4.52.468 6.778 3.239 6.778 8.313a1836.21 1836.21 0 00-17.375 0l-.458-.17z" fill="#7465BD" fill-opacity=".8"/><path d="M27.572 16.922a3.71 3.71 0 100-7.422 3.71 3.71 0 000 7.422z" fill="#7465BD" fill-opacity=".8"/><path fill-rule="evenodd" clip-rule="evenodd" d="M8.491 29.981c-.045-4.892 2.233-7.607 6.832-8.143h4.223c4.519.468 6.778 3.239 6.778 8.313-4.573-.027-10.365-.027-17.375 0l-.458-.17z" fill="#BDBAD4"/><path d="M17.407 20.633a3.71 3.71 0 100-7.422 3.71 3.71 0 000 7.422z" fill="#BDBAD4"/><defs><linearGradient id="paint0_linear" x1=".469" y1="9.176" x2="45.315" y2="40.906" gradientUnits="userSpaceOnUse"><stop stop-color="#3B3381"/><stop offset="1" stop-color="#322773"/></linearGradient></defs></svg>