<svg width="44" height="44" fill="none" xmlns="http://www.w3.org/2000/svg"><path fill-rule="evenodd" clip-rule="evenodd" d="M22.424 43.99c11.874 0 21.5-9.626 21.5-21.5S34.298.99 22.424.99s-21.5 9.626-21.5 21.5 9.626 21.5 21.5 21.5z" fill="url(#paint0_linear)"/><path fill-rule="evenodd" clip-rule="evenodd" d="M19.09 26.76c-.044-4.892 2.233-7.606 6.832-8.142h4.224c4.518.467 6.778 3.238 6.778 8.312a1843.01 1843.01 0 00-17.376 0l-.457-.17z" fill="#B0A8D8" fill-opacity=".8"/><path d="M28.027 17.412a3.71 3.71 0 100-7.422 3.71 3.71 0 000 7.422z" fill="#B0A8D8" fill-opacity=".8"/><path fill-rule="evenodd" clip-rule="evenodd" d="M8.924 30.37c-.044-4.893 2.233-7.607 6.832-8.143h4.224c4.518.468 6.778 3.238 6.778 8.312-4.574-.027-10.366-.027-17.376 0l-.458-.169z" fill="#E9E7F3"/><path d="M17.862 21.021a3.71 3.71 0 100-7.421 3.71 3.71 0 000 7.421z" fill="#E9E7F3"/><defs><linearGradient id="paint0_linear" x1=".924" y1="9.666" x2="45.77" y2="41.396" gradientUnits="userSpaceOnUse"><stop stop-color="#6C5BC2"/><stop offset="1" stop-color="#5A42AC"/></linearGradient></defs></svg>