<svg width="44" height="44" fill="none" xmlns="http://www.w3.org/2000/svg"><path fill-rule="evenodd" clip-rule="evenodd" d="M21.968 43.5c11.874 0 21.5-9.626 21.5-21.5S33.842.5 21.968.5.468 10.126.468 22s9.626 21.5 21.5 21.5z" fill="url(#paint0_linear)"/><path fill-rule="evenodd" clip-rule="evenodd" d="M21.968 43.5c11.874 0 21.5-9.626 21.5-21.5S33.842.5 21.968.5.468 10.126.468 22s9.626 21.5 21.5 21.5z" fill="url(#paint1_linear)"/><path d="M10.027 10.819l3.736 1.562a.115.115 0 00.145-.053l1.853-3.602c.05-.091.185-.077.206.021l1.107 3.894a.115.115 0 00.132.081l3.969-.8c.098-.02.175.093.117.176l-2.355 3.293c-.03.047-.026.114.018.15l3.098 2.602a.112.112 0 01-.069.198l-4.044.213c-.059.005-.106.053-.105.108l-.104 4.048c-.002.1-.128.148-.196.074l-2.685-3.027a.107.107 0 00-.15-.014l-3.228 2.443a.113.113 0 01-.18-.113l.694-3.989a.114.114 0 00-.085-.129L7.98 16.953c-.1-.027-.117-.161-.026-.206l3.55-1.948a.115.115 0 00.05-.147L9.89 10.959c-.056-.086.038-.182.137-.14zM21.962 22.013l2.75.89 2.303-1.76.001 2.89 2.381 1.644-2.753.894-.82 2.777-1.702-2.342-2.89.077 1.694-2.344-.964-2.726zM33.646 32.903a1.792 1.792 0 10-2.568-2.5 1.792 1.792 0 002.568 2.5z" fill="#fff" fill-opacity=".67"/><defs><linearGradient id="paint0_linear" x1="13.803" y1="60.91" x2="55.976" y2="27.593" gradientUnits="userSpaceOnUse"><stop stop-color="#FFB36D"/><stop offset="1" stop-color="#F88"/></linearGradient><linearGradient id="paint1_linear" x1=".468" y1="9.176" x2="45.315" y2="40.906" gradientUnits="userSpaceOnUse"><stop stop-color="#3B3381"/><stop offset="1" stop-color="#322773"/></linearGradient></defs></svg>