<svg width="48" height="49" fill="none" xmlns="http://www.w3.org/2000/svg"><mask id="a" maskUnits="userSpaceOnUse" x="0" y="0" width="48" height="49"><g clip-path="url(#clip0)" fill="#FFDD0F"><path d="M37.794 19.345c0-1.421-.804-2.752-2.064-3.468l-9.69-5.405a4.204 4.204 0 00-4.11.02l-9.65 5.465a4.015 4.015 0 00-2.045 3.477l.03 10.89A4.053 4.053 0 0012.35 33.8l9.67 5.405c.615.348 1.33.537 2.044.537.735 0 1.45-.199 2.075-.566l9.65-5.465a4.005 4.005 0 002.035-3.478l-.03-10.89zm-2.392 13.711l-9.65 5.465a3.382 3.382 0 01-1.668.447 3.19 3.19 0 01-1.668-.427l-9.679-5.405c-1.022-.587-1.668-1.66-1.668-2.802l-.05-10.89c0-1.152.626-2.226 1.649-2.802l9.64-5.464a3.467 3.467 0 011.667-.448c.586 0 1.152.15 1.688.447l9.68 5.406a3.213 3.213 0 011.667 2.792l.03 10.89c.01 1.132-.616 2.205-1.638 2.791zm2.243-13.711h.01-.01z"/><path d="M32.692 21.471a2.685 2.685 0 00-1.36-2.275l-5.987-3.338a2.708 2.708 0 00-2.69 0l-5.967 3.378a2.624 2.624 0 00-1.34 2.275l.02 6.717c0 .934.526 1.808 1.36 2.275l5.986 3.339c.408.238.874.357 1.34.357.477 0 .944-.119 1.35-.357l5.967-3.389a2.623 2.623 0 001.34-2.275l-.02-6.707zm-1.728 8.317l-5.966 3.388a1.88 1.88 0 01-.943.248c-.348 0-.675-.09-.963-.258l-5.987-3.338a1.85 1.85 0 01-.963-1.6l-.02-6.717c0-.656.368-1.272.944-1.6l5.966-3.378a2 2 0 01.963-.258c.338 0 .655.08.943.248h.01l5.986 3.339c.596.348.963.954.963 1.6l.02 6.716a1.893 1.893 0 01-.953 1.61zM46.451 34.935l-3.603-2.007c-1.023-.586-1.668-1.66-1.668-2.802l-.03-10.89c0-1.152.625-2.225 1.648-2.801l3.584-2.037.119-.07-.06-.119c-.03-.08-.07-.149-.109-.218-.04-.07-.07-.14-.1-.21l-.069-.148-.139.08-3.613 2.056c-1.29.715-2.085 2.067-2.065 3.478l.03 10.89c0 1.43.804 2.761 2.084 3.477l3.634 2.017.129.07.07-.13c.089-.149.158-.298.218-.447l.06-.13-.12-.059z"/><path d="M47.89 30.265l-.952-.527a1.85 1.85 0 01-.963-1.6l-.02-6.716c0-.656.367-1.272.943-1.6l.953-.546.09-.05-.02-.109c-.03-.169-.09-.338-.14-.497l-.059-.179-.159.09-1.062.606a2.6 2.6 0 00-1.34 2.275l.02 6.717c0 .934.526 1.808 1.36 2.275l1.072.596.159.09.05-.18c.03-.079.049-.168.069-.247l.06-.239.04-.12-.1-.039zM7.505 19.463c0-1.42-.804-2.752-2.065-3.467l-3.276-1.829-.139-.08-.07.15c-.029.07-.069.139-.098.209-.04.07-.08.149-.11.218l-.06.13.12.069 3.236 1.808c1.023.586 1.668 1.66 1.668 2.792l.03 10.89a3.221 3.221 0 01-1.648 2.802l-3.227 1.828-.119.07.06.119c.03.08.07.149.11.218.039.07.069.14.098.209l.07.149.139-.08 3.256-1.847c1.26-.736 2.045-2.067 2.045-3.478l-.02-10.88z"/><path d="M2.393 21.56c0-.933-.527-1.808-1.36-2.275l-.676-.367-.158-.09-.05.179c-.05.169-.09.338-.12.497l-.029.1.1.049.545.308c.596.328.963.954.963 1.6l.02 6.716a1.86 1.86 0 01-.943 1.6l-.546.308-.1.05.02.109c.03.169.09.338.14.496l.06.18.158-.09.675-.387a2.543 2.543 0 001.32-2.266l-.02-6.716zM44.287 11.207c-.1-.12-.169-.248-.278-.397l-.08-.11-.119.07-3.236 1.828a3.354 3.354 0 01-1.668.447 3.47 3.47 0 01-1.668-.427l-9.68-5.405c-1.022-.586-1.667-1.66-1.667-2.802l-.02-3.388v-.14l-.129-.01c-.09-.009-.169-.009-.258-.019-.08 0-.159-.01-.238-.02l-.169-.01v.17l.02 3.417a4.102 4.102 0 002.085 3.497l9.67 5.406a4.19 4.19 0 002.044.536h.02c.715 0 1.43-.179 2.065-.546l3.276-1.858.15-.09-.12-.149z"/><path d="M40.882 7.352c-.06-.05-.12-.11-.189-.169-.06-.06-.129-.11-.188-.169l-.08-.07-.09.05-.476.269a1.87 1.87 0 01-.943.258c-.337 0-.675-.09-.963-.258l-5.986-3.339a1.85 1.85 0 01-.963-1.6v-.507l-.11-.029c-.158-.05-.337-.1-.506-.13l-.178-.039v.706c0 .934.526 1.808 1.36 2.275l5.986 3.338c.397.219.864.358 1.34.358.467 0 .934-.12 1.34-.358l.606-.347.179-.11-.14-.129zM17.115 1.807c-.08.02-.169.05-.248.07-.08.02-.169.05-.248.07l-.11.03v.297a1.86 1.86 0 01-.943 1.6L9.6 7.282a1.916 1.916 0 01-1.906-.01l-.189-.09-.09-.049-.078.07c-.07.05-.13.109-.19.169-.059.05-.118.109-.188.159L6.8 7.67l.18.109.297.179c.417.238.893.348 1.36.348.486 0 .953-.12 1.36-.358l5.967-3.388c.814-.477 1.34-1.342 1.34-2.276v-.527l-.189.05z"/><path d="M22.347 1.073V.914l-.159.01c-.08.01-.169.02-.248.02-.08.01-.169.02-.248.02l-.14.01v.139l.02 3.348a3.221 3.221 0 01-1.647 2.802l-9.65 5.485a3.353 3.353 0 01-1.668.447 3.432 3.432 0 01-1.658-.428L4.04 11.098l-.109-.07-.08.1c-.098.13-.188.268-.287.408l-.09.139.12.08 2.978 1.668c.616.328 1.33.527 2.045.527.735 0 1.45-.179 2.065-.547l9.65-5.464c1.26-.716 2.045-2.067 2.035-3.478l-.02-3.388zM44.247 38.251l-3.355-1.878c-1.28-.695-2.86-.695-4.12.03l-9.64 5.465a4.015 4.015 0 00-2.045 3.477l.02 3.32v.148h.149c.169 0 .347-.02.506-.03l.14-.01v-.139l-.02-3.298c0-1.153.625-2.226 1.647-2.802l9.65-5.465a3.468 3.468 0 011.668-.447c.566 0 1.151.139 1.648.427l3.325 1.858.11.06.08-.1c.098-.129.198-.268.287-.417l.07-.13-.12-.069z"/><path d="M40.842 42.118l-.655-.368a2.708 2.708 0 00-2.69 0l-5.967 3.388a2.624 2.624 0 00-1.34 2.276v.675l.189-.06.238-.059c.08-.02.169-.04.258-.07l.11-.03V47.405c0-.656.367-1.272.942-1.6l5.967-3.388c.288-.159.625-.248.963-.248.317 0 .655.089.943.258l.526.288.09.05.079-.07c.129-.11.268-.228.387-.348l.139-.139-.179-.09zM17.254 47.344a2.732 2.732 0 00-1.37-2.255l-5.986-3.338c-.834-.477-1.857-.457-2.69 0l-.229.129-.189.11.16.138c.059.05.118.11.188.17.06.059.129.108.189.168l.079.07.09-.05.118-.06c.288-.159.626-.258.963-.258.318 0 .656.09.944.258l5.986 3.339c.595.328.963.954.963 1.6v.338l.109.029c.08.02.169.05.248.07.08.02.169.05.248.07l.189.059v-.199l-.01-.388z"/><path d="M22.347 48.647l-.02-3.27c0-1.43-.804-2.762-2.065-3.477l-9.69-5.405a4.153 4.153 0 00-4.11.02l-2.799 1.59-.149.089.11.14c.05.059.089.118.129.188.05.07.089.139.149.209l.079.099.11-.06 2.76-1.57a3.467 3.467 0 011.667-.447c.566 0 1.152.14 1.648.428l9.69 5.405c1.022.586 1.667 1.659 1.667 2.792l.02 3.239v.139l.129.01c.08.01.169.02.248.02.08.01.169.02.248.02l.17.02.01-.18z"/></g></mask><g mask="url(#a)"><ellipse cx="24" cy="24.824" rx="24.671" ry="24" fill="#FFDD0F"/></g><defs><clipPath id="clip0"><path fill="#fff" transform="translate(0 .824)" d="M0 0h48v48H0z"/></clipPath></defs></svg>