<svg width="57" height="56" fill="none" xmlns="http://www.w3.org/2000/svg"><path d="M20.288 22.858c2.104.717 4.895 1.113 7.856 1.113 2.962 0 5.752-.396 7.857-1.113 2.244-.765 3.48-1.838 3.48-3.022 0-1.184-1.236-2.257-3.48-3.022-2.105-.718-4.895-1.113-7.857-1.113-2.961 0-5.752.395-7.856 1.113-2.244.765-3.48 1.838-3.48 3.022 0 1.184 1.236 2.257 3.48 3.022z" fill="#2BC58E"/><path fill-rule="evenodd" clip-rule="evenodd" d="M38.707 24.436c-.178 0-.37.06-.59.183-.322.183-.73.323-1.16.472l-.126.043c-2.355.814-5.44 1.263-8.687 1.263-3.246 0-6.33-.449-8.686-1.263-.666-.23-.852-.303-1.098-.43-.25-.13-.483-.197-.692-.197a.807.807 0 00-.807.606 1.77 1.77 0 00-.052.426c0 1.2 1.235 2.289 3.479 3.064 2.104.728 4.895 1.129 7.856 1.129 2.962 0 5.752-.401 7.857-1.129 2.244-.775 3.48-1.864 3.48-3.064 0-.187-.031-.375-.092-.56-.155-.473-.494-.543-.682-.543zM38.707 30.012c-.178 0-.37.06-.589.183-.322.183-.73.323-1.16.471l-.127.044c-2.355.814-5.44 1.263-8.687 1.263-3.246 0-6.33-.449-8.686-1.263-.666-.23-.852-.303-1.098-.43-.25-.13-.483-.197-.692-.197a.807.807 0 00-.807.606 1.77 1.77 0 00-.052.426c0 1.2 1.235 2.289 3.479 3.064 2.104.728 4.895 1.129 7.856 1.129 2.962 0 5.752-.4 7.857-1.129 2.244-.775 3.48-1.864 3.48-3.064 0-.187-.031-.375-.092-.56-.155-.473-.494-.543-.682-.543zM38.707 35.586c-.178 0-.37.06-.59.184-.322.182-.73.323-1.162.471l-.124.043c-2.355.815-5.44 1.263-8.687 1.263-3.246 0-6.33-.448-8.686-1.263-.666-.23-.852-.303-1.098-.429-.25-.131-.483-.198-.692-.198a.807.807 0 00-.807.606 1.77 1.77 0 00-.052.426c0 1.2 1.235 2.289 3.479 3.065 2.104.727 4.895 1.128 7.856 1.128 2.962 0 5.752-.4 7.857-1.128 2.244-.776 3.48-1.864 3.48-3.065 0-.187-.031-.374-.092-.56-.155-.473-.494-.543-.682-.543z" fill="#2BC58E" fill-opacity=".8"/><path d="M55.336 28.001c0 14.894-12.074 26.968-26.968 26.968S1.4 42.895 1.4 28.001 13.474 1.033 28.368 1.033 55.336 13.107 55.336 28z" stroke="#2BC58E" stroke-width="1.8"/></svg>