<svg width="44" height="44" fill="none" xmlns="http://www.w3.org/2000/svg"><path fill-rule="evenodd" clip-rule="evenodd" d="M21.969 43.5c11.874 0 21.5-9.626 21.5-21.5S33.843.5 21.969.5.469 10.126.469 22s9.626 21.5 21.5 21.5z" fill="url(#paint0_linear)"/><path d="M18.65 27.81c0 .681.557 1.24 1.238 1.24h6.422l-.824 3.929c-.1.462.043.943.377 1.275l.985.986 6.117-6.117c.336-.335.545-.798.545-1.312v-8.047c0-1.028-.83-1.858-1.857-1.858h-8.36c-.767 0-1.429.465-1.709 1.133L18.78 25.59c-.08.21-.13.433-.13.674v1.548-.001z" fill="#B0A8D8" fill-opacity=".8"/><path d="M24.593 16.421a1.242 1.242 0 00-1.238-1.238h-6.422l.823-3.93c.1-.462-.042-.943-.377-1.275l-.985-.986-6.116 6.117c-.336.335-.546.799-.546 1.312v8.047c0 1.028.83 1.858 1.858 1.858h8.36c.767 0 1.428-.465 1.708-1.133l2.805-6.549c.08-.21.13-.433.13-.675v-1.548z" fill="#E9E7F3"/><defs><linearGradient id="paint0_linear" x1=".469" y1="9.176" x2="45.315" y2="40.906" gradientUnits="userSpaceOnUse"><stop stop-color="#6C5BC2"/><stop offset="1" stop-color="#5A42AC"/></linearGradient></defs></svg>