<svg width="44" height="44" fill="none" xmlns="http://www.w3.org/2000/svg"><path fill-rule="evenodd" clip-rule="evenodd" d="M21.968 43.5c11.874 0 21.5-9.626 21.5-21.5S33.842.5 21.968.5.468 10.126.468 22s9.626 21.5 21.5 21.5z" fill="url(#paint0_linear)"/><path d="M18.59 10.585l1.669 4.229a.13.13 0 00.157.075l4.348-1.33c.113-.031.207.088.144.182l-2.265 3.94a.129.129 0 00.038.17l3.752 2.566c.094.063.063.214-.05.232l-4.493.684c-.063.013-.113.07-.107.132l.333 4.53a.126.126 0 01-.213.101l-3.338-3.087c-.05-.044-.126-.044-.17 0l-3.338 3.087c-.082.075-.22.013-.213-.1l.332-4.53a.12.12 0 00-.107-.133l-4.492-.683a.127.127 0 01-.05-.233l3.752-2.566a.129.129 0 00.037-.17l-2.265-3.94c-.056-.1.038-.22.145-.182l4.348 1.33a.13.13 0 00.157-.075l1.669-4.23c.025-.112.176-.112.22 0zM31.073 22.906l1.048 2.121 2.347.345-1.694 1.65.395 2.335-2.096-1.105-2.095 1.105.401-2.334-1.694-1.65 2.34-.346 1.048-2.12zM19.247 34.406a1.882 1.882 0 100-3.764 1.882 1.882 0 000 3.764z" fill="#fff" fill-opacity=".67"/><defs><linearGradient id="paint0_linear" x1=".468" y1="9.176" x2="45.315" y2="40.906" gradientUnits="userSpaceOnUse"><stop stop-color="#3B3381"/><stop offset="1" stop-color="#322773"/></linearGradient></defs></svg>