<svg width="44" height="44" fill="none" xmlns="http://www.w3.org/2000/svg"><path fill-rule="evenodd" clip-rule="evenodd" d="M22.032 43.117c11.874 0 21.5-9.626 21.5-21.5s-9.626-21.5-21.5-21.5-21.5 9.626-21.5 21.5 9.626 21.5 21.5 21.5z" fill="url(#paint0_linear)"/><path d="M15.542 17.102c1.75.597 4.068.925 6.528.925s4.78-.328 6.528-.925c1.864-.635 2.89-1.527 2.89-2.51 0-.984-1.026-1.876-2.89-2.511-1.749-.596-4.067-.925-6.528-.925-2.46 0-4.779.329-6.528.925-1.864.635-2.89 1.527-2.89 2.51 0 .984 1.026 1.876 2.89 2.511z" fill="#BDBAD4"/><path fill-rule="evenodd" clip-rule="evenodd" d="M30.846 18.414c-.148 0-.308.05-.49.153-.268.152-.606.268-.965.392l-.103.035c-1.957.677-4.52 1.05-7.218 1.05-2.697 0-5.26-.373-7.217-1.05-.554-.191-.707-.251-.912-.356a1.26 1.26 0 00-.575-.165.671.671 0 00-.67.504 1.47 1.47 0 00-.044.354c0 .997 1.026 1.901 2.89 2.546 1.75.604 4.068.937 6.528.937s4.78-.333 6.528-.937c1.864-.645 2.89-1.549 2.89-2.546a1.49 1.49 0 00-.075-.466c-.129-.392-.41-.45-.567-.45zM30.846 23.045c-.148 0-.308.05-.49.153-.267.151-.605.268-.964.391l-.104.036c-1.957.677-4.52 1.05-7.218 1.05-2.697 0-5.26-.373-7.217-1.05-.554-.191-.707-.252-.912-.357a1.261 1.261 0 00-.575-.164.671.671 0 00-.67.503 1.47 1.47 0 00-.044.354c0 .998 1.026 1.902 2.89 2.547 1.75.604 4.068.937 6.528.937s4.78-.333 6.528-.937c1.864-.645 2.89-1.55 2.89-2.547 0-.155-.025-.31-.075-.465-.129-.392-.41-.451-.567-.451zM30.846 27.678c-.148 0-.308.05-.49.152-.268.152-.607.269-.965.392l-.103.036c-1.957.677-4.52 1.05-7.218 1.05-2.697 0-5.26-.373-7.217-1.05-.554-.191-.707-.252-.912-.357a1.26 1.26 0 00-.575-.164.671.671 0 00-.67.503 1.47 1.47 0 00-.044.354c0 .998 1.026 1.902 2.89 2.546 1.75.605 4.068.938 6.528.938s4.78-.333 6.528-.938c1.864-.644 2.89-1.548 2.89-2.546a1.49 1.49 0 00-.075-.465c-.129-.393-.41-.451-.567-.451z" fill="#7465BD" fill-opacity=".8"/><defs><linearGradient id="paint0_linear" x1=".532" y1="8.793" x2="45.378" y2="40.523" gradientUnits="userSpaceOnUse"><stop stop-color="#3B3381"/><stop offset="1" stop-color="#322773"/></linearGradient></defs></svg>