<svg width="44" height="44" fill="none" xmlns="http://www.w3.org/2000/svg"><path fill-rule="evenodd" clip-rule="evenodd" d="M22.351 43.725c11.874 0 21.5-9.626 21.5-21.5 0-11.875-9.626-21.5-21.5-21.5s-21.5 9.626-21.5 21.5 9.626 21.5 21.5 21.5z" fill="url(#paint0_linear)"/><path d="M18.972 10.81l1.67 4.229a.13.13 0 00.156.075l4.349-1.33c.113-.032.207.087.144.181l-2.265 3.941a.129.129 0 00.038.17l3.752 2.566c.094.063.063.213-.05.232l-4.493.684c-.063.013-.113.07-.107.132l.333 4.53a.126.126 0 01-.213.1l-3.339-3.087c-.05-.044-.125-.044-.17 0l-3.337 3.088c-.082.075-.22.012-.214-.1l.333-4.531a.12.12 0 00-.107-.132l-4.492-.684a.127.127 0 01-.05-.232l3.752-2.566a.129.129 0 00.037-.17l-2.265-3.94c-.056-.1.038-.22.144-.182l4.349 1.33a.13.13 0 00.157-.075l1.669-4.23c.025-.113.175-.113.22 0zM31.456 23.13l1.048 2.122 2.347.345-1.694 1.65.395 2.334-2.096-1.104-2.096 1.104.402-2.334-1.694-1.65 2.34-.345 1.048-2.121zM19.63 34.63a1.882 1.882 0 100-3.763 1.882 1.882 0 000 3.763z" fill="#fff"/><defs><linearGradient id="paint0_linear" x1=".851" y1="9.401" x2="45.697" y2="41.131" gradientUnits="userSpaceOnUse"><stop stop-color="#6C5BC2"/><stop offset="1" stop-color="#5A42AC"/></linearGradient></defs></svg>