<svg width="44" height="44" viewBox="0 0 44 44" fill="none" xmlns="http://www.w3.org/2000/svg">
<path fill-rule="evenodd" clip-rule="evenodd" d="M22.4238 43.9902C34.298 43.9902 43.9238 34.3644 43.9238 22.4902C43.9238 10.6161 34.298 0.990234 22.4238 0.990234C10.5497 0.990234 0.923828 10.6161 0.923828 22.4902C0.923828 34.3644 10.5497 43.9902 22.4238 43.9902Z" fill="url(#paint0_linear)"/>
<path fill-rule="evenodd" clip-rule="evenodd" d="M19.0905 26.7605C19.0458 21.8679 21.3231 19.1536 25.9224 18.6176C26.9181 18.6176 26.825 18.618 28.0281 18.6172L30.1456 18.6176C34.6643 19.0851 36.9236 21.8559 36.9236 26.9298C32.3499 26.9028 26.5581 26.9028 19.5482 26.9298L19.0905 26.7605Z" fill="#B0A8D8" fill-opacity="0.8"/>
<path d="M28.0268 17.412C30.0763 17.412 31.7377 15.7506 31.7377 13.7011C31.7377 11.6517 30.0763 9.99023 28.0268 9.99023C25.9773 9.99023 24.3159 11.6517 24.3159 13.7011C24.3159 15.7506 25.9773 17.412 28.0268 17.412Z" fill="#B0A8D8" fill-opacity="0.8"/>
<path fill-rule="evenodd" clip-rule="evenodd" d="M8.92447 30.37C8.87978 25.4774 11.1571 22.7631 15.7564 22.2271C16.2606 22.2267 16.5222 22.2261 17.8369 22.2269L19.9796 22.2271C24.4983 22.6947 26.7576 25.4654 26.7576 30.5394C22.1839 30.5123 16.3921 30.5123 9.38217 30.5394L8.92447 30.37Z" fill="#E9E7F3"/>
<path d="M17.8622 21.0214C19.9117 21.0214 21.5731 19.36 21.5731 17.3105C21.5731 15.261 19.9117 13.5996 17.8622 13.5996C15.8128 13.5996 14.1514 15.261 14.1514 17.3105C14.1514 19.36 15.8128 21.0214 17.8622 21.0214Z" fill="#E9E7F3"/>
<defs>
<linearGradient id="paint0_linear" x1="0.923829" y1="9.66632" x2="45.7701" y2="41.3962" gradientUnits="userSpaceOnUse">
<stop stop-color="#6C5BC2"/>
<stop offset="1" stop-color="#5A42AC"/>
</linearGradient>
</defs>
</svg>
