<svg width="85" height="84" viewBox="0 0 85 84" fill="none" xmlns="http://www.w3.org/2000/svg">
<g clip-path="url(#clip0)">
<path d="M62.0674 26.824L45.4501 17.3086C44.4779 16.7497 43.3754 16.4574 42.2539 16.461C41.1325 16.4646 40.0319 16.7641 39.0633 17.3292L22.507 26.9592C21.5402 27.5235 20.7381 28.3312 20.1805 29.3019C19.6229 30.2726 19.3294 31.3725 19.3291 32.4919L19.394 51.6485C19.4008 52.7703 19.7015 53.8706 20.2661 54.8399C20.8307 55.8092 21.6396 56.6136 22.612 57.1728L39.2245 66.6856C40.1972 67.2453 41.3004 67.5384 42.4227 67.5352C43.545 67.5321 44.6466 67.2327 45.6161 66.6675L62.1772 57.0347C63.1411 56.4661 63.9398 55.6557 64.4943 54.6836C65.0488 53.7116 65.3399 52.6115 65.3387 51.4924L65.2735 32.3361C65.2655 31.2177 64.9654 30.1207 64.4031 29.1539C63.8407 28.1871 63.0356 27.384 62.0674 26.824Z" fill="#FFDD0F" fill-opacity="0.2"/>
<path fill-rule="evenodd" clip-rule="evenodd" d="M44.9518 18.1756C44.1321 17.7044 43.2026 17.4579 42.2572 17.461C41.3117 17.464 40.3838 17.7165 39.5672 18.193L39.5661 18.1936L23.0111 27.8229C22.1955 28.2991 21.518 28.981 21.0476 29.8C20.5774 30.6187 20.3296 31.5463 20.3291 32.4904L20.3291 32.4921L20.394 51.6425L20.394 51.6438C20.3999 52.5903 20.6537 53.5187 21.1302 54.3366C21.6067 55.1546 22.2892 55.8335 23.1098 56.3055L39.7232 65.8188C40.5434 66.2908 41.4736 66.5379 42.4199 66.5352C43.3662 66.5326 44.295 66.2802 45.1125 65.8036L61.6691 56.1734L61.6719 56.1718C62.4846 55.6917 63.158 55.008 63.6257 54.1881C64.0936 53.3678 64.3394 52.4395 64.3387 51.4952V51.4935L64.2736 32.3433L64.2736 32.3417C64.2665 31.398 64.0132 30.4725 63.5387 29.6567C63.0642 28.841 62.3852 28.1634 61.5686 27.6907L61.5668 27.6896L44.9518 18.1756ZM62.0674 26.824C63.0356 27.384 63.8407 28.1871 64.4031 29.1539C64.9654 30.1207 65.2655 31.2177 65.2735 32.3361L65.3387 51.4924C65.3399 52.6115 65.0488 53.7116 64.4943 54.6836C63.9398 55.6557 63.1411 56.4661 62.1772 57.0347L45.6161 66.6675C44.6466 67.2327 43.545 67.5321 42.4227 67.5352C41.3004 67.5384 40.1972 67.2453 39.2245 66.6856L22.612 57.1728C21.6396 56.6136 20.8307 55.8092 20.2661 54.8399C19.7015 53.8706 19.4008 52.7703 19.394 51.6485L19.3291 32.4919C19.3294 31.3725 19.6229 30.2726 20.1805 29.3019C20.7381 28.3312 21.5402 27.5235 22.507 26.9592L39.0633 17.3292C40.0319 16.7641 41.1325 16.4646 42.2539 16.461C43.3754 16.4574 44.4779 16.7497 45.4501 17.3086L62.0674 26.824Z" fill="url(#paint0_linear)"/>
<path d="M54.5303 32.6197L44.2599 26.7387C43.659 26.3933 42.9776 26.2126 42.2845 26.2149C41.5914 26.2171 40.9111 26.4022 40.3124 26.7514L30.0801 32.7033C29.4824 33.0521 28.9865 33.5514 28.6419 34.1516C28.2972 34.7517 28.1159 35.4316 28.116 36.1237L28.1561 47.9634C28.1599 48.6568 28.3456 49.3372 28.6944 49.9365C29.0433 50.5358 29.5433 51.0332 30.1444 51.3789L40.4118 57.2586C41.0131 57.6045 41.695 57.7856 42.3886 57.7836C43.0823 57.7816 43.763 57.5966 44.3623 57.2473L54.5978 51.2937C55.1938 50.9422 55.6876 50.4411 56.0304 49.84C56.3732 49.2389 56.553 48.5588 56.552 47.8668L56.5119 36.0272C56.507 35.3358 56.3217 34.6577 55.9741 34.06C55.6265 33.4624 55.1288 32.9659 54.5303 32.6197Z" fill="#FFDD0F" fill-opacity="0.2"/>
<path d="M113.267 26.65L96.6499 17.1349C95.6776 16.576 94.5751 16.2836 93.4537 16.2871C92.3323 16.2907 91.2317 16.5902 90.263 17.1553L73.7067 26.7855C72.7397 27.3499 71.9375 28.1579 71.38 29.1289C70.8224 30.0998 70.529 31.2 70.5291 32.3196L70.594 51.476C70.6006 52.5978 70.9013 53.6982 71.466 54.6675C72.0306 55.6369 72.8395 56.4413 73.812 57.0005L90.4248 66.5133C91.3975 67.073 92.5007 67.3661 93.623 67.363C94.7453 67.3598 95.8468 67.0605 96.8164 66.4952L113.377 56.8624C114.341 56.2938 115.14 55.4834 115.694 54.5113C116.249 53.5392 116.54 52.4393 116.539 51.3202L116.474 32.1638C116.466 31.0451 116.166 29.9478 115.604 28.9807C115.041 28.0136 114.236 27.2102 113.267 26.65Z" fill="#FFDD0F" fill-opacity="0.2"/>
<path fill-rule="evenodd" clip-rule="evenodd" d="M96.1515 18.0019C95.3318 17.5307 94.4023 17.2841 93.4569 17.2871C92.5114 17.2901 91.5836 17.5426 90.7669 18.019L90.7658 18.0197L74.2108 27.6492C74.2106 27.6493 74.211 27.649 74.2108 27.6492C73.395 28.1255 72.7176 28.8076 72.2472 29.6268C71.7769 30.4458 71.5293 31.3736 71.5291 32.318C71.5291 32.3185 71.5291 32.3191 71.5291 32.3196L71.594 51.47C71.594 51.4704 71.594 51.4709 71.594 51.4713C71.5998 52.4178 71.8536 53.3463 72.3301 54.1642C72.8065 54.9821 73.4889 55.6609 74.3093 56.1329C74.3097 56.1331 74.3101 56.1334 74.3105 56.1336L90.9235 65.6466C91.7437 66.1185 92.6739 66.3656 93.6202 66.363C94.5665 66.3603 95.4952 66.1079 96.3127 65.6313L112.869 56.0012C112.87 56.0007 112.871 56.0001 112.872 55.9996C113.684 55.5196 114.358 54.8358 114.826 54.0158C115.294 53.1955 115.539 52.2672 115.539 51.3228C115.539 51.3223 115.539 51.3217 115.539 51.3212L115.474 32.1708C115.474 32.1703 115.474 32.1697 115.474 32.1691C115.467 31.2252 115.214 30.2994 114.739 29.4834C114.265 28.6675 113.585 27.9896 112.769 27.5167C112.768 27.5164 112.767 27.516 112.767 27.5157L96.1515 18.0019ZM113.267 26.65C114.236 27.2102 115.041 28.0136 115.604 28.9807C116.166 29.9478 116.466 31.0451 116.474 32.1638L116.539 51.3202C116.54 52.4393 116.249 53.5392 115.694 54.5113C115.14 55.4834 114.341 56.2938 113.377 56.8624L96.8164 66.4952C95.8468 67.0605 94.7453 67.3598 93.623 67.363C92.5007 67.3661 91.3975 67.073 90.4248 66.5133L73.812 57.0005C72.8395 56.4413 72.0306 55.6369 71.466 54.6675C70.9013 53.6982 70.6006 52.5978 70.594 51.476L70.5291 32.3196C70.529 31.2 70.8224 30.0998 71.38 29.1289C71.9375 28.1579 72.7397 27.3499 73.7067 26.7855L90.263 17.1553C91.2317 16.5902 92.3323 16.2907 93.4537 16.2871C94.5751 16.2836 95.6776 16.576 96.6499 17.1349L113.267 26.65Z" fill="url(#paint1_linear)"/>
<path d="M105.729 32.4457L95.4586 26.5649C94.8577 26.2195 94.1763 26.0388 93.4832 26.041C92.7901 26.0433 92.1099 26.2284 91.5112 26.5776L81.2786 32.5295C80.6809 32.8784 80.1851 33.3777 79.8405 33.9778C79.4959 34.5779 79.3145 35.2579 79.3145 35.9499L79.3548 47.7893C79.3587 48.4828 79.5443 49.1631 79.8932 49.7624C80.2421 50.3618 80.742 50.8591 81.3432 51.2049L91.6106 57.0842C92.2117 57.4302 92.8935 57.6114 93.5872 57.6095C94.2808 57.6076 94.9616 57.4226 95.5608 57.0732L105.796 51.1196C106.392 50.7682 106.886 50.2673 107.229 49.6665C107.571 49.0657 107.751 48.3858 107.751 47.6942L107.71 35.8545C107.706 35.1629 107.52 34.4845 107.173 33.8866C106.825 33.2887 106.327 32.792 105.729 32.4457Z" fill="#FFDD0F" fill-opacity="0.2"/>
<path d="M10.0679 26.9998L-6.5496 17.4844C-7.52185 16.9255 -8.62436 16.6331 -9.74578 16.6368C-10.8672 16.6404 -11.9678 16.9399 -12.9365 17.505L-29.4928 27.135C-30.4595 27.6993 -31.2616 28.507 -31.8192 29.4777C-32.3767 30.4484 -32.6702 31.5483 -32.6704 32.6677L-32.6054 51.8243C-32.5987 52.9461 -32.2981 54.0464 -31.7334 55.0157C-31.1688 55.985 -30.3599 56.7894 -29.3875 57.3485L-12.7747 66.8614C-11.802 67.4211 -10.6987 67.7142 -9.57646 67.711C-8.45417 67.7078 -7.35265 67.4085 -6.3831 66.8433L10.1778 57.2108C11.1416 56.6421 11.9403 55.8316 12.4948 54.8595C13.0493 53.8874 13.3404 52.7873 13.3393 51.6682L13.2744 32.5119C13.2662 31.3934 12.9661 30.2965 12.4037 29.3297C11.8413 28.3629 11.0361 27.5597 10.0679 26.9998Z" fill="#FFDD0F" fill-opacity="0.2"/>
<path fill-rule="evenodd" clip-rule="evenodd" d="M-7.04796 18.3514C-7.86763 17.8802 -8.79712 17.6337 -9.74256 17.6367C-10.688 17.6398 -11.6159 17.8923 -12.4325 18.3687L-12.4337 18.3694L-28.9887 27.9986C-28.989 27.9988 -28.9884 27.9985 -28.9887 27.9986C-29.8042 28.4748 -30.4817 29.1568 -30.952 29.9758C-31.4222 30.7945 -31.6699 31.722 -31.6704 32.6662C-31.6704 32.6667 -31.6704 32.6673 -31.6704 32.6679L-31.6054 51.8183C-31.6054 51.8188 -31.6054 51.8192 -31.6054 51.8196C-31.5996 52.7661 -31.3458 53.6945 -30.8693 54.5124C-30.3927 55.3306 -29.71 56.0095 -28.8891 56.4815C-28.8891 56.4816 -28.8892 56.4815 -28.8891 56.4815L-12.276 65.9946C-11.4558 66.4666 -10.5256 66.7137 -9.57928 66.711C-8.63301 66.7083 -7.70425 66.456 -6.88674 65.9794L9.66961 56.3495C9.67044 56.349 9.67126 56.3485 9.67208 56.348C10.4849 55.8679 11.1584 55.1841 11.6262 54.364C12.0944 53.5432 12.3402 52.6143 12.3393 51.6694C12.3393 51.6693 12.3393 51.6695 12.3393 51.6694L12.2744 32.5191C12.2744 32.5187 12.2744 32.5182 12.2744 32.5177C12.2673 31.5739 12.0139 30.6483 11.5393 29.8325C11.0648 29.0169 10.3857 28.3392 9.56902 27.8664C9.56843 27.8661 9.56784 27.8658 9.56725 27.8654L-7.04796 18.3514ZM13.2744 32.5119L13.3393 51.6682C13.3404 52.7873 13.0493 53.8874 12.4948 54.8595C11.9403 55.8316 11.1416 56.6421 10.1778 57.2108L-6.3831 66.8433C-7.35265 67.4085 -8.45417 67.7078 -9.57646 67.711C-10.6987 67.7142 -11.802 67.4211 -12.7747 66.8614L-29.3875 57.3485C-30.3599 56.7894 -31.1688 55.985 -31.7334 55.0157C-32.2981 54.0464 -32.5987 52.9461 -32.6054 51.8243L-32.6704 32.6677C-32.6702 31.5483 -32.3767 30.4484 -31.8192 29.4777C-31.2616 28.507 -30.4595 27.6993 -29.4928 27.135L-12.9365 17.505C-11.9678 16.9399 -10.8672 16.6404 -9.74578 16.6368C-8.62436 16.6331 -7.52185 16.9255 -6.5496 17.4844L10.0679 26.9998C11.0361 27.5597 11.8413 28.3629 12.4037 29.3297C12.9661 30.2965 13.2662 31.3934 13.2744 32.5119Z" fill="url(#paint2_linear)"/>
<path d="M2.53041 32.7975L-7.73979 26.9167C-8.34064 26.5712 -9.02202 26.3904 -9.71513 26.3926C-10.4082 26.3948 -11.0885 26.5799 -11.6872 26.9292L-21.9198 32.881C-22.5175 33.2299 -23.0133 33.7292 -23.3579 34.3293C-23.7026 34.9295 -23.8839 35.6094 -23.8839 36.3014L-23.8436 48.1411C-23.8398 48.8346 -23.6541 49.5149 -23.3052 50.1142C-22.9563 50.7136 -22.4563 51.2109 -21.8552 51.5567L-11.5879 57.4363C-10.9867 57.7822 -10.3048 57.9633 -9.6112 57.9613C-8.9176 57.9593 -8.23679 57.7743 -7.63759 57.425L2.59788 51.4714C3.19363 51.12 3.68727 50.6192 4.03003 50.0185C4.37278 49.4177 4.55272 48.7379 4.55206 48.0462L4.51203 36.2066C4.50741 35.5149 4.32214 34.8365 3.97455 34.2385C3.62696 33.6405 3.12913 33.1438 2.53041 32.7975Z" fill="#FFDD0F" fill-opacity="0.2"/>
<path d="M87.5481 -18.7749L70.9308 -28.2909C69.9586 -28.8498 68.8561 -29.1423 67.7346 -29.1386C66.6132 -29.135 65.5126 -28.8355 64.544 -28.2702L47.9877 -18.6403C47.0208 -18.076 46.2187 -17.2683 45.6611 -16.2976C45.1036 -15.3269 44.8101 -14.227 44.8098 -13.1076L44.875 6.04878C44.8817 7.17057 45.1823 8.27102 45.7469 9.24036C46.3116 10.2097 47.1205 11.0141 48.093 11.5733L64.7057 21.0861C65.6784 21.6459 66.7817 21.939 67.904 21.9358C69.0263 21.9326 70.1279 21.6333 71.0974 21.068L87.6582 11.4352C88.622 10.8666 89.4207 10.0562 89.9752 9.0841C90.5297 8.11204 90.8208 7.01205 90.8197 5.89296L90.7548 -13.2634C90.7465 -14.3818 90.4462 -15.4786 89.8838 -16.4453C89.3213 -17.4119 88.5162 -18.215 87.5481 -18.7749Z" fill="#FFDD0F" fill-opacity="0.2"/>
<path fill-rule="evenodd" clip-rule="evenodd" d="M70.4324 -27.4239C69.6128 -27.8952 68.6833 -28.1417 67.7379 -28.1386C66.7924 -28.1356 65.8646 -27.8831 65.048 -27.4065L65.0468 -27.4058L48.4917 -17.7766C48.4914 -17.7764 48.492 -17.7768 48.4917 -17.7766C47.6761 -17.3004 46.9987 -16.6185 46.5283 -15.7995C46.058 -14.9808 45.8103 -14.0533 45.8098 -13.1091C45.8098 -13.1085 45.8098 -13.1079 45.8098 -13.1073L45.875 6.04285C45.875 6.04325 45.875 6.04366 45.875 6.04407C45.8808 6.99061 46.1346 7.91911 46.611 8.73703C47.0876 9.55526 47.7704 10.2342 48.5912 10.7062C48.5913 10.7063 48.5912 10.7062 48.5912 10.7062L65.2045 20.2194C66.0247 20.6914 66.9549 20.9385 67.9011 20.9358C68.8474 20.9331 69.7763 20.6807 70.5937 20.2041L70.5946 20.2036L87.1501 10.574C87.1508 10.5735 87.1515 10.5731 87.1522 10.5727C87.9651 10.0926 88.6388 9.40872 89.1066 8.58861C89.5746 7.76826 89.8204 6.84003 89.8197 5.89564C89.8197 5.89508 89.8197 5.89451 89.8197 5.89395L89.7548 -13.256C89.7548 -13.2567 89.7548 -13.2574 89.7548 -13.2581C89.7474 -14.2016 89.4939 -15.1268 89.0194 -15.9424C88.5449 -16.7579 87.8659 -17.4354 87.0494 -17.9081C87.0487 -17.9085 87.0481 -17.9089 87.0474 -17.9093L70.4324 -27.4239ZM87.5481 -18.7749C88.5162 -18.215 89.3213 -17.4119 89.8838 -16.4453C90.4462 -15.4786 90.7465 -14.3818 90.7548 -13.2634L90.8197 5.89296C90.8208 7.01205 90.5297 8.11204 89.9752 9.0841C89.4207 10.0562 88.622 10.8666 87.6582 11.4352L71.0974 21.068C70.1279 21.6333 69.0263 21.9326 67.904 21.9358C66.7817 21.939 65.6784 21.6459 64.7057 21.0861L48.093 11.5733C47.1205 11.0141 46.3116 10.2097 45.7469 9.24036C45.1823 8.27102 44.8817 7.17057 44.875 6.04878L44.8098 -13.1076C44.8101 -14.227 45.1036 -15.3269 45.6611 -16.2976C46.2187 -17.2683 47.0208 -18.076 47.9877 -18.6403L64.544 -28.2702C65.5126 -28.8355 66.6132 -29.135 67.7346 -29.1386C68.8561 -29.1423 69.9586 -28.8498 70.9308 -28.2909L87.5481 -18.7749Z" fill="url(#paint3_linear)"/>
<path d="M80.0109 -12.9798L69.7404 -18.8608C69.1396 -19.2063 68.4582 -19.387 67.7651 -19.3847C67.0721 -19.3825 66.3919 -19.1974 65.7933 -18.8481L55.5607 -12.8963C54.9629 -12.5475 54.467 -12.0482 54.1224 -11.448C53.7778 -10.8479 53.5965 -10.1679 53.5966 -9.47587L53.6366 2.36379C53.6405 3.05726 53.8261 3.73759 54.175 4.33691C54.5239 4.93623 55.0239 5.43359 55.625 5.77938L65.8927 11.6587C66.4938 12.0048 67.1757 12.186 67.8693 12.1841C68.5629 12.1821 69.2437 11.9971 69.8429 11.6477L80.0784 5.69413C80.6742 5.34273 81.1678 4.84184 81.5106 4.24104C81.8533 3.64025 82.0333 2.96036 82.0326 2.26866L81.9925 -9.57072C81.9879 -10.2624 81.8026 -10.9408 81.455 -11.5388C81.1074 -12.1368 80.6096 -12.6335 80.0109 -12.9798Z" fill="#FFDD0F" fill-opacity="0.2"/>
<path d="M75.3525 -9.39703L69.0043 -13.0317C68.633 -13.2451 68.2119 -13.3568 67.7835 -13.3555C67.3552 -13.3541 66.9348 -13.2396 66.5648 -13.0238L60.2418 -9.34537C59.8724 -9.12977 59.5659 -8.82113 59.353 -8.45022C59.14 -8.07931 59.0279 -7.65907 59.028 -7.23137L59.0528 0.0861692C59.0553 0.514625 59.1702 0.934928 59.3858 1.30516C59.6015 1.6754 59.9104 1.98262 60.2818 2.1962L66.6275 5.83C66.9991 6.04383 67.4205 6.15581 67.8493 6.15462C68.278 6.15343 68.6988 6.03911 69.0692 5.82322L75.3951 2.14371C75.7633 1.92647 76.0684 1.61689 76.2802 1.24558C76.4921 0.874269 76.6033 0.4541 76.603 0.0266085L76.5782 -7.29094C76.575 -7.71834 76.4603 -8.1375 76.2453 -8.50691C76.0303 -8.87632 75.7225 -9.18316 75.3525 -9.39703Z" fill="#FFDD0F"/>
<path d="M35.4508 -18.6L18.8333 -28.1151C17.8611 -28.674 16.7586 -28.9665 15.6372 -28.9629C14.5158 -28.9592 13.4152 -28.6597 12.4467 -28.0945L-4.10955 -18.4645C-5.07639 -17.9002 -5.87852 -17.0925 -6.43609 -16.1218C-6.99365 -15.1511 -7.28721 -14.0512 -7.28748 -12.9318L-7.22256 6.22457C-7.21588 7.34636 -6.9152 8.4468 -6.35056 9.41614C-5.78592 10.3855 -4.97702 11.1899 -4.00453 11.7491L12.6082 21.2619C13.5809 21.8216 14.6841 22.1147 15.8064 22.1116C16.9287 22.1084 18.0303 21.8091 18.9998 21.2438L35.5606 11.611C36.5245 11.0425 37.3233 10.232 37.8778 9.25996C38.4323 8.28789 38.7233 7.18786 38.7221 6.06875L38.6572 -13.0876C38.6492 -14.2061 38.3491 -15.3031 37.7867 -16.27C37.2243 -17.2368 36.4191 -18.04 35.4508 -18.6Z" fill="#FFDD0F" fill-opacity="0.2"/>
<path fill-rule="evenodd" clip-rule="evenodd" d="M18.3348 -27.2481C17.5152 -27.7194 16.5858 -27.9659 15.6404 -27.9629C14.6951 -27.9598 13.7672 -27.7073 12.9507 -27.2308L12.9495 -27.23L-3.6055 -17.6008C-3.60578 -17.6006 -3.60522 -17.601 -3.6055 -17.6008C-4.42107 -17.1246 -5.09856 -16.4427 -5.56895 -15.6237C-6.03922 -14.805 -6.28695 -13.8774 -6.28747 -12.9333C-6.28748 -12.9327 -6.28748 -12.9321 -6.28748 -12.9316L-6.22257 6.21862C-6.22257 6.21904 -6.22257 6.21946 -6.22257 6.21987C-6.21671 7.16638 -5.96291 8.09488 -5.48647 8.91281C-5.01012 9.73058 -4.32783 10.4093 -3.50756 10.8813C-3.50706 10.8816 -3.50655 10.8819 -3.50604 10.8822L13.1069 20.3952C13.9271 20.8671 14.8573 21.1142 15.8036 21.1116C16.7499 21.1089 17.6787 20.8565 18.4962 20.3799L35.0526 10.7497C35.0535 10.7492 35.0544 10.7486 35.0554 10.7481C35.868 10.268 36.5415 9.58435 37.0092 8.76447C37.4774 7.94369 37.7231 7.01487 37.7221 6.06992C37.7221 6.06989 37.7221 6.06995 37.7221 6.06992L37.6572 -13.0804C37.6572 -13.0813 37.6572 -13.0821 37.6572 -13.0829C37.65 -14.0264 37.3967 -14.9516 36.9223 -15.7672C36.4479 -16.5828 35.7687 -17.2605 34.9521 -17.7332C34.9515 -17.7336 34.9508 -17.7339 34.9502 -17.7343L18.3348 -27.2481ZM35.4508 -18.6C36.4191 -18.04 37.2243 -17.2368 37.7867 -16.27C38.3491 -15.3031 38.6492 -14.2061 38.6572 -13.0876L38.7221 6.06875C38.7233 7.18786 38.4323 8.28789 37.8778 9.25996C37.3233 10.232 36.5245 11.0425 35.5606 11.611L18.9998 21.2438C18.0303 21.8091 16.9287 22.1084 15.8064 22.1116C14.6841 22.1147 13.5809 21.8216 12.6082 21.2619L-4.00453 11.7491C-4.97702 11.1899 -5.78592 10.3855 -6.35056 9.41614C-6.9152 8.4468 -7.21588 7.34636 -7.22256 6.22457L-7.28748 -12.9318C-7.28721 -14.0512 -6.99365 -15.1511 -6.43609 -16.1218C-5.87852 -17.0925 -5.07639 -17.9002 -4.10955 -18.4645L12.4467 -28.0945C13.4152 -28.6597 14.5158 -28.9592 15.6372 -28.9629C16.7586 -28.9665 17.8611 -28.674 18.8333 -28.1151L35.4508 -18.6Z" fill="url(#paint4_linear)"/>
<path d="M87.5481 72.4235L70.9308 62.9084C69.9586 62.3494 68.8561 62.057 67.7346 62.0606C66.6132 62.0642 65.5126 62.3638 64.544 62.929L47.9877 72.5589C47.0206 73.1233 46.2184 73.9313 45.6608 74.9022C45.1032 75.8732 44.8098 76.9734 44.8098 78.0931L44.875 97.2494C44.8817 98.3712 45.1823 99.4716 45.7469 100.441C46.3116 101.41 47.1205 102.215 48.093 102.774L64.7057 112.287C65.6785 112.846 66.7817 113.14 67.904 113.136C69.0263 113.133 70.1278 112.834 71.0974 112.269L87.6582 102.636C88.6221 102.067 89.4208 101.257 89.9753 100.285C90.5298 99.3127 90.8209 98.2127 90.8197 97.0936L90.7548 77.9372C90.7469 76.8185 90.4468 75.7212 89.8843 74.7541C89.3219 73.787 88.5165 72.9836 87.5481 72.4235Z" fill="#FFDD0F" fill-opacity="0.2"/>
<path fill-rule="evenodd" clip-rule="evenodd" d="M71.0974 112.269L87.6582 102.636C88.6221 102.067 89.4208 101.257 89.9753 100.285C90.5298 99.3127 90.8209 98.2127 90.8197 97.0936L90.7548 77.9372C90.7469 76.8185 90.4468 75.7212 89.8843 74.7541C89.3219 73.787 88.5165 72.9836 87.5481 72.4235L70.9308 62.9084C69.9586 62.3494 68.8561 62.057 67.7346 62.0606C66.6132 62.0642 65.5126 62.3638 64.544 62.929L47.9877 72.5589C47.0206 73.1233 46.2184 73.9313 45.6608 74.9022C45.1032 75.8732 44.8098 76.9734 44.8098 78.0931L44.875 97.2494C44.8817 98.3712 45.1823 99.4716 45.7469 100.441C46.3116 101.41 47.1205 102.215 48.093 102.774L64.7057 112.287C65.6785 112.846 66.7817 113.14 67.904 113.136C69.0263 113.133 70.1278 112.834 71.0974 112.269ZM48.5914 101.907C48.5915 101.907 48.5914 101.907 48.5914 101.907L65.2045 111.42C66.0247 111.892 66.9549 112.139 67.9011 112.136C68.8474 112.134 69.7763 111.881 70.5938 111.405L87.1501 101.775C87.1509 101.774 87.1517 101.774 87.1525 101.773C87.9653 101.293 88.6389 100.609 89.1067 99.7893C89.5746 98.9689 89.8204 98.0407 89.8197 97.0963C89.8197 97.0957 89.8197 97.0951 89.8197 97.0946L89.7548 77.9443C89.7548 77.9438 89.7548 77.9432 89.7548 77.9426C89.7478 76.9987 89.4945 76.0729 89.0199 75.2568C88.5454 74.441 87.8662 73.7631 87.0494 73.2903C87.0488 73.2899 87.0481 73.2895 87.0474 73.2891L70.4324 63.7753C69.6128 63.3041 68.6833 63.0575 67.7379 63.0606C66.7924 63.0636 65.8646 63.3162 65.048 63.7927L65.0468 63.7934L48.4917 73.4226C48.4915 73.4228 48.492 73.4225 48.4917 73.4226C47.676 73.8989 46.9984 74.581 46.528 75.4002C46.0577 76.2192 45.8101 77.147 45.8098 78.0914C45.8098 78.092 45.8098 78.0925 45.8098 78.0931L45.875 97.2435C45.875 97.2439 45.875 97.2443 45.875 97.2447C45.8808 98.1912 46.1346 99.1197 46.611 99.9376C47.0876 100.756 47.7706 101.435 48.5914 101.907Z" fill="url(#paint5_linear)"/>
<path d="M80.0109 78.1028L69.7404 72.2232C69.1396 71.8777 68.4582 71.697 67.7651 71.6992C67.0721 71.7015 66.3919 71.8866 65.7933 72.2359L55.5607 78.1877C54.9629 78.5365 54.467 79.0358 54.1224 79.6359C53.7778 80.2361 53.5965 80.9161 53.5966 81.6081L53.6366 93.4478C53.6407 94.141 53.8265 94.821 54.1754 95.4201C54.5243 96.0191 55.0241 96.5163 55.625 96.8619L65.8927 102.741C66.4938 103.087 67.1757 103.269 67.8693 103.267C68.5629 103.265 69.2437 103.08 69.8429 102.73L80.0784 96.7767C80.6742 96.4253 81.1678 95.9244 81.5106 95.3236C81.8533 94.7228 82.0333 94.0429 82.0326 93.3512L81.9925 81.5119C81.9879 80.8202 81.8026 80.1418 81.455 79.5438C81.1074 78.9458 80.6096 78.449 80.0109 78.1028Z" fill="#FFDD0F" fill-opacity="0.2"/>
<path d="M75.3525 81.8022L69.0043 78.1676C68.633 77.9541 68.2119 77.8424 67.7835 77.8438C67.3552 77.8452 66.9348 77.9596 66.5648 78.1755L60.2418 81.8538C59.8724 82.0695 59.566 82.3781 59.353 82.749C59.1401 83.1199 59.028 83.5401 59.028 83.9678L59.0528 91.2854C59.0553 91.7138 59.1702 92.1341 59.3858 92.5044C59.6015 92.8746 59.9104 93.1818 60.2818 93.3954L66.6275 97.0292C66.9991 97.243 67.4205 97.355 67.8493 97.3538C68.278 97.3526 68.6988 97.2383 69.0692 97.0224L75.3951 93.3429C75.7633 93.1257 76.0684 92.8161 76.2802 92.4448C76.4921 92.0735 76.6033 91.6533 76.603 91.2258L76.5782 83.9083C76.575 83.4809 76.4603 83.0617 76.2453 82.6923C76.0303 82.3229 75.7225 82.0161 75.3525 81.8022Z" fill="#FFDD0F"/>
<path d="M35.5485 72.6012L18.9309 63.0861C17.9588 62.5271 16.8563 62.2347 15.7349 62.2383C14.6135 62.2419 13.5129 62.5415 12.5443 63.1067L-4.0119 72.7367C-4.97894 73.3011 -5.7812 74.109 -6.33878 75.08C-6.89635 76.051 -7.1898 77.1511 -7.18982 78.2708L-7.1249 97.4271C-7.11822 98.5489 -6.81754 99.6494 -6.25291 100.619C-5.68827 101.588 -4.87936 102.392 -3.90687 102.952L12.7058 112.464C13.6786 113.024 14.7818 113.317 15.9041 113.314C17.0264 113.311 18.1279 113.012 19.0975 112.446L35.6583 102.814C36.6222 102.245 37.421 101.435 37.9755 100.463C38.53 99.4905 38.821 98.3904 38.8198 97.2713L38.7549 78.115C38.7471 76.9962 38.4472 75.8989 37.8848 74.9318C37.3223 73.9647 36.517 73.1613 35.5485 72.6012Z" fill="#FFDD0F" fill-opacity="0.2"/>
<path fill-rule="evenodd" clip-rule="evenodd" d="M18.4325 63.953C17.6129 63.4818 16.6835 63.2353 15.7381 63.2383C14.7927 63.2414 13.8649 63.4939 13.0484 63.9704L13.0471 63.9711L-3.50784 73.6004C-3.50808 73.6005 -3.5076 73.6002 -3.50784 73.6004C-4.32364 74.0766 -5.00116 74.7587 -5.47159 75.578C-5.94188 76.397 -6.18952 77.3248 -6.18982 78.2692C-6.18982 78.2697 -6.18982 78.2703 -6.18982 78.2708L-6.12492 97.4212C-6.12492 97.4216 -6.12491 97.422 -6.12491 97.4224C-6.11906 98.369 -5.86526 99.2975 -5.38881 100.115C-4.91217 100.934 -4.22933 101.613 -3.40838 102.085L13.2046 111.598C14.0248 112.07 14.955 112.317 15.9012 112.314C16.8475 112.311 17.7764 112.059 18.5939 111.583L35.1502 101.952C35.1513 101.952 35.1523 101.951 35.1533 101.951C35.9659 101.471 36.6393 100.787 37.1069 99.9671C37.5748 99.1467 37.8206 98.2185 37.8198 97.274C37.8198 97.2735 37.8198 97.273 37.8198 97.2724L37.7549 78.1219C37.7549 78.1213 37.7549 78.1207 37.7549 78.1201C37.748 77.1762 37.4948 76.2505 37.0203 75.4345C36.5458 74.6186 35.8666 73.9407 35.0497 73.4679C35.0491 73.4676 35.0485 73.4672 35.0479 73.4669L18.4325 63.953ZM35.5485 72.6012C36.517 73.1613 37.3223 73.9647 37.8848 74.9318C38.4472 75.8989 38.7471 76.9962 38.7549 78.115L38.8198 97.2713C38.821 98.3904 38.53 99.4905 37.9755 100.463C37.421 101.435 36.6222 102.245 35.6583 102.814L19.0975 112.446C18.1279 113.012 17.0264 113.311 15.9041 113.314C14.7818 113.317 13.6786 113.024 12.7058 112.464L-3.90687 102.952C-4.87936 102.392 -5.68827 101.588 -6.25291 100.619C-6.81754 99.6494 -7.11822 98.5489 -7.1249 97.4271L-7.18982 78.2708C-7.1898 77.1511 -6.89635 76.051 -6.33878 75.08C-5.7812 74.109 -4.97894 73.3011 -4.0119 72.7367L12.5443 63.1067C13.5129 62.5415 14.6135 62.2419 15.7349 62.2383C16.8563 62.2347 17.9588 62.5271 18.9309 63.0861L35.5485 72.6012Z" fill="url(#paint6_linear)"/>
<path d="M2.41093 -2.40393L-7.86065 -8.28467C-8.46154 -8.63009 -9.14295 -8.8108 -9.83605 -8.80857C-10.5292 -8.80634 -11.2094 -8.62124 -11.808 -8.27197L-22.0407 -2.32009C-22.6384 -1.97133 -23.1343 -1.472 -23.4789 -0.871864C-23.8236 -0.271729 -24.0048 0.408244 -24.0048 1.10029L-23.9644 12.94C-23.9607 13.6335 -23.7751 14.3138 -23.4262 14.9132C-23.0773 15.5125 -22.5772 16.0099 -21.976 16.3555L-11.7087 22.2349C-11.1076 22.5809 -10.4257 22.7622 -9.73206 22.7602C-9.03844 22.7583 -8.35763 22.5733 -7.75844 22.2239L2.47703 16.2703C3.07281 15.9189 3.56648 15.418 3.90924 14.8172C4.25199 14.2164 4.43191 13.5365 4.43121 12.8448L4.39117 1.00544C4.38675 0.313888 4.20171 -0.364505 3.85438 -0.962523C3.50705 -1.56054 3.00943 -2.05743 2.41093 -2.40393Z" fill="#FFDD0F"/>
<path d="M27.8775 -12.9798L17.607 -18.8608C17.0061 -19.2063 16.3248 -19.387 15.6317 -19.3847C14.9387 -19.3825 14.2585 -19.1974 13.6599 -18.8481L3.42724 -12.8963C2.8295 -12.5475 2.33358 -12.0482 1.98896 -11.448C1.64435 -10.8479 1.46306 -10.1679 1.46313 -9.47587L1.50317 2.36379C1.50706 3.05726 1.69272 3.73759 2.04162 4.33691C2.39051 4.93623 2.89049 5.43359 3.49161 5.77938L13.7593 11.6587C14.3604 12.0048 15.0422 12.186 15.7358 12.1841C16.4295 12.1821 17.1103 11.9971 17.7095 11.6477L27.9449 5.69413C28.5407 5.34273 29.0344 4.84184 29.3771 4.24104C29.7199 3.64025 29.8999 2.96036 29.8992 2.26866L29.8591 -9.57072C29.8545 -10.2624 29.6692 -10.9408 29.3216 -11.5388C28.974 -12.1368 28.4762 -12.6335 27.8775 -12.9798Z" fill="#FFDD0F" fill-opacity="0.2"/>
<path d="M27.8775 77.985L17.607 72.104C17.0061 71.7586 16.3248 71.5779 15.6317 71.5801C14.9387 71.5823 14.2585 71.7674 13.6599 72.1167L3.42724 78.0686C2.8295 78.4173 2.33358 78.9167 1.98896 79.5168C1.64435 80.1169 1.46306 80.7969 1.46313 81.489L1.50317 93.3286C1.50706 94.0221 1.69272 94.7024 2.04162 95.3017C2.39051 95.9011 2.89049 96.3984 3.49161 96.7442L13.7593 102.624C14.3604 102.97 15.0422 103.151 15.7358 103.149C16.4295 103.147 17.1103 102.962 17.7095 102.613L27.9449 96.659C28.5407 96.3076 29.0344 95.8067 29.3771 95.2059C29.7199 94.6051 29.8999 93.9252 29.8992 93.2335L29.8591 81.3941C29.8545 80.7025 29.6692 80.024 29.3216 79.426C28.974 78.8281 28.4762 78.3313 27.8775 77.985Z" fill="#FFDD0F" fill-opacity="0.2"/>
</g>
<defs>
<linearGradient id="paint0_linear" x1="42.3339" y1="24.5864" x2="42.3339" y2="88.4293" gradientUnits="userSpaceOnUse">
<stop stop-color="#FFDD0F" stop-opacity="0.8"/>
<stop offset="1" stop-color="#FFDD0F" stop-opacity="0"/>
</linearGradient>
<linearGradient id="paint1_linear" x1="93.5339" y1="24.4128" x2="93.5339" y2="88.2577" gradientUnits="userSpaceOnUse">
<stop stop-color="#FFDD0F" stop-opacity="0.8"/>
<stop offset="1" stop-color="#FFDD0F" stop-opacity="0"/>
</linearGradient>
<linearGradient id="paint2_linear" x1="-9.66556" y1="24.7622" x2="-9.66556" y2="88.6051" gradientUnits="userSpaceOnUse">
<stop stop-color="#FFDD0F" stop-opacity="0.8"/>
<stop offset="1" stop-color="#FFDD0F" stop-opacity="0"/>
</linearGradient>
<linearGradient id="paint3_linear" x1="67.8148" y1="-21.0132" x2="67.8148" y2="42.83" gradientUnits="userSpaceOnUse">
<stop stop-color="#FFDD0F"/>
<stop offset="1" stop-color="#FFDD0F" stop-opacity="0"/>
</linearGradient>
<linearGradient id="paint4_linear" x1="15.7173" y1="-20.8374" x2="15.7173" y2="43.0057" gradientUnits="userSpaceOnUse">
<stop stop-color="#FFDD0F"/>
<stop offset="1" stop-color="#FFDD0F" stop-opacity="0"/>
</linearGradient>
<linearGradient id="paint5_linear" x1="67.8148" y1="70.1863" x2="67.8148" y2="134.031" gradientUnits="userSpaceOnUse">
<stop stop-color="#FFDD0F" stop-opacity="0.8"/>
<stop offset="1" stop-color="#FFDD0F" stop-opacity="0"/>
</linearGradient>
<linearGradient id="paint6_linear" x1="15.815" y1="70.364" x2="15.815" y2="87.9995" gradientUnits="userSpaceOnUse">
<stop stop-color="#FFDD0F" stop-opacity="0.8"/>
<stop offset="1" stop-color="#FFDD0F" stop-opacity="0"/>
</linearGradient>
<clipPath id="clip0">
<rect x="0.333984" width="84" height="84" rx="42" fill="white"/>
</clipPath>
</defs>
</svg>
