<svg width="56" height="57" fill="none" xmlns="http://www.w3.org/2000/svg"><path d="M54.836 28.575c0 14.894-12.074 26.968-26.968 26.968S.9 43.47.9 28.575 12.974 1.607 27.868 1.607s26.968 12.074 26.968 26.968z" stroke="#FF6D6D" stroke-opacity=".8" stroke-width="1.8"/><path opacity=".7" d="M24.125 37.234c0 .914.749 1.663 1.663 1.663h8.624l-1.106 5.277a1.86 1.86 0 00.506 1.712l1.323 1.324 8.214-8.214a2.48 2.48 0 00.732-1.762V26.428a2.49 2.49 0 00-2.494-2.494H30.36c-1.03 0-1.919.623-2.295 1.52L24.3 34.252c-.108.281-.175.58-.175.905v2.079-.002z" fill="url(#paint0_linear)" fill-opacity=".6"/><path d="M31.956 21.976a1.668 1.668 0 00-1.663-1.663h-8.624l1.106-5.277a1.86 1.86 0 00-.506-1.712L20.945 12l-8.214 8.214A2.483 2.483 0 0012 21.976v10.806a2.49 2.49 0 002.494 2.494H25.72c1.03 0 1.918-.623 2.295-1.52l3.766-8.795c.108-.283.175-.582.175-.906v-2.079z" fill="url(#paint1_linear)"/><defs><linearGradient id="paint0_linear" x1="22.582" y1="45.22" x2="44.373" y2="30.46" gradientUnits="userSpaceOnUse"><stop stop-color="#FF6969"/><stop offset="1" stop-color="#F88"/></linearGradient><linearGradient id="paint1_linear" x1="11" y1="34.281" x2="32.406" y2="18.469" gradientUnits="userSpaceOnUse"><stop stop-color="#DA6F79"/><stop offset="1" stop-color="#DA616B"/></linearGradient></defs></svg>