<svg width="43" height="43" viewBox="0 0 43 43" fill="none" xmlns="http://www.w3.org/2000/svg">
<circle cx="21.5" cy="21.5" r="21.5" fill="url(#paint0_linear)"/>
<path fill-rule="evenodd" clip-rule="evenodd" d="M21.5 43C33.3741 43 43 33.3741 43 21.5C43 9.62588 33.3741 0 21.5 0C9.62588 0 0 9.62588 0 21.5C0 33.3741 9.62588 43 21.5 43Z" fill="url(#paint1_linear)"/>
<g clip-path="url(#clip0)">
<path d="M28.0498 16.4631L22.5343 13.3048C22.2116 13.1193 21.8456 13.0222 21.4734 13.0234C21.1012 13.0246 20.7359 13.1241 20.4144 13.3116L14.9191 16.508C14.5982 16.6953 14.3319 16.9634 14.1468 17.2856C13.9618 17.6078 13.8643 17.9728 13.8643 18.3444L13.8858 24.7028C13.888 25.0751 13.9878 25.4404 14.1753 25.7621C14.3627 26.0838 14.6311 26.3508 14.9539 26.5364L20.4679 29.6939C20.7907 29.8797 21.1569 29.9769 21.5294 29.9759C21.9019 29.9748 22.2676 29.8755 22.5894 29.6879L28.0863 26.4906C28.4062 26.3019 28.6713 26.0329 28.8554 25.7102C29.0394 25.3876 29.136 25.0224 29.1356 24.651L29.114 18.2927C29.1113 17.9214 29.0117 17.5574 28.8251 17.2365C28.6384 16.9156 28.3712 16.649 28.0498 16.4631V16.4631Z" fill="white" fill-opacity="0.4"/>
<path d="M25.5481 18.3876L22.1392 16.4356C21.9398 16.321 21.7136 16.261 21.4835 16.2617C21.2535 16.2625 21.0277 16.3239 20.829 16.4398L17.4327 18.4154C17.2343 18.5311 17.0697 18.6969 16.9553 18.896C16.8409 19.0952 16.7807 19.3209 16.7808 19.5506L16.7941 23.4804C16.7954 23.7106 16.857 23.9364 16.9728 24.1353C17.0886 24.3343 17.2545 24.4993 17.454 24.6141L20.862 26.5657C21.0615 26.6805 21.2879 26.7406 21.5181 26.7399C21.7483 26.7393 21.9743 26.6779 22.1732 26.5619L25.5705 24.5858C25.7684 24.4692 25.9323 24.3028 26.046 24.1033C26.1598 23.9038 26.2195 23.678 26.2192 23.4484L26.2059 19.5186C26.2042 19.2891 26.1427 19.064 26.0273 18.8657C25.912 18.6673 25.7468 18.5025 25.5481 18.3876V18.3876Z" fill="white" fill-opacity="0.87"/>
<path d="M45.0445 16.4045L39.5288 13.2463C39.2061 13.0607 38.8402 12.9637 38.468 12.9649C38.0957 12.966 37.7304 13.0654 37.4089 13.253L31.9136 16.4494C31.5926 16.6368 31.3264 16.905 31.1413 17.2272C30.9563 17.5495 30.8589 17.9147 30.8589 18.2863L30.8804 24.6446C30.8827 25.017 30.9825 25.3822 31.1699 25.704C31.3573 26.0257 31.6258 26.2927 31.9486 26.4783L37.4626 29.6358C37.7855 29.8216 38.1517 29.9189 38.5242 29.9178C38.8967 29.9167 39.2623 29.8174 39.5841 29.6298L45.0809 26.4325C45.4009 26.2438 45.666 25.9748 45.85 25.6521C46.0341 25.3295 46.1307 24.9644 46.1303 24.5929L46.1088 18.2346C46.1061 17.8633 46.0066 17.4991 45.8199 17.1781C45.6332 16.8571 45.3659 16.5904 45.0445 16.4045V16.4045Z" fill="white" fill-opacity="0.4"/>
<path d="M42.5418 18.327L39.133 16.3751C38.9335 16.2604 38.7073 16.2004 38.4773 16.2012C38.2472 16.2019 38.0214 16.2634 37.8227 16.3793L34.4263 18.3548C34.228 18.4706 34.0634 18.6363 33.949 18.8355C33.8346 19.0347 33.7744 19.2604 33.7744 19.4901L33.7878 23.4198C33.7891 23.65 33.8507 23.8758 33.9665 24.0747C34.0823 24.2736 34.2483 24.4387 34.4478 24.5535L37.8557 26.5049C38.0552 26.6198 38.2816 26.6799 38.5118 26.6793C38.742 26.6787 38.968 26.6172 39.1669 26.5013L42.5642 24.5252C42.7619 24.4086 42.9258 24.2423 43.0396 24.0429C43.1533 23.8435 43.2131 23.6178 43.2128 23.3882L43.1995 19.4584C43.198 19.2289 43.1365 19.0037 43.0211 18.8053C42.9057 18.6068 42.7405 18.4419 42.5418 18.327V18.327Z" fill="white" fill-opacity="0.87"/>
<path d="M10.7901 16.5198L5.27444 13.3614C4.95173 13.1759 4.58579 13.0789 4.21357 13.0801C3.84135 13.0813 3.47603 13.1807 3.15453 13.3683L-2.34079 16.5646C-2.66168 16.7519 -2.92791 17.02 -3.11296 17.3422C-3.29801 17.6644 -3.39543 18.0295 -3.39551 18.401L-3.37394 24.7594C-3.37171 25.1318 -3.27192 25.497 -3.08451 25.8187C-2.89709 26.1405 -2.62862 26.4074 -2.30584 26.593L3.20822 29.7505C3.53109 29.9363 3.89727 30.0336 4.26977 30.0325C4.64228 30.0315 5.00789 29.9321 5.3297 29.7445L10.8265 26.5473C11.1465 26.3586 11.4115 26.0895 11.5956 25.7669C11.7796 25.4442 11.8763 25.0791 11.8759 24.7076L11.8544 18.3493C11.8517 17.9781 11.752 17.614 11.5654 17.2931C11.3787 16.9722 11.1114 16.7056 10.7901 16.5198V16.5198Z" fill="white" fill-opacity="0.4"/>
<path d="M8.28837 18.4423L4.87951 16.4904C4.68008 16.3757 4.45391 16.3157 4.22386 16.3164C3.9938 16.3171 3.76802 16.3786 3.56931 16.4945L0.172917 18.47C-0.0254576 18.5858 -0.190045 18.7516 -0.304426 18.9508C-0.418808 19.1499 -0.47899 19.3756 -0.479004 19.6053L-0.465622 23.5351C-0.464351 23.7653 -0.402733 23.9911 -0.286928 24.19C-0.171122 24.389 -0.00516055 24.554 0.194373 24.6688L3.60227 26.6203C3.80182 26.7352 4.02814 26.7953 4.25835 26.7946C4.48857 26.794 4.71454 26.7325 4.91343 26.6166L8.31076 24.6405C8.5085 24.5239 8.67235 24.3576 8.78611 24.1582C8.89988 23.9588 8.9596 23.7332 8.95939 23.5036L8.9461 19.5738C8.94457 19.3443 8.88307 19.1191 8.7677 18.9206C8.65233 18.7221 8.48709 18.5572 8.28837 18.4423V18.4423Z" fill="white" fill-opacity="0.87"/>
<path d="M36.5069 1.32663L30.9913 -1.83188C30.6686 -2.0174 30.3027 -2.11447 29.9304 -2.11327C29.5582 -2.11207 29.1929 -2.01264 28.8714 -1.82504L23.3761 1.37132C23.0552 1.55861 22.7889 1.8267 22.6039 2.1489C22.4188 2.47109 22.3214 2.83615 22.3213 3.20771L22.3429 9.56604C22.3451 9.93838 22.4449 10.3036 22.6323 10.6254C22.8197 10.9471 23.0882 11.2141 23.411 11.3997L28.9251 14.5572C29.248 14.743 29.6141 14.8403 29.9866 14.8392C30.3591 14.8382 30.7248 14.7388 31.0466 14.5512L36.5434 11.3539C36.8633 11.1652 37.1284 10.8962 37.3125 10.5735C37.4965 10.2509 37.5931 9.88577 37.5928 9.51432L37.5712 3.156C37.5685 2.78479 37.4688 2.42074 37.2821 2.09988C37.0954 1.77902 36.8282 1.51248 36.5069 1.32663V1.32663Z" fill="white" fill-opacity="0.4"/>
<path d="M34.0052 3.24896L30.5962 1.29695C30.3968 1.1823 30.1706 1.12231 29.9406 1.12305C29.7106 1.12379 29.4848 1.18523 29.2861 1.30117L25.8897 3.27669C25.6913 3.39245 25.5267 3.55819 25.4123 3.75739C25.2979 3.95658 25.2378 4.18228 25.2378 4.41198L25.2511 8.34177C25.2524 8.57194 25.314 8.79775 25.4298 8.99668C25.5456 9.1956 25.7116 9.36069 25.9111 9.47546L29.3191 11.4269C29.5186 11.5418 29.7449 11.6019 29.9752 11.6013C30.2054 11.6006 30.4313 11.5392 30.6302 11.4233L34.0276 9.44716C34.2253 9.33053 34.3892 9.16428 34.5029 8.96486C34.6167 8.76545 34.6764 8.53978 34.6762 8.31019L34.6629 4.3805C34.6614 4.15093 34.5999 3.92574 34.4845 3.72726C34.3691 3.52878 34.2039 3.3639 34.0052 3.24896Z" fill="white" fill-opacity="0.87"/>
<path d="M32.4594 4.43888L30.3523 3.23248C30.2291 3.16162 30.0893 3.12454 29.9471 3.125C29.805 3.12546 29.6654 3.16344 29.5426 3.2351L27.4439 4.45602C27.3213 4.52758 27.2196 4.63002 27.1489 4.75314C27.0782 4.87625 27.041 5.01573 27.041 5.15769L27.0493 7.58651C27.0501 7.72872 27.0882 7.86823 27.1598 7.99112C27.2314 8.11401 27.3339 8.21598 27.4572 8.28687L29.5634 9.49299C29.6868 9.56396 29.8267 9.60113 29.969 9.60074C30.1113 9.60034 30.2509 9.5624 30.3739 9.49074L32.4736 8.26945C32.5958 8.19734 32.697 8.09458 32.7673 7.97134C32.8377 7.8481 32.8746 7.70863 32.8745 7.56674L32.8662 5.13792C32.8652 4.99606 32.8271 4.85693 32.7558 4.73432C32.6844 4.61171 32.5822 4.50986 32.4594 4.43888V4.43888Z" fill="#FFDD0F"/>
<path d="M19.2149 1.38494L13.6992 -1.77328C13.3765 -1.95881 13.0106 -2.05588 12.6384 -2.05468C12.2662 -2.05348 11.9009 -1.95405 11.5794 -1.76644L6.0841 1.42992C5.76319 1.61721 5.49695 1.8853 5.31189 2.20749C5.12682 2.52969 5.02938 2.89475 5.0293 3.26631L5.05084 9.62464C5.05306 9.99698 5.15286 10.3622 5.34027 10.684C5.52769 11.0057 5.79618 11.2727 6.11896 11.4583L11.633 14.6158C11.9559 14.8016 12.3221 14.8989 12.6946 14.8978C13.0671 14.8968 13.4327 14.7974 13.7545 14.6098L19.2513 11.4125C19.5713 11.2238 19.8364 10.9548 20.0204 10.6321C20.2045 10.3095 20.3011 9.94437 20.3007 9.57292L20.2791 3.21459C20.2765 2.84334 20.1769 2.47923 19.9902 2.15831C19.8035 1.83739 19.5363 1.5708 19.2149 1.38494V1.38494Z" fill="white" fill-opacity="0.4"/>
<path d="M36.5069 31.5978L30.9913 28.4396C30.6686 28.2541 30.3027 28.157 29.9304 28.1582C29.5582 28.1594 29.1929 28.2588 28.8714 28.4464L23.3761 31.6428C23.0551 31.8301 22.7888 32.0983 22.6037 32.4206C22.4187 32.7429 22.3213 33.108 22.3213 33.4797L22.3429 39.838C22.3451 40.2103 22.4449 40.5756 22.6323 40.8973C22.8197 41.2191 23.0882 41.4861 23.411 41.6717L28.9251 44.8291C29.248 45.0149 29.6141 45.1122 29.9866 45.1112C30.3591 45.1101 30.7248 45.0108 31.0466 44.8231L36.5434 41.6259C36.8633 41.4371 37.1284 41.1681 37.3125 40.8455C37.4965 40.5228 37.5931 40.1577 37.5928 39.7863L37.5712 33.4279C37.5686 33.0566 37.469 32.6924 37.2823 32.3714C37.0956 32.0504 36.8283 31.7837 36.5069 31.5978Z" fill="white" fill-opacity="0.4"/>
<path d="M34.0052 33.4829L30.5962 31.5313C30.3968 31.4167 30.1706 31.3567 29.9406 31.3574C29.7106 31.3582 29.4848 31.4196 29.2861 31.5355L25.8897 33.5111C25.6913 33.6268 25.5267 33.7926 25.4123 33.9918C25.2979 34.191 25.2378 34.4167 25.2378 34.6464L25.2511 38.5761C25.2525 38.8062 25.3141 39.0319 25.4299 39.2308C25.5457 39.4296 25.7116 39.5946 25.9111 39.7094L29.3191 41.6608C29.5186 41.7757 29.7449 41.8358 29.9752 41.8352C30.2054 41.8345 30.4313 41.7731 30.6302 41.6572L34.0276 39.6811C34.2253 39.5644 34.3892 39.3982 34.5029 39.1988C34.6167 38.9994 34.6764 38.7737 34.6762 38.5441L34.6629 34.6144C34.6614 34.3848 34.5999 34.1596 34.4845 33.9612C34.3691 33.7627 34.2039 33.5978 34.0052 33.4829Z" fill="white" fill-opacity="0.87"/>
<path d="M32.4594 34.7123L30.3523 33.5059C30.2291 33.4351 30.0893 33.398 29.9471 33.3984C29.805 33.3989 29.6654 33.4369 29.5426 33.5085L27.4439 34.7295C27.3213 34.801 27.2196 34.9035 27.1489 35.0266C27.0782 35.1497 27.041 35.2892 27.041 35.4311L27.0493 37.8599C27.0501 38.0022 27.0882 38.1417 27.1598 38.2645C27.2314 38.3874 27.3339 38.4894 27.4572 38.5603L29.5634 39.7664C29.6868 39.8374 29.8267 39.8746 29.969 39.8742C30.1113 39.8738 30.2509 39.8358 30.3739 39.7642L32.4736 38.5429C32.5958 38.4708 32.697 38.368 32.7673 38.2448C32.8377 38.1215 32.8746 37.9821 32.8745 37.8402L32.8662 35.4114C32.8652 35.2695 32.8271 35.1304 32.7558 35.0078C32.6844 34.8851 32.5822 34.7833 32.4594 34.7123V34.7123Z" fill="#FFDD0F"/>
<path d="M19.2471 31.6584L13.7315 28.5002C13.4088 28.3146 13.0428 28.2176 12.6706 28.2188C12.2984 28.22 11.9331 28.3194 11.6116 28.507L6.11633 31.7034C5.79535 31.8907 5.52907 32.1588 5.344 32.4811C5.15893 32.8034 5.06153 33.1686 5.06152 33.5402L5.08307 39.8985C5.08529 40.2709 5.18509 40.6361 5.3725 40.9579C5.55991 41.2796 5.82841 41.5466 6.15119 41.7322L11.6652 44.8897C11.9881 45.0755 12.3543 45.1728 12.7268 45.1717C13.0993 45.1707 13.4649 45.0713 13.7867 44.8837L19.2835 41.6864C19.6035 41.4977 19.8686 41.2287 20.0527 40.906C20.2367 40.5834 20.3333 40.2183 20.3329 39.8468L20.3114 33.4885C20.3088 33.1172 20.2092 32.753 20.0226 32.4319C19.8359 32.1109 19.5686 31.8443 19.2471 31.6584V31.6584Z" fill="white" fill-opacity="0.4"/>
<path d="M8.24878 6.76254L4.83947 4.81062C4.64002 4.69597 4.41385 4.63599 4.1838 4.63673C3.95374 4.63747 3.72797 4.6989 3.52927 4.81483L0.132877 6.79037C-0.0655222 6.90612 -0.230126 7.07186 -0.344511 7.27106C-0.458896 7.47025 -0.519067 7.69595 -0.519043 7.92565L-0.505661 11.8554C-0.504419 12.0856 -0.442821 12.3115 -0.327012 12.5104C-0.211204 12.7093 -0.0452188 12.8744 0.154334 12.9891L3.56223 14.9406C3.76176 15.0554 3.98809 15.1156 4.21831 15.115C4.44854 15.1143 4.67451 15.0529 4.87339 14.9369L8.27072 12.9608C8.46847 12.8442 8.63233 12.6779 8.74609 12.4785C8.85986 12.2791 8.91958 12.0534 8.91935 11.8239L8.90606 7.89417C8.90459 7.66463 8.84317 7.43946 8.72789 7.24097C8.6126 7.04247 8.44743 6.87755 8.24878 6.76254V6.76254Z" fill="#FFDD0F"/>
<path d="M16.701 3.24896L13.292 1.29695C13.0926 1.1823 12.8664 1.12231 12.6364 1.12305C12.4064 1.12379 12.1806 1.18523 11.9819 1.30117L8.58551 3.27669C8.38711 3.39245 8.22251 3.55819 8.10813 3.75739C7.99374 3.95658 7.93357 4.18228 7.93359 4.41198L7.94688 8.34177C7.94817 8.57194 8.0098 8.79775 8.1256 8.99668C8.24141 9.1956 8.40736 9.36069 8.60688 9.47546L12.0149 11.4269C12.2144 11.5418 12.4407 11.6019 12.671 11.6013C12.9012 11.6006 13.1271 11.5392 13.326 11.4233L16.7234 9.44716C16.9211 9.33053 17.085 9.16428 17.1987 8.96486C17.3125 8.76545 17.3722 8.53978 17.372 8.31019L17.3587 4.3805C17.3572 4.15093 17.2957 3.92574 17.1803 3.72726C17.0649 3.52878 16.8997 3.3639 16.701 3.24896Z" fill="white" fill-opacity="0.87"/>
<path d="M16.701 33.4443L13.292 31.4923C13.0926 31.3776 12.8664 31.3176 12.6364 31.3184C12.4064 31.3191 12.1806 31.3805 11.9819 31.4965L8.58551 33.472C8.38711 33.5878 8.22251 33.7535 8.10813 33.9527C7.99374 34.1519 7.93357 34.3776 7.93359 34.6073L7.94688 38.5371C7.94817 38.7673 8.0098 38.9931 8.1256 39.192C8.24141 39.3909 8.40736 39.556 8.60688 39.6708L12.0149 41.6222C12.2144 41.7371 12.4407 41.7972 12.671 41.7966C12.9012 41.796 13.1271 41.7345 13.326 41.6186L16.7234 39.6425C16.9211 39.5258 17.085 39.3596 17.1987 39.1602C17.3125 38.9608 17.3722 38.7351 17.372 38.5055L17.3587 34.5758C17.3572 34.3462 17.2957 34.1211 17.1803 33.9226C17.0649 33.7241 16.8997 33.5592 16.701 33.4443Z" fill="white" fill-opacity="0.87"/>
</g>
<defs>
<linearGradient id="paint0_linear" x1="66.5156" y1="-19.35" x2="-1.70289" y2="32.3259" gradientUnits="userSpaceOnUse">
<stop stop-color="#FFB36D"/>
<stop offset="1" stop-color="#FF8888"/>
</linearGradient>
<linearGradient id="paint1_linear" x1="9.38848e-07" y1="8.67608" x2="44.8463" y2="40.406" gradientUnits="userSpaceOnUse">
<stop stop-color="#6C5BC2"/>
<stop offset="1" stop-color="#5A42AC"/>
</linearGradient>
<clipPath id="clip0">
<rect x="7.55957" y="7.55859" width="27.881" height="27.881" rx="13.9405" fill="white"/>
</clipPath>
</defs>
</svg>
