<svg width="48" height="48" viewBox="0 0 48 48" fill="none" xmlns="http://www.w3.org/2000/svg">
<ellipse opacity="0.5" cx="23.9977" cy="24" rx="23.9977" ry="24" fill="url(#paint0_linear)"/>
<g clip-path="url(#clip0)">
<path d="M35.2763 15.328L25.7807 9.89064C25.2251 9.57128 24.5951 9.4042 23.9543 9.40627C23.3135 9.40834 22.6845 9.57948 22.131 9.90241L12.6703 15.4053C12.1178 15.7277 11.6595 16.1892 11.3409 16.7439C11.0223 17.2986 10.8545 17.9271 10.8544 18.5668L10.8915 29.5135C10.8953 30.1544 11.0671 30.7832 11.3898 31.3371C11.7124 31.891 12.1746 32.3506 12.7303 32.6701L22.2231 38.1061C22.779 38.4259 23.4094 38.5934 24.0507 38.5916C24.692 38.5898 25.3215 38.4187 25.8755 38.0957L35.339 32.5913C35.8898 32.2664 36.3462 31.8033 36.6631 31.2478C36.9799 30.6923 37.1463 30.0637 37.1456 29.4242L37.1083 18.4778C37.1037 17.8387 36.9323 17.2118 36.6109 16.6594C36.2896 16.1069 35.8295 15.648 35.2763 15.328Z" fill="#FFF19F"/>
<path d="M30.9693 18.6404L25.1005 15.2798C24.7571 15.0825 24.3677 14.9792 23.9717 14.9805C23.5756 14.9818 23.1869 15.0875 22.8448 15.2871L16.9977 18.6882C16.6562 18.8875 16.3728 19.1728 16.1759 19.5157C15.979 19.8587 15.8753 20.2472 15.8754 20.6427L15.8983 27.4082C15.9005 27.8045 16.0066 28.1932 16.2059 28.5357C16.4053 28.8782 16.691 29.1624 17.0345 29.36L22.9016 32.7197C23.2451 32.9174 23.6348 33.0209 24.0312 33.0198C24.4275 33.0186 24.8166 32.9129 25.159 32.7133L31.0078 29.3112C31.3484 29.1104 31.6306 28.824 31.8265 28.4806C32.0223 28.1371 32.1251 27.7484 32.1245 27.353L32.1016 20.5875C32.0988 20.1924 31.9929 19.805 31.7943 19.4634C31.5957 19.1219 31.3113 18.8382 30.9693 18.6404Z" fill="#FFDD0F"/>
<path d="M28.3073 20.6877L24.6801 18.6108C24.4679 18.4888 24.2273 18.425 23.9825 18.4258C23.7378 18.4266 23.4975 18.492 23.2861 18.6153L19.6729 20.7174C19.4619 20.8406 19.2868 21.0169 19.1651 21.2289C19.0434 21.4408 18.9794 21.6809 18.9794 21.9253L18.9935 26.1067C18.995 26.3516 19.0606 26.5917 19.1839 26.8033C19.3071 27.0149 19.4836 27.1905 19.6959 27.3126L23.3219 29.3889C23.5343 29.5111 23.775 29.5751 24.02 29.5744C24.265 29.5737 24.5054 29.5084 24.717 29.385L28.332 27.2825C28.5424 27.1583 28.7167 26.9814 28.8378 26.7692C28.9588 26.5571 29.0224 26.317 29.0222 26.0727L29.008 21.8912C29.0062 21.647 28.9406 21.4074 28.8177 21.1963C28.6948 20.9853 28.5188 20.8099 28.3073 20.6877Z" fill="#FFDD0F"/>
<path d="M64.5334 15.2283L55.0376 9.79111C54.4821 9.47173 53.8521 9.30462 53.2112 9.30666C52.5704 9.3087 51.9415 9.47981 51.388 9.80273L41.9272 15.3057C41.3747 15.6283 40.9163 16.0899 40.5977 16.6448C40.2791 17.1996 40.1114 17.8283 40.1115 18.4681L40.1485 29.4146C40.1524 30.0556 40.3242 30.6844 40.6468 31.2383C40.9695 31.7922 41.4317 32.2519 41.9874 32.5714L51.4804 38.0073C52.0363 38.3272 52.6667 38.4947 53.308 38.4928C53.9493 38.491 54.5787 38.32 55.1328 37.997L64.5961 32.4925C65.1469 32.1676 65.6033 31.7045 65.9201 31.149C66.237 30.5936 66.4033 29.965 66.4027 29.3255L66.3656 18.379C66.3611 17.7398 66.1897 17.1128 65.8683 16.5601C65.5469 16.0075 65.0867 15.5484 64.5334 15.2283Z" fill="#FFF19F"/>
<path d="M60.2256 18.5407L54.357 15.1802C54.0136 14.9829 53.6242 14.8796 53.2282 14.8809C52.8321 14.8821 52.4434 14.9879 52.1013 15.1875L46.2541 18.5886C45.9125 18.7879 45.6292 19.0733 45.4323 19.4162C45.2354 19.7591 45.1317 20.1476 45.1317 20.5431L45.1548 27.3084C45.157 27.7047 45.2631 28.0935 45.4624 28.436C45.6618 28.7784 45.9475 29.0626 46.291 29.2602L52.1581 32.6198C52.5016 32.8175 52.8912 32.9211 53.2875 32.92C53.6839 32.9189 54.0729 32.8132 54.4153 32.6135L60.2642 29.2115C60.6046 29.0107 60.8868 28.7245 61.0826 28.3812C61.2785 28.0378 61.3813 27.6493 61.3809 27.2541L61.358 20.4886C61.3553 20.0934 61.2494 19.7057 61.0508 19.3641C60.8522 19.0224 60.5677 18.7386 60.2256 18.5407Z" fill="#FFEB6F"/>
<path d="M5.56215 15.4296L-3.93356 9.9922C-4.48913 9.67284 -5.11914 9.50576 -5.75995 9.50783C-6.40077 9.5099 -7.0297 9.68104 -7.5832 10.004L-17.0439 15.5068C-17.5964 15.8293 -18.0547 16.2908 -18.3733 16.8455C-18.6919 17.4002 -18.8596 18.0287 -18.8597 18.6684L-18.8226 29.615C-18.8188 30.256 -18.647 30.8848 -18.3243 31.4387C-18.0017 31.9926 -17.5395 32.4522 -16.9838 32.7717L-7.49077 38.2076C-6.93492 38.5275 -6.3045 38.6949 -5.6632 38.6931C-5.02189 38.6913 -4.39245 38.5203 -3.83842 38.1973L5.62493 32.693C6.17572 32.368 6.63208 31.9049 6.94894 31.3494C7.2658 30.7939 7.43216 30.1653 7.43151 29.5258L7.39441 18.5793C7.38976 17.9402 7.21825 17.3134 6.89688 16.7609C6.57551 16.2085 6.11542 15.7495 5.56215 15.4296Z" fill="#FFF19F"/>
<path d="M1.25503 18.742L-4.61366 15.3816C-4.957 15.1841 -5.34636 15.0808 -5.74242 15.082C-6.13848 15.0833 -6.5272 15.1891 -6.8693 15.3886L-12.7165 18.7897C-13.058 18.9891 -13.3414 19.2744 -13.5383 19.6173C-13.7352 19.9602 -13.8388 20.3488 -13.8389 20.7442L-13.8158 27.5097C-13.8136 27.906 -13.7076 28.2948 -13.5082 28.6373C-13.3088 28.9797 -13.0231 29.2639 -12.6796 29.4615L-6.81255 32.8213C-6.46901 33.0189 -6.07938 33.1224 -5.68303 33.1213C-5.28669 33.1202 -4.89766 33.0145 -4.55525 32.8148L1.29359 29.4128C1.63401 29.212 1.9161 28.9258 2.11195 28.5825C2.30781 28.2392 2.41063 27.8508 2.41026 27.4555L2.38738 20.69C2.38475 20.2948 2.27887 19.9071 2.08025 19.5654C1.88163 19.2237 1.59716 18.9399 1.25503 18.742Z" fill="#FFEB6F"/>
<path d="M49.8365 -10.7282L40.341 -16.1659C39.7854 -16.4853 39.1554 -16.6524 38.5146 -16.6504C37.8738 -16.6483 37.2448 -16.4771 36.6913 -16.1541L27.2306 -10.6513C26.6781 -10.3289 26.2197 -9.86732 25.9011 -9.31263C25.5825 -8.75794 25.4148 -8.12945 25.4147 -7.48977L25.4519 3.45673C25.4557 4.09775 25.6275 4.72658 25.9502 5.28049C26.2728 5.83441 26.735 6.29405 27.2908 6.61358L36.7838 12.0495C37.3396 12.3694 37.97 12.5368 38.6113 12.535C39.2526 12.5332 39.8821 12.3622 40.4362 12.0392L49.8995 6.53471C50.4502 6.20977 50.9066 5.74666 51.2235 5.19119C51.5403 4.63573 51.7067 4.00717 51.706 3.36769L51.6689 -7.5788C51.6642 -8.21787 51.4926 -8.84462 51.1712 -9.39701C50.8498 -9.9494 50.3898 -10.4083 49.8365 -10.7282Z" fill="#FFF19F"/>
<path d="M45.5296 -7.4162L39.6607 -10.7768C39.3174 -10.9742 38.928 -11.0774 38.532 -11.0762C38.136 -11.0749 37.7473 -10.9691 37.4052 -10.7695L31.558 -7.36845C31.2165 -7.16916 30.9331 -6.88383 30.7361 -6.54089C30.5392 -6.19796 30.4356 -5.8094 30.4357 -5.41395L30.4585 1.35157C30.4608 1.74784 30.5669 2.1366 30.7662 2.47907C30.9656 2.82154 31.2513 3.10575 31.5948 3.30334L37.462 6.66296C37.8055 6.8607 38.1952 6.96426 38.5915 6.96315C38.9879 6.96205 39.3769 6.85632 39.7193 6.65666L45.5681 3.25463C45.9086 3.05383 46.1907 2.76761 46.3865 2.42429C46.5824 2.08098 46.6852 1.69247 46.6849 1.29721L46.6619 -5.46815C46.6593 -5.86337 46.5534 -6.25105 46.3548 -6.59276C46.1562 -6.93446 45.8717 -7.21832 45.5296 -7.4162Z" fill="#FFEB6F"/>
<path d="M15.8499 -7.4162L9.98104 -10.7768C9.6377 -10.9742 9.24834 -11.0774 8.85231 -11.0762C8.45628 -11.0749 8.06762 -10.9691 7.72555 -10.7695L1.87833 -7.36845C1.53676 -7.16916 1.25338 -6.88383 1.05646 -6.54089C0.85953 -6.19796 0.75594 -5.8094 0.755981 -5.41395L0.778862 1.35157C0.781082 1.74784 0.887174 2.1366 1.08654 2.47907C1.28591 2.82154 1.57161 3.10575 1.91511 3.30334L7.78234 6.66296C8.12584 6.8607 8.51546 6.96426 8.91181 6.96315C9.30817 6.96205 9.6972 6.85632 10.0396 6.65666L15.8884 3.25463C16.2289 3.05383 16.511 2.76761 16.7068 2.42429C16.9027 2.08098 17.0056 1.69247 17.0052 1.29721L16.9822 -5.46815C16.9796 -5.86337 16.8737 -6.25105 16.6751 -6.59276C16.4765 -6.93446 16.192 -7.21832 15.8499 -7.4162Z" fill="#FFDD0F"/>
<path d="M42.8676 -5.37084L39.2401 -7.44778C39.0279 -7.56977 38.7873 -7.6336 38.5425 -7.63281C38.2977 -7.63201 38.0575 -7.56663 37.8461 -7.44326L34.2329 -5.34133C34.0218 -5.21813 33.8467 -5.04176 33.725 -4.82981C33.6033 -4.61787 33.5393 -4.37773 33.5393 -4.13333L33.5535 0.0481248C33.5549 0.292956 33.6206 0.53313 33.7438 0.744693C33.867 0.956256 34.0435 1.13181 34.2558 1.25386L37.8819 3.33031C38.0942 3.4525 38.3351 3.51649 38.5801 3.51581C38.825 3.51513 39.0655 3.4498 39.2772 3.32644L42.892 1.22386C43.1023 1.09973 43.2767 0.92282 43.3978 0.710644C43.5188 0.498466 43.5824 0.25837 43.5822 0.0140901L43.568 -4.16737C43.5662 -4.41159 43.5006 -4.65112 43.3778 -4.86221C43.2549 -5.0733 43.0791 -5.24864 42.8676 -5.37084Z" fill="#FFDD0F"/>
<path d="M20.0667 -10.6291L10.5709 -16.0663C10.0154 -16.3857 9.3854 -16.5528 8.7446 -16.5508C8.1038 -16.5487 7.47489 -16.3775 6.92144 -16.0545L-2.53927 -10.5517C-3.09175 -10.2293 -3.55011 -9.76771 -3.86872 -9.21301C-4.18733 -8.65832 -4.35507 -8.02984 -4.35522 -7.39015L-4.31813 3.55634C-4.31431 4.19736 -4.1425 4.82619 -3.81985 5.3801C-3.4972 5.93401 -3.03496 6.39365 -2.47925 6.7132L7.01371 12.1491C7.56956 12.469 8.19998 12.6364 8.84128 12.6346C9.48258 12.6328 10.1121 12.4618 10.6661 12.1388L20.1294 6.63432C20.6802 6.30942 21.1366 5.84632 21.4535 5.29085C21.7704 4.73538 21.9367 4.10679 21.936 3.4673L21.8989 -7.47919C21.8943 -8.11834 21.7228 -8.7452 21.4015 -9.29769C21.0801 -9.85018 20.62 -10.3091 20.0667 -10.6291Z" fill="#FFF19F"/>
<path d="M49.8365 41.3846L40.341 35.9474C39.7854 35.628 39.1554 35.4608 38.5146 35.4629C37.8738 35.465 37.2448 35.6361 36.6913 35.9591L27.2306 41.462C26.678 41.7845 26.2196 42.2462 25.9009 42.801C25.5823 43.3559 25.4147 43.9845 25.4147 44.6243L25.4519 55.5708C25.4557 56.2118 25.6275 56.8407 25.9502 57.3946C26.2728 57.9485 26.735 58.4081 27.2908 58.7277L36.7838 64.1636C37.3396 64.4834 37.97 64.6509 38.6113 64.6491C39.2526 64.6473 39.8821 64.4762 40.4362 64.1532L49.8995 58.6488C50.4502 58.3239 50.9067 57.8608 51.2235 57.3053C51.5404 56.7498 51.7067 56.1213 51.706 55.4818L51.6689 44.5353C51.6644 43.896 51.4929 43.269 51.1715 42.7163C50.8501 42.1637 50.3899 41.7046 49.8365 41.3846Z" fill="#FFF19F"/>
<path d="M45.5296 44.6299L39.6607 41.2701C39.3174 41.0727 38.928 40.9694 38.532 40.9707C38.136 40.972 37.7473 41.0778 37.4052 41.2774L31.558 44.6784C31.2165 44.8777 30.9331 45.163 30.7361 45.506C30.5392 45.8489 30.4356 46.2375 30.4357 46.6329L30.4585 53.3984C30.4609 53.7946 30.5671 54.1832 30.7664 54.5255C30.9658 54.8678 31.2514 55.1519 31.5948 55.3494L37.462 58.709C37.8055 58.9068 38.1952 59.0103 38.5915 59.0092C38.9879 59.0081 39.3769 58.9024 39.7193 58.7027L45.5681 55.3007C45.9086 55.0999 46.1907 54.8137 46.3865 54.4704C46.5824 54.127 46.6852 53.7385 46.6849 53.3433L46.6619 46.5779C46.6593 46.1827 46.5534 45.795 46.3548 45.4533C46.1562 45.1116 45.8717 44.8277 45.5296 44.6299Z" fill="#FFEB6F"/>
<path d="M15.8152 44.6982L9.94657 41.3384C9.60319 41.1411 9.21381 41.0378 8.81776 41.0391C8.42171 41.0403 8.03299 41.1461 7.69089 41.3457L1.84366 44.7468C1.50215 44.9461 1.21882 45.2315 1.02191 45.5744C0.824988 45.9173 0.721353 46.3058 0.721313 46.7013L0.74439 53.4668C0.746703 53.8629 0.852823 54.2515 1.05219 54.5939C1.25155 54.9362 1.53719 55.2202 1.8806 55.4177L7.74767 58.7773C8.09118 58.9751 8.48079 59.0786 8.87715 59.0775C9.2735 59.0764 9.66253 58.9707 10.0049 58.7711L15.8538 55.369C16.1942 55.1682 16.4763 54.882 16.6722 54.5387C16.8681 54.1954 16.971 53.8069 16.9706 53.4116L16.9481 46.6453C16.9452 46.2502 16.8392 45.8627 16.6405 45.5211C16.4418 45.1796 16.1573 44.8959 15.8152 44.6982Z" fill="#FFDD0F"/>
<path d="M42.8676 46.7444L39.2401 44.6675C39.0279 44.5455 38.7873 44.4816 38.5425 44.4824C38.2977 44.4832 38.0575 44.5486 37.8461 44.672L34.2329 46.7739C34.0219 46.8971 33.8468 47.0735 33.7251 47.2854C33.6034 47.4974 33.5393 47.7375 33.5393 47.9819L33.5535 52.1634C33.5549 52.4082 33.6206 52.6483 33.7438 52.8599C33.867 53.0715 34.0436 53.247 34.2558 53.3691L37.8819 55.4455C38.0942 55.5677 38.3351 55.6317 38.5801 55.631C38.825 55.6304 39.0655 55.565 39.2772 55.4417L42.892 53.3391C43.1023 53.215 43.2767 53.0381 43.3978 52.8259C43.5188 52.6137 43.5824 52.3736 43.5822 52.1293L43.568 47.9479C43.5662 47.7036 43.5006 47.4641 43.3778 47.253C43.2549 47.0419 43.0791 46.8666 42.8676 46.7444Z" fill="#FFDD0F"/>
<path d="M20.1225 41.4861L10.6267 36.0489C10.0712 35.7295 9.44119 35.5624 8.80039 35.5645C8.15959 35.5665 7.53068 35.7377 6.97723 36.0607L-2.48348 41.5635C-3.03608 41.886 -3.49451 42.3477 -3.81313 42.9026C-4.13174 43.4574 -4.29943 44.0861 -4.29944 44.7259L-4.26234 55.6724C-4.25853 56.3134 -4.08671 56.9422 -3.76406 57.4961C-3.44141 58.05 -2.97918 58.5097 -2.42347 58.8292L7.0695 64.2651C7.62535 64.585 8.25577 64.7525 8.89707 64.7507C9.53837 64.7488 10.1679 64.5778 10.7219 64.2548L20.1852 58.7504C20.736 58.4255 21.1925 57.9624 21.5093 57.4069C21.8262 56.8514 21.9925 56.2228 21.9918 55.5833L21.9547 44.6368C21.9502 43.9976 21.7788 43.3705 21.4575 42.8179C21.1361 42.2652 20.6759 41.8062 20.1225 41.4861Z" fill="#FFF19F"/>
<path d="M1.18685 -1.3734L-4.68263 -4.73382C-5.026 -4.9312 -5.41537 -5.03447 -5.81143 -5.03319C-6.20749 -5.03192 -6.59617 -4.92615 -6.93827 -4.72656L-12.7855 -1.32549C-13.1271 -1.12619 -13.4104 -0.840863 -13.6074 -0.497928C-13.8043 -0.154994 -13.9079 0.233562 -13.9078 0.629015L-13.8848 7.39454C-13.8827 7.79083 -13.7766 8.17961 -13.5772 8.5221C-13.3779 8.86458 -13.0921 9.14877 -12.7486 9.3463L-6.88152 12.7059C-6.53802 12.9037 -6.14836 13.0072 -5.75201 13.0061C-5.35565 13.005 -4.96662 12.8993 -4.62422 12.6996L1.22461 9.29759C1.56506 9.09679 1.84716 8.81057 2.04302 8.46725C2.23888 8.12394 2.34169 7.73544 2.34129 7.34018L2.31841 0.574818C2.31589 0.179644 2.21015 -0.208009 2.01167 -0.549734C1.8132 -0.891458 1.52885 -1.17539 1.18685 -1.3734Z" fill="#FFDD0F"/>
<path d="M15.739 -7.4162L9.8702 -10.7768C9.52686 -10.9742 9.1375 -11.0774 8.74147 -11.0762C8.34544 -11.0749 7.95678 -10.9691 7.61471 -10.7695L1.76749 -7.36845C1.42592 -7.16916 1.14254 -6.88383 0.945615 -6.54089C0.74869 -6.19796 0.6451 -5.8094 0.645142 -5.41395L0.668022 1.35157C0.670242 1.74784 0.776334 2.1366 0.975702 2.47907C1.17507 2.82154 1.46077 3.10575 1.80427 3.30334L7.6715 6.66296C8.015 6.8607 8.40462 6.96426 8.80097 6.96315C9.19733 6.96205 9.58636 6.85632 9.92875 6.65666L15.7776 3.25463C16.118 3.05383 16.4001 2.76761 16.596 2.42429C16.7919 2.08098 16.8947 1.69247 16.8943 1.29721L16.8714 -5.46815C16.8688 -5.86337 16.7629 -6.25105 16.5643 -6.59276C16.3656 -6.93446 16.0812 -7.21832 15.739 -7.4162Z" fill="#FFEB6F"/>
<path d="M15.739 44.5623L9.8702 41.2017C9.52686 41.0043 9.1375 40.9011 8.74147 40.9024C8.34544 40.9036 7.95678 41.0094 7.61471 41.209L1.76749 44.6101C1.42592 44.8094 1.14254 45.0947 0.945615 45.4376C0.74869 45.7806 0.6451 46.1691 0.645142 46.5646L0.668022 53.3301C0.670242 53.7264 0.776334 54.1151 0.975702 54.4576C1.17507 54.8001 1.46077 55.0843 1.80427 55.2819L7.6715 58.6415C8.015 58.8392 8.40462 58.9428 8.80097 58.9417C9.19733 58.9406 9.58636 58.8348 9.92875 58.6352L15.7776 55.2331C16.118 55.0323 16.4001 54.7461 16.596 54.4028C16.7919 54.0595 16.8947 53.671 16.8943 53.2757L16.8714 46.5104C16.8688 46.1151 16.7629 45.7275 16.5643 45.3858C16.3656 45.0441 16.0812 44.7602 15.739 44.5623Z" fill="#FFEB6F"/>
</g>
<defs>
<linearGradient id="paint0_linear" x1="-1.10715" y1="42.1849" x2="45.5639" y2="34.4432" gradientUnits="userSpaceOnUse">
<stop stop-color="#FFEB6F" stop-opacity="0"/>
<stop offset="1" stop-color="#FFEB6F" stop-opacity="0.8"/>
</linearGradient>
<clipPath id="clip0">
<rect width="48" height="48" rx="24" fill="white"/>
</clipPath>
</defs>
</svg>
