<svg width="202" height="202" fill="none" xmlns="http://www.w3.org/2000/svg"><circle cx="100.502" cy="100.94" r="100.502" fill="#141244"/><path fill-rule="evenodd" clip-rule="evenodd" d="M167.434 165.111l1.8-1.03-1.84-.96-1.02-1.8-.97 1.83-1.8 1.03 1.84.97 1.03 1.8.96-1.84z" fill="#403D85"/><circle cx="100.503" cy="100.94" r="58.903" fill="url(#paint0_linear)" fill-opacity=".05"/><circle cx="100.502" cy="100.94" r="44.848" fill="url(#paint1_linear)"/><circle cx="100.504" cy="100.938" r="44.85" transform="rotate(-15 100.504 100.938)" fill="url(#paint2_linear)"/><path d="M100.504 100.937l11.608 43.322c-20.055 5.374-41.51-9.666-47.921-33.592-6.41-23.926 4.65-47.678 24.705-53.051l11.608 43.321z" fill="url(#paint3_linear)"/><path d="M112.112 144.259c14.789-3.963 21.581-26.571 15.17-50.497-6.411-23.925-23.597-40.109-38.386-36.146l23.216 86.643z" fill="#4744A0"/><path d="M125.301 33.418c.48 0 .48-.75 0-.75-.49 0-.49.75 0 .75zM114.211 42.426c.48 0 .48-.75 0-.75s-.48.75 0 .75zM137.081 46.816c.48 0 .48-.75 0-.75s-.48.75 0 .75zM125.991 46.355c.48 0 .48-.75 0-.75s-.48.75 0 .75zM156.721 57.906c.48 0 .48-.75 0-.75-.49 0-.49.75 0 .75zM156.481 47.977c.48 0 .48-.75 0-.75s-.48.75 0 .75zM147.471 42.887c.48 0 .48-.75 0-.75s-.48.75 0 .75zM166.421 61.836c.48 0 .48-.75 0-.75s-.49.75 0 .75z" fill="#403D85"/><path fill-rule="evenodd" clip-rule="evenodd" d="M116.751 32.817l.91.52-.93.48-.52.92-.49-.93-.91-.53.93-.48.52-.92.49.94zM163.741 53.137l.91.52-.93.49-.52.91-.49-.93-.91-.52.93-.49.52-.91.49.93zM127.461 51.545l.92.52-.94.49-.52.91-.49-.93-.91-.52.93-.49.52-.92.49.94zM132.871 22.227l1.8 1.03-1.84.96-1.02 1.8-.97-1.83-1.8-1.03 1.84-.97 1.03-1.8.96 1.84z" fill="#403D85"/><path d="M188.045 101.344c.48 0 .48.75 0 .75-.49 0-.49-.75 0-.75zM176.955 92.332c.48 0 .48.75 0 .75s-.48-.75 0-.75zM188.735 88.402c.48 0 .48.75 0 .75s-.48-.75 0-.75z" fill="#403D85"/><path fill-rule="evenodd" clip-rule="evenodd" d="M179.495 101.943l.91-.52-.93-.48-.52-.92-.49.93-.91.53.93.48.52.92.49-.94zM190.205 83.212l.92-.52-.94-.49-.52-.91-.49.93-.91.52.93.49.52.92.49-.94zM195.615 112.533l1.8-1.03-1.84-.96-1.02-1.8-.97 1.83-1.8 1.03 1.84.97 1.03 1.8.96-1.84z" fill="#403D85"/><path d="M45.996 156.633c.48 0 .48-.75 0-.75-.49 0-.49.75 0 .75zM34.906 165.645c.48 0 .48-.75 0-.75s-.48.75 0 .75zM57.776 170.033c.48 0 .48-.75 0-.75s-.48.75 0 .75zM46.686 169.574c.48 0 .48-.75 0-.75s-.48.75 0 .75zM77.416 181.123c.48 0 .48-.75 0-.75-.49 0-.49.75 0 .75zM77.176 171.193c.48 0 .48-.75 0-.75s-.48.75 0 .75zM68.166 166.104c.48 0 .48-.75 0-.75s-.48.75 0 .75zM87.116 185.055c.48 0 .48-.75 0-.75s-.49.75 0 .75z" fill="#403D85"/><path fill-rule="evenodd" clip-rule="evenodd" d="M37.446 156.034l.91.52-.93.48-.52.92-.49-.93-.91-.53.93-.48.52-.92.49.94zM84.436 176.354l.91.52-.93.49-.52.91-.49-.93-.91-.52.93-.49.52-.91.49.93zM48.156 174.764l.92.52-.94.49-.52.91-.49-.93-.91-.52.93-.49.52-.92.49.94zM53.566 145.444l1.8 1.03-1.84.96-1.02 1.8-.97-1.83-1.8-1.03 1.84-.97 1.03-1.8.96 1.84z" fill="#403D85"/><path fill-rule="evenodd" clip-rule="evenodd" d="M136.993 74.861a114.18 114.18 0 011.881-.4c5.872-1.2 10.694-1.683 14.178-1.455 1.745.114 3.046.401 3.945.79.885.384 1.246.804 1.397 1.14.15.336.224.884-.077 1.8-.306.932-.955 2.094-2.028 3.474-2.144 2.757-5.708 6.04-10.506 9.634-9.568 7.166-23.686 15.301-40.083 22.666s-31.856 12.516-43.569 14.908c-5.872 1.2-10.694 1.683-14.178 1.455-1.745-.115-3.046-.401-3.945-.791-.885-.384-1.246-.803-1.397-1.139-.161-.36-.236-.973.153-2.019.392-1.055 1.192-2.364 2.475-3.904 2.44-2.93 6.358-6.382 11.526-10.12a44.63 44.63 0 01-.433-2.152c-11.194 7.977-17.334 15.032-15.545 19.014 3.323 7.398 32.752 1.386 65.732-13.427 32.98-14.814 57.022-32.82 53.699-40.218-1.789-3.983-11.144-4.08-24.545-1.008a44.85 44.85 0 011.32 1.752z" fill="#524DAF"/><circle cx="82.037" cy="122.698" r="6.808" fill="#FFC46D"/><circle cx="170.416" cy="42.038" r="1.487" fill="url(#paint4_linear)" fill-opacity=".05"/><circle cx="82.037" cy="45.011" r="1.487" fill="url(#paint5_linear)" fill-opacity=".05"/><circle cx="32.014" cy="96.319" r="1.487" fill="#403D85"/><circle cx="115.338" cy="187.505" r="1.487" fill="url(#paint6_linear)" fill-opacity=".05"/><circle cx="179.569" cy="154.708" r="1.487" fill="url(#paint7_linear)" fill-opacity=".05"/><circle cx="184.349" cy="63.323" r="1.487" fill="url(#paint8_linear)" fill-opacity=".05"/><circle cx="61.423" cy="20.174" r="1.487" fill="url(#paint9_linear)" fill-opacity=".05"/><circle cx="30.527" cy="82.141" r="1.487" fill="#403D85"/><circle cx="90.332" cy="173.001" r="1.487" fill="url(#paint10_linear)" fill-opacity=".05"/><circle opacity=".8" cx="98.178" cy="18.686" r="1.487" fill="#403D85"/><circle opacity=".8" cx="59.936" cy="58.585" r="1.487" fill="#403D85"/><circle opacity=".8" cx="18.588" cy="140.856" r="1.487" fill="#403D85"/><circle opacity=".8" cx="131.989" cy="161.487" r="1.487" fill="#403D85"/><circle opacity=".8" cx="10.07" cy="75.815" r="1.487" fill="#403D85"/><circle opacity=".8" cx="178.082" cy="129.507" r="1.487" fill="#403D85"/><circle opacity=".8" cx="57.648" cy="177.534" r=".686" fill="#403D85"/><circle opacity=".8" cx="140.235" cy="184.368" r=".686" fill="#403D85"/><circle opacity=".8" cx="189.941" cy="75.014" r=".686" fill="#403D85"/><circle opacity=".8" cx="126.152" cy="10.19" r=".686" fill="#403D85"/><circle opacity=".8" cx="35.232" cy="33.159" r=".686" fill="#403D85"/><circle opacity=".8" cx="12.243" cy="114.374" r=".686" fill="#403D85"/><circle opacity=".8" cx="98.399" cy="196.181" r=".686" fill="#403D85"/><defs><linearGradient id="paint0_linear" x1="100.503" y1="159.843" x2="100.503" y2="42.037" gradientUnits="userSpaceOnUse"><stop offset="0" stop-color="#6050B0"/><stop offset="1" stop-color="#7B4FEB"/></linearGradient><linearGradient id="paint1_linear" x1="60.316" y1="145.79" x2="239.453" y2="26.75" gradientUnits="userSpaceOnUse"><stop stop-color="#211E74"/><stop offset="1" stop-color="#7C78DC"/></linearGradient><linearGradient id="paint2_linear" x1="60.316" y1="145.79" x2="239.46" y2="26.745" gradientUnits="userSpaceOnUse"><stop stop-color="#211E74"/><stop offset="1" stop-color="#7C78DC"/></linearGradient><linearGradient id="paint3_linear" x1="53.503" y1="237.709" x2="292.865" y2="86.648" gradientUnits="userSpaceOnUse"><stop stop-color="#211E74"/><stop offset="1" stop-color="#7C78DC"/></linearGradient><linearGradient id="paint4_linear" x1="170.416" y1="43.525" x2="170.416" y2="40.551" gradientUnits="userSpaceOnUse"><stop offset="0" stop-color="#6050B0"/><stop offset="1" stop-color="#351C75"/></linearGradient><linearGradient id="paint5_linear" x1="82.037" y1="46.497" x2="82.037" y2="43.523" gradientUnits="userSpaceOnUse"><stop offset="0" stop-color="#6050B0"/><stop offset="1" stop-color="#351C75"/></linearGradient><linearGradient id="paint6_linear" x1="115.338" y1="188.992" x2="115.338" y2="186.018" gradientUnits="userSpaceOnUse"><stop offset="0" stop-color="#6050B0"/><stop offset="1" stop-color="#351C75"/></linearGradient><linearGradient id="paint7_linear" x1="179.569" y1="156.195" x2="179.569" y2="153.221" gradientUnits="userSpaceOnUse"><stop offset="0" stop-color="#6050B0"/><stop offset="1" stop-color="#351C75"/></linearGradient><linearGradient id="paint8_linear" x1="184.349" y1="64.81" x2="184.349" y2="61.836" gradientUnits="userSpaceOnUse"><stop offset="0" stop-color="#6050B0"/><stop offset="1" stop-color="#351C75"/></linearGradient><linearGradient id="paint9_linear" x1="61.423" y1="21.662" x2="61.423" y2="18.688" gradientUnits="userSpaceOnUse"><stop offset="0" stop-color="#6050B0"/><stop offset="1" stop-color="#351C75"/></linearGradient><linearGradient id="paint10_linear" x1="90.332" y1="174.488" x2="90.332" y2="171.514" gradientUnits="userSpaceOnUse"><stop offset="0" stop-color="#6050B0"/><stop offset="1" stop-color="#351C75"/></linearGradient></defs></svg>