<svg width="202" height="202" fill="none" xmlns="http://www.w3.org/2000/svg"><circle cx="101" cy="100.94" r="100.502" fill="#131145"/><path fill-rule="evenodd" clip-rule="evenodd" d="M162.45 162.866l1.8-1.03-1.84-.96-1.02-1.8-.97 1.83-1.8 1.03 1.84.97 1.03 1.8.96-1.84z" fill="#403D85"/><g fill="#403D85"><path d="M120.317 31.172c.48 0 .48-.75 0-.75-.49 0-.49.75 0 .75zM109.227 40.182c.48 0 .48-.75 0-.75s-.48.75 0 .75zM132.097 44.571c.48 0 .48-.75 0-.75s-.48.75 0 .75zM121.007 44.111c.48 0 .48-.75 0-.75s-.48.75 0 .75zM151.737 55.661c.48 0 .48-.75 0-.75-.49 0-.49.75 0 .75zM151.497 45.731c.48 0 .48-.75 0-.75s-.48.75 0 .75zM142.487 40.642c.48 0 .48-.75 0-.75s-.48.75 0 .75zM161.437 59.592c.48 0 .48-.75 0-.75s-.49.75 0 .75z"/><path fill-rule="evenodd" clip-rule="evenodd" d="M111.767 30.572l.91.52-.93.48-.52.92-.49-.93-.91-.53.93-.48.52-.92.49.94zM158.757 50.892l.91.52-.93.49-.52.91-.49-.93-.91-.52.93-.49.52-.91.49.93zM122.477 49.301l.92.52-.94.49-.52.91-.49-.93-.91-.52.93-.49.52-.92.49.94zM127.887 19.982l1.8 1.03-1.84.96-1.02 1.8-.97-1.83-1.8-1.03 1.84-.97 1.03-1.8.96 1.84z"/></g><g fill="#403D85"><path d="M183.061 99.098c.48 0 .48.75 0 .75-.49 0-.49-.75 0-.75zM171.971 90.088c.48 0 .48.75 0 .75s-.48-.75 0-.75zM194.841 85.698c.48 0 .48.75 0 .75s-.48-.75 0-.75zM183.751 86.158c.48 0 .48.75 0 .75s-.48-.75 0-.75z"/><path fill-rule="evenodd" clip-rule="evenodd" d="M174.511 99.698l.91-.52-.93-.48-.52-.92-.49.93-.91.53.93.48.52.92.49-.94zM185.221 80.968l.92-.52-.94-.49-.52-.91-.49.93-.91.52.93.49.52.92.49-.94zM190.631 110.288l1.8-1.03-1.84-.96-1.02-1.8-.97 1.83-1.8 1.03 1.84.97 1.03 1.8.96-1.84z"/></g><g fill="#403D85"><path d="M41.012 154.39c.48 0 .48-.75 0-.75-.49 0-.49.75 0 .75zM29.922 163.399c.48 0 .48-.75 0-.75s-.48.75 0 .75zM52.792 167.789c.48 0 .48-.75 0-.75s-.48.75 0 .75zM41.702 167.329c.48 0 .48-.75 0-.75s-.48.75 0 .75zM72.432 178.879c.48 0 .48-.75 0-.75-.49 0-.49.75 0 .75zM72.192 168.949c.48 0 .48-.75 0-.75s-.48.75 0 .75zM63.182 163.859c.48 0 .48-.75 0-.75s-.48.75 0 .75zM82.132 182.81c.48 0 .48-.75 0-.75s-.49.75 0 .75z"/><path fill-rule="evenodd" clip-rule="evenodd" d="M32.462 153.79l.91.52-.93.48-.52.92-.49-.93-.91-.53.93-.48.52-.92.49.94zM79.452 174.11l.91.52-.93.49-.52.91-.49-.93-.91-.52.93-.49.52-.91.49.93zM43.172 172.519l.92.52-.94.49-.52.91-.49-.93-.91-.52.93-.49.52-.92.49.94zM48.582 143.199l1.8 1.03-1.84.96-1.02 1.8-.97-1.83-1.8-1.03 1.84-.97 1.03-1.8.96 1.84z"/></g><circle cx="165.431" cy="39.792" r="1.487" fill="url(#paint0_linear)" fill-opacity=".05"/><circle cx="77.053" cy="42.765" r="1.487" fill="url(#paint1_linear)" fill-opacity=".05"/><circle cx="27.03" cy="94.075" r="1.487" fill="url(#paint2_linear)" fill-opacity=".05"/><circle cx="110.354" cy="185.259" r="1.487" fill="url(#paint3_linear)" fill-opacity=".05"/><circle cx="174.585" cy="152.463" r="1.487" fill="url(#paint4_linear)" fill-opacity=".05"/><circle cx="179.365" cy="61.079" r="1.487" fill="url(#paint5_linear)" fill-opacity=".05"/><circle cx="56.439" cy="17.928" r="1.487" fill="url(#paint6_linear)" fill-opacity=".05"/><circle cx="25.543" cy="79.896" r="1.487" fill="url(#paint7_linear)" fill-opacity=".05"/><circle cx="85.347" cy="170.756" r="1.487" fill="url(#paint8_linear)" fill-opacity=".05"/><circle cx="93.194" cy="16.441" r="1.487" fill="#403D85"/><circle cx="54.952" cy="56.34" r="1.487" fill="#403D85"/><circle cx="13.603" cy="138.612" r="1.487" fill="#403D85"/><circle cx="123.341" cy="150.975" r="1.487" fill="#403D85"/><circle opacity=".8" cx="19.487" cy="80.487" r="1.487" fill="#403D85"/><circle opacity=".8" cx="173.098" cy="127.262" r="1.487" fill="#403D85"/><circle opacity=".8" cx="52.664" cy="175.288" r=".686" fill="#403D85"/><circle cx="135.251" cy="182.123" r=".686" fill="#403D85"/><circle cx="184.957" cy="72.77" r=".686" fill="#403D85"/><circle cx="121.168" cy="7.946" r=".686" fill="#403D85"/><circle opacity=".8" cx="38.248" cy="35.913" r=".686" fill="#403D85"/><circle opacity=".8" cx="127.588" cy="82.069" r=".686" fill="#fff"/><circle opacity=".8" cx="7.259" cy="112.128" r=".686" fill="#403D85"/><circle cx="93.415" cy="193.934" r=".686" fill="#403D85"/><g filter="url(#filter0_bddddi)"><circle cx="96.521" cy="100.94" r="44.058" fill="#FFC46D"/></g><g><circle cx="105.479" cy="100.94" r="44.058" fill="url(#paint9_linear)"/><path d="M105.479 100.94v44.058c-24.333 0-44.058-19.725-44.058-44.058 0-24.332 19.725-44.057 44.058-44.057v44.057z" fill="url(#paint10_linear)"/><g><path d="M105.479 144.998c15.04 0 27.232-19.725 27.232-44.058 0-24.332-12.192-44.057-27.232-44.057v88.115z" fill="#4744A0"/></g></g><defs><linearGradient id="paint0_linear" x1="165.431" y1="41.279" x2="165.431" y2="38.305" gradientUnits="userSpaceOnUse"><stop offset="0" stop-color="#6050B0"/><stop offset="1" stop-color="#351C75"/></linearGradient><linearGradient id="paint1_linear" x1="77.053" y1="44.252" x2="77.053" y2="41.278" gradientUnits="userSpaceOnUse"><stop offset="0" stop-color="#6050B0"/><stop offset="1" stop-color="#351C75"/></linearGradient><linearGradient id="paint2_linear" x1="27.03" y1="95.562" x2="27.03" y2="92.588" gradientUnits="userSpaceOnUse"><stop offset="0" stop-color="#6050B0"/><stop offset="1" stop-color="#351C75"/></linearGradient><linearGradient id="paint3_linear" x1="110.354" y1="186.746" x2="110.354" y2="183.772" gradientUnits="userSpaceOnUse"><stop offset="0" stop-color="#6050B0"/><stop offset="1" stop-color="#351C75"/></linearGradient><linearGradient id="paint4_linear" x1="174.585" y1="153.95" x2="174.585" y2="150.976" gradientUnits="userSpaceOnUse"><stop offset="0" stop-color="#6050B0"/><stop offset="1" stop-color="#351C75"/></linearGradient><linearGradient id="paint5_linear" x1="179.365" y1="62.566" x2="179.365" y2="59.592" gradientUnits="userSpaceOnUse"><stop offset="0" stop-color="#6050B0"/><stop offset="1" stop-color="#351C75"/></linearGradient><linearGradient id="paint6_linear" x1="56.439" y1="19.415" x2="56.439" y2="16.441" gradientUnits="userSpaceOnUse"><stop offset="0" stop-color="#6050B0"/><stop offset="1" stop-color="#351C75"/></linearGradient><linearGradient id="paint7_linear" x1="25.543" y1="81.383" x2="25.543" y2="78.409" gradientUnits="userSpaceOnUse"><stop offset="0" stop-color="#6050B0"/><stop offset="1" stop-color="#351C75"/></linearGradient><linearGradient id="paint8_linear" x1="85.348" y1="172.243" x2="85.348" y2="169.269" gradientUnits="userSpaceOnUse"><stop offset="0" stop-color="#6050B0"/><stop offset="1" stop-color="#351C75"/></linearGradient><linearGradient id="paint9_linear" x1="66" y1="145" x2="241.98" y2="28.058" gradientUnits="userSpaceOnUse"><stop stop-color="#211E74"/><stop offset="1" stop-color="#7C78DC"/></linearGradient><linearGradient id="paint10_linear" x1="10.788" y1="218.768" x2="316.19" y2="105.595" gradientUnits="userSpaceOnUse"><stop stop-color="#211E74"/><stop offset="1" stop-color="#7C78DC"/></linearGradient><filter id="filter0_bddddi" x="22.014" y="4.953" width="149.015" height="154.273" filterUnits="userSpaceOnUse" color-interpolation-filters="sRGB"><feFlood flood-opacity="0" result="BackgroundImageFix"/><feGaussianBlur in="BackgroundImage" stdDeviation="1.186"/><feComposite in2="SourceAlpha" operator="in" result="effect1_backgroundBlur"/><feColorMatrix in="SourceAlpha" values="0 0 0 0 0 0 0 0 0 0 0 0 0 0 0 0 0 0 127 0"/><feOffset dx="-4.742" dy="-4.742"/><feGaussianBlur stdDeviation="3.557"/><feColorMatrix values="0 0 0 0 1 0 0 0 0 1 0 0 0 0 1 0 0 0 0.22 0"/><feBlend in2="effect1_backgroundBlur" result="effect2_dropShadow"/><feColorMatrix in="SourceAlpha" values="0 0 0 0 0 0 0 0 0 0 0 0 0 0 0 0 0 0 127 0"/><feOffset/><feGaussianBlur stdDeviation="7.114"/><feColorMatrix values="0 0 0 0 0.121569 0 0 0 0 0.109804 0 0 0 0 0.419608 0 0 0 0.48 0"/><feBlend in2="effect2_dropShadow" result="effect3_dropShadow"/><feColorMatrix in="SourceAlpha" values="0 0 0 0 0 0 0 0 0 0 0 0 0 0 0 0 0 0 127 0"/><feOffset dx="2.371" dy="7.114"/><feGaussianBlur stdDeviation="2.371"/><feColorMatrix values="0 0 0 0 0.121569 0 0 0 0 0.109804 0 0 0 0 0.419608 0 0 0 0.17 0"/><feBlend in2="effect3_dropShadow" result="effect4_dropShadow"/><feColorMatrix in="SourceAlpha" values="0 0 0 0 0 0 0 0 0 0 0 0 0 0 0 0 0 0 127 0"/><feOffset dy="-21.48"/><feGaussianBlur stdDeviation="15.225"/><feColorMatrix values="0 0 0 0 0.0936427 0 0 0 0 0.0836458 0 0 0 0 0.304167 0 0 0 1 0"/><feBlend in2="effect4_dropShadow" result="effect5_dropShadow"/><feBlend in="SourceGraphic" in2="effect5_dropShadow" result="shape"/><feColorMatrix in="SourceAlpha" values="0 0 0 0 0 0 0 0 0 0 0 0 0 0 0 0 0 0 127 0" result="hardAlpha"/><feOffset dx="-2.371" dy="-2.371"/><feGaussianBlur stdDeviation="4.742"/><feComposite in2="hardAlpha" operator="arithmetic" k2="-1" k3="1"/><feColorMatrix values="0 0 0 0 1 0 0 0 0 0.768627 0 0 0 0 0.427451 0 0 0 1 0"/><feBlend in2="shape" result="effect6_innerShadow"/></filter></defs></svg>