<svg width="270" height="195" fill="none" xmlns="http://www.w3.org/2000/svg"><circle cx="239.673" cy="27.695" r="19" fill="url(#paint0_linear)"/><path d="M239.673 27.695v19c-10.493 0-19-8.506-19-19 0-10.493 8.507-19 19-19v19z" fill="url(#paint1_linear)"/><path d="M239.673 46.695c6.487 0 11.744-8.506 11.744-19 0-10.493-5.257-19-11.744-19 0 0 .001 0 0 0v38z" fill="#6253AB"/><path fill-rule="evenodd" clip-rule="evenodd" d="M239.784 155.605l1.8-1.03-1.84-.96-1.02-1.8-.97 1.83-1.8 1.03 1.84.97 1.03 1.8.96-1.84z" fill="#343271"/><path d="M197.651 23.914c.48 0 .48-.75 0-.75-.49 0-.49.75 0 .75zM186.561 32.922c.48 0 .48-.75 0-.75s-.48.75 0 .75zM209.431 37.313c.48 0 .48-.75 0-.75s-.48.75 0 .75zM198.341 36.852c.48 0 .48-.75 0-.75s-.48.75 0 .75zM229.071 48.402c.48 0 .48-.75 0-.75-.49 0-.49.75 0 .75zM216.362 33.815c.48 0 .48-.75 0-.75s-.48.75 0 .75zM238.771 52.332c.48 0 .48-.75 0-.75s-.49.75 0 .75z" fill="#343271"/><path fill-rule="evenodd" clip-rule="evenodd" d="M189.101 23.313l.91.52-.93.48-.52.92-.49-.93-.91-.53.93-.48.52-.92.49.94zM199.811 42.042l.92.52-.94.49-.52.91-.49-.93-.91-.52.93-.49.52-.92.49.94zM205.221 12.723l1.8 1.03-1.84.96-1.02 1.8-.97-1.83-1.8-1.03 1.84-.97 1.03-1.8.96 1.84z" fill="#343271"/><path d="M68.408 21.3c-.48 0-.48-.75 0-.75.49 0 .49.75 0 .75zM79.498 30.313c-.48 0-.48-.75 0-.75s.48.75 0 .75zM56.629 34.701c-.48 0-.48-.75 0-.75s.48.75 0 .75zM67.718 34.242c-.48 0-.48-.75 0-.75s.48.75 0 .75zM36.989 45.791c-.48 0-.48-.75 0-.75.49 0 .49.75 0 .75zM37.228 35.861c-.48 0-.48-.75 0-.75s.48.75 0 .75zM46.238 30.771c-.48 0-.48-.75 0-.75s.48.75 0 .75zM27.288 49.723c-.48 0-.48-.75 0-.75s.49.75 0 .75z" fill="#343271"/><path fill-rule="evenodd" clip-rule="evenodd" d="M76.958 20.702l-.91.52.93.48.52.92.49-.93.91-.53-.93-.48-.52-.92-.49.94zM29.968 41.022l-.91.52.93.49.52.91.49-.93.91-.52-.93-.49-.52-.91-.49.93zM66.249 39.432l-.92.52.94.49.52.91.49-.93.91-.52-.93-.49-.52-.92-.49.94zM60.839 10.111l-1.8 1.03 1.84.96 1.02 1.8.97-1.83 1.8-1.03-1.84-.97-1.03-1.8-.96 1.84z" fill="#343271"/><path d="M260.395 91.838c.48 0 .48.75 0 .75-.49 0-.49-.75 0-.75zM15.248 91.838c-.48 0-.48.75 0 .75.49 0 .49-.75 0-.75zM249.305 82.828c.48 0 .48.75 0 .75s-.48-.75 0-.75zM26.337 82.828c-.48 0-.48.75 0 .75s.48-.75 0-.75zM261.085 78.898c.48 0 .48.75 0 .75s-.48-.75 0-.75zM14.558 78.898c-.48 0-.48.75 0 .75s.48-.75 0-.75z" fill="#343271"/><path fill-rule="evenodd" clip-rule="evenodd" d="M251.845 92.437l.91-.52-.93-.48-.52-.92-.49.93-.91.53.93.48.52.92.49-.94zM23.797 92.437l-.91-.52.93-.48.52-.92.49.93.91.53-.93.48-.52.92-.49-.94zM262.555 73.708l.92-.52-.94-.49-.52-.91-.49.93-.91.52.93.49.52.92.49-.94zM13.088 73.708l-.92-.52.94-.49.52-.91.49.93.91.52-.93.49-.52.92-.49-.94zM267.586 103.027l1.8-1.03-1.84-.96-1.02-1.8-.97 1.83-1.8 1.03 1.84.97 1.03 1.8.96-1.84zM1.8 123.715l-1.8-1.03 1.84-.96 1.02-1.8.97 1.83 1.8 1.03-1.84.97-1.03 1.8-.96-1.84z" fill="#343271"/><path d="M19.328 153.145c.48 0 .48-.75 0-.75-.49 0-.49.75 0 .75zM8.238 162.152c.48 0 .48-.75 0-.75s-.48.75 0 .75zM31.108 166.543c.48 0 .48-.75 0-.75s-.48.75 0 .75zM20.018 166.082c.48 0 .48-.75 0-.75s-.48.75 0 .75zM50.748 177.633c.48 0 .48-.75 0-.75-.49 0-.49.75 0 .75zM50.508 167.703c.48 0 .48-.75 0-.75s-.48.75 0 .75zM41.498 162.613c.48 0 .48-.75 0-.75s-.48.75 0 .75zM60.448 181.562c.48 0 .48-.75 0-.75s-.49.75 0 .75z" fill="#343271"/><path fill-rule="evenodd" clip-rule="evenodd" d="M10.778 152.544l.91.52-.93.48-.52.92-.49-.93-.91-.53.93-.48.52-.92.49.94zM57.768 172.864l.91.52-.93.49-.52.91-.49-.93-.91-.52.93-.49.52-.91.49.93zM21.488 171.272l.92.52-.94.49-.52.91-.49-.93-.91-.52.93-.49.52-.92.49.94zM26.898 141.953l1.8 1.03-1.84.96-1.02 1.8-.97-1.83-1.8-1.03 1.84-.97 1.03-1.8.96 1.84z" fill="#343271"/><path d="M79.621 182.58c.48 0 .48.75 0 .75s-.48-.75 0-.75zM96.729 188.893c.48 0 .48.75 0 .75s-.48-.75 0-.75zM87.719 193.982c.48 0 .48.75 0 .75s-.48-.75 0-.75z" fill="#343271"/><circle cx="154.387" cy="35.507" r="1.487" fill="url(#paint2_linear)"/><circle cx="251.919" cy="145.202" r="1.487" fill="#343271"/><circle cx="256.699" cy="53.819" r="1.487" fill="#343271"/><circle cx="133.773" cy="10.669" r="1.487" fill="#343271"/><circle opacity=".8" cx="170.528" cy="9.18" r="1.487" fill="#343271"/><circle opacity=".8" cx="250.432" cy="120.003" r="1.487" fill="#343271"/><circle opacity=".8" r="1.487" transform="matrix(-1 0 0 1 25.21 120.003)" fill="#343271"/><circle opacity=".8" cx="216.036" cy="184.016" r=".686" fill="#343271"/><circle opacity=".8" cx="262.291" cy="65.511" r=".686" fill="#343271"/><circle opacity=".8" cx="198.502" cy=".686" r=".686" fill="#343271"/><circle opacity=".8" cx="107.582" cy="23.655" r=".686" fill="#343271"/><circle opacity=".8" cx="170.749" cy="193.675" r=".686" fill="#343271"/><path d="M134.754 190.032c54.676 0 99-35.659 99-79.647 0-43.988-44.324-79.647-99-79.647s-99 35.66-99 79.647c0 43.988 44.324 79.647 99 79.647z" fill="#131143"/><path d="M134.977 181.32c44.976 0 81.437-28.928 81.437-64.613s-36.461-64.613-81.437-64.613C90 52.094 53.54 81.022 53.54 116.707S90 181.32 134.977 181.32z" fill="#0A0923" fill-opacity=".1"/><path d="M134.971 174.217c36.362 0 65.84-23.184 65.84-51.783 0-28.6-29.478-51.784-65.84-51.784-36.363 0-65.84 23.184-65.84 51.784 0 28.599 29.477 51.783 65.84 51.783z" fill="#0A0923" fill-opacity=".1"/><path d="M134.981 167.151c26.387 0 47.778-16.737 47.778-37.382 0-20.646-21.391-37.382-47.778-37.382-26.386 0-47.777 16.736-47.777 37.382 0 20.645 21.391 37.382 47.777 37.382z" fill="#0A0923" fill-opacity=".1"/><path d="M134.664 167.151c21.081 0 38.171-12.106 38.171-27.039 0-14.932-17.09-27.038-38.171-27.038-21.082 0-38.172 12.106-38.172 27.038 0 14.933 17.09 27.039 38.172 27.039z" fill="#0A0923" fill-opacity=".1"/><path d="M134.972 167.151c15.279 0 27.665-7.514 27.665-16.783 0-9.268-12.386-16.782-27.665-16.782s-27.665 7.514-27.665 16.782c0 9.269 12.386 16.783 27.665 16.783z" fill="#0A0923" fill-opacity=".1"/><path d="M134.972 167.151c7.588 0 13.739-3.161 13.739-7.062 0-3.9-6.151-7.062-13.739-7.062-7.588 0-13.739 3.162-13.739 7.062 0 3.901 6.151 7.062 13.739 7.062z" fill="#0A0923" fill-opacity=".1"/><path d="M134.971 166.572c7.588 0 13.739-3.034 13.739-6.776 0-3.743-6.151-6.776-13.739-6.776-7.588 0-13.74 3.033-13.74 6.776 0 3.742 6.152 6.776 13.74 6.776z" stroke="#B19AFF" stroke-opacity=".12" stroke-width="1.19" stroke-miterlimit="10"/><path d="M134.972 166.84c15.279 0 27.665-7.444 27.665-16.627s-12.386-16.627-27.665-16.627-27.665 7.444-27.665 16.627 12.386 16.627 27.665 16.627z" stroke="url(#paint3_linear)" stroke-opacity=".2" stroke-width="1.19" stroke-miterlimit="10"/><path d="M134.972 167.646c21.252 0 38.48-12.216 38.48-27.286 0-15.07-17.228-27.286-38.48-27.286-21.252 0-38.48 12.216-38.48 27.286 0 15.07 17.228 27.286 38.48 27.286z" stroke="url(#paint4_linear)" stroke-opacity=".4" stroke-width="1.19" stroke-miterlimit="10"/><path d="M134.972 167.731c26.715 0 48.372-16.998 48.372-37.965 0-20.968-21.657-37.965-48.372-37.965-26.714 0-48.37 16.997-48.37 37.965 0 20.967 21.656 37.965 48.37 37.965z" stroke="url(#paint5_linear)" stroke-opacity=".6" stroke-width="1.19" stroke-miterlimit="10"/><path d="M134.972 174.828c36.693 0 66.439-23.321 66.439-52.089 0-28.768-29.746-52.089-66.439-52.089S68.533 93.971 68.533 122.74c0 28.768 29.746 52.089 66.439 52.089z" stroke="url(#paint6_linear)" stroke-opacity=".8" stroke-width="1.19" stroke-miterlimit="10"/><path d="M134.972 181.934c45.298 0 82.02-29.2 82.02-65.221 0-36.02-36.722-65.22-82.02-65.22-45.298 0-82.019 29.2-82.019 65.22 0 36.021 36.721 65.221 82.019 65.221z" stroke="url(#paint7_linear)" stroke-width="1.19" stroke-miterlimit="10"/><path d="M134.972 36.47v130.673" stroke="url(#paint8_linear)" stroke-width="1.19" stroke-miterlimit="10" stroke-linecap="round" stroke-linejoin="round"/><path d="M71.715 55.238s28.803 13.696 41.107 46.57c12.303 32.875 9.323 55.755 9.323 55.755" stroke="url(#paint9_linear)" stroke-width="1.19" stroke-miterlimit="10" stroke-linecap="round" stroke-linejoin="round"/><path d="M198.348 55.238s-28.804 13.696-41.107 46.57c-12.303 32.875-9.323 55.755-9.323 55.755" stroke="url(#paint10_linear)" stroke-width="1.19" stroke-miterlimit="10" stroke-linecap="round" stroke-linejoin="round"/><path d="M107.308 151.753s-7.292-18.02-25.912-32.62c-18.619-14.6-39.77-12.735-39.77-12.735" stroke="url(#paint11_linear)" stroke-width="1.19" stroke-miterlimit="10" stroke-linecap="round" stroke-linejoin="round"/><path d="M162.636 151.753s7.292-18.02 25.912-32.62c18.619-14.6 39.769-12.735 39.769-12.735" stroke="url(#paint12_linear)" stroke-width="1.19" stroke-miterlimit="10" stroke-linecap="round" stroke-linejoin="round"/><path d="M100.122 155.602s-15.6-4.594-33.473 5.832" stroke="url(#paint13_linear)" stroke-width="1.19" stroke-miterlimit="10" stroke-linecap="round" stroke-linejoin="round"/><path d="M152.675 164.58s3.658 4.896 3.658 18.75" stroke="url(#paint14_linear)" stroke-width="1.19" stroke-miterlimit="10" stroke-linecap="round" stroke-linejoin="round"/><path d="M117.372 164.58s-3.658 4.896-3.658 18.75" stroke="url(#paint15_linear)" stroke-width="1.19" stroke-miterlimit="10" stroke-linecap="round" stroke-linejoin="round"/><path d="M169.818 155.602s15.6-4.594 33.474 5.832" stroke="url(#paint16_linear)" stroke-width="1.19" stroke-miterlimit="10" stroke-linecap="round" stroke-linejoin="round"/><defs><linearGradient id="paint0_linear" x1="222.648" y1="46.696" x2="298.54" y2="-3.736" gradientUnits="userSpaceOnUse"><stop stop-color="#51439A"/><stop offset="1" stop-color="#7668BF"/></linearGradient><linearGradient id="paint1_linear" x1="198.838" y1="78.509" x2="330.543" y2="29.702" gradientUnits="userSpaceOnUse"><stop stop-color="#51439A"/><stop offset="1" stop-color="#7668BF"/></linearGradient><linearGradient id="paint2_linear" x1="154.387" y1="36.993" x2="154.387" y2="34.02" gradientUnits="userSpaceOnUse"><stop offset="0" stop-color="#6050B0"/><stop offset="1" stop-color="#351C75"/></linearGradient><linearGradient id="paint3_linear" x1="134.972" y1="133.586" x2="134.972" y2="186.651" gradientUnits="userSpaceOnUse"><stop stop-color="#B19AFF"/><stop offset="1" stop-color="#B19AFF" stop-opacity="0"/></linearGradient><linearGradient id="paint4_linear" x1="134.972" y1="98.225" x2="134.972" y2="167.646" gradientUnits="userSpaceOnUse"><stop stop-color="#B19AFF"/><stop offset="1" stop-color="#B19AFF" stop-opacity="0"/></linearGradient><linearGradient id="paint5_linear" x1="134.972" y1="47.692" x2="134.972" y2="184.491" gradientUnits="userSpaceOnUse"><stop stop-color="#B19AFF"/><stop offset="1" stop-color="#B19AFF" stop-opacity="0"/></linearGradient><linearGradient id="paint6_linear" x1="134.972" y1="-94.407" x2="134.972" y2="224.856" gradientUnits="userSpaceOnUse"><stop stop-color="#B19AFF"/><stop offset="1" stop-color="#B19AFF" stop-opacity="0"/></linearGradient><linearGradient id="paint7_linear" x1="134.972" y1="-273.86" x2="134.972" y2="239.748" gradientUnits="userSpaceOnUse"><stop stop-color="#B19AFF"/><stop offset="1" stop-color="#B19AFF" stop-opacity="0"/></linearGradient><linearGradient id="paint8_linear" x1="135.472" y1="-83.633" x2="135.472" y2="167.143" gradientUnits="userSpaceOnUse"><stop stop-color="#B19AFF"/><stop offset="1" stop-color="#B19AFF" stop-opacity="0"/></linearGradient><linearGradient id="paint9_linear" x1="31.536" y1="-25.281" x2="124.051" y2="162.77" gradientUnits="userSpaceOnUse"><stop stop-color="#B19AFF"/><stop offset="1" stop-color="#B19AFF" stop-opacity="0"/></linearGradient><linearGradient id="paint10_linear" x1="271.313" y1="-21.658" x2="144.826" y2="163.89" gradientUnits="userSpaceOnUse"><stop stop-color="#B19AFF" stop-opacity=".9"/><stop offset="1" stop-color="#B19AFF" stop-opacity="0"/></linearGradient><linearGradient id="paint11_linear" x1="-38.153" y1="73.323" x2="108.991" y2="153.578" gradientUnits="userSpaceOnUse"><stop stop-color="#B19AFF"/><stop offset="1" stop-color="#B19AFF" stop-opacity="0"/></linearGradient><linearGradient id="paint12_linear" x1="289.113" y1="78.374" x2="160.953" y2="153.578" gradientUnits="userSpaceOnUse"><stop stop-color="#B19AFF" stop-opacity=".9"/><stop offset="1" stop-color="#B19AFF" stop-opacity="0"/></linearGradient><linearGradient id="paint13_linear" x1="15.657" y1="182.812" x2="103.683" y2="156.29" gradientUnits="userSpaceOnUse"><stop stop-color="#B19AFF"/><stop offset="1" stop-color="#B19AFF" stop-opacity="0"/></linearGradient><linearGradient id="paint14_linear" x1="160.327" y1="220.045" x2="151.924" y2="163.22" gradientUnits="userSpaceOnUse"><stop stop-color="#B19AFF"/><stop offset="1" stop-color="#B19AFF" stop-opacity="0"/></linearGradient><linearGradient id="paint15_linear" x1="109.72" y1="220.045" x2="118.123" y2="163.22" gradientUnits="userSpaceOnUse"><stop stop-color="#B19AFF"/><stop offset="1" stop-color="#B19AFF" stop-opacity="0"/></linearGradient><linearGradient id="paint16_linear" x1="249.394" y1="182.065" x2="168.347" y2="155.341" gradientUnits="userSpaceOnUse"><stop stop-color="#B19AFF" stop-opacity=".9"/><stop offset="1" stop-color="#B19AFF" stop-opacity="0"/></linearGradient></defs></svg>