<svg width="270" height="195" viewBox="0 0 270 195" fill="none" xmlns="http://www.w3.org/2000/svg">
<circle cx="239.673" cy="27.6952" r="18.9999" fill="url(#paint0_linear)"/>
<path d="M239.673 27.6952C239.673 38.1886 239.673 38.402 239.673 46.6951C229.18 46.6951 220.673 38.1886 220.673 27.6952C220.673 17.2019 229.18 8.69531 239.673 8.69531C239.673 17.9042 239.673 17.2019 239.673 27.6952Z" fill="url(#paint1_linear)"/>
<path d="M239.673 46.6953C246.16 46.6953 251.417 38.1888 251.417 27.6954C251.417 17.202 246.16 8.6955 239.673 8.69549C239.673 8.69549 239.674 8.69549 239.673 8.69549L239.673 46.6953Z" fill="#6253AB"/>
<path fill-rule="evenodd" clip-rule="evenodd" d="M239.784 155.605L241.584 154.575L239.744 153.615L238.724 151.815L237.754 153.645L235.954 154.675L237.794 155.645L238.824 157.445L239.784 155.605Z" fill="#343271"/>
<path d="M197.651 23.9141C198.131 23.9141 198.131 23.1641 197.651 23.1641C197.161 23.1641 197.161 23.9141 197.651 23.9141Z" fill="#343271"/>
<path d="M186.561 32.9219C187.041 32.9219 187.041 32.1719 186.561 32.1719C186.081 32.1719 186.081 32.9219 186.561 32.9219Z" fill="#343271"/>
<path d="M209.431 37.3125C209.911 37.3125 209.911 36.5625 209.431 36.5625C208.951 36.5625 208.951 37.3125 209.431 37.3125Z" fill="#343271"/>
<path d="M198.341 36.8516C198.821 36.8516 198.821 36.1016 198.341 36.1016C197.861 36.1016 197.861 36.8516 198.341 36.8516Z" fill="#343271"/>
<path d="M229.071 48.4023C229.551 48.4023 229.551 47.6523 229.071 47.6523C228.581 47.6523 228.581 48.4023 229.071 48.4023Z" fill="#343271"/>
<path d="M216.362 33.8145C216.842 33.8145 216.842 33.0645 216.362 33.0645C215.882 33.0645 215.882 33.8145 216.362 33.8145Z" fill="#343271"/>
<path d="M238.771 52.332C239.251 52.332 239.251 51.582 238.771 51.582C238.291 51.582 238.281 52.332 238.771 52.332Z" fill="#343271"/>
<path fill-rule="evenodd" clip-rule="evenodd" d="M189.101 23.313L190.011 23.833L189.081 24.313L188.561 25.233L188.071 24.303L187.161 23.773L188.091 23.293L188.611 22.373L189.101 23.313Z" fill="#343271"/>
<path fill-rule="evenodd" clip-rule="evenodd" d="M199.811 42.0416L200.731 42.5616L199.791 43.0516L199.271 43.9616L198.781 43.0316L197.871 42.5116L198.801 42.0216L199.321 41.1016L199.811 42.0416Z" fill="#343271"/>
<path fill-rule="evenodd" clip-rule="evenodd" d="M205.221 12.7228L207.021 13.7528L205.181 14.7128L204.161 16.5128L203.191 14.6828L201.391 13.6528L203.231 12.6828L204.261 10.8828L205.221 12.7228Z" fill="#343271"/>
<path d="M68.4084 21.3008C67.9284 21.3008 67.9284 20.5508 68.4084 20.5508C68.8984 20.5508 68.8984 21.3008 68.4084 21.3008Z" fill="#343271"/>
<path d="M79.4984 30.3125C79.0184 30.3125 79.0184 29.5625 79.4984 29.5625C79.9784 29.5625 79.9784 30.3125 79.4984 30.3125Z" fill="#343271"/>
<path d="M56.6285 34.7012C56.1485 34.7012 56.1485 33.9512 56.6285 33.9512C57.1085 33.9512 57.1085 34.7012 56.6285 34.7012Z" fill="#343271"/>
<path d="M67.7184 34.2422C67.2384 34.2422 67.2384 33.4922 67.7184 33.4922C68.1984 33.4922 68.1984 34.2422 67.7184 34.2422Z" fill="#343271"/>
<path d="M36.9885 45.791C36.5085 45.791 36.5085 45.041 36.9885 45.041C37.4785 45.041 37.4785 45.791 36.9885 45.791Z" fill="#343271"/>
<path d="M37.2284 35.8613C36.7484 35.8613 36.7484 35.1113 37.2284 35.1113C37.7084 35.1113 37.7084 35.8613 37.2284 35.8613Z" fill="#343271"/>
<path d="M46.2384 30.7715C45.7584 30.7715 45.7584 30.0215 46.2384 30.0215C46.7184 30.0215 46.7184 30.7715 46.2384 30.7715Z" fill="#343271"/>
<path d="M27.2883 49.7227C26.8083 49.7227 26.8083 48.9727 27.2883 48.9727C27.7683 48.9727 27.7783 49.7227 27.2883 49.7227Z" fill="#343271"/>
<path fill-rule="evenodd" clip-rule="evenodd" d="M76.9584 20.7017L76.0484 21.2217L76.9784 21.7017L77.4984 22.6217L77.9884 21.6917L78.8984 21.1617L77.9684 20.6817L77.4484 19.7617L76.9584 20.7017Z" fill="#343271"/>
<path fill-rule="evenodd" clip-rule="evenodd" d="M29.9685 41.0218L29.0584 41.5418L29.9884 42.0318L30.5084 42.9418L30.9985 42.0118L31.9084 41.4918L30.9784 41.0018L30.4585 40.0918L29.9685 41.0218Z" fill="#343271"/>
<path fill-rule="evenodd" clip-rule="evenodd" d="M66.2485 39.4322L65.3285 39.9522L66.2685 40.4422L66.7885 41.3522L67.2785 40.4222L68.1885 39.9022L67.2585 39.4122L66.7385 38.4922L66.2485 39.4322Z" fill="#343271"/>
<path fill-rule="evenodd" clip-rule="evenodd" d="M60.8385 10.1115L59.0385 11.1415L60.8785 12.1015L61.8985 13.9015L62.8685 12.0715L64.6685 11.0415L62.8285 10.0715L61.7985 8.27148L60.8385 10.1115Z" fill="#343271"/>
<path d="M260.395 91.8379C260.875 91.8379 260.875 92.5879 260.395 92.5879C259.905 92.5879 259.905 91.8379 260.395 91.8379Z" fill="#343271"/>
<path d="M15.2475 91.8379C14.7675 91.8379 14.7675 92.5879 15.2475 92.5879C15.7375 92.5879 15.7375 91.8379 15.2475 91.8379Z" fill="#343271"/>
<path d="M249.305 82.8281C249.785 82.8281 249.785 83.5781 249.305 83.5781C248.825 83.5781 248.825 82.8281 249.305 82.8281Z" fill="#343271"/>
<path d="M26.3375 82.8281C25.8575 82.8281 25.8575 83.5781 26.3375 83.5781C26.8175 83.5781 26.8175 82.8281 26.3375 82.8281Z" fill="#343271"/>
<path d="M261.085 78.8984C261.565 78.8984 261.565 79.6484 261.085 79.6484C260.605 79.6484 260.605 78.8984 261.085 78.8984Z" fill="#343271"/>
<path d="M14.5577 78.8984C14.0777 78.8984 14.0777 79.6484 14.5577 79.6484C15.0377 79.6484 15.0377 78.8984 14.5577 78.8984Z" fill="#343271"/>
<path fill-rule="evenodd" clip-rule="evenodd" d="M251.845 92.437L252.755 91.917L251.825 91.437L251.305 90.517L250.815 91.447L249.905 91.977L250.835 92.457L251.355 93.377L251.845 92.437Z" fill="#343271"/>
<path fill-rule="evenodd" clip-rule="evenodd" d="M23.7975 92.437L22.8875 91.917L23.8175 91.437L24.3375 90.517L24.8275 91.447L25.7375 91.977L24.8075 92.457L24.2875 93.377L23.7975 92.437Z" fill="#343271"/>
<path fill-rule="evenodd" clip-rule="evenodd" d="M262.555 73.7084L263.475 73.1884L262.535 72.6984L262.015 71.7884L261.525 72.7184L260.615 73.2384L261.545 73.7284L262.065 74.6484L262.555 73.7084Z" fill="#343271"/>
<path fill-rule="evenodd" clip-rule="evenodd" d="M13.0876 73.7084L12.1676 73.1884L13.1076 72.6984L13.6276 71.7884L14.1176 72.7184L15.0276 73.2384L14.0976 73.7284L13.5776 74.6484L13.0876 73.7084Z" fill="#343271"/>
<path fill-rule="evenodd" clip-rule="evenodd" d="M267.586 103.027L269.386 101.997L267.546 101.037L266.526 99.2372L265.556 101.067L263.756 102.097L265.596 103.067L266.626 104.867L267.586 103.027Z" fill="#343271"/>
<path fill-rule="evenodd" clip-rule="evenodd" d="M1.8 123.715L7.62939e-06 122.685L1.84 121.725L2.86001 119.925L3.83 121.755L5.63 122.785L3.79001 123.755L2.76 125.555L1.8 123.715Z" fill="#343271"/>
<path d="M19.3279 153.145C19.8079 153.145 19.8079 152.395 19.3279 152.395C18.8379 152.395 18.8379 153.145 19.3279 153.145Z" fill="#343271"/>
<path d="M8.23793 162.152C8.71793 162.152 8.71793 161.402 8.23793 161.402C7.75793 161.402 7.75793 162.152 8.23793 162.152Z" fill="#343271"/>
<path d="M31.1078 166.543C31.5878 166.543 31.5878 165.793 31.1078 165.793C30.6278 165.793 30.6278 166.543 31.1078 166.543Z" fill="#343271"/>
<path d="M20.018 166.082C20.498 166.082 20.498 165.332 20.018 165.332C19.538 165.332 19.538 166.082 20.018 166.082Z" fill="#343271"/>
<path d="M50.7479 177.633C51.2279 177.633 51.2279 176.883 50.7479 176.883C50.2579 176.883 50.2579 177.633 50.7479 177.633Z" fill="#343271"/>
<path d="M50.5079 167.703C50.9879 167.703 50.9879 166.953 50.5079 166.953C50.0279 166.953 50.0279 167.703 50.5079 167.703Z" fill="#343271"/>
<path d="M41.4979 162.613C41.9779 162.613 41.9779 161.863 41.4979 161.863C41.0179 161.863 41.0179 162.613 41.4979 162.613Z" fill="#343271"/>
<path d="M60.448 181.562C60.928 181.562 60.928 180.812 60.448 180.812C59.968 180.812 59.958 181.562 60.448 181.562Z" fill="#343271"/>
<path fill-rule="evenodd" clip-rule="evenodd" d="M10.7779 152.544L11.6879 153.064L10.7579 153.544L10.2379 154.464L9.74789 153.534L8.83789 153.004L9.76789 152.524L10.2879 151.604L10.7779 152.544Z" fill="#343271"/>
<path fill-rule="evenodd" clip-rule="evenodd" d="M57.7679 172.864L58.6779 173.384L57.7479 173.874L57.2279 174.784L56.7379 173.854L55.8279 173.334L56.7579 172.844L57.2779 171.934L57.7679 172.864Z" fill="#343271"/>
<path fill-rule="evenodd" clip-rule="evenodd" d="M21.4878 171.272L22.4078 171.792L21.4678 172.282L20.9478 173.192L20.4578 172.262L19.5479 171.742L20.4779 171.252L20.9978 170.332L21.4878 171.272Z" fill="#343271"/>
<path fill-rule="evenodd" clip-rule="evenodd" d="M26.8979 141.953L28.6979 142.983L26.8579 143.943L25.8379 145.743L24.8679 143.913L23.0679 142.883L24.9079 141.913L25.9379 140.113L26.8979 141.953Z" fill="#343271"/>
<path d="M79.6214 182.58C80.1014 182.58 80.1014 183.33 79.6214 183.33C79.1414 183.33 79.1414 182.58 79.6214 182.58Z" fill="#343271"/>
<path d="M96.7287 188.893C97.2087 188.893 97.2087 189.643 96.7287 189.643C96.2487 189.643 96.2487 188.893 96.7287 188.893Z" fill="#343271"/>
<path d="M87.7189 193.982C88.1989 193.982 88.1989 194.732 87.7189 194.732C87.2389 194.732 87.2389 193.982 87.7189 193.982Z" fill="#343271"/>
<g style="mix-blend-mode:soft-light">
<circle cx="154.387" cy="35.5065" r="1.48701" fill="url(#paint2_linear)"/>
</g>
<circle cx="251.919" cy="145.202" r="1.48701" fill="#343271"/>
<circle cx="256.699" cy="53.819" r="1.48701" fill="#343271"/>
<circle cx="133.773" cy="10.6687" r="1.48701" fill="#343271"/>
<circle opacity="0.8" cx="170.528" cy="9.18037" r="1.48701" fill="#343271"/>
<circle opacity="0.8" cx="250.432" cy="120.003" r="1.48701" fill="#343271"/>
<circle opacity="0.8" r="1.48701" transform="matrix(-1 0 0 1 25.2105 120.003)" fill="#343271"/>
<circle opacity="0.8" cx="216.036" cy="184.016" r="0.686385" fill="#343271"/>
<circle opacity="0.8" cx="262.291" cy="65.5106" r="0.686385" fill="#343271"/>
<circle opacity="0.8" cx="198.502" cy="0.686385" r="0.686385" fill="#343271"/>
<circle opacity="0.8" cx="107.582" cy="23.6551" r="0.686385" fill="#343271"/>
<circle opacity="0.8" cx="170.749" cy="193.675" r="0.686385" fill="#343271"/>
<path d="M134.754 190.032C189.43 190.032 233.754 154.373 233.754 110.385C233.754 66.3973 189.43 30.7383 134.754 30.7383C80.0777 30.7383 35.7539 66.3973 35.7539 110.385C35.7539 154.373 80.0777 190.032 134.754 190.032Z" fill="#131143"/>
<path d="M134.977 181.32C179.953 181.32 216.414 152.392 216.414 116.707C216.414 81.022 179.953 52.0938 134.977 52.0938C90.0003 52.0938 53.5396 81.022 53.5396 116.707C53.5396 152.392 90.0003 181.32 134.977 181.32Z" fill="#0A0923" fill-opacity="0.1"/>
<path d="M134.971 174.217C171.333 174.217 200.811 151.033 200.811 122.434C200.811 93.8345 171.333 70.6504 134.971 70.6504C98.6083 70.6504 69.1306 93.8345 69.1306 122.434C69.1306 151.033 98.6083 174.217 134.971 174.217Z" fill="#0A0923" fill-opacity="0.1"/>
<path d="M134.981 167.151C161.368 167.151 182.759 150.414 182.759 129.769C182.759 109.123 161.368 92.3867 134.981 92.3867C108.595 92.3867 87.2041 109.123 87.2041 129.769C87.2041 150.414 108.595 167.151 134.981 167.151Z" fill="#0A0923" fill-opacity="0.1"/>
<path d="M134.664 167.151C155.745 167.151 172.835 155.045 172.835 140.112C172.835 125.18 155.745 113.074 134.664 113.074C113.582 113.074 96.4917 125.18 96.4917 140.112C96.4917 155.045 113.582 167.151 134.664 167.151Z" fill="#0A0923" fill-opacity="0.1"/>
<path d="M134.972 167.151C150.251 167.151 162.637 159.637 162.637 150.368C162.637 141.1 150.251 133.586 134.972 133.586C119.693 133.586 107.307 141.1 107.307 150.368C107.307 159.637 119.693 167.151 134.972 167.151Z" fill="#0A0923" fill-opacity="0.1"/>
<path d="M134.972 167.151C142.56 167.151 148.711 163.99 148.711 160.089C148.711 156.189 142.56 153.027 134.972 153.027C127.384 153.027 121.233 156.189 121.233 160.089C121.233 163.99 127.384 167.151 134.972 167.151Z" fill="#0A0923" fill-opacity="0.1"/>
<path d="M134.971 166.572C142.559 166.572 148.71 163.538 148.71 159.796C148.71 156.053 142.559 153.02 134.971 153.02C127.383 153.02 121.231 156.053 121.231 159.796C121.231 163.538 127.383 166.572 134.971 166.572Z" stroke="#B19AFF" stroke-opacity="0.12" stroke-width="1.19024" stroke-miterlimit="10"/>
<path d="M134.972 166.84C150.251 166.84 162.637 159.396 162.637 150.213C162.637 141.03 150.251 133.586 134.972 133.586C119.693 133.586 107.307 141.03 107.307 150.213C107.307 159.396 119.693 166.84 134.972 166.84Z" stroke="url(#paint3_linear)" stroke-opacity="0.2" stroke-width="1.19024" stroke-miterlimit="10"/>
<path d="M134.972 167.646C156.224 167.646 173.452 155.43 173.452 140.36C173.452 125.29 156.224 113.074 134.972 113.074C113.72 113.074 96.4917 125.29 96.4917 140.36C96.4917 155.43 113.72 167.646 134.972 167.646Z" stroke="url(#paint4_linear)" stroke-opacity="0.4" stroke-width="1.19024" stroke-miterlimit="10"/>
<path d="M134.972 167.731C161.687 167.731 183.344 150.733 183.344 129.766C183.344 108.798 161.687 91.8008 134.972 91.8008C108.258 91.8008 86.6011 108.798 86.6011 129.766C86.6011 150.733 108.258 167.731 134.972 167.731Z" stroke="url(#paint5_linear)" stroke-opacity="0.6" stroke-width="1.19024" stroke-miterlimit="10"/>
<path d="M134.972 174.828C171.665 174.828 201.411 151.507 201.411 122.739C201.411 93.9713 171.665 70.6504 134.972 70.6504C98.2787 70.6504 68.533 93.9713 68.533 122.739C68.533 151.507 98.2787 174.828 134.972 174.828Z" stroke="url(#paint6_linear)" stroke-opacity="0.8" stroke-width="1.19024" stroke-miterlimit="10"/>
<path d="M134.972 181.934C180.27 181.934 216.992 152.734 216.992 116.713C216.992 80.6926 180.27 51.4922 134.972 51.4922C89.6743 51.4922 52.953 80.6926 52.953 116.713C52.953 152.734 89.6743 181.934 134.972 181.934Z" stroke="url(#paint7_linear)" stroke-width="1.19024" stroke-miterlimit="10"/>
<path d="M134.972 36.4707V167.143" stroke="url(#paint8_linear)" stroke-width="1.19024" stroke-miterlimit="10" stroke-linecap="round" stroke-linejoin="round"/>
<path d="M71.7147 55.2383C71.7147 55.2383 100.518 68.934 112.822 101.808C125.125 134.683 122.145 157.563 122.145 157.563" stroke="url(#paint9_linear)" stroke-width="1.19024" stroke-miterlimit="10" stroke-linecap="round" stroke-linejoin="round"/>
<path d="M198.348 55.2383C198.348 55.2383 169.544 68.934 157.241 101.808C144.938 134.683 147.918 157.563 147.918 157.563" stroke="url(#paint10_linear)" stroke-width="1.19024" stroke-miterlimit="10" stroke-linecap="round" stroke-linejoin="round"/>
<path d="M107.308 151.753C107.308 151.753 100.016 133.733 81.3963 119.133C62.777 104.533 41.6265 106.398 41.6265 106.398" stroke="url(#paint11_linear)" stroke-width="1.19024" stroke-miterlimit="10" stroke-linecap="round" stroke-linejoin="round"/>
<path d="M162.636 151.753C162.636 151.753 169.928 133.733 188.548 119.133C207.167 104.533 228.317 106.398 228.317 106.398" stroke="url(#paint12_linear)" stroke-width="1.19024" stroke-miterlimit="10" stroke-linecap="round" stroke-linejoin="round"/>
<path d="M100.122 155.602C100.122 155.602 84.522 151.008 66.6486 161.434" stroke="url(#paint13_linear)" stroke-width="1.19024" stroke-miterlimit="10" stroke-linecap="round" stroke-linejoin="round"/>
<path d="M152.675 164.58C152.675 164.58 156.333 169.476 156.333 183.33" stroke="url(#paint14_linear)" stroke-width="1.19024" stroke-miterlimit="10" stroke-linecap="round" stroke-linejoin="round"/>
<path d="M117.372 164.58C117.372 164.58 113.714 169.476 113.714 183.33" stroke="url(#paint15_linear)" stroke-width="1.19024" stroke-miterlimit="10" stroke-linecap="round" stroke-linejoin="round"/>
<path d="M169.818 155.602C169.818 155.602 185.418 151.008 203.292 161.434" stroke="url(#paint16_linear)" stroke-width="1.19024" stroke-miterlimit="10" stroke-linecap="round" stroke-linejoin="round"/>
<defs>
<linearGradient id="paint0_linear" x1="222.648" y1="46.6959" x2="298.54" y2="-3.7355" gradientUnits="userSpaceOnUse">
<stop stop-color="#51439A"/>
<stop offset="1" stop-color="#7668BF"/>
</linearGradient>
<linearGradient id="paint1_linear" x1="198.838" y1="78.5086" x2="330.543" y2="29.7023" gradientUnits="userSpaceOnUse">
<stop stop-color="#51439A"/>
<stop offset="1" stop-color="#7668BF"/>
</linearGradient>
<linearGradient id="paint2_linear" x1="154.387" y1="36.9935" x2="154.387" y2="34.0195" gradientUnits="userSpaceOnUse">
<stop offset="0.000490735" stop-color="#6050B0"/>
<stop offset="1" stop-color="#351C75"/>
</linearGradient>
<linearGradient id="paint3_linear" x1="134.972" y1="133.586" x2="134.972" y2="186.651" gradientUnits="userSpaceOnUse">
<stop stop-color="#B19AFF"/>
<stop offset="1" stop-color="#B19AFF" stop-opacity="0"/>
</linearGradient>
<linearGradient id="paint4_linear" x1="134.972" y1="98.2249" x2="134.972" y2="167.646" gradientUnits="userSpaceOnUse">
<stop stop-color="#B19AFF"/>
<stop offset="1" stop-color="#B19AFF" stop-opacity="0"/>
</linearGradient>
<linearGradient id="paint5_linear" x1="134.972" y1="47.6918" x2="134.972" y2="184.491" gradientUnits="userSpaceOnUse">
<stop stop-color="#B19AFF"/>
<stop offset="1" stop-color="#B19AFF" stop-opacity="0"/>
</linearGradient>
<linearGradient id="paint6_linear" x1="134.972" y1="-94.4067" x2="134.972" y2="224.856" gradientUnits="userSpaceOnUse">
<stop stop-color="#B19AFF"/>
<stop offset="1" stop-color="#B19AFF" stop-opacity="0"/>
</linearGradient>
<linearGradient id="paint7_linear" x1="134.972" y1="-273.86" x2="134.972" y2="239.748" gradientUnits="userSpaceOnUse">
<stop stop-color="#B19AFF"/>
<stop offset="1" stop-color="#B19AFF" stop-opacity="0"/>
</linearGradient>
<linearGradient id="paint8_linear" x1="135.472" y1="-83.6328" x2="135.472" y2="167.143" gradientUnits="userSpaceOnUse">
<stop stop-color="#B19AFF"/>
<stop offset="1" stop-color="#B19AFF" stop-opacity="0"/>
</linearGradient>
<linearGradient id="paint9_linear" x1="31.5363" y1="-25.2806" x2="124.051" y2="162.77" gradientUnits="userSpaceOnUse">
<stop stop-color="#B19AFF"/>
<stop offset="1" stop-color="#B19AFF" stop-opacity="0"/>
</linearGradient>
<linearGradient id="paint10_linear" x1="271.313" y1="-21.6578" x2="144.826" y2="163.89" gradientUnits="userSpaceOnUse">
<stop stop-color="#B19AFF" stop-opacity="0.9"/>
<stop offset="1" stop-color="#B19AFF" stop-opacity="0"/>
</linearGradient>
<linearGradient id="paint11_linear" x1="-38.1531" y1="73.3235" x2="108.991" y2="153.578" gradientUnits="userSpaceOnUse">
<stop stop-color="#B19AFF"/>
<stop offset="1" stop-color="#B19AFF" stop-opacity="0"/>
</linearGradient>
<linearGradient id="paint12_linear" x1="289.113" y1="78.3736" x2="160.953" y2="153.578" gradientUnits="userSpaceOnUse">
<stop stop-color="#B19AFF" stop-opacity="0.9"/>
<stop offset="1" stop-color="#B19AFF" stop-opacity="0"/>
</linearGradient>
<linearGradient id="paint13_linear" x1="15.657" y1="182.812" x2="103.683" y2="156.29" gradientUnits="userSpaceOnUse">
<stop stop-color="#B19AFF"/>
<stop offset="1" stop-color="#B19AFF" stop-opacity="0"/>
</linearGradient>
<linearGradient id="paint14_linear" x1="160.327" y1="220.045" x2="151.924" y2="163.22" gradientUnits="userSpaceOnUse">
<stop stop-color="#B19AFF"/>
<stop offset="1" stop-color="#B19AFF" stop-opacity="0"/>
</linearGradient>
<linearGradient id="paint15_linear" x1="109.72" y1="220.045" x2="118.123" y2="163.22" gradientUnits="userSpaceOnUse">
<stop stop-color="#B19AFF"/>
<stop offset="1" stop-color="#B19AFF" stop-opacity="0"/>
</linearGradient>
<linearGradient id="paint16_linear" x1="249.394" y1="182.065" x2="168.347" y2="155.341" gradientUnits="userSpaceOnUse">
<stop stop-color="#B19AFF" stop-opacity="0.9"/>
<stop offset="1" stop-color="#B19AFF" stop-opacity="0"/>
</linearGradient>
</defs>
</svg>
