<svg width="242" height="204" fill="none" xmlns="http://www.w3.org/2000/svg"><circle cx="141.017" cy="100.502" r="100.502" fill="#131143"/><path fill-rule="evenodd" clip-rule="evenodd" d="M197.851 150.605l1.8-1.03-1.84-.96-1.02-1.8-.97 1.83-1.8 1.03 1.84.97 1.03 1.8.96-1.84z" fill="#403D85"/><path d="M218.463 89.836c.48 0 .48.75 0 .75-.49 0-.49-.75 0-.75zM207.373 80.828c.48 0 .48.75 0 .75s-.48-.75 0-.75zM230.243 76.438c.48 0 .48.75 0 .75s-.48-.75 0-.75zM219.153 76.898c.48 0 .48.75 0 .75s-.48-.75 0-.75z" fill="#403D85"/><path fill-rule="evenodd" clip-rule="evenodd" d="M209.913 90.437l.91-.52-.93-.48-.52-.92-.49.93-.91.53.93.48.52.92.49-.94zM220.623 71.708l.92-.52-.94-.49-.52-.91-.49.93-.91.52.93.49.52.92.49-.94zM226.033 101.027l1.8-1.03-1.84-.96-1.02-1.8-.97 1.83-1.8 1.03 1.84.97 1.03 1.8.96-1.84z" fill="#403D85"/><path d="M75.45 50.031c.48 0 .48-.75 0-.75-.49 0-.49.75 0 .75zM64.36 59.04c.48 0 .48-.75 0-.75s-.48.75 0 .75zM87.23 63.43c.48 0 .48-.75 0-.75s-.48.75 0 .75zM76.14 62.969c.48 0 .48-.75 0-.75s-.48.75 0 .75z" fill="#403D85"/><path fill-rule="evenodd" clip-rule="evenodd" d="M66.9 49.43l.91.52-.93.48-.52.92-.49-.93-.91-.53.93-.48.52-.92.49.94zM77.61 68.159l.92.52-.94.49-.52.91-.49-.93-.91-.52.93-.49.52-.92.49.94zM83.02 38.84l1.8 1.03-1.84.96-1.02 1.8-.97-1.83-1.8-1.03 1.84-.97 1.03-1.8.96 1.84z" fill="#403D85"/><path d="M77.413 155.539c.48 0 .48-.75 0-.75-.49 0-.49.75 0 .75zM66.323 164.551c.48 0 .48-.75 0-.75s-.48.75 0 .75zM89.193 168.939c.48 0 .48-.75 0-.75s-.48.75 0 .75zM78.103 168.48c.48 0 .48-.75 0-.75s-.48.75 0 .75zM108.833 180.029c.48 0 .48-.75 0-.75-.49 0-.49.75 0 .75zM108.593 170.1c.48 0 .48-.75 0-.75s-.48.75 0 .75zM99.583 165.01c.48 0 .48-.75 0-.75s-.48.75 0 .75zM118.533 183.961c.48 0 .48-.75 0-.75s-.49.75 0 .75z" fill="#403D85"/><path fill-rule="evenodd" clip-rule="evenodd" d="M68.863 154.94l.91.52-.93.48-.52.92-.49-.93-.91-.53.93-.48.52-.92.49.94zM115.853 175.26l.91.52-.93.49-.52.91-.49-.93-.91-.52.93-.49.52-.91.49.93zM96.94 176.94l.92.52-.94.49-.52.91-.49-.93-.91-.52.93-.49.52-.92.49.94zM38.83 159.25l1.8 1.03-1.84.96-1.02 1.8-.97-1.83-1.8-1.03 1.84-.97 1.03-1.8.96 1.84z" fill="#403D85"/><path d="M152.413 15.54c.48 0 .48-.75 0-.75-.49 0-.49.75 0 .75zM141.323 24.55c.48 0 .48-.75 0-.75s-.48.75 0 .75zM164.193 28.94c.48 0 .48-.75 0-.75s-.48.75 0 .75zM153.103 28.48c.48 0 .48-.75 0-.75s-.48.75 0 .75zM183.833 40.03c.48 0 .48-.75 0-.75-.49 0-.49.75 0 .75zM183.593 30.1c.48 0 .48-.75 0-.75s-.48.75 0 .75zM174.583 25.01c.48 0 .48-.75 0-.75s-.48.75 0 .75zM193.533 43.96c.48 0 .48-.75 0-.75s-.49.75 0 .75z" fill="#403D85"/><path fill-rule="evenodd" clip-rule="evenodd" d="M143.863 14.94l.91.52-.93.48-.52.92-.49-.93-.91-.53.93-.48.52-.92.49.94zM190.853 35.26l.91.52-.93.49-.52.91-.49-.93-.91-.52.93-.49.52-.91.49.93zM154.573 33.67l.92.52-.94.49-.52.91-.49-.93-.91-.52.93-.49.52-.92.49.94z" fill="#403D85"/><circle opacity=".8" cx="173.487" cy="184.487" r="1.487" fill="#403D85"/><circle opacity=".8" cx="208.5" cy="118.003" r="1.487" fill="#403D85"/><path d="M5.362 155.395l40.786-35.43 28.96 50.818s-49.38 16.052-50.616 16.341c-1.479.342-3.03.517-4.637.517C8.89 187.634 0 179.061 0 168.485c0-5.06 2.036-9.663 5.362-13.09z" fill="url(#paint0_linear)"/><path d="M44.777 118.311l70.015-60.823 49.715 87.23s-84.763 27.555-86.886 28.046c-2.54.584-5.194.887-7.962.887-18.828 0-34.094-14.722-34.094-32.878 0-8.681 3.5-16.583 9.212-22.462z" fill="url(#paint1_linear)"/><path d="M179.962 107.811c0-27.482-23.101-49.763-51.604-49.763-4.993 0-9.817.685-14.379 1.962l-2.621-3.252L97.039 68.26v.007C84.716 77.359 76.761 91.69 76.761 107.81c0 27.481 23.1 49.762 51.604 49.762 7.673 0 14.957-1.619 21.508-4.515l12.027-4.972-1.995-.887c12.202-9.105 20.057-23.363 20.057-39.388z" fill="#171550"/><path opacity=".8" d="M44.932 133.633c0-7.996 2.58-15.407 6.974-21.508l-7.129 6.195c-5.711 5.879-9.205 13.781-9.205 22.469 0 18.156 15.266 32.878 34.093 32.878 2.762 0 5.416-.303 7.963-.887.268-.061 1.901-.571 4.535-1.405-20.736-.994-37.231-17.51-37.231-37.742z" fill="#141246"/><path opacity=".8" d="M5.51 164.144c0-4.677 1.51-9.013 4.08-12.582l-4.17 3.624c-3.341 3.44-5.385 8.062-5.385 13.144 0 10.621 8.93 19.232 19.943 19.232 1.616 0 3.168-.176 4.658-.518.157-.036 1.112-.334 2.653-.822-12.13-.582-21.78-10.243-21.78-22.078z" fill="#131140"/><path d="M143.214 151.485c29.116 0 52.719-23.603 52.719-52.719s-23.603-52.72-52.719-52.72-52.72 23.604-52.72 52.72 23.604 52.719 52.72 52.719z" fill="#1E1B68"/><path d="M143.214 146.929c26.6 0 48.164-21.564 48.164-48.164s-21.564-48.163-48.164-48.163-48.163 21.563-48.163 48.163c0 26.6 21.563 48.164 48.163 48.164z" fill="url(#paint2_linear)"/><path d="M152.932 131.969a33.715 33.715 0 008.253-11.91c7.123-17.286-1.116-37.072-18.402-44.194a33.71 33.71 0 00-22.605-1.132c9.385-8.707 23.329-11.689 35.941-6.492 17.286 7.123 25.525 26.909 18.402 44.194-4.042 9.81-12.162 16.706-21.589 19.534z" fill="#6E6BCD"/><g clip-path="url(#clip0)"><path fill-rule="evenodd" clip-rule="evenodd" d="M120.249 198.809l21.677-46.664v-.583h3.015v.604l21.238 45.719c-.994.253-1.994.492-3 .716l-18.238-39.274v41.61c-1.001.036-2.006.058-3.015.065v-41.696l-18.622 40.103a102.39 102.39 0 01-3.055-.6z" fill="#1E1B68"/></g><path d="M122.292 92.107l2.115 5.36c.032.08.12.12.199.096l5.511-1.686c.143-.04.262.111.183.23l-2.871 4.994a.163.163 0 00.048.215l4.755 3.252c.12.08.08.271-.063.294l-5.694.867c-.08.016-.143.088-.135.167l.421 5.742a.16.16 0 01-.27.127l-4.231-3.913c-.063-.055-.159-.055-.214 0l-4.231 3.913c-.103.095-.278.016-.27-.127l.421-5.742a.152.152 0 00-.135-.167l-5.694-.867a.16.16 0 01-.063-.294l4.755-3.252a.163.163 0 00.048-.215l-2.871-4.994c-.071-.127.048-.278.183-.23l5.511 1.686a.164.164 0 00.199-.096l2.115-5.36c.032-.143.223-.143.278 0zM138.113 107.723l1.328 2.687 2.974.438-2.147 2.091.501 2.958-2.656-1.399-2.656 1.399.509-2.958-2.147-2.091 2.966-.438 1.328-2.687zM123.127 122.296a2.384 2.384 0 100-4.768 2.384 2.384 0 000 4.768z" fill="#6E6BCD"/><defs><linearGradient id="paint0_linear" x1="25.883" y1="148.519" x2="25.883" y2="202.118" gradientUnits="userSpaceOnUse"><stop offset="0" stop-color="#1B1868"/><stop offset="1" stop-color="#1C1C4F"/></linearGradient><linearGradient id="paint1_linear" x1="80" y1="106.5" x2="80" y2="198.5" gradientUnits="userSpaceOnUse"><stop offset="0" stop-color="#1E1B6D"/><stop offset="1" stop-color="#1C1C4F"/></linearGradient><linearGradient id="paint2_linear" x1="74.5" y1="160.5" x2="324.12" y2="13.38" gradientUnits="userSpaceOnUse"><stop stop-color="#211E74"/><stop offset="1" stop-color="#7C78DC"/></linearGradient><clipPath id="clip0"><path fill="#fff" transform="translate(118.066 151.562)" d="M0 0h50.297v51.495H0z"/></clipPath></defs></svg>