<svg width="110" height="110" fill="none" xmlns="http://www.w3.org/2000/svg"><g clip-path="url(#clip0)"><path d="M75.01 39.824l-16.617-9.515a6.372 6.372 0 00-6.386.02L35.45 39.96a6.408 6.408 0 00-3.178 5.533l.065 19.157a6.417 6.417 0 003.218 5.524l16.613 9.513a6.377 6.377 0 006.392-.019l16.56-9.632a6.427 6.427 0 003.162-5.543l-.065-19.156a6.421 6.421 0 00-3.206-5.512z" fill="#FF7272" fill-opacity=".2"/><path fill-rule="evenodd" clip-rule="evenodd" d="M57.895 31.176a5.37 5.37 0 00-5.384.017h-.002l-16.555 9.63a5.412 5.412 0 00-2.681 4.667v.002l.064 19.15v.002a5.417 5.417 0 002.716 4.661l16.614 9.514a5.376 5.376 0 005.389-.015l16.556-9.63.003-.002a5.427 5.427 0 002.667-4.677v-.002l-.065-19.15v-.001a5.421 5.421 0 00-2.705-4.651l-.002-.001-16.615-9.514zm17.116 8.648a6.42 6.42 0 013.206 5.512l.065 19.156a6.427 6.427 0 01-3.161 5.543L58.56 79.668a6.376 6.376 0 01-6.392.018l-16.613-9.513a6.418 6.418 0 01-3.218-5.525l-.065-19.156a6.408 6.408 0 013.178-5.533l16.557-9.63a6.373 6.373 0 016.387-.02l16.617 9.515z" fill="url(#paint0_linear)"/><path d="M67.474 45.62l-10.27-5.881a3.938 3.938 0 00-3.948.012l-10.233 5.952a3.96 3.96 0 00-1.964 3.42l.04 11.84a3.966 3.966 0 001.989 3.416l10.267 5.88a3.941 3.941 0 003.95-.012l10.236-5.953a3.971 3.971 0 001.954-3.427l-.04-11.84a3.968 3.968 0 00-1.981-3.407z" fill="#FF6D6D" fill-opacity=".2"/><path d="M126.211 39.65l-16.618-9.515a6.373 6.373 0 00-6.387.02l-16.556 9.63a6.407 6.407 0 00-3.178 5.535l.065 19.156a6.415 6.415 0 003.218 5.525l16.613 9.512a6.378 6.378 0 006.392-.018l16.561-9.633a6.433 6.433 0 003.161-5.542l-.065-19.156a6.427 6.427 0 00-3.206-5.514z" fill="#FF7272" fill-opacity=".2"/><path fill-rule="evenodd" clip-rule="evenodd" d="M109.095 31.002a5.373 5.373 0 00-5.385.017h-.001l-16.555 9.63a5.41 5.41 0 00-2.682 4.669v.002l.065 19.15v.001a5.415 5.415 0 002.716 4.662l16.614 9.514a5.376 5.376 0 005.389-.016l16.556-9.63.003-.001a5.427 5.427 0 002.667-4.677v-.002l-.065-19.15v-.002a5.418 5.418 0 00-2.705-4.652l-.002-.001-16.615-9.514zm17.116 8.648a6.43 6.43 0 013.206 5.514l.065 19.156a6.433 6.433 0 01-3.161 5.542l-16.561 9.633a6.377 6.377 0 01-6.392.018L86.755 70a6.416 6.416 0 01-3.218-5.524l-.065-19.156a6.406 6.406 0 013.178-5.535l16.556-9.63a6.376 6.376 0 016.387-.02l16.618 9.515z" fill="url(#paint1_linear)"/><path d="M118.672 45.446l-10.27-5.881a3.938 3.938 0 00-3.947.013l-10.233 5.951a3.962 3.962 0 00-1.964 3.42l.04 11.84a3.965 3.965 0 001.989 3.416l10.267 5.88a3.94 3.94 0 003.95-.012l10.236-5.953a3.98 3.98 0 001.954-3.426l-.04-11.84a3.968 3.968 0 00-1.982-3.408z" fill="#FF6D6D" fill-opacity=".2"/><path d="M23.011 40L6.394 30.484a6.371 6.371 0 00-6.387.021l-16.556 9.63a6.408 6.408 0 00-3.178 5.533l.065 19.156a6.416 6.416 0 003.218 5.525L.169 79.86a6.376 6.376 0 006.391-.018l16.561-9.632a6.428 6.428 0 003.162-5.543l-.065-19.156A6.421 6.421 0 0023.01 40z" fill="#FF7272" fill-opacity=".2"/><path fill-rule="evenodd" clip-rule="evenodd" d="M5.895 31.351a5.372 5.372 0 00-5.384.018H.51L-16.045 41a5.41 5.41 0 00-2.682 4.667v.002l.065 19.15v.002a5.416 5.416 0 002.716 4.662L.667 78.995a5.376 5.376 0 005.39-.016l16.556-9.63.002-.001a5.426 5.426 0 002.668-4.679l-.065-19.15v-.001a5.422 5.422 0 00-2.707-4.653L5.895 31.351zm20.323 14.16l.065 19.157a6.428 6.428 0 01-3.162 5.543l-16.56 9.632a6.377 6.377 0 01-6.392.018l-16.613-9.513a6.416 6.416 0 01-3.218-5.524l-.065-19.156a6.408 6.408 0 013.178-5.533l16.556-9.63a6.372 6.372 0 016.387-.02L23.01 40a6.421 6.421 0 013.207 5.512z" fill="url(#paint2_linear)"/><path d="M15.474 45.797l-10.27-5.88a3.938 3.938 0 00-3.948.012l-10.232 5.952a3.961 3.961 0 00-1.965 3.42l.04 11.84a3.966 3.966 0 001.99 3.416l10.266 5.88a3.94 3.94 0 003.95-.012l10.236-5.954a3.972 3.972 0 001.954-3.425l-.04-11.84a3.969 3.969 0 00-1.981-3.409z" fill="#FF6D6D" fill-opacity=".2"/><path d="M100.491-5.775L83.874-15.29a6.37 6.37 0 00-6.387.02L60.931-5.64a6.408 6.408 0 00-3.178 5.533l.065 19.157a6.417 6.417 0 003.218 5.524l16.613 9.513a6.376 6.376 0 006.392-.018l16.56-9.633a6.422 6.422 0 003.162-5.542l-.065-19.156a6.423 6.423 0 00-3.207-5.512z" fill="#FF7272" fill-opacity=".2"/><path fill-rule="evenodd" clip-rule="evenodd" d="M83.376-14.424a5.37 5.37 0 00-5.385.018h-.001l-16.555 9.63A5.41 5.41 0 0058.753-.11v.002l.065 19.15v.001a5.416 5.416 0 002.717 4.662l16.613 9.513a5.375 5.375 0 005.389-.015l16.556-9.63.002-.001a5.43 5.43 0 002.668-4.677v-.002l-.065-19.15v-.002a5.423 5.423 0 00-2.705-4.65l-.002-.001-16.615-9.515zm17.115 8.65a6.42 6.42 0 013.207 5.51l.065 19.157a6.424 6.424 0 01-3.162 5.542l-16.56 9.633a6.376 6.376 0 01-6.392.018l-16.613-9.513a6.417 6.417 0 01-3.218-5.524L57.753-.108a6.409 6.409 0 013.178-5.532l16.556-9.63a6.37 6.37 0 016.387-.02l16.617 9.515z" fill="url(#paint3_linear)"/><path d="M92.954.02l-10.27-5.88a3.938 3.938 0 00-3.947.012L68.504.104a3.96 3.96 0 00-1.964 3.42l.04 11.84a3.966 3.966 0 001.988 3.415l10.268 5.88a3.94 3.94 0 003.95-.011l10.236-5.954a3.973 3.973 0 001.954-3.425l-.04-11.84A3.969 3.969 0 0092.954.02z" fill="#FF6D6D" fill-opacity=".2"/><path d="M88.296 3.603L81.948-.032a2.434 2.434 0 00-2.44.008l-6.323 3.679a2.448 2.448 0 00-1.214 2.114l.025 7.317a2.451 2.451 0 001.23 2.11l6.345 3.634a2.436 2.436 0 002.442-.007l6.325-3.68a2.455 2.455 0 001.208-2.116l-.025-7.318a2.454 2.454 0 00-1.225-2.106z" fill="#FFDD0F"/><path d="M48.394-5.6l-16.617-9.515a6.371 6.371 0 00-6.387.02L8.834-5.464A6.408 6.408 0 005.656.069l.065 19.157a6.417 6.417 0 003.218 5.524l16.612 9.513a6.378 6.378 0 006.392-.018l16.56-9.633a6.426 6.426 0 003.162-5.542L51.6-.088A6.422 6.422 0 0048.394-5.6z" fill="#FF7272" fill-opacity=".2"/><path fill-rule="evenodd" clip-rule="evenodd" d="M31.278-14.248a5.37 5.37 0 00-5.384.017l-.001.001L9.338-4.6s0-.001 0 0A5.411 5.411 0 006.656.066v.001l.065 19.15v.002a5.417 5.417 0 002.715 4.661l.001.001 16.613 9.513a5.377 5.377 0 005.39-.015l16.556-9.63.003-.002a5.427 5.427 0 002.666-4.678L50.6-.08v-.003a5.42 5.42 0 00-2.705-4.65l-.002-.001-16.615-9.514zM48.394-5.6A6.42 6.42 0 0151.6-.088l.065 19.157a6.427 6.427 0 01-3.161 5.542l-16.56 9.633a6.376 6.376 0 01-6.393.018L8.94 24.749a6.417 6.417 0 01-3.218-5.524L5.656.068a6.408 6.408 0 013.178-5.532l16.556-9.63a6.372 6.372 0 016.386-.021L48.394-5.6z" fill="url(#paint4_linear)"/><path d="M100.491 85.424l-16.617-9.516a6.37 6.37 0 00-6.387.021l-16.556 9.63a6.408 6.408 0 00-3.178 5.534l.065 19.156a6.416 6.416 0 003.218 5.525l16.613 9.513a6.375 6.375 0 006.392-.018l16.56-9.633a6.436 6.436 0 002.318-2.351 6.433 6.433 0 00.844-3.191l-.065-19.157a6.427 6.427 0 00-3.207-5.513z" fill="#FF7272" fill-opacity=".2"/><path fill-rule="evenodd" clip-rule="evenodd" d="M84.04 125.269l16.561-9.633a6.436 6.436 0 002.318-2.351 6.433 6.433 0 00.844-3.191l-.065-19.157a6.427 6.427 0 00-3.207-5.513l-16.617-9.516a6.37 6.37 0 00-6.387.021l-16.556 9.63a6.408 6.408 0 00-3.178 5.534l.065 19.156a6.416 6.416 0 003.218 5.525l16.613 9.513a6.375 6.375 0 006.392-.018zm-22.505-10.362l16.613 9.513a5.372 5.372 0 005.389-.015l16.556-9.63.003-.002a5.427 5.427 0 002.667-4.677v-.001l-.065-19.15v-.002a5.419 5.419 0 00-2.705-4.653h-.002l-16.615-9.515a5.37 5.37 0 00-5.385.018h-.001l-16.555 9.63a5.41 5.41 0 00-2.682 4.668v.002l.065 19.15v.002a5.418 5.418 0 002.717 4.662z" fill="url(#paint5_linear)"/><path d="M92.954 91.103l-10.27-5.88a3.938 3.938 0 00-3.947.013l-10.233 5.952a3.96 3.96 0 00-1.964 3.42l.04 11.84a3.965 3.965 0 001.988 3.414l10.268 5.879a3.94 3.94 0 003.95-.011l10.236-5.953a3.975 3.975 0 001.954-3.426l-.04-11.84a3.969 3.969 0 00-1.982-3.408z" fill="#FF6D6D" fill-opacity=".2"/><path d="M88.296 94.802l-6.348-3.634a2.434 2.434 0 00-2.44.007l-6.323 3.679a2.45 2.45 0 00-1.214 2.114l.025 7.317a2.449 2.449 0 001.23 2.11l6.345 3.634a2.437 2.437 0 002.442-.007l6.325-3.679a2.456 2.456 0 001.208-2.117l-.025-7.318a2.454 2.454 0 00-1.225-2.106z" fill="#FFDD0F"/><path d="M48.492 85.601l-16.618-9.515a6.37 6.37 0 00-6.386.02L8.93 85.737a6.408 6.408 0 00-3.177 5.535l.064 19.156a6.42 6.42 0 003.218 5.525l16.613 9.512a6.376 6.376 0 006.392-.018l16.56-9.632a6.43 6.43 0 003.162-5.543l-.065-19.156a6.421 6.421 0 00-3.206-5.514z" fill="#FF7272" fill-opacity=".2"/><path fill-rule="evenodd" clip-rule="evenodd" d="M31.376 76.953a5.372 5.372 0 00-5.384.017l-.002.001-16.555 9.63a5.41 5.41 0 00-2.681 4.668v.002l.064 19.15v.001a5.416 5.416 0 002.717 4.663l16.613 9.513a5.372 5.372 0 005.39-.015l16.556-9.631.003-.001a5.426 5.426 0 002.666-4.677v-.002l-.065-19.15v-.002a5.421 5.421 0 00-2.705-4.652l-.002-.001-16.615-9.514zm17.116 8.648a6.421 6.421 0 013.206 5.514l.065 19.156a6.431 6.431 0 01-3.161 5.543l-16.561 9.632a6.367 6.367 0 01-6.392.018l-16.613-9.512a6.426 6.426 0 01-3.218-5.525l-.064-19.156a6.408 6.408 0 013.177-5.534l16.557-9.63a6.37 6.37 0 016.386-.02L48.492 85.6z" fill="url(#paint6_linear)"/><path d="M15.354 10.596L5.083 4.716a3.938 3.938 0 00-3.948.012L-9.097 10.68a3.96 3.96 0 00-1.964 3.42l.04 11.84a3.964 3.964 0 001.988 3.415l10.268 5.88a3.94 3.94 0 003.95-.011L15.42 29.27a3.972 3.972 0 001.955-3.425l-.04-11.84a3.968 3.968 0 00-1.98-3.409z" fill="#FFDD0F"/><path d="M40.82.02L30.55-5.86a3.938 3.938 0 00-3.947.012L16.37.104a3.96 3.96 0 00-1.964 3.42l.04 11.84a3.966 3.966 0 001.989 3.415l10.268 5.88a3.94 3.94 0 003.95-.011l10.235-5.954a3.972 3.972 0 001.955-3.425l-.04-11.84A3.969 3.969 0 0040.82.02zM40.82 90.985l-10.27-5.881a3.938 3.938 0 00-3.947.013L16.37 91.069a3.96 3.96 0 00-1.964 3.42l.04 11.84a3.969 3.969 0 001.989 3.415l10.268 5.88a3.939 3.939 0 003.95-.011l10.235-5.954a3.967 3.967 0 001.955-3.426l-.04-11.839a3.969 3.969 0 00-1.982-3.409z" fill="#FF6D6D" fill-opacity=".2"/></g><circle cx="55" cy="55" r="54" stroke="#FF6D6D" stroke-width="2"/><circle cx="79.636" cy="83.636" r="21.636" fill="#fff"/><circle cx="79.636" cy="83.636" r="21.636" fill="#452858"/><circle cx="79.636" cy="83.636" r="21.136" stroke="url(#paint7_linear)"/><path d="M89.335 75.062l-1.124-1.124-8.575 8.575-8.574-8.576-1.125 1.125 8.575 8.575-8.575 8.574 1.125 1.125 8.574-8.575 8.575 8.575 1.124-1.125-8.575-8.574 8.575-8.575z" fill="#FF6D6D" stroke="#FF6D6D"/><defs><linearGradient id="paint0_linear" x1="55.277" y1="13.69" x2="55.277" y2="101.429" gradientUnits="userSpaceOnUse"><stop stop-color="#FF6D6D"/><stop offset="1" stop-color="#FF6D6D" stop-opacity="0"/></linearGradient><linearGradient id="paint1_linear" x1="106.477" y1="-6.501" x2="106.477" y2="101.258" gradientUnits="userSpaceOnUse"><stop stop-color="#FF7163"/><stop offset="1" stop-color="#FF7C7C" stop-opacity="0"/></linearGradient><linearGradient id="paint2_linear" x1="3.278" y1="-4.502" x2="3.278" y2="101.605" gradientUnits="userSpaceOnUse"><stop stop-color="#FF7163"/><stop offset="1" stop-color="#FF7C7C" stop-opacity="0"/></linearGradient><linearGradient id="paint3_linear" x1="80.758" y1="-8.013" x2="80.758" y2="55.83" gradientUnits="userSpaceOnUse"><stop stop-color="#FF6D6D"/><stop offset="1" stop-color="#FF6D6D" stop-opacity="0"/></linearGradient><linearGradient id="paint4_linear" x1="28.661" y1="-7.837" x2="28.661" y2="56.006" gradientUnits="userSpaceOnUse"><stop stop-color="#FF7163"/><stop offset="1" stop-color="#FF7C7C" stop-opacity="0"/></linearGradient><linearGradient id="paint5_linear" x1="80.758" y1="42.998" x2="80.758" y2="147.031" gradientUnits="userSpaceOnUse"><stop stop-color="#FF7163"/><stop offset="1" stop-color="#FF7C7C" stop-opacity="0"/></linearGradient><linearGradient id="paint6_linear" x1="28.758" y1="26" x2="28.758" y2="147.209" gradientUnits="userSpaceOnUse"><stop stop-color="#FF7163"/><stop offset="1" stop-color="#FF7C7C" stop-opacity="0"/></linearGradient><linearGradient id="paint7_linear" x1="79.636" y1="68.884" x2="79.636" y2="122.975" gradientUnits="userSpaceOnUse"><stop stop-color="#FF6D6D"/><stop offset="1" stop-color="#FF6D6D" stop-opacity="0"/></linearGradient><clipPath id="clip0"><rect x="13.277" y="13" width="84" height="84" rx="42" fill="#fff"/></clipPath></defs></svg>