<svg width="110" height="110" viewBox="0 0 110 110" fill="none" xmlns="http://www.w3.org/2000/svg">
<g clip-path="url(#clip0)">
<path d="M74.6475 39.451L58.0302 29.9356C57.058 29.3767 55.9554 29.0843 54.834 29.0879C53.7126 29.0915 52.612 29.391 51.6433 29.9562L35.0871 39.5862C34.1203 40.1504 33.3181 40.9581 32.7606 41.9288C32.203 42.8996 31.9094 43.9994 31.9092 45.1189L31.9741 64.2755C31.9809 65.3972 32.2815 66.4976 32.8462 67.4669C33.4108 68.4362 34.2196 69.2405 35.1921 69.7997L51.8045 79.3125C52.7773 79.8723 53.8805 80.1654 55.0028 80.1622C56.1251 80.159 57.2267 79.8597 58.1962 79.2945L74.7573 69.6617C75.7212 69.0931 76.5199 68.2826 77.0744 67.3106C77.6289 66.3385 77.92 65.2385 77.9188 64.1194L77.8536 44.963C77.8456 43.8446 77.5455 42.7477 76.9831 41.7809C76.4208 40.8141 75.6157 40.0109 74.6475 39.451Z" fill="#38CCB6" fill-opacity="0.2"/>
<path fill-rule="evenodd" clip-rule="evenodd" d="M57.5318 30.8025C56.7122 30.3314 55.7827 30.0849 54.8372 30.0879C53.8918 30.091 52.9639 30.3435 52.1473 30.8199L52.1461 30.8206L35.5912 40.4498C34.7756 40.926 34.0981 41.608 33.6277 42.4269C33.1574 43.2456 32.9097 44.1732 32.9092 45.1174L32.9092 45.1191L32.9741 64.2695L32.9741 64.2707C32.98 65.2172 33.2338 66.1457 33.7102 66.9635C34.1868 67.7816 34.8693 68.4604 35.6899 68.9325L52.3033 78.4458C53.1235 78.9178 54.0537 79.1649 55 79.1622C55.9462 79.1595 56.8751 78.9071 57.6926 78.4306L74.2492 68.8004L74.252 68.7987C75.0646 68.3187 75.7381 67.635 76.2058 66.8151C76.6737 65.9947 76.9195 65.0665 76.9188 64.1221V64.1204L76.8536 44.9702L76.8536 44.9687C76.8466 44.025 76.5932 43.0994 76.1187 42.2837C75.6443 41.468 74.9652 40.7903 74.1487 40.3176L74.1469 40.3166L57.5318 30.8025ZM74.6475 39.451C75.6157 40.0109 76.4208 40.8141 76.9831 41.7809C77.5455 42.7477 77.8456 43.8446 77.8536 44.963L77.9188 64.1194C77.92 65.2385 77.6289 66.3385 77.0744 67.3106C76.5199 68.2826 75.7212 69.0931 74.7573 69.6617L58.1962 79.2945C57.2267 79.8597 56.1251 80.159 55.0028 80.1622C53.8805 80.1654 52.7773 79.8723 51.8045 79.3125L35.1921 69.7997C34.2196 69.2405 33.4108 68.4362 32.8462 67.4669C32.2815 66.4976 31.9809 65.3972 31.9741 64.2755L31.9092 45.1189C31.9094 43.9994 32.203 42.8996 32.7606 41.9288C33.3181 40.9581 34.1203 40.1504 35.0871 39.5862L51.6433 29.9562C52.612 29.391 53.7126 29.0915 54.834 29.0879C55.9554 29.0843 57.058 29.3767 58.0302 29.9356L74.6475 39.451Z" fill="url(#paint0_linear)"/>
<path d="M67.1104 45.2467L56.84 39.3657C56.2391 39.0203 55.5576 38.8396 54.8645 38.8418C54.1715 38.844 53.4912 39.0291 52.8925 39.3784L42.6602 45.3303C42.0624 45.679 41.5666 46.1784 41.2219 46.7785C40.8773 47.3786 40.696 48.0586 40.696 48.7506L40.7362 60.5903C40.74 61.2838 40.9256 61.9641 41.2745 62.5634C41.6234 63.1628 42.1234 63.6601 42.7245 64.0059L52.9919 69.8855C53.5931 70.2314 54.275 70.4126 54.9687 70.4106C55.6623 70.4086 56.3431 70.2236 56.9424 69.8742L67.1778 63.9207C67.7738 63.5692 68.2677 63.068 68.6105 62.467C68.9532 61.8659 69.1331 61.1857 69.1321 60.4938L69.092 48.6541C69.0871 47.9627 68.9017 47.2847 68.5542 46.687C68.2066 46.0893 67.7089 45.5928 67.1104 45.2467Z" fill="#2BC58E" fill-opacity="0.2"/>
<path d="M125.847 39.277L109.23 29.7619C108.258 29.203 107.155 28.9105 106.034 28.9141C104.912 28.9177 103.812 29.2171 102.843 29.7822L86.2868 39.4125C85.3198 39.9769 84.5176 40.7848 83.96 41.7558C83.4025 42.7268 83.1091 43.8269 83.1091 44.9466L83.174 64.1029C83.1807 65.2247 83.4814 66.3252 84.046 67.2945C84.6107 68.2638 85.4196 69.0682 86.3921 69.6274L103.005 79.1403C103.978 79.7 105.081 79.9931 106.203 79.9899C107.325 79.9867 108.427 79.6874 109.396 79.1222L125.957 69.4894C126.921 68.9208 127.72 68.1103 128.274 67.1383C128.829 66.1662 129.12 65.0662 129.119 63.9471L129.054 44.7908C129.046 43.672 128.746 42.5748 128.184 41.6077C127.621 40.6405 126.816 39.8371 125.847 39.277Z" fill="#2BC58E" fill-opacity="0.2"/>
<path fill-rule="evenodd" clip-rule="evenodd" d="M108.732 30.6288C107.912 30.1576 106.982 29.9111 106.037 29.9141C105.092 29.9171 104.164 30.1696 103.347 30.646L103.346 30.6466L86.7909 40.2761C86.7907 40.2762 86.7911 40.276 86.7909 40.2761C85.9751 40.7524 85.2976 41.4345 84.8272 42.2538C84.357 43.0727 84.1094 44.0006 84.1091 44.9449C84.1091 44.9455 84.1091 44.946 84.1091 44.9466L84.174 64.097C84.174 64.0974 84.174 64.0978 84.174 64.0982C84.1799 65.0447 84.4337 65.9732 84.9101 66.7912C85.3865 67.6091 86.069 68.2878 86.8894 68.7598C86.8898 68.7601 86.8902 68.7603 86.8906 68.7605L103.504 78.2735C104.324 78.7455 105.254 78.9926 106.2 78.9899C107.147 78.9872 108.075 78.7349 108.893 78.2583L125.449 68.6281C125.45 68.6276 125.451 68.6271 125.452 68.6266C126.264 68.1465 126.938 67.4627 127.406 66.6428C127.874 65.8224 128.119 64.8942 128.119 63.9498C128.119 63.9492 128.119 63.9487 128.119 63.9481L128.054 44.7978C128.054 44.7972 128.054 44.7966 128.054 44.796C128.047 43.8521 127.794 42.9264 127.319 42.1104C126.845 41.2945 126.165 40.6165 125.349 40.1437C125.348 40.1433 125.347 40.143 125.347 40.1426L108.732 30.6288ZM125.847 39.277C126.816 39.8371 127.621 40.6405 128.184 41.6077C128.746 42.5748 129.046 43.672 129.054 44.7908L129.119 63.9471C129.12 65.0662 128.829 66.1662 128.274 67.1383C127.72 68.1103 126.921 68.9208 125.957 69.4894L109.396 79.1222C108.427 79.6874 107.325 79.9867 106.203 79.9899C105.081 79.9931 103.978 79.7 103.005 79.1403L86.3921 69.6274C85.4196 69.0682 84.6107 68.2638 84.046 67.2945C83.4814 66.3252 83.1807 65.2247 83.174 64.1029L83.1091 44.9466C83.1091 43.8269 83.4025 42.7268 83.96 41.7558C84.5176 40.7848 85.3198 39.9769 86.2868 39.4125L102.843 29.7822C103.812 29.2171 104.912 28.9177 106.034 28.9141C107.155 28.9105 108.258 29.203 109.23 29.7619L125.847 39.277Z" fill="url(#paint1_linear)"/>
<path d="M118.309 45.0726L108.039 39.1919C107.438 38.8465 106.756 38.6658 106.063 38.668C105.37 38.6702 104.69 38.8553 104.091 39.2046L93.8586 45.1565C93.261 45.5053 92.7652 46.0047 92.4206 46.6048C92.076 47.2049 91.8946 47.8848 91.8945 48.5768L91.9349 60.4162C91.9387 61.1097 92.1244 61.7901 92.4733 62.3894C92.8222 62.9887 93.3221 63.4861 93.9233 63.8318L104.191 69.7111C104.792 70.0572 105.474 70.2384 106.167 70.2364C106.861 70.2345 107.542 70.0495 108.141 69.7001L118.376 63.7466C118.972 63.3952 119.466 62.8943 119.809 62.2935C120.151 61.6927 120.331 61.0128 120.331 60.3211L120.29 48.4814C120.286 47.7899 120.101 47.1115 119.753 46.5136C119.405 45.9157 118.908 45.4189 118.309 45.0726Z" fill="#2BC58E" fill-opacity="0.2"/>
<path d="M22.648 39.6267L6.03048 30.1114C5.05823 29.5525 3.95572 29.2601 2.8343 29.2637C1.71287 29.2673 0.612246 29.5668 -0.356377 30.132L-16.9127 39.7619C-17.8795 40.3262 -18.6816 41.134 -19.2391 42.1047C-19.7966 43.0754 -20.0901 44.1752 -20.0903 45.2946L-20.0253 64.4513C-20.0186 65.573 -19.718 66.6734 -19.1534 67.6427C-18.5887 68.612 -17.7798 69.4163 -16.8074 69.9755L-0.194632 79.4883C0.778107 80.048 1.88134 80.3411 3.00362 80.338C4.1259 80.3348 5.22742 80.0355 6.19698 79.4702L22.7578 69.8377C23.7217 69.269 24.5204 68.4586 25.0749 67.4864C25.6294 66.5143 25.9205 65.4143 25.9194 64.2952L25.8544 45.1388C25.8463 44.0204 25.5462 42.9234 24.9838 41.9566C24.4214 40.9898 23.6162 40.1867 22.648 39.6267Z" fill="#2BC58E" fill-opacity="0.2"/>
<path fill-rule="evenodd" clip-rule="evenodd" d="M5.53212 30.9783C4.71245 30.5072 3.78296 30.2606 2.83752 30.2637C1.89207 30.2668 0.964176 30.5192 0.147566 30.9957L0.146408 30.9964L-16.4086 40.6256C-16.4089 40.6258 -16.4083 40.6254 -16.4086 40.6256C-17.2241 41.1018 -17.9016 41.7838 -18.3719 42.6027C-18.8422 43.4214 -19.0898 44.349 -19.0903 45.2931C-19.0903 45.2937 -19.0903 45.2943 -19.0903 45.2948L-19.0254 64.4453C-19.0254 64.4457 -19.0254 64.4461 -19.0254 64.4466C-19.0195 65.393 -18.7657 66.3215 -18.2893 67.1393C-17.8126 67.9575 -17.1299 68.6365 -16.3091 69.1085C-16.309 69.1085 -16.3091 69.1085 -16.3091 69.1085L0.304119 78.6216C1.1243 79.0935 2.05452 79.3406 3.0008 79.338C3.94707 79.3353 4.87583 79.0829 5.69334 78.6063L22.2497 68.9765C22.2505 68.976 22.2513 68.9755 22.2522 68.975C23.065 68.4949 23.7385 67.811 24.2062 66.991C24.6745 66.1701 24.9203 65.2413 24.9194 64.2964C24.9194 64.2963 24.9194 64.2964 24.9194 64.2964L24.8545 45.1461C24.8545 45.1456 24.8545 45.1451 24.8545 45.1446C24.8473 44.2009 24.5939 43.2753 24.1194 42.4595C23.6449 41.6438 22.9657 40.9661 22.1491 40.4934C22.1485 40.4931 22.1479 40.4927 22.1473 40.4924L5.53212 30.9783ZM25.8544 45.1388L25.9194 64.2952C25.9205 65.4143 25.6294 66.5143 25.0749 67.4864C24.5204 68.4586 23.7217 69.269 22.7578 69.8377L6.19698 79.4702C5.22742 80.0355 4.1259 80.3348 3.00362 80.338C1.88134 80.3411 0.778107 80.048 -0.194632 79.4883L-16.8074 69.9755C-17.7798 69.4163 -18.5887 68.612 -19.1534 67.6427C-19.718 66.6734 -20.0186 65.573 -20.0253 64.4513L-20.0903 45.2946C-20.0901 44.1752 -19.7966 43.0754 -19.2391 42.1047C-18.6816 41.134 -17.8795 40.3262 -16.9127 39.7619L-0.356377 30.132C0.612246 29.5668 1.71287 29.2673 2.8343 29.2637C3.95572 29.2601 5.05823 29.5525 6.03048 30.1114L22.648 39.6267C23.6162 40.1867 24.4214 40.9898 24.9838 41.9566C25.5462 42.9234 25.8463 44.0204 25.8544 45.1388Z" fill="url(#paint2_linear)"/>
<path d="M15.1106 45.4244L4.84041 39.5437C4.23956 39.1982 3.55818 39.0174 2.86507 39.0196C2.17196 39.0217 1.49171 39.2068 0.893041 39.5561L-9.33961 45.508C-9.93727 45.8568 -10.4331 46.3562 -10.7777 46.9563C-11.1224 47.5564 -11.3037 48.2363 -11.3037 48.9284L-11.2634 60.768C-11.2596 61.4615 -11.0739 62.1419 -10.725 62.7412C-10.3761 63.3405 -9.87612 63.8379 -9.27496 64.1836L0.992349 70.0632C1.59354 70.4091 2.2754 70.5902 2.969 70.5883C3.6626 70.5863 4.34341 70.4013 4.94261 70.0519L15.1781 64.0984C15.7738 63.747 16.2675 63.2462 16.6102 62.6454C16.953 62.0447 17.1329 61.3648 17.1323 60.6732L17.0922 48.8335C17.0876 48.1419 16.9023 47.4634 16.5547 46.8655C16.2072 46.2675 15.7093 45.7707 15.1106 45.4244Z" fill="#2BC58E" fill-opacity="0.2"/>
<path d="M100.128 -6.14796L83.5109 -15.6639C82.5387 -16.2229 81.4362 -16.5153 80.3147 -16.5117C79.1933 -16.5081 78.0926 -16.2085 77.1241 -15.6433L60.5677 -6.01331C59.6009 -5.44905 58.7988 -4.64135 58.2412 -3.67064C57.6836 -2.69992 57.3902 -1.60007 57.3899 -0.480627L57.4551 18.6757C57.4617 19.7975 57.7624 20.898 58.327 21.8673C58.8917 22.8367 59.7005 23.641 60.6731 24.2002L77.2858 33.7131C78.2585 34.2728 79.3618 34.5659 80.4841 34.5628C81.6063 34.5596 82.7079 34.2603 83.6775 33.695L100.238 24.0622C101.202 23.4936 102.001 22.6831 102.555 21.7111C103.11 20.739 103.401 19.639 103.4 18.5199L103.335 -0.636446C103.327 -1.75481 103.026 -2.85162 102.464 -3.8183C101.901 -4.78498 101.096 -5.58803 100.128 -6.14796Z" fill="#2BC58E" fill-opacity="0.2"/>
<path fill-rule="evenodd" clip-rule="evenodd" d="M83.0125 -14.797C82.1929 -15.2682 81.2634 -15.5147 80.318 -15.5117C79.3725 -15.5086 78.4446 -15.2561 77.6281 -14.7796L77.6268 -14.7789L61.0718 -5.14964C61.0715 -5.14948 61.0721 -5.14981 61.0718 -5.14964C60.2562 -4.67346 59.5787 -3.99151 59.1083 -3.17256C58.6381 -2.35387 58.3904 -1.4263 58.3899 -0.482128C58.3899 -0.481548 58.3899 -0.48097 58.3899 -0.480391L58.4551 18.6698C58.4551 18.6702 58.4551 18.6706 58.4551 18.671C58.4609 19.6176 58.7147 20.5461 59.1911 21.364C59.6677 22.1822 60.3505 22.8612 61.1713 23.3332C61.1714 23.3332 61.1713 23.3332 61.1713 23.3332L77.7846 32.8463C78.6047 33.3183 79.535 33.5654 80.4812 33.5628C81.4275 33.5601 82.3563 33.3077 83.1738 32.8311L83.1747 32.8306L99.7301 23.2009C99.7309 23.2005 99.7316 23.2001 99.7323 23.1996C100.545 22.7196 101.219 22.0357 101.687 21.2156C102.155 20.3952 102.4 19.467 102.4 18.5226C102.4 18.522 102.4 18.5215 102.4 18.5209L102.335 -0.629003C102.335 -0.629719 102.335 -0.630436 102.335 -0.631152C102.327 -1.57461 102.074 -2.49985 101.599 -3.31541C101.125 -4.13092 100.446 -4.80849 99.6294 -5.28119C99.6288 -5.28156 99.6281 -5.28194 99.6275 -5.28232L83.0125 -14.797ZM100.128 -6.14796C101.096 -5.58803 101.901 -4.78498 102.464 -3.8183C103.026 -2.85162 103.327 -1.75481 103.335 -0.636446L103.4 18.5199C103.401 19.639 103.11 20.739 102.555 21.7111C102.001 22.6831 101.202 23.4936 100.238 24.0622L83.6775 33.695C82.7079 34.2603 81.6063 34.5596 80.4841 34.5628C79.3618 34.5659 78.2585 34.2728 77.2858 33.7131L60.6731 24.2002C59.7005 23.641 58.8917 22.8367 58.327 21.8673C57.7624 20.898 57.4617 19.7975 57.4551 18.6757L57.3899 -0.480627C57.3902 -1.60007 57.6836 -2.69992 58.2412 -3.67064C58.7988 -4.64135 59.6009 -5.44905 60.5677 -6.01331L77.1241 -15.6433C78.0926 -16.2085 79.1933 -16.5081 80.3147 -16.5117C81.4362 -16.5153 82.5387 -16.2229 83.5109 -15.6639L100.128 -6.14796Z" fill="url(#paint3_linear)"/>
<path d="M92.5909 -0.352859L82.3204 -6.23388C81.7195 -6.5793 81.0382 -6.76002 80.3451 -6.75779C79.652 -6.75556 78.9719 -6.57046 78.3733 -6.22118L68.1406 -0.269308C67.5429 0.0794525 67.047 0.578788 66.7023 1.17892C66.3577 1.77906 66.1764 2.45904 66.1765 3.15108L66.2166 14.9907C66.2204 15.6842 66.4061 16.3645 66.755 16.9639C67.1039 17.5632 67.6039 18.0605 68.205 18.4063L78.4726 24.2857C79.0738 24.6317 79.7556 24.8129 80.4492 24.811C81.1429 24.8091 81.8237 24.6241 82.4228 24.2747L92.6583 18.3211C93.2541 17.9697 93.7478 17.4688 94.0905 16.868C94.4333 16.2672 94.6133 15.5873 94.6126 14.8956L94.5725 3.05623C94.5679 2.36458 94.3826 1.68614 94.035 1.08816C93.6874 0.49018 93.1896 -0.00657511 92.5909 -0.352859Z" fill="#2BC58E" fill-opacity="0.2"/>
<path d="M87.9327 3.22993L81.5845 -0.404705C81.2132 -0.618195 80.7921 -0.729891 80.3637 -0.728503C79.9354 -0.727115 79.515 -0.612693 79.145 -0.396802L72.822 3.28158C72.4526 3.49719 72.1461 3.80582 71.9332 4.17673C71.7202 4.54764 71.6081 4.96788 71.6082 5.39558L71.633 12.7131C71.6355 13.1416 71.7504 13.5619 71.966 13.9321C72.1817 14.3024 72.4906 14.6096 72.862 14.8232L79.2077 18.4569C79.5793 18.6708 80.0007 18.7828 80.4295 18.7816C80.8582 18.7804 81.279 18.6661 81.6494 18.4502L87.9753 14.7707C88.3435 14.5534 88.6486 14.2438 88.8604 13.8725C89.0723 13.5012 89.1835 13.0811 89.1832 12.6536L89.1584 5.33602C89.1552 4.90862 89.0405 4.48945 88.8255 4.12004C88.6105 3.75063 88.3027 3.44379 87.9327 3.22993Z" fill="#FFDD0F"/>
<path d="M48.0308 -5.97302L31.4132 -15.4881C30.4411 -16.0471 29.3386 -16.3395 28.2172 -16.3359C27.0958 -16.3323 25.9952 -16.0327 25.0266 -15.4675L8.4704 -5.83752C7.50357 -5.27326 6.70143 -4.46556 6.14387 -3.49484C5.5863 -2.52413 5.29275 -1.42429 5.29248 -0.304838L5.3574 18.8515C5.36408 19.9733 5.66475 21.0737 6.22939 22.0431C6.79403 23.0124 7.60294 23.8168 8.57543 24.376L25.1881 33.8889C26.1608 34.4486 27.2641 34.7417 28.3864 34.7385C29.5086 34.7353 30.6102 34.436 31.5798 33.8708L48.1406 24.238C49.1045 23.6694 49.9032 22.859 50.4577 21.8869C51.0122 20.9148 51.3033 19.8148 51.3021 18.6957L51.2372 -0.460657C51.2291 -1.57916 50.9291 -2.67616 50.3667 -3.64303C49.8043 -4.60989 48.9991 -5.41307 48.0308 -5.97302Z" fill="#2BC58E" fill-opacity="0.2"/>
<path fill-rule="evenodd" clip-rule="evenodd" d="M30.9148 -14.6212C30.0952 -15.0924 29.1658 -15.339 28.2204 -15.3359C27.275 -15.3329 26.3472 -15.0803 25.5307 -14.6038L25.5294 -14.6031L8.97446 -4.97385C8.97417 -4.97368 8.97474 -4.97401 8.97446 -4.97385C8.15889 -4.49767 7.48139 -3.81571 7.011 -2.99677C6.54073 -2.17804 6.29301 -1.25047 6.29248 -0.306335C6.29248 -0.305758 6.29248 -0.30518 6.29248 -0.304602L6.35738 18.8456C6.35738 18.846 6.35739 18.8464 6.35739 18.8468C6.36324 19.7933 6.61704 20.7218 7.09349 21.5398C7.56983 22.3575 8.25213 23.0362 9.07239 23.5082C9.0729 23.5085 9.07341 23.5088 9.07392 23.5091L25.6869 33.0221C26.507 33.4941 27.4373 33.7412 28.3835 33.7385C29.3298 33.7358 30.2586 33.4835 31.0762 33.0069L47.6325 23.3767C47.6334 23.3761 47.6344 23.3756 47.6353 23.375C48.448 22.895 49.1214 22.2113 49.5891 21.3914C50.0573 20.5706 50.3031 19.6418 50.3021 18.6969C50.3021 18.6968 50.3021 18.6969 50.3021 18.6969L50.2372 -0.453472C50.2372 -0.454302 50.2372 -0.455132 50.2372 -0.455961C50.23 -1.39943 49.9767 -2.32468 49.5023 -3.14022C49.0278 -3.9559 48.3487 -4.63359 47.532 -5.10629C47.5314 -5.10664 47.5308 -5.10699 47.5302 -5.10735L30.9148 -14.6212ZM48.0308 -5.97302C48.9991 -5.41307 49.8043 -4.60989 50.3667 -3.64303C50.9291 -2.67616 51.2291 -1.57916 51.2372 -0.460657L51.3021 18.6957C51.3033 19.8148 51.0122 20.9148 50.4577 21.8869C49.9032 22.859 49.1045 23.6694 48.1406 24.238L31.5798 33.8708C30.6102 34.436 29.5086 34.7353 28.3864 34.7385C27.2641 34.7417 26.1608 34.4486 25.1881 33.8889L8.57543 24.376C7.60294 23.8168 6.79403 23.0124 6.22939 22.0431C5.66475 21.0737 5.36408 19.9733 5.3574 18.8515L5.29248 -0.304838C5.29275 -1.42429 5.5863 -2.52413 6.14387 -3.49484C6.70143 -4.46556 7.50357 -5.27326 8.4704 -5.83752L25.0266 -15.4675C25.9952 -16.0327 27.0958 -16.3323 28.2172 -16.3359C29.3386 -16.3395 30.4411 -16.0471 31.4132 -15.4881L48.0308 -5.97302Z" fill="url(#paint4_linear)"/>
<path d="M100.128 85.0504L83.5109 75.5353C82.5387 74.9764 81.4362 74.6839 80.3147 74.6875C79.1933 74.6912 78.0926 74.9907 77.1241 75.5559L60.5677 85.1859C59.6007 85.7503 58.7984 86.5582 58.2409 87.5292C57.6833 88.5002 57.3899 89.6003 57.3899 90.72L57.4551 109.876C57.4617 110.998 57.7624 112.099 58.327 113.068C58.8917 114.037 59.7005 114.842 60.6731 115.401L77.2858 124.914C78.2585 125.473 79.3618 125.767 80.4841 125.763C81.6063 125.76 82.7079 125.461 83.6775 124.896L100.238 115.263C101.202 114.694 102.001 113.884 102.555 112.912C103.11 111.94 103.401 110.84 103.4 109.721L103.335 90.5642C103.327 89.4454 103.027 88.3482 102.464 87.381C101.902 86.4139 101.097 85.6105 100.128 85.0504Z" fill="#2BC58E" fill-opacity="0.2"/>
<path fill-rule="evenodd" clip-rule="evenodd" d="M83.6775 124.896L100.238 115.263C101.202 114.694 102.001 113.884 102.555 112.912C103.11 111.94 103.401 110.84 103.4 109.721L103.335 90.5642C103.327 89.4454 103.027 88.3482 102.464 87.381C101.902 86.4139 101.097 85.6105 100.128 85.0504L83.5109 75.5353C82.5387 74.9764 81.4362 74.6839 80.3147 74.6875C79.1933 74.6912 78.0926 74.9907 77.1241 75.5559L60.5677 85.1859C59.6007 85.7503 58.7984 86.5582 58.2409 87.5292C57.6833 88.5002 57.3899 89.6003 57.3899 90.72L57.4551 109.876C57.4617 110.998 57.7624 112.099 58.327 113.068C58.8917 114.037 59.7005 114.842 60.6731 115.401L77.2858 124.914C78.2585 125.473 79.3618 125.767 80.4841 125.763C81.6063 125.76 82.7079 125.461 83.6775 124.896ZM61.1715 114.534C61.1716 114.534 61.1715 114.534 61.1715 114.534L77.7845 124.047C78.6047 124.519 79.535 124.766 80.4812 124.763C81.4275 124.761 82.3563 124.508 83.1738 124.032L99.7302 114.402C99.731 114.401 99.7317 114.401 99.7325 114.4C100.545 113.92 101.219 113.236 101.687 112.416C102.155 111.596 102.4 110.668 102.4 109.723C102.4 109.723 102.4 109.722 102.4 109.722L102.335 90.5713C102.335 90.5707 102.335 90.5701 102.335 90.5696C102.328 89.6256 102.075 88.6998 101.6 87.8838C101.125 87.0679 100.446 86.3901 99.6295 85.9172C99.6288 85.9168 99.6282 85.9164 99.6275 85.9161L83.0125 76.4023C82.1929 75.931 81.2634 75.6845 80.318 75.6875C79.3725 75.6906 78.4446 75.9431 77.6281 76.4196L77.6268 76.4203L61.0718 86.0496C61.0715 86.0497 61.0721 86.0494 61.0718 86.0496C60.256 86.5258 59.5785 87.208 59.1081 88.0272C58.6378 88.8461 58.3902 89.774 58.3899 90.7184C58.3899 90.7189 58.3899 90.7195 58.3899 90.72L58.4551 109.87C58.4551 109.871 58.4551 109.871 58.4551 109.872C58.4609 110.818 58.7147 111.747 59.1911 112.565C59.6677 113.383 60.3506 114.062 61.1715 114.534Z" fill="url(#paint5_linear)"/>
<path d="M92.5909 90.7297L82.3204 84.8501C81.7195 84.5047 81.0382 84.324 80.3451 84.3262C79.652 84.3284 78.9719 84.5135 78.3733 84.8628L68.1406 90.8147C67.5429 91.1634 67.047 91.6628 66.7023 92.2629C66.3577 92.863 66.1764 93.543 66.1765 94.2351L66.2166 106.075C66.2207 106.768 66.4065 107.448 66.7553 108.047C67.1042 108.646 67.6041 109.143 68.205 109.489L78.4726 115.368C79.0738 115.714 79.7556 115.896 80.4492 115.894C81.1429 115.892 81.8237 115.707 82.4228 115.357L92.6583 109.404C93.2541 109.052 93.7478 108.551 94.0905 107.951C94.4333 107.35 94.6133 106.67 94.6126 105.978L94.5725 94.1388C94.5679 93.4472 94.3826 92.7687 94.035 92.1707C93.6874 91.5727 93.1896 91.076 92.5909 90.7297Z" fill="#2BC58E" fill-opacity="0.2"/>
<path d="M87.9327 94.4291L81.5845 90.7945C81.2132 90.581 80.7921 90.4693 80.3637 90.4707C79.9354 90.4721 79.515 90.5865 79.145 90.8024L72.822 94.4808C72.4526 94.6964 72.1462 95.0051 71.9332 95.376C71.7203 95.7469 71.6082 96.1671 71.6082 96.5948L71.633 103.912C71.6355 104.341 71.7504 104.761 71.966 105.131C72.1817 105.502 72.4906 105.809 72.862 106.022L79.2077 109.656C79.5793 109.87 80.0007 109.982 80.4295 109.981C80.8582 109.98 81.279 109.865 81.6494 109.649L87.9753 105.97C88.3435 105.753 88.6486 105.443 88.8604 105.072C89.0723 104.7 89.1835 104.28 89.1832 103.853L89.1584 96.5352C89.1552 96.1078 89.0405 95.6887 88.8255 95.3193C88.6105 94.9499 88.3027 94.643 87.9327 94.4291Z" fill="#FFDD0F"/>
<path d="M48.1287 85.2281L31.5111 75.7131C30.539 75.1541 29.4365 74.8616 28.3151 74.8653C27.1937 74.8689 26.0931 75.1684 25.1245 75.7337L8.5683 85.3636C7.60126 85.928 6.799 86.736 6.24142 87.7069C5.68385 88.6779 5.3904 89.7781 5.39038 90.8977L5.4553 110.054C5.46198 111.176 5.76266 112.276 6.32729 113.246C6.89193 114.215 7.70084 115.019 8.67333 115.579L25.286 125.091C26.2588 125.651 27.362 125.944 28.4843 125.941C29.6066 125.938 30.7081 125.639 31.6777 125.073L48.2385 115.441C49.2024 114.872 50.0012 114.062 50.5557 113.09C51.1102 112.117 51.4012 111.017 51.4 109.898L51.3351 90.7419C51.3273 89.6232 51.0274 88.5259 50.465 87.5587C49.9025 86.5916 49.0972 85.7882 48.1287 85.2281Z" fill="#2BC58E" fill-opacity="0.2"/>
<path fill-rule="evenodd" clip-rule="evenodd" d="M31.0127 76.58C30.1931 76.1087 29.2637 75.8622 28.3183 75.8653C27.3729 75.8683 26.4451 76.1208 25.6286 76.5973L25.6273 76.5981L9.07236 86.2273C9.07212 86.2275 9.0726 86.2272 9.07236 86.2273C8.25656 86.7036 7.57904 87.3857 7.10861 88.2049C6.63832 89.0239 6.39068 89.9518 6.39038 90.8961C6.39038 90.8967 6.39038 90.8972 6.39038 90.8978L6.45528 110.048C6.45528 110.049 6.45529 110.049 6.45529 110.049C6.46114 110.996 6.71494 111.924 7.19139 112.742C7.66803 113.561 8.35088 114.24 9.17182 114.712L25.7848 124.225C26.605 124.697 27.5352 124.944 28.4814 124.941C29.4277 124.938 30.3566 124.686 31.1741 124.209L47.7304 114.579C47.7315 114.579 47.7325 114.578 47.7335 114.577C48.5461 114.097 49.2195 113.414 49.6871 112.594C50.155 111.774 50.4008 110.845 50.4 109.901C50.4 109.9 50.4 109.9 50.4 109.899L50.3351 90.7489C50.3351 90.7483 50.3351 90.7477 50.3351 90.747C50.3282 89.8031 50.075 88.8774 49.6005 88.0615C49.126 87.2456 48.4468 86.5677 47.6299 86.0949C47.6293 86.0945 47.6287 86.0942 47.6281 86.0938L31.0127 76.58ZM48.1287 85.2281C49.0972 85.7882 49.9025 86.5916 50.465 87.5587C51.0274 88.5259 51.3273 89.6232 51.3351 90.7419L51.4 109.898C51.4012 111.017 51.1102 112.117 50.5557 113.09C50.0012 114.062 49.2024 114.872 48.2385 115.441L31.6777 125.073C30.7081 125.639 29.6066 125.938 28.4843 125.941C27.362 125.944 26.2588 125.651 25.286 125.091L8.67333 115.579C7.70084 115.019 6.89193 114.215 6.32729 113.246C5.76266 112.276 5.46198 111.176 5.4553 110.054L5.39038 90.8977C5.3904 89.7781 5.68385 88.6779 6.24142 87.7069C6.799 86.736 7.60126 85.928 8.5683 85.3636L25.1245 75.7337C26.0931 75.1684 27.1937 74.8689 28.3151 74.8653C29.4365 74.8616 30.539 75.1541 31.5111 75.7131L48.1287 85.2281Z" fill="url(#paint6_linear)"/>
<path d="M14.9911 10.223L4.71955 4.34228C4.11866 3.99687 3.43725 3.81615 2.74415 3.81838C2.05105 3.82061 1.37085 4.00571 0.772187 4.35499L-9.46046 10.3069C-10.0582 10.6556 -10.5541 11.155 -10.8987 11.7551C-11.2434 12.3552 -11.4246 13.0352 -11.4246 13.7272L-11.3842 25.5669C-11.3805 26.2604 -11.1949 26.9408 -10.846 27.5401C-10.4971 28.1395 -9.99702 28.6368 -9.39581 28.9825L0.871494 34.8618C1.47263 35.2079 2.15452 35.3891 2.84814 35.3872C3.54176 35.3852 4.22257 35.2002 4.82176 34.8508L15.0572 28.8972C15.653 28.5458 16.1467 28.045 16.4894 27.4442C16.8322 26.8434 17.0121 26.1635 17.0114 25.4718L16.9714 13.6324C16.9669 12.9408 16.7819 12.2624 16.4346 11.6644C16.0872 11.0664 15.5896 10.5695 14.9911 10.223Z" fill="#FFDD0F"/>
<path d="M40.4575 -0.352859L30.1871 -6.23388C29.5862 -6.5793 28.9048 -6.76002 28.2118 -6.75779C27.5187 -6.75556 26.8386 -6.57046 26.24 -6.22118L16.0073 -0.269308C15.4096 0.0794525 14.9137 0.578788 14.569 1.17892C14.2244 1.77906 14.0431 2.45904 14.0432 3.15108L14.0833 14.9907C14.0871 15.6842 14.2728 16.3645 14.6217 16.9639C14.9706 17.5632 15.4706 18.0605 16.0717 18.4063L26.3393 24.2857C26.9405 24.6317 27.6223 24.8129 28.3159 24.811C29.0095 24.8091 29.6903 24.6241 30.2895 24.2747L40.525 18.3211C41.1208 17.9697 41.6145 17.4688 41.9572 16.868C42.3 16.2672 42.48 15.5873 42.4793 14.8956L42.4391 3.05623C42.4346 2.36458 42.2493 1.68614 41.9017 1.08816C41.5541 0.49018 41.0563 -0.00657511 40.4575 -0.352859Z" fill="#2BC58E" fill-opacity="0.2"/>
<path d="M40.4575 90.612L30.1871 84.731C29.5862 84.3855 28.9048 84.2048 28.2118 84.2071C27.5187 84.2093 26.8386 84.3944 26.24 84.7437L16.0073 90.6955C15.4096 91.0443 14.9137 91.5436 14.569 92.1438C14.2244 92.7439 14.0431 93.4239 14.0432 94.1159L14.0833 105.956C14.0871 106.649 14.2728 107.329 14.6217 107.929C14.9706 108.528 15.4706 109.025 16.0717 109.371L26.3393 115.25C26.9405 115.597 27.6223 115.778 28.3159 115.776C29.0095 115.774 29.6903 115.589 30.2895 115.239L40.525 109.286C41.1208 108.935 41.6145 108.434 41.9572 107.833C42.3 107.232 42.48 106.552 42.4793 105.86L42.4391 94.0211C42.4346 93.3294 42.2493 92.651 41.9017 92.053C41.5541 91.455 41.0563 90.9583 40.4575 90.612Z" fill="#2BC58E" fill-opacity="0.2"/>
</g>
<circle cx="55" cy="55" r="54" stroke="#2BC58E" stroke-width="2"/>
<circle cx="81.005" cy="84.6364" r="20.8864" fill="#1D3A65" stroke="#2BC58E" stroke-width="1.5"/>
<path d="M90.3985 76.4652L90.3985 76.4652L76.7812 90.0632L71.6122 84.9016C71.6122 84.9016 71.6122 84.9016 71.6122 84.9016C71.1063 84.3963 70.2863 84.3964 69.7803 84.9015L69.7803 84.9016C69.2743 85.4068 69.2743 86.2261 69.7803 86.7314L75.8652 92.8076C76.371 93.3128 77.1916 93.3124 77.6972 92.8076L92.2304 78.2951C92.7364 77.7898 92.7363 76.9705 92.2304 76.4652C91.7245 75.96 90.9044 75.96 90.3985 76.4652Z" fill="#2BC58E" stroke="#2BC58E" stroke-width="0.3"/>
<defs>
<linearGradient id="paint0_linear" x1="54.914" y1="37.2134" x2="54.914" y2="101.056" gradientUnits="userSpaceOnUse">
<stop stop-color="#2BC58E" stop-opacity="0.8"/>
<stop offset="1" stop-color="#2BC58E" stop-opacity="0"/>
</linearGradient>
<linearGradient id="paint1_linear" x1="106.114" y1="37.0398" x2="106.114" y2="100.885" gradientUnits="userSpaceOnUse">
<stop stop-color="#2BC58E" stop-opacity="0.8"/>
<stop offset="1" stop-color="#2BC58E" stop-opacity="0"/>
</linearGradient>
<linearGradient id="paint2_linear" x1="2.91452" y1="37.3891" x2="2.91452" y2="101.232" gradientUnits="userSpaceOnUse">
<stop stop-color="#2BC58E" stop-opacity="0.8"/>
<stop offset="1" stop-color="#2BC58E" stop-opacity="0"/>
</linearGradient>
<linearGradient id="paint3_linear" x1="80.3948" y1="-8.38623" x2="80.3948" y2="55.4569" gradientUnits="userSpaceOnUse">
<stop stop-color="#2BC58E"/>
<stop offset="1" stop-color="#2BC58E" stop-opacity="0"/>
</linearGradient>
<linearGradient id="paint4_linear" x1="28.2973" y1="-8.21045" x2="28.2973" y2="55.6326" gradientUnits="userSpaceOnUse">
<stop stop-color="#2BC58E"/>
<stop offset="1" stop-color="#2BC58E" stop-opacity="0"/>
</linearGradient>
<linearGradient id="paint5_linear" x1="80.3948" y1="82.8132" x2="80.3948" y2="146.658" gradientUnits="userSpaceOnUse">
<stop stop-color="#2BC58E" stop-opacity="0.8"/>
<stop offset="1" stop-color="#2BC58E" stop-opacity="0"/>
</linearGradient>
<linearGradient id="paint6_linear" x1="28.3952" y1="82.9909" x2="28.3952" y2="146.836" gradientUnits="userSpaceOnUse">
<stop stop-color="#2BC58E" stop-opacity="0.8"/>
<stop offset="1" stop-color="#2BC58E" stop-opacity="0"/>
</linearGradient>
<clipPath id="clip0">
<rect x="12.9141" y="12.627" width="84" height="84" rx="42" fill="white"/>
</clipPath>
</defs>
</svg>
