<svg width="110" height="110" fill="none" xmlns="http://www.w3.org/2000/svg"><g clip-path="url(#clip0)"><path d="M74.647 39.451L58.03 29.936a6.372 6.372 0 00-6.387.02l-16.556 9.63a6.407 6.407 0 00-3.178 5.533l.065 19.156a6.417 6.417 0 003.218 5.525l16.612 9.513a6.376 6.376 0 006.392-.019l16.561-9.632a6.427 6.427 0 003.162-5.543l-.065-19.156a6.42 6.42 0 00-3.207-5.512z" fill="#38CCB6" fill-opacity=".2"/><path fill-rule="evenodd" clip-rule="evenodd" d="M57.532 30.802a5.373 5.373 0 00-5.385.018L35.59 40.45a5.412 5.412 0 00-2.682 4.667v.002l.065 19.15v.002a5.417 5.417 0 002.716 4.662l16.613 9.513a5.376 5.376 0 005.39-.015l16.556-9.63.003-.002a5.427 5.427 0 002.667-4.677v-.002l-.065-19.15v-.001a5.42 5.42 0 00-2.705-4.651l-.002-.001-16.615-9.515zm17.115 8.649a6.42 6.42 0 013.207 5.512l.065 19.156a6.427 6.427 0 01-3.162 5.543l-16.56 9.632a6.377 6.377 0 01-6.393.019L35.192 69.8a6.416 6.416 0 01-3.218-5.525L31.91 45.12a6.407 6.407 0 013.178-5.533l16.556-9.63a6.372 6.372 0 016.387-.02l16.617 9.515z" fill="url(#paint0_linear)"/><path d="M67.11 45.247l-10.27-5.881a3.94 3.94 0 00-3.948.012L42.66 45.33a3.96 3.96 0 00-1.964 3.42l.04 11.84a3.965 3.965 0 001.989 3.416l10.267 5.88a3.941 3.941 0 003.95-.012l10.236-5.953a3.973 3.973 0 001.954-3.427l-.04-11.84a3.97 3.97 0 00-1.982-3.407zM125.847 39.277l-16.617-9.515a6.372 6.372 0 00-6.387.02l-16.556 9.63a6.408 6.408 0 00-3.178 5.535l.065 19.156a6.417 6.417 0 003.218 5.524l16.613 9.513a6.377 6.377 0 006.391-.018l16.561-9.633a6.422 6.422 0 003.162-5.542l-.065-19.156a6.427 6.427 0 00-3.207-5.514z" fill="#2BC58E" fill-opacity=".2"/><path fill-rule="evenodd" clip-rule="evenodd" d="M108.732 30.629a5.376 5.376 0 00-5.385.017h-.001l-16.555 9.63a5.41 5.41 0 00-2.682 4.669v.002l.065 19.15v.001a5.418 5.418 0 002.717 4.662l16.613 9.513a5.373 5.373 0 005.389-.015l16.556-9.63.003-.001a5.436 5.436 0 002.667-4.677v-.002l-.065-19.15v-.002a5.417 5.417 0 00-2.705-4.652l-.002-.001-16.615-9.514zm17.115 8.648a6.424 6.424 0 013.207 5.514l.065 19.156a6.424 6.424 0 01-3.162 5.542l-16.561 9.633a6.375 6.375 0 01-6.391.018l-16.613-9.513a6.418 6.418 0 01-3.218-5.524l-.065-19.156a6.408 6.408 0 013.178-5.535l16.556-9.63a6.373 6.373 0 016.387-.02l16.617 9.515z" fill="url(#paint1_linear)"/><path d="M118.309 45.073l-10.27-5.881a3.942 3.942 0 00-3.948.013l-10.232 5.952a3.96 3.96 0 00-1.965 3.42l.04 11.84a3.965 3.965 0 001.99 3.415l10.267 5.88a3.938 3.938 0 003.95-.012l10.235-5.953a3.975 3.975 0 001.955-3.426l-.041-11.84a3.97 3.97 0 00-1.981-3.409zM22.648 39.627L6.03 30.11a6.372 6.372 0 00-6.386.021l-16.557 9.63a6.408 6.408 0 00-3.177 5.533l.065 19.156a6.417 6.417 0 003.218 5.525l16.612 9.512a6.378 6.378 0 006.392-.018l16.56-9.632a6.427 6.427 0 003.162-5.543l-.065-19.156a6.421 6.421 0 00-3.206-5.512z" fill="#2BC58E" fill-opacity=".2"/><path fill-rule="evenodd" clip-rule="evenodd" d="M5.532 30.978a5.372 5.372 0 00-5.384.018H.146l-16.555 9.63a5.411 5.411 0 00-2.681 4.667v.002l.065 19.15v.002a5.417 5.417 0 002.716 4.662L.304 78.622a5.378 5.378 0 005.39-.016l16.556-9.63.002-.001a5.427 5.427 0 002.667-4.679l-.064-19.15v-.001a5.423 5.423 0 00-2.706-4.652h-.002L5.532 30.977zm20.322 14.16l.065 19.157a6.428 6.428 0 01-3.161 5.543L6.197 79.47a6.376 6.376 0 01-6.392.018l-16.612-9.513a6.418 6.418 0 01-3.218-5.524l-.065-19.156a6.407 6.407 0 013.177-5.533l16.557-9.63a6.371 6.371 0 016.386-.02l16.618 9.515a6.422 6.422 0 013.206 5.512z" fill="url(#paint2_linear)"/><path d="M15.11 45.424l-10.27-5.88a3.938 3.938 0 00-3.947.012L-9.34 45.508a3.96 3.96 0 00-1.964 3.42l.04 11.84a3.965 3.965 0 001.989 3.416l10.267 5.88a3.942 3.942 0 003.95-.012l10.236-5.954a3.972 3.972 0 001.954-3.425l-.04-11.84a3.968 3.968 0 00-1.981-3.409zM100.128-6.148l-16.617-9.516a6.37 6.37 0 00-6.387.02l-16.556 9.63A6.408 6.408 0 0057.39-.48l.065 19.157a6.416 6.416 0 003.218 5.524l16.613 9.513a6.378 6.378 0 006.391-.018l16.561-9.633a6.422 6.422 0 003.162-5.542l-.065-19.156a6.423 6.423 0 00-3.207-5.512z" fill="#2BC58E" fill-opacity=".2"/><path fill-rule="evenodd" clip-rule="evenodd" d="M83.013-14.797a5.372 5.372 0 00-5.385.017l-.001.001-16.555 9.63A5.411 5.411 0 0058.39-.483v.002l.065 19.15v.001a5.417 5.417 0 002.716 4.662l16.614 9.513a5.377 5.377 0 005.389-.015L99.73 23.2l.002-.001a5.43 5.43 0 002.668-4.677v-.002l-.065-19.15v-.002a5.424 5.424 0 00-2.706-4.65l-.002-.001-16.614-9.515zm17.115 8.649a6.428 6.428 0 013.207 5.512l.065 19.156a6.424 6.424 0 01-3.162 5.542l-16.56 9.633a6.376 6.376 0 01-6.392.018L60.673 24.2a6.416 6.416 0 01-3.218-5.524L57.39-.481a6.408 6.408 0 013.178-5.532l16.556-9.63a6.371 6.371 0 016.387-.02l16.617 9.515z" fill="url(#paint3_linear)"/><path d="M92.59-.353l-10.27-5.88a3.938 3.938 0 00-3.947.012L68.141-.27a3.96 3.96 0 00-1.965 3.42l.04 11.84a3.965 3.965 0 001.989 3.415l10.268 5.88a3.941 3.941 0 003.95-.011l10.235-5.954a3.972 3.972 0 001.955-3.425l-.04-11.84A3.969 3.969 0 0092.59-.353z" fill="#2BC58E" fill-opacity=".2"/><path d="M87.933 3.23L81.584-.405a2.433 2.433 0 00-2.439.008l-6.323 3.679a2.447 2.447 0 00-1.214 2.114l.025 7.317a2.45 2.45 0 001.229 2.11l6.346 3.634a2.435 2.435 0 002.441-.007l6.326-3.68a2.456 2.456 0 001.208-2.116l-.025-7.318a2.454 2.454 0 00-1.225-2.106z" fill="#FFDD0F"/><path d="M48.03-5.973l-16.617-9.515a6.37 6.37 0 00-6.386.02L8.47-5.837A6.408 6.408 0 005.292-.305l.065 19.157a6.417 6.417 0 003.218 5.524l16.613 9.513a6.376 6.376 0 006.392-.018l16.56-9.633a6.427 6.427 0 003.162-5.542L51.237-.461a6.422 6.422 0 00-3.206-5.512z" fill="#2BC58E" fill-opacity=".2"/><path fill-rule="evenodd" clip-rule="evenodd" d="M30.915-14.621a5.37 5.37 0 00-5.384.017h-.002L8.974-4.973A5.411 5.411 0 006.292-.306v.001l.065 19.15v.002a5.417 5.417 0 002.715 4.661l.002.001 16.613 9.513a5.375 5.375 0 005.39-.015l16.555-9.63.003-.002a5.426 5.426 0 002.667-4.678l-.065-19.15v-.003a5.42 5.42 0 00-2.707-4.651l-16.615-9.514zM48.03-5.973a6.42 6.42 0 013.206 5.512l.065 19.157a6.427 6.427 0 01-3.161 5.542L31.58 33.871a6.377 6.377 0 01-6.392.018L8.575 24.376a6.417 6.417 0 01-3.218-5.524L5.292-.305A6.408 6.408 0 018.47-5.838l16.557-9.63a6.371 6.371 0 016.386-.02l16.618 9.515z" fill="url(#paint4_linear)"/><path d="M100.128 85.05l-16.617-9.515a6.372 6.372 0 00-6.387.02l-16.556 9.63a6.407 6.407 0 00-3.178 5.535l.065 19.156a6.416 6.416 0 003.218 5.525l16.613 9.513a6.375 6.375 0 006.391-.018l16.561-9.633a6.425 6.425 0 003.162-5.542l-.065-19.157a6.418 6.418 0 00-3.207-5.514z" fill="#2BC58E" fill-opacity=".2"/><path fill-rule="evenodd" clip-rule="evenodd" d="M83.677 124.896l16.561-9.633a6.425 6.425 0 003.162-5.542l-.065-19.157a6.418 6.418 0 00-3.207-5.514l-16.617-9.515a6.372 6.372 0 00-6.387.02l-16.556 9.63a6.407 6.407 0 00-3.178 5.535l.065 19.156a6.416 6.416 0 003.218 5.525l16.613 9.513a6.375 6.375 0 006.391-.018zm-22.506-10.362l16.613 9.513a5.373 5.373 0 005.39-.015l16.556-9.63.002-.002a5.432 5.432 0 002.668-4.677v-.001l-.065-19.15v-.002a5.418 5.418 0 00-2.706-4.653h-.002l-16.614-9.515a5.371 5.371 0 00-5.385.018h-.001l-16.555 9.63a5.41 5.41 0 00-2.682 4.668v.002l.065 19.15v.002a5.418 5.418 0 002.717 4.662z" fill="url(#paint5_linear)"/><path d="M92.59 90.73l-10.27-5.88a3.938 3.938 0 00-3.947.013l-10.232 5.952a3.96 3.96 0 00-1.965 3.42l.04 11.84a3.966 3.966 0 001.989 3.414l10.268 5.879a3.94 3.94 0 003.95-.011l10.235-5.953a3.974 3.974 0 001.954-3.426l-.04-11.84a3.969 3.969 0 00-1.981-3.408z" fill="#2BC58E" fill-opacity=".2"/><path d="M87.933 94.43l-6.349-3.636a2.433 2.433 0 00-2.439.008l-6.323 3.679a2.448 2.448 0 00-1.214 2.114l.025 7.317a2.449 2.449 0 001.229 2.11l6.346 3.634a2.437 2.437 0 002.441-.007l6.326-3.679a2.456 2.456 0 001.208-2.117l-.025-7.318a2.454 2.454 0 00-1.225-2.106z" fill="#FFDD0F"/><path d="M48.129 85.228L31.51 75.713a6.37 6.37 0 00-6.386.02l-16.557 9.63a6.409 6.409 0 00-3.178 5.535l.065 19.156a6.42 6.42 0 003.218 5.525l16.613 9.512a6.376 6.376 0 006.392-.018l16.56-9.632a6.43 6.43 0 003.162-5.543l-.065-19.156a6.422 6.422 0 00-3.206-5.514z" fill="#2BC58E" fill-opacity=".2"/><path fill-rule="evenodd" clip-rule="evenodd" d="M31.013 76.58a5.37 5.37 0 00-5.384.017l-.002.001-16.555 9.63a5.411 5.411 0 00-2.682 4.668v.002l.065 19.15v.001a5.416 5.416 0 002.717 4.663l16.613 9.513a5.372 5.372 0 005.39-.016l16.555-9.63.004-.002a5.423 5.423 0 002.666-4.676v-.002l-.065-19.15v-.002a5.42 5.42 0 00-2.705-4.652l-.002-.001-16.615-9.514zm17.116 8.648a6.422 6.422 0 013.206 5.514l.065 19.156a6.432 6.432 0 01-3.161 5.543l-16.561 9.632a6.367 6.367 0 01-6.392.018l-16.613-9.512a6.426 6.426 0 01-3.218-5.525L5.39 90.898a6.408 6.408 0 013.178-5.534l16.556-9.63a6.37 6.37 0 016.387-.02l16.618 9.514z" fill="url(#paint6_linear)"/><path d="M14.991 10.223L4.72 4.343a3.938 3.938 0 00-3.948.012L-9.46 10.307a3.96 3.96 0 00-1.965 3.42l.04 11.84a3.964 3.964 0 001.99 3.416L.87 34.861a3.94 3.94 0 003.95-.011l10.236-5.954a3.971 3.971 0 001.954-3.425l-.04-11.84a3.97 3.97 0 00-1.98-3.409z" fill="#FFDD0F"/><path d="M40.458-.353l-10.27-5.88a3.938 3.938 0 00-3.948.012L16.007-.27a3.96 3.96 0 00-1.964 3.42l.04 11.84a3.965 3.965 0 001.989 3.415l10.267 5.88a3.941 3.941 0 003.95-.011l10.236-5.954a3.972 3.972 0 001.954-3.425l-.04-11.84a3.968 3.968 0 00-1.981-3.409zM40.458 90.612l-10.27-5.881a3.937 3.937 0 00-3.948.013l-10.233 5.951a3.96 3.96 0 00-1.964 3.42l.04 11.841a3.968 3.968 0 001.989 3.415l10.267 5.879a3.93 3.93 0 003.95-.011l10.236-5.953a3.967 3.967 0 001.954-3.426l-.04-11.839a3.968 3.968 0 00-1.981-3.409z" fill="#2BC58E" fill-opacity=".2"/></g><circle cx="55" cy="55" r="54" stroke="#2BC58E" stroke-width="2"/><circle cx="81.005" cy="84.636" r="20.886" fill="#1D3A65" stroke="#2BC58E" stroke-width="1.5"/><path d="M90.398 76.465h0L76.781 90.063l-5.169-5.161s0 0 0 0a1.297 1.297 0 00-1.832 0h0a1.293 1.293 0 000 1.83l6.085 6.076a1.297 1.297 0 001.832 0L92.23 78.295a1.293 1.293 0 000-1.83 1.297 1.297 0 00-1.832 0z" fill="#2BC58E" stroke="#2BC58E" stroke-width=".3"/><defs><linearGradient id="paint0_linear" x1="54.914" y1="37.213" x2="54.914" y2="101.056" gradientUnits="userSpaceOnUse"><stop stop-color="#2BC58E" stop-opacity=".8"/><stop offset="1" stop-color="#2BC58E" stop-opacity="0"/></linearGradient><linearGradient id="paint1_linear" x1="106.114" y1="37.04" x2="106.114" y2="100.885" gradientUnits="userSpaceOnUse"><stop stop-color="#2BC58E" stop-opacity=".8"/><stop offset="1" stop-color="#2BC58E" stop-opacity="0"/></linearGradient><linearGradient id="paint2_linear" x1="2.915" y1="37.389" x2="2.915" y2="101.232" gradientUnits="userSpaceOnUse"><stop stop-color="#2BC58E" stop-opacity=".8"/><stop offset="1" stop-color="#2BC58E" stop-opacity="0"/></linearGradient><linearGradient id="paint3_linear" x1="80.395" y1="-8.386" x2="80.395" y2="55.457" gradientUnits="userSpaceOnUse"><stop stop-color="#2BC58E"/><stop offset="1" stop-color="#2BC58E" stop-opacity="0"/></linearGradient><linearGradient id="paint4_linear" x1="28.297" y1="-8.21" x2="28.297" y2="55.633" gradientUnits="userSpaceOnUse"><stop stop-color="#2BC58E"/><stop offset="1" stop-color="#2BC58E" stop-opacity="0"/></linearGradient><linearGradient id="paint5_linear" x1="80.395" y1="82.813" x2="80.395" y2="146.658" gradientUnits="userSpaceOnUse"><stop stop-color="#2BC58E" stop-opacity=".8"/><stop offset="1" stop-color="#2BC58E" stop-opacity="0"/></linearGradient><linearGradient id="paint6_linear" x1="28.395" y1="82.991" x2="28.395" y2="146.836" gradientUnits="userSpaceOnUse"><stop stop-color="#2BC58E" stop-opacity=".8"/><stop offset="1" stop-color="#2BC58E" stop-opacity="0"/></linearGradient><clipPath id="clip0"><rect x="12.914" y="12.627" width="84" height="84" rx="42" fill="#fff"/></clipPath></defs></svg>