<svg width="110" height="110" viewBox="0 0 110 110" fill="none" xmlns="http://www.w3.org/2000/svg">
<g clip-path="url(#clip0)">
<path d="M75.0108 39.824L58.3935 30.3086C57.4212 29.7497 56.3187 29.4574 55.1973 29.461C54.0759 29.4646 52.9753 29.7641 52.0066 30.3292L35.4504 39.9592C34.4835 40.5235 33.6814 41.3312 33.1238 42.3019C32.5663 43.2726 32.2727 44.3725 32.2725 45.4919L32.3374 64.6485C32.3441 65.7703 32.6448 66.8706 33.2094 67.8399C33.7741 68.8092 34.5829 69.6136 35.5553 70.1728L52.1678 79.6856C53.1406 80.2453 54.2438 80.5384 55.3661 80.5352C56.4884 80.5321 57.5899 80.2327 58.5595 79.6675L75.1206 70.0347C76.0845 69.4661 76.8832 68.6557 77.4377 67.6836C77.9922 66.7116 78.2833 65.6115 78.2821 64.4924L78.2169 45.3361C78.2088 44.2177 77.9088 43.1207 77.3464 42.1539C76.7841 41.1871 75.979 40.384 75.0108 39.824Z" fill="#FF7272" fill-opacity="0.2"/>
<path fill-rule="evenodd" clip-rule="evenodd" d="M57.8951 31.1756C57.0755 30.7044 56.146 30.4579 55.2005 30.461C54.2551 30.464 53.3272 30.7165 52.5106 31.193L52.5094 31.1936L35.9544 40.8229C35.9542 40.823 35.9547 40.8227 35.9544 40.8229C35.1389 41.2991 34.4614 41.981 33.991 42.8C33.5207 43.6187 33.273 44.5463 33.2725 45.4904C33.2725 45.491 33.2725 45.4916 33.2725 45.4921L33.3374 64.6425C33.3374 64.6429 33.3374 64.6434 33.3374 64.6438C33.3433 65.5903 33.5971 66.5187 34.0735 67.3366C34.55 68.1546 35.2326 68.8335 36.0532 69.3055C36.0534 69.3056 36.053 69.3054 36.0532 69.3055L52.6666 78.8188C53.4868 79.2908 54.417 79.5379 55.3632 79.5352C56.3095 79.5326 57.2384 79.2802 58.0559 78.8036L74.6125 69.1734C74.6134 69.1729 74.6143 69.1723 74.6152 69.1718C75.4279 68.6917 76.1013 68.008 76.569 67.1881C77.037 66.3678 77.2828 65.4395 77.2821 64.4952C77.2821 64.4946 77.2821 64.494 77.2821 64.4935L77.2169 45.3433C77.2169 45.3428 77.2169 45.3422 77.2169 45.3417C77.2098 44.398 76.9565 43.4725 76.482 42.6567C76.0076 41.841 75.3285 41.1634 74.5119 40.6907C74.5113 40.6903 74.5107 40.69 74.5101 40.6896L57.8951 31.1756ZM75.0108 39.824C75.979 40.384 76.7841 41.1871 77.3464 42.1539C77.9088 43.1207 78.2088 44.2177 78.2169 45.3361L78.2821 64.4924C78.2833 65.6115 77.9922 66.7116 77.4377 67.6836C76.8832 68.6557 76.0845 69.4661 75.1206 70.0347L58.5595 79.6675C57.5899 80.2327 56.4884 80.5321 55.3661 80.5352C54.2438 80.5384 53.1406 80.2453 52.1678 79.6856L35.5553 70.1728C34.5829 69.6136 33.7741 68.8092 33.2094 67.8399C32.6448 66.8706 32.3441 65.7703 32.3374 64.6485L32.2725 45.4919C32.2727 44.3725 32.5663 43.2726 33.1238 42.3019C33.6814 41.3312 34.4835 40.5235 35.4504 39.9592L52.0066 30.3292C52.9753 29.7641 54.0759 29.4646 55.1973 29.461C56.3187 29.4574 57.4212 29.7497 58.3935 30.3086L75.0108 39.824Z" fill="url(#paint0_linear)"/>
<path d="M67.4736 45.6197L57.2032 39.7387C56.6023 39.3933 55.9209 39.2126 55.2278 39.2149C54.5347 39.2171 53.8545 39.4022 53.2558 39.7514L43.0234 45.7033C42.4257 46.0521 41.9298 46.5514 41.5852 47.1516C41.2406 47.7517 41.0593 48.4316 41.0593 49.1237L41.0994 60.9634C41.1033 61.6568 41.2889 62.3372 41.6378 62.9365C41.9867 63.5358 42.4867 64.0332 43.0878 64.3789L53.3552 70.2586C53.9564 70.6045 54.6383 70.7856 55.332 70.7836C56.0256 70.7816 56.7064 70.5966 57.3056 70.2473L67.5411 64.2937C68.1371 63.9422 68.631 63.4411 68.9737 62.84C69.3165 62.2389 69.4963 61.5588 69.4954 60.8668L69.4552 49.0272C69.4504 48.3358 69.265 47.6577 68.9174 47.06C68.5699 46.4624 68.0721 45.9659 67.4736 45.6197Z" fill="#FF6D6D" fill-opacity="0.2"/>
<path d="M126.211 39.65L109.593 30.1349C108.621 29.576 107.518 29.2836 106.397 29.2871C105.276 29.2907 104.175 29.5902 103.206 30.1553L86.65 39.7855C85.683 40.3499 84.8808 41.1579 84.3233 42.1289C83.7657 43.0998 83.4723 44.2 83.4724 45.3196L83.5373 64.476C83.5439 65.5978 83.8446 66.6982 84.4093 67.6675C84.9739 68.6369 85.7828 69.4413 86.7553 70.0005L103.368 79.5133C104.341 80.073 105.444 80.3661 106.566 80.363C107.689 80.3598 108.79 80.0605 109.76 79.4952L126.321 69.8624C127.284 69.2938 128.083 68.4834 128.638 67.5113C129.192 66.5392 129.483 65.4393 129.482 64.3202L129.417 45.1638C129.409 44.0451 129.109 42.9478 128.547 41.9807C127.984 41.0136 127.179 40.2102 126.211 39.65Z" fill="#FF7272" fill-opacity="0.2"/>
<path fill-rule="evenodd" clip-rule="evenodd" d="M109.095 31.0019C108.275 30.5307 107.346 30.2841 106.4 30.2871C105.455 30.2901 104.527 30.5426 103.71 31.019L103.709 31.0197L87.1541 40.6492C87.1539 40.6493 87.1543 40.649 87.1541 40.6492C86.3383 41.1255 85.6609 41.8076 85.1905 42.6268C84.7202 43.4458 84.4726 44.3736 84.4724 45.318C84.4724 45.3185 84.4724 45.3191 84.4724 45.3196L84.5373 64.47C84.5373 64.4704 84.5373 64.4709 84.5373 64.4713C84.5431 65.4178 84.7969 66.3463 85.2734 67.1642C85.7498 67.9821 86.4322 68.6609 87.2526 69.1329C87.253 69.1331 87.2534 69.1334 87.2538 69.1336L103.867 78.6466C104.687 79.1185 105.617 79.3656 106.563 79.363C107.51 79.3603 108.439 79.1079 109.256 78.6313L125.812 69.0012C125.813 69.0007 125.814 69.0001 125.815 68.9996C126.628 68.5196 127.301 67.8358 127.769 67.0158C128.237 66.1955 128.483 65.2672 128.482 64.3228C128.482 64.3223 128.482 64.3217 128.482 64.3212L128.417 45.1708C128.417 45.1703 128.417 45.1697 128.417 45.1691C128.41 44.2252 128.157 43.2994 127.682 42.4834C127.208 41.6675 126.529 40.9896 125.712 40.5167C125.711 40.5164 125.711 40.516 125.71 40.5157L109.095 31.0019ZM126.211 39.65C127.179 40.2102 127.984 41.0136 128.547 41.9807C129.109 42.9478 129.409 44.0451 129.417 45.1638L129.482 64.3202C129.483 65.4393 129.192 66.5392 128.638 67.5113C128.083 68.4834 127.284 69.2938 126.321 69.8624L109.76 79.4952C108.79 80.0605 107.689 80.3598 106.566 80.363C105.444 80.3661 104.341 80.073 103.368 79.5133L86.7553 70.0005C85.7828 69.4413 84.9739 68.6369 84.4093 67.6675C83.8446 66.6982 83.5439 65.5978 83.5373 64.476L83.4724 45.3196C83.4723 44.2 83.7657 43.0998 84.3233 42.1289C84.8808 41.1579 85.683 40.3499 86.65 39.7855L103.206 30.1553C104.175 29.5902 105.276 29.2907 106.397 29.2871C107.518 29.2836 108.621 29.576 109.593 30.1349L126.211 39.65Z" fill="url(#paint1_linear)"/>
<path d="M118.672 45.4457L108.402 39.5649C107.801 39.2195 107.12 39.0388 106.427 39.041C105.733 39.0433 105.053 39.2284 104.455 39.5776L94.2219 45.5295C93.6243 45.8784 93.1285 46.3777 92.7838 46.9778C92.4392 47.5779 92.2579 48.2579 92.2578 48.9499L92.2982 60.7893C92.302 61.4828 92.4877 62.1631 92.8366 62.7624C93.1855 63.3618 93.6854 63.8591 94.2866 64.2049L104.554 70.0842C105.155 70.4302 105.837 70.6114 106.531 70.6095C107.224 70.6076 107.905 70.4226 108.504 70.0732L118.74 64.1196C119.335 63.7682 119.829 63.2673 120.172 62.6665C120.515 62.0657 120.695 61.3858 120.694 60.6942L120.654 48.8545C120.649 48.1629 120.464 47.4845 120.116 46.8866C119.769 46.2887 119.271 45.792 118.672 45.4457Z" fill="#FF6D6D" fill-opacity="0.2"/>
<path d="M23.0112 39.9998L6.39369 30.4844C5.42144 29.9255 4.31893 29.6331 3.1975 29.6368C2.07608 29.6404 0.975454 29.9399 0.00683212 30.505L-16.5495 40.135C-17.5163 40.6993 -18.3184 41.507 -18.8759 42.4777C-19.4334 43.4484 -19.7269 44.5483 -19.7271 45.6677L-19.6621 64.8243C-19.6554 65.9461 -19.3548 67.0464 -18.7901 68.0157C-18.2255 68.985 -17.4166 69.7894 -16.4442 70.3485L0.168577 79.8614C1.14132 80.4211 2.24455 80.7142 3.36683 80.711C4.48911 80.7078 5.59063 80.4085 6.56019 79.8433L23.121 70.2108C24.0849 69.6421 24.8836 68.8316 25.4381 67.8595C25.9926 66.8874 26.2837 65.7873 26.2826 64.6682L26.2176 45.5119C26.2095 44.3934 25.9094 43.2965 25.347 42.3297C24.7846 41.3629 23.9794 40.5597 23.0112 39.9998Z" fill="#FF7272" fill-opacity="0.2"/>
<path fill-rule="evenodd" clip-rule="evenodd" d="M5.89533 31.3514C5.07566 30.8802 4.14617 30.6337 3.20073 30.6367C2.25528 30.6398 1.32738 30.8923 0.510775 31.3687L0.509617 31.3694L-16.0454 40.9986C-16.0457 40.9988 -16.0451 40.9985 -16.0454 40.9986C-16.8609 41.4748 -17.5384 42.1568 -18.0087 42.9758C-18.4789 43.7945 -18.7266 44.722 -18.7271 45.6662C-18.7271 45.6667 -18.7271 45.6673 -18.7271 45.6679L-18.6622 64.8183C-18.6622 64.8188 -18.6621 64.8192 -18.6621 64.8196C-18.6563 65.7661 -18.4025 66.6945 -17.9261 67.5124C-17.4494 68.3306 -16.7667 69.0095 -15.9458 69.4815C-15.9458 69.4816 -15.9459 69.4815 -15.9458 69.4815L0.667328 78.9946C1.48751 79.4666 2.41773 79.7137 3.364 79.711C4.31027 79.7083 5.23904 79.456 6.05655 78.9794L22.6129 69.3495C22.6137 69.349 22.6145 69.3485 22.6154 69.348C23.4282 68.8679 24.1017 68.1841 24.5694 67.364C25.0377 66.5432 25.2835 65.6143 25.2826 64.6694C25.2826 64.6693 25.2826 64.6695 25.2826 64.6694L25.2177 45.5191C25.2177 45.5187 25.2177 45.5182 25.2177 45.5177C25.2105 44.5739 24.9572 43.6483 24.4826 42.8325C24.0081 42.0169 23.329 41.3392 22.5123 40.8664C22.5117 40.8661 22.5111 40.8658 22.5105 40.8654L5.89533 31.3514ZM26.2176 45.5119L26.2826 64.6682C26.2837 65.7873 25.9926 66.8874 25.4381 67.8595C24.8836 68.8316 24.0849 69.6421 23.121 70.2108L6.56019 79.8433C5.59063 80.4085 4.48911 80.7078 3.36683 80.711C2.24455 80.7142 1.14132 80.4211 0.168577 79.8614L-16.4442 70.3485C-17.4166 69.7894 -18.2255 68.985 -18.7901 68.0157C-19.3548 67.0464 -19.6554 65.9461 -19.6621 64.8243L-19.7271 45.6677C-19.7269 44.5483 -19.4334 43.4484 -18.8759 42.4777C-18.3184 41.507 -17.5163 40.6993 -16.5495 40.135L0.00683212 30.505C0.975454 29.9399 2.07608 29.6404 3.1975 29.6368C4.31893 29.6331 5.42144 29.9255 6.39369 30.4844L23.0112 39.9998C23.9794 40.5597 24.7846 41.3629 25.347 42.3297C25.9094 43.2965 26.2095 44.3934 26.2176 45.5119Z" fill="url(#paint2_linear)"/>
<path d="M15.4737 45.7975L5.20353 39.9167C4.60267 39.5712 3.9213 39.3904 3.22819 39.3926C2.53508 39.3948 1.85483 39.5799 1.25616 39.9292L-8.97649 45.881C-9.57415 46.2299 -10.07 46.7292 -10.4146 47.3293C-10.7592 47.9295 -10.9406 48.6094 -10.9406 49.3014L-10.9003 61.1411C-10.8964 61.8346 -10.7108 62.5149 -10.3619 63.1142C-10.013 63.7136 -9.513 64.2109 -8.91184 64.5567L1.35547 70.4363C1.95666 70.7822 2.63851 70.9633 3.33211 70.9613C4.02571 70.9593 4.70652 70.7743 5.30573 70.425L15.5412 64.4714C16.1369 64.12 16.6306 63.6192 16.9733 63.0185C17.3161 62.4177 17.496 61.7379 17.4954 61.0462L17.4553 49.2066C17.4507 48.5149 17.2655 47.8365 16.9179 47.2385C16.5703 46.6405 16.0725 46.1438 15.4737 45.7975Z" fill="#FF6D6D" fill-opacity="0.2"/>
<path d="M100.491 -5.77492L83.8741 -15.2909C82.9019 -15.8498 81.7994 -16.1423 80.6779 -16.1386C79.5565 -16.135 78.4559 -15.8355 77.4873 -15.2702L60.931 -5.64027C59.9641 -5.07601 59.162 -4.2683 58.6044 -3.29759C58.0469 -2.32688 57.7534 -1.22703 57.7531 -0.10758L57.8183 19.0488C57.8249 20.1706 58.1256 21.271 58.6902 22.2404C59.2549 23.2097 60.0637 24.0141 61.0363 24.5733L77.649 34.0861C78.6217 34.6459 79.725 34.939 80.8473 34.9358C81.9695 34.9326 83.0711 34.6333 84.0407 34.068L100.601 24.4352C101.565 23.8666 102.364 23.0562 102.918 22.0841C103.473 21.112 103.764 20.0121 103.763 18.893L103.698 -0.263399C103.69 -1.38176 103.389 -2.47857 102.827 -3.44525C102.265 -4.41194 101.459 -5.21499 100.491 -5.77492Z" fill="#FF7272" fill-opacity="0.2"/>
<path fill-rule="evenodd" clip-rule="evenodd" d="M83.3757 -14.4239C82.5561 -14.8952 81.6266 -15.1417 80.6812 -15.1386C79.7357 -15.1356 78.8078 -14.8831 77.9913 -14.4065L77.99 -14.4058L61.435 -4.77659C61.4347 -4.77643 61.4353 -4.77676 61.435 -4.77659C60.6194 -4.30042 59.9419 -3.61846 59.4716 -2.79952C59.0013 -1.98082 58.7536 -1.05325 58.7531 -0.109081C58.7531 -0.108501 58.7531 -0.107924 58.7531 -0.107344L58.8183 19.0429C58.8183 19.0433 58.8183 19.0437 58.8183 19.0441C58.8241 19.9906 59.0779 20.9191 59.5543 21.737C60.0309 22.5553 60.7137 23.2342 61.5345 23.7062C61.5346 23.7063 61.5345 23.7062 61.5345 23.7062L78.1478 33.2194C78.9679 33.6914 79.8982 33.9385 80.8444 33.9358C81.7907 33.9331 82.7195 33.6807 83.537 33.2041L83.5379 33.2036L100.093 23.574C100.094 23.5735 100.095 23.5731 100.095 23.5727C100.908 23.0926 101.582 22.4087 102.05 21.5886C102.518 20.7683 102.764 19.84 102.763 18.8956C102.763 18.8951 102.763 18.8945 102.763 18.894L102.698 -0.255956C102.698 -0.256672 102.698 -0.257389 102.698 -0.258105C102.691 -1.20157 102.437 -2.1268 101.963 -2.94236C101.488 -3.75787 100.809 -4.43545 99.9926 -4.90814C99.992 -4.90852 99.9913 -4.90889 99.9907 -4.90927L83.3757 -14.4239ZM100.491 -5.77492C101.459 -5.21499 102.265 -4.41194 102.827 -3.44525C103.389 -2.47857 103.69 -1.38176 103.698 -0.263399L103.763 18.893C103.764 20.0121 103.473 21.112 102.918 22.0841C102.364 23.0562 101.565 23.8666 100.601 24.4352L84.0407 34.068C83.0711 34.6333 81.9695 34.9326 80.8473 34.9358C79.725 34.939 78.6217 34.6459 77.649 34.0861L61.0363 24.5733C60.0637 24.0141 59.2549 23.2097 58.6902 22.2404C58.1256 21.271 57.8249 20.1706 57.8183 19.0488L57.7531 -0.10758C57.7534 -1.22703 58.0469 -2.32688 58.6044 -3.29759C59.162 -4.2683 59.9641 -5.07601 60.931 -5.64027L77.4873 -15.2702C78.4559 -15.8355 79.5565 -16.135 80.6779 -16.1386C81.7994 -16.1423 82.9019 -15.8498 83.8741 -15.2909L100.491 -5.77492Z" fill="url(#paint3_linear)"/>
<path d="M92.9542 0.0201874L82.6837 -5.86084C82.0828 -6.20626 81.4015 -6.38698 80.7084 -6.38475C80.0154 -6.38251 79.3352 -6.19741 78.7366 -5.84813L68.5039 0.103739C67.9062 0.452499 67.4103 0.951835 67.0657 1.55197C66.7211 2.15211 66.5398 2.83208 66.5398 3.52413L66.5799 15.3638C66.5838 16.0573 66.7694 16.7376 67.1183 17.3369C67.4672 17.9362 67.9672 18.4336 68.5683 18.7794L78.836 24.6587C79.4371 25.0048 80.1189 25.186 80.8126 25.1841C81.5062 25.1821 82.187 24.9971 82.7862 24.6477L93.0216 18.6941C93.6174 18.3427 94.1111 17.8418 94.4539 17.241C94.7966 16.6402 94.9766 15.9604 94.9759 15.2687L94.9358 3.42928C94.9312 2.73763 94.7459 2.05919 94.3983 1.46121C94.0507 0.863226 93.5529 0.366472 92.9542 0.0201874Z" fill="#FF6D6D" fill-opacity="0.2"/>
<path d="M88.2959 3.60297L81.9477 -0.0316586C81.5763 -0.245148 81.1552 -0.356844 80.7269 -0.355456C80.2985 -0.354068 79.8781 -0.239646 79.5082 -0.0237548L73.1851 3.65463C72.8157 3.87023 72.5093 4.17887 72.2963 4.54978C72.0834 4.92069 71.9713 5.34093 71.9713 5.76863L71.9961 13.0862C71.9987 13.5146 72.1135 13.9349 72.3292 14.3052C72.5448 14.6754 72.8537 14.9826 73.2252 15.1962L79.5708 18.83C79.9424 19.0438 80.3639 19.1558 80.7926 19.1546C81.2214 19.1534 81.6422 19.0391 82.0126 18.8232L88.3384 15.1437C88.7066 14.9265 89.0118 14.6169 89.2236 14.2456C89.4354 13.8743 89.5467 13.4541 89.5463 13.0266L89.5215 5.70906C89.5184 5.28166 89.4036 4.8625 89.1887 4.49309C88.9737 4.12368 88.6659 3.81684 88.2959 3.60297Z" fill="#FFDD0F"/>
<path d="M48.3941 -5.59997L31.7765 -15.1151C30.8044 -15.674 29.7019 -15.9665 28.5805 -15.9629C27.4591 -15.9592 26.3585 -15.6597 25.3899 -15.0945L8.8337 -5.46447C7.86687 -4.90021 7.06473 -4.09251 6.50717 -3.1218C5.9496 -2.15108 5.65605 -1.05124 5.65578 0.0682087L5.7207 19.2246C5.72738 20.3464 6.02806 21.4468 6.59269 22.4161C7.15733 23.3855 7.96624 24.1899 8.93873 24.7491L25.5514 34.2619C26.5241 34.8216 27.6274 35.1147 28.7497 35.1116C29.8719 35.1084 30.9735 34.8091 31.9431 34.2438L48.5039 24.611C49.4678 24.0425 50.2665 23.232 50.821 22.26C51.3755 21.2879 51.6666 20.1879 51.6654 19.0688L51.6005 -0.0876102C51.5924 -1.20612 51.2924 -2.30312 50.73 -3.26998C50.1676 -4.23684 49.3624 -5.04002 48.3941 -5.59997Z" fill="#FF7272" fill-opacity="0.2"/>
<path fill-rule="evenodd" clip-rule="evenodd" d="M31.2781 -14.2481C30.4585 -14.7194 29.5291 -14.9659 28.5837 -14.9629C27.6383 -14.9598 26.7105 -14.7073 25.894 -14.2308L25.8927 -14.23L9.33776 -4.6008C9.33747 -4.60064 9.33804 -4.60097 9.33776 -4.6008C8.52219 -4.12463 7.84469 -3.44267 7.3743 -2.62372C6.90403 -1.80499 6.65631 -0.87742 6.65578 0.0667114C6.65578 0.0672894 6.65578 0.0678673 6.65578 0.0684452L6.72068 19.2186C6.72068 19.219 6.72069 19.2195 6.72069 19.2199C6.72654 20.1664 6.98034 21.0949 7.45679 21.9128C7.93313 22.7306 8.61543 23.4093 9.43569 23.8813C9.4362 23.8816 9.43671 23.8819 9.43722 23.8822L26.0502 33.3952C26.8703 33.8671 27.8006 34.1142 28.7468 34.1116C29.6931 34.1089 30.622 33.8565 31.4395 33.3799L47.9958 23.7497C47.9967 23.7492 47.9977 23.7486 47.9986 23.7481C48.8113 23.268 49.4847 22.5844 49.9524 21.7645C50.4206 20.9437 50.6664 20.0149 50.6654 19.0699C50.6654 19.0699 50.6654 19.07 50.6654 19.0699L50.6005 -0.0804253C50.6005 -0.081255 50.6005 -0.0820847 50.6005 -0.0829144C50.5933 -1.02639 50.34 -1.95163 49.8656 -2.76718C49.3911 -3.58285 48.712 -4.26054 47.8953 -4.73324C47.8947 -4.73359 47.8941 -4.73395 47.8935 -4.7343L31.2781 -14.2481ZM48.3941 -5.59997C49.3624 -5.04002 50.1676 -4.23684 50.73 -3.26998C51.2924 -2.30312 51.5924 -1.20612 51.6005 -0.0876102L51.6654 19.0688C51.6666 20.1879 51.3755 21.2879 50.821 22.26C50.2665 23.232 49.4678 24.0425 48.5039 24.611L31.9431 34.2438C30.9735 34.8091 29.8719 35.1084 28.7497 35.1116C27.6274 35.1147 26.5241 34.8216 25.5514 34.2619L8.93873 24.7491C7.96624 24.1899 7.15733 23.3855 6.59269 22.4161C6.02806 21.4468 5.72738 20.3464 5.7207 19.2246L5.65578 0.0682087C5.65605 -1.05124 5.9496 -2.15108 6.50717 -3.1218C7.06473 -4.09251 7.86687 -4.90021 8.8337 -5.46447L25.3899 -15.0945C26.3585 -15.6597 27.4591 -15.9592 28.5805 -15.9629C29.7019 -15.9665 30.8044 -15.674 31.7765 -15.1151L48.3941 -5.59997Z" fill="url(#paint4_linear)"/>
<path d="M100.491 85.4235L83.8741 75.9084C82.9019 75.3494 81.7994 75.057 80.6779 75.0606C79.5565 75.0642 78.4559 75.3638 77.4873 75.929L60.931 85.5589C59.9639 86.1233 59.1616 86.9313 58.6041 87.9022C58.0465 88.8732 57.7531 89.9734 57.7531 91.0931L57.8183 110.249C57.8249 111.371 58.1256 112.472 58.6902 113.441C59.2549 114.41 60.0637 115.215 61.0363 115.774L77.649 125.287C78.6217 125.846 79.725 126.14 80.8473 126.136C81.9695 126.133 83.0711 125.834 84.0407 125.269L100.601 115.636C101.565 115.067 102.364 114.257 102.919 113.285C103.473 112.313 103.764 111.213 103.763 110.094L103.698 90.9372C103.69 89.8185 103.39 88.7212 102.828 87.7541C102.265 86.787 101.46 85.9836 100.491 85.4235Z" fill="#FF7272" fill-opacity="0.2"/>
<path fill-rule="evenodd" clip-rule="evenodd" d="M84.0407 125.269L100.601 115.636C101.565 115.067 102.364 114.257 102.919 113.285C103.473 112.313 103.764 111.213 103.763 110.094L103.698 90.9372C103.69 89.8185 103.39 88.7212 102.828 87.7541C102.265 86.787 101.46 85.9836 100.491 85.4235L83.8741 75.9084C82.9019 75.3494 81.7994 75.057 80.6779 75.0606C79.5565 75.0642 78.4559 75.3638 77.4873 75.929L60.931 85.5589C59.9639 86.1233 59.1616 86.9313 58.6041 87.9022C58.0465 88.8732 57.7531 89.9734 57.7531 91.0931L57.8183 110.249C57.8249 111.371 58.1256 112.472 58.6902 113.441C59.2549 114.41 60.0637 115.215 61.0363 115.774L77.649 125.287C78.6217 125.846 79.725 126.14 80.8473 126.136C81.9695 126.133 83.0711 125.834 84.0407 125.269ZM61.5347 114.907C61.5348 114.907 61.5347 114.907 61.5347 114.907L78.1478 124.42C78.9679 124.892 79.8982 125.139 80.8444 125.136C81.7907 125.134 82.7195 124.881 83.537 124.405L100.093 114.775C100.094 114.774 100.095 114.774 100.096 114.773C100.909 114.293 101.582 113.609 102.05 112.789C102.518 111.969 102.764 111.041 102.763 110.096C102.763 110.096 102.763 110.095 102.763 110.095L102.698 90.9443C102.698 90.9438 102.698 90.9432 102.698 90.9426C102.691 89.9987 102.438 89.0729 101.963 88.2568C101.489 87.441 100.809 86.7631 99.9927 86.2903C99.992 86.2899 99.9914 86.2895 99.9907 86.2891L83.3757 76.7753C82.5561 76.3041 81.6266 76.0575 80.6812 76.0606C79.7357 76.0636 78.8078 76.3162 77.9913 76.7927L77.99 76.7934L61.435 86.4226C61.4347 86.4228 61.4353 86.4225 61.435 86.4226C60.6192 86.8989 59.9417 87.581 59.4713 88.4002C59.001 89.2192 58.7534 90.147 58.7531 91.0914C58.7531 91.092 58.7531 91.0925 58.7531 91.0931L58.8183 110.243C58.8183 110.244 58.8183 110.244 58.8183 110.245C58.8241 111.191 59.0779 112.12 59.5543 112.938C60.0309 113.756 60.7138 114.435 61.5347 114.907Z" fill="url(#paint5_linear)"/>
<path d="M92.9542 91.1028L82.6837 85.2232C82.0828 84.8777 81.4015 84.697 80.7084 84.6992C80.0154 84.7015 79.3352 84.8866 78.7366 85.2359L68.5039 91.1877C67.9062 91.5365 67.4103 92.0358 67.0657 92.6359C66.7211 93.2361 66.5398 93.9161 66.5398 94.6081L66.5799 106.448C66.584 107.141 66.7698 107.821 67.1187 108.42C67.4675 109.019 67.9674 109.516 68.5683 109.862L78.836 115.741C79.4371 116.087 80.1189 116.269 80.8126 116.267C81.5062 116.265 82.187 116.08 82.7862 115.73L93.0216 109.777C93.6174 109.425 94.1111 108.924 94.4539 108.324C94.7966 107.723 94.9766 107.043 94.9759 106.351L94.9358 94.5119C94.9312 93.8202 94.7459 93.1418 94.3983 92.5438C94.0507 91.9458 93.5529 91.449 92.9542 91.1028Z" fill="#FF6D6D" fill-opacity="0.2"/>
<path d="M88.2959 94.8022L81.9477 91.1676C81.5763 90.9541 81.1552 90.8424 80.7269 90.8438C80.2985 90.8452 79.8781 90.9596 79.5082 91.1755L73.1851 94.8538C72.8158 95.0695 72.5094 95.3781 72.2964 95.749C72.0834 96.1199 71.9714 96.5401 71.9713 96.9678L71.9961 104.285C71.9987 104.714 72.1135 105.134 72.3292 105.504C72.5448 105.875 72.8538 106.182 73.2252 106.395L79.5708 110.029C79.9424 110.243 80.3639 110.355 80.7926 110.354C81.2214 110.353 81.6422 110.238 82.0126 110.022L88.3384 106.343C88.7066 106.126 89.0118 105.816 89.2236 105.445C89.4354 105.073 89.5467 104.653 89.5463 104.226L89.5215 96.9083C89.5184 96.4809 89.4036 96.0617 89.1887 95.6923C88.9737 95.3229 88.6659 95.0161 88.2959 94.8022Z" fill="#FFDD0F"/>
<path d="M48.4918 85.6012L31.8743 76.0861C30.9021 75.5271 29.7996 75.2347 28.6782 75.2383C27.5568 75.2419 26.4562 75.5415 25.4877 76.1067L8.93144 85.7367C7.9644 86.3011 7.16214 87.109 6.60456 88.08C6.04698 89.051 5.75353 90.1511 5.75352 91.2708L5.81843 110.427C5.82511 111.549 6.12579 112.649 6.69043 113.619C7.25507 114.588 8.06398 115.392 9.03647 115.952L25.6491 125.464C26.6219 126.024 27.7251 126.317 28.8474 126.314C29.9697 126.311 31.0713 126.012 32.0408 125.446L48.6016 115.814C49.5656 115.245 50.3643 114.435 50.9189 113.463C51.4734 112.49 51.7644 111.39 51.7631 110.271L51.6982 91.115C51.6904 89.9962 51.3905 88.8989 50.8281 87.9318C50.2657 86.9647 49.4603 86.1613 48.4918 85.6012Z" fill="#FF7272" fill-opacity="0.2"/>
<path fill-rule="evenodd" clip-rule="evenodd" d="M31.3758 76.953C30.5562 76.4818 29.6268 76.2353 28.6814 76.2383C27.7361 76.2414 26.8082 76.4939 25.9917 76.9704L25.9905 76.9711L9.43549 86.6004C9.43525 86.6005 9.43573 86.6002 9.43549 86.6004C8.6197 87.0766 7.94218 87.7587 7.47175 88.578C7.00145 89.397 6.75382 90.3248 6.75352 91.2692C6.75352 91.2697 6.75352 91.2703 6.75352 91.2708L6.81842 110.421C6.81842 110.422 6.81842 110.422 6.81842 110.422C6.82428 111.369 7.07808 112.297 7.55452 113.115C8.03116 113.934 8.71401 114.613 9.53495 115.085L26.1479 124.598C26.9681 125.07 27.8983 125.317 28.8446 125.314C29.7909 125.311 30.7197 125.059 31.5372 124.583L48.0936 114.952C48.0946 114.952 48.0956 114.951 48.0966 114.951C48.9092 114.471 49.5826 113.787 50.0502 112.967C50.5182 112.147 50.7639 111.218 50.7631 110.274C50.7631 110.273 50.7631 110.273 50.7631 110.272L50.6982 91.1219C50.6982 91.1213 50.6982 91.1207 50.6982 91.1201C50.6913 90.1762 50.4381 89.2505 49.9636 88.4345C49.4892 87.6186 48.8099 86.9407 47.9931 86.4679C47.9924 86.4676 47.9918 86.4672 47.9912 86.4669L31.3758 76.953ZM48.4918 85.6012C49.4603 86.1613 50.2657 86.9647 50.8281 87.9318C51.3905 88.8989 51.6904 89.9962 51.6982 91.115L51.7631 110.271C51.7644 111.39 51.4734 112.49 50.9189 113.463C50.3643 114.435 49.5656 115.245 48.6016 115.814L32.0408 125.446C31.0713 126.012 29.9697 126.311 28.8474 126.314C27.7251 126.317 26.6219 126.024 25.6491 125.464L9.03647 115.952C8.06398 115.392 7.25507 114.588 6.69043 113.619C6.12579 112.649 5.82511 111.549 5.81843 110.427L5.75352 91.2708C5.75353 90.1511 6.04698 89.051 6.60456 88.08C7.16214 87.109 7.9644 86.3011 8.93144 85.7367L25.4877 76.1067C26.4562 75.5415 27.5568 75.2419 28.6782 75.2383C29.7996 75.2347 30.9021 75.5271 31.8743 76.0861L48.4918 85.6012Z" fill="url(#paint6_linear)"/>
<path d="M15.3543 10.5961L5.08272 4.71533C4.48182 4.36991 3.80041 4.1892 3.10732 4.19143C2.41422 4.19366 1.73402 4.37876 1.13535 4.72803L-9.09729 10.6799C-9.69503 11.0287 -10.1909 11.528 -10.5356 12.1281C-10.8802 12.7283 -11.0615 13.4082 -11.0614 14.1003L-11.0211 25.94C-11.0173 26.6335 -10.8318 27.3138 -10.4828 27.9132C-10.1339 28.5125 -9.63386 29.0099 -9.03265 29.3555L1.23466 35.2349C1.83579 35.5809 2.51769 35.7622 3.21131 35.7602C3.90493 35.7583 4.58573 35.5733 5.18493 35.2239L15.4204 29.2703C16.0162 28.9189 16.5098 28.418 16.8526 27.8172C17.1954 27.2164 17.3753 26.5365 17.3746 25.8448L17.3345 14.0054C17.3301 13.3139 17.1451 12.6355 16.7977 12.0375C16.4504 11.4395 15.9528 10.9426 15.3543 10.5961Z" fill="#FFDD0F"/>
<path d="M40.8208 0.0201874L30.5503 -5.86084C29.9494 -6.20626 29.2681 -6.38698 28.575 -6.38475C27.8819 -6.38251 27.2018 -6.19741 26.6032 -5.84813L16.3705 0.103739C15.7728 0.452499 15.2769 0.951835 14.9323 1.55197C14.5876 2.15211 14.4064 2.83208 14.4064 3.52413L14.4465 15.3638C14.4504 16.0573 14.636 16.7376 14.9849 17.3369C15.3338 17.9362 15.8338 18.4336 16.4349 18.7794L26.7026 24.6587C27.3037 25.0048 27.9855 25.186 28.6791 25.1841C29.3728 25.1821 30.0536 24.9971 30.6527 24.6477L40.8882 18.6941C41.484 18.3427 41.9777 17.8418 42.3204 17.241C42.6632 16.6402 42.8432 15.9604 42.8425 15.2687L42.8024 3.42928C42.7978 2.73763 42.6125 2.05919 42.2649 1.46121C41.9173 0.863226 41.4195 0.366472 40.8208 0.0201874Z" fill="#FF6D6D" fill-opacity="0.2"/>
<path d="M40.8208 90.985L30.5503 85.104C29.9494 84.7586 29.2681 84.5779 28.575 84.5801C27.8819 84.5823 27.2018 84.7674 26.6032 85.1167L16.3705 91.0686C15.7728 91.4173 15.2769 91.9167 14.9323 92.5168C14.5876 93.1169 14.4064 93.7969 14.4064 94.489L14.4465 106.329C14.4504 107.022 14.636 107.702 14.9849 108.302C15.3338 108.901 15.8338 109.398 16.4349 109.744L26.7026 115.624C27.3037 115.97 27.9855 116.151 28.6791 116.149C29.3728 116.147 30.0536 115.962 30.6527 115.613L40.8882 109.659C41.484 109.308 41.9777 108.807 42.3204 108.206C42.6632 107.605 42.8432 106.925 42.8425 106.233L42.8024 94.3941C42.7978 93.7025 42.6125 93.024 42.2649 92.426C41.9173 91.8281 41.4195 91.3313 40.8208 90.985Z" fill="#FF6D6D" fill-opacity="0.2"/>
</g>
<circle cx="55" cy="55" r="54" stroke="#FF6D6D" stroke-width="2"/>
<circle cx="79.6364" cy="83.6364" r="21.6364" fill="white"/>
<circle cx="79.6364" cy="83.6364" r="21.6364" fill="#452858"/>
<circle cx="79.6364" cy="83.6364" r="21.1364" stroke="url(#paint7_linear)"/>
<path d="M89.3354 75.0618L88.2108 73.9375L79.6363 82.5126L71.0618 73.9375L69.9372 75.0618L78.5118 83.6369L69.9372 92.2114L71.0618 93.3356L79.6363 84.7612L88.2108 93.3356L89.3354 92.2114L80.7602 83.6369L89.3354 75.0618Z" fill="#FF6D6D" stroke="#FF6D6D"/>
<defs>
<linearGradient id="paint0_linear" x1="55.2773" y1="13.6903" x2="55.2773" y2="101.429" gradientUnits="userSpaceOnUse">
<stop stop-color="#FF6D6D"/>
<stop offset="1" stop-color="#FF6D6D" stop-opacity="0"/>
</linearGradient>
<linearGradient id="paint1_linear" x1="106.477" y1="-6.50122" x2="106.477" y2="101.258" gradientUnits="userSpaceOnUse">
<stop stop-color="#FF7163"/>
<stop offset="1" stop-color="#FF7C7C" stop-opacity="0"/>
</linearGradient>
<linearGradient id="paint2_linear" x1="3.27773" y1="-4.50171" x2="3.27773" y2="101.605" gradientUnits="userSpaceOnUse">
<stop stop-color="#FF7163"/>
<stop offset="1" stop-color="#FF7C7C" stop-opacity="0"/>
</linearGradient>
<linearGradient id="paint3_linear" x1="80.7581" y1="-8.01318" x2="80.7581" y2="55.83" gradientUnits="userSpaceOnUse">
<stop stop-color="#FF6D6D"/>
<stop offset="1" stop-color="#FF6D6D" stop-opacity="0"/>
</linearGradient>
<linearGradient id="paint4_linear" x1="28.6606" y1="-7.83741" x2="28.6606" y2="56.0057" gradientUnits="userSpaceOnUse">
<stop stop-color="#FF7163"/>
<stop offset="1" stop-color="#FF7C7C" stop-opacity="0"/>
</linearGradient>
<linearGradient id="paint5_linear" x1="80.7581" y1="42.9984" x2="80.7581" y2="147.031" gradientUnits="userSpaceOnUse">
<stop stop-color="#FF7163"/>
<stop offset="1" stop-color="#FF7C7C" stop-opacity="0"/>
</linearGradient>
<linearGradient id="paint6_linear" x1="28.7583" y1="25.9996" x2="28.7583" y2="147.209" gradientUnits="userSpaceOnUse">
<stop stop-color="#FF7163"/>
<stop offset="1" stop-color="#FF7C7C" stop-opacity="0"/>
</linearGradient>
<linearGradient id="paint7_linear" x1="79.6364" y1="68.8843" x2="79.6364" y2="122.975" gradientUnits="userSpaceOnUse">
<stop stop-color="#FF6D6D"/>
<stop offset="1" stop-color="#FF6D6D" stop-opacity="0"/>
</linearGradient>
<clipPath id="clip0">
<rect x="13.2773" y="13" width="84" height="84" rx="42" fill="white"/>
</clipPath>
</defs>
</svg>
