<svg width="1534" height="942" fill="none" xmlns="http://www.w3.org/2000/svg"><path fill="url(#paint0_linear)" d="M0 0h1534v942H0z"/><path d="M1286.31 72.823c1.14 0 1.14-1.782 0-1.782-1.16 0-1.16 1.782 0 1.782zM1259.96 94.23c1.15 0 1.15-1.782 0-1.782-1.14 0-1.14 1.782 0 1.782zM1314.3 104.659c1.14 0 1.14-1.782 0-1.782s-1.14 1.782 0 1.782zM1287.95 103.566c1.14 0 1.14-1.782 0-1.782s-1.14 1.782 0 1.782zM1360.97 131.008c1.14 0 1.14-1.782 0-1.782-1.17 0-1.17 1.782 0 1.782zM1360.39 107.415c1.15 0 1.15-1.781 0-1.781-1.14 0-1.14 1.781 0 1.781zM1338.99 95.322c1.14 0 1.14-1.782 0-1.782s-1.14 1.782 0 1.782zM1384.01 140.347c1.14 0 1.14-1.782 0-1.782s-1.16 1.782 0 1.782z" fill="#fff"/><path fill-rule="evenodd" clip-rule="evenodd" d="M1266 71.397l2.16 1.236-2.21 1.14-1.23 2.186-1.17-2.21-2.16-1.259 2.21-1.14 1.24-2.186 1.16 2.233zM1377.64 119.676l2.17 1.236-2.21 1.164-1.24 2.162-1.16-2.209-2.17-1.236 2.21-1.164 1.24-2.162 1.16 2.209zM1291.45 115.897l2.18 1.236-2.23 1.164-1.24 2.162-1.16-2.21-2.16-1.235 2.21-1.164 1.23-2.186 1.17 2.233zM1304.3 46.236l4.28 2.447-4.38 2.28-2.42 4.278-2.3-4.348-4.28-2.448 4.37-2.304 2.45-4.277 2.28 4.372z" fill="#fff"/><path d="M1435.39 234.209c1.14 0 1.14 1.782 0 1.782-1.17 0-1.17-1.782 0-1.782zM1409.04 212.803c1.14 0 1.14 1.782 0 1.782s-1.14-1.782 0-1.782zM1463.38 202.373c1.14 0 1.14 1.782 0 1.782s-1.14-1.782 0-1.782zM1437.03 203.466c1.14 0 1.14 1.782 0 1.782s-1.14-1.782 0-1.782zM1510.04 176.025c1.14 0 1.14 1.782 0 1.782-1.16 0-1.16-1.782 0-1.782zM1509.47 199.617c1.14 0 1.14 1.782 0 1.782s-1.14-1.782 0-1.782zM1488.06 211.71c1.14 0 1.14 1.782 0 1.782s-1.14-1.782 0-1.782zM1533.09 166.686c1.14 0 1.14 1.782 0 1.782s-1.17-1.782 0-1.782z" fill="#fff"/><path fill-rule="evenodd" clip-rule="evenodd" d="M1415.07 235.635l2.17-1.236-2.21-1.14-1.24-2.186-1.16 2.21-2.16 1.259 2.21 1.14 1.23 2.186 1.16-2.233zM1526.72 187.356l2.16-1.236-2.21-1.164-1.23-2.162-1.17 2.21-2.16 1.235 2.21 1.165 1.24 2.162 1.16-2.21zM1440.52 191.135l2.19-1.235-2.24-1.165-1.23-2.162-1.17 2.21-2.16 1.235 2.21 1.165 1.24 2.185 1.16-2.233zM1453.37 260.797l4.28-2.448-4.37-2.281-2.42-4.276-2.31 4.348-4.28 2.447 4.38 2.305 2.44 4.276 2.28-4.371z" fill="#fff"/><path d="M1284.59 355.519c1.14 0 1.14-1.782 0-1.782-1.16 0-1.16 1.782 0 1.782zM1258.24 376.925c1.14 0 1.14-1.782 0-1.782s-1.14 1.782 0 1.782zM1312.58 387.355c1.14 0 1.14-1.782 0-1.782s-1.14 1.782 0 1.782zM1286.23 386.262c1.14 0 1.14-1.782 0-1.782s-1.14 1.782 0 1.782zM1359.24 413.703c1.14 0 1.14-1.782 0-1.782-1.16 0-1.16 1.782 0 1.782zM1358.67 390.111c1.14 0 1.14-1.782 0-1.782s-1.14 1.782 0 1.782zM1337.27 378.018c1.14 0 1.14-1.782 0-1.782s-1.14 1.782 0 1.782zM1382.29 423.042c1.14 0 1.14-1.782 0-1.782s-1.16 1.782 0 1.782z" fill="#fff"/><path fill-rule="evenodd" clip-rule="evenodd" d="M1264.28 354.093l2.16 1.236-2.21 1.14-1.23 2.186-1.17-2.21-2.16-1.259 2.21-1.14 1.23-2.186 1.17 2.233zM1375.92 402.372l2.17 1.236-2.21 1.164-1.24 2.162-1.16-2.21-2.17-1.235 2.21-1.164 1.24-2.162 1.16 2.209zM1289.72 398.593l2.19 1.236-2.23 1.164-1.24 2.162-1.16-2.21-2.16-1.235 2.21-1.164 1.23-2.186 1.16 2.233zM1302.58 328.932l4.28 2.447-4.38 2.281-2.42 4.276-2.3-4.348-4.28-2.447 4.37-2.304 2.45-4.277 2.28 4.372z" fill="#fff"/><path d="M1068.14 161.967c1.14 0 1.14-1.782 0-1.782-1.17 0-1.17 1.782 0 1.782zM1041.79 183.373c1.14 0 1.14-1.782 0-1.782s-1.14 1.782 0 1.782zM1096.13 193.803c1.14 0 1.14-1.782 0-1.782s-1.14 1.782 0 1.782zM1069.78 192.71c1.14 0 1.14-1.782 0-1.782s-1.14 1.782 0 1.782zM1142.79 220.151c1.14 0 1.14-1.782 0-1.782-1.16 0-1.16 1.782 0 1.782zM1142.22 196.559c1.14 0 1.14-1.782 0-1.782s-1.14 1.782 0 1.782zM1120.81 184.466c1.14 0 1.14-1.782 0-1.782s-1.14 1.782 0 1.782zM1165.84 229.49c1.14 0 1.14-1.782 0-1.782s-1.17 1.782 0 1.782z" fill="#fff"/><path fill-rule="evenodd" clip-rule="evenodd" d="M1047.82 160.541l2.17 1.236-2.21 1.14-1.24 2.186-1.16-2.21-2.17-1.259 2.21-1.14 1.24-2.186 1.16 2.233zM1159.47 208.82l2.16 1.236-2.21 1.164-1.23 2.162-1.17-2.21-2.16-1.235 2.21-1.164 1.23-2.163 1.17 2.21zM1073.27 205.041l2.19 1.235-2.24 1.165-1.23 2.162-1.17-2.21-2.16-1.235 2.21-1.165 1.24-2.185 1.16 2.233z" fill="#fff"/><circle opacity=".8" cx="1221.87" cy="37.824" r="3.533" fill="#fff"/><circle opacity=".8" cx="1114.52" cy="120.637" r="1.796" fill="#fff"/><circle opacity=".8" cx="1012.53" cy="173.56" r="3.533" fill="#fff"/><circle opacity=".8" cx="1288.33" cy="17.641" r="1.631" fill="#fff"/><path d="M284.629 72.823c-1.141 0-1.141-1.782 0-1.782 1.164 0 1.164 1.782 0 1.782zM310.978 94.23c-1.141 0-1.141-1.782 0-1.782 1.14 0 1.14 1.782 0 1.782zM256.641 104.659c-1.141 0-1.141-1.782 0-1.782 1.14 0 1.14 1.782 0 1.782zM282.989 103.566c-1.14 0-1.14-1.782 0-1.782 1.141 0 1.141 1.782 0 1.782zM209.977 131.008c-1.14 0-1.14-1.782 0-1.782 1.165 0 1.165 1.782 0 1.782zM210.547 107.415c-1.14 0-1.14-1.781 0-1.781 1.141 0 1.141 1.781 0 1.781zM231.955 95.322c-1.141 0-1.141-1.782 0-1.782 1.14 0 1.14 1.782 0 1.782zM186.931 140.347c-1.141 0-1.141-1.782 0-1.782 1.14 0 1.164 1.782 0 1.782z" fill="#fff"/><path fill-rule="evenodd" clip-rule="evenodd" d="M304.943 71.397l-2.162 1.236 2.21 1.14 1.235 2.186 1.164-2.21 2.162-1.259-2.209-1.14-1.236-2.186-1.164 2.233zM193.298 119.676l-2.162 1.236 2.21 1.164 1.235 2.162 1.165-2.209 2.162-1.236-2.21-1.164-1.235-2.162-1.165 2.209zM279.497 115.897l-2.186 1.236 2.234 1.164 1.235 2.162 1.164-2.21 2.162-1.235-2.209-1.164-1.236-2.186-1.164 2.233zM266.643 46.236l-4.276 2.447 4.371 2.28 2.424 4.278 2.304-4.348 4.277-2.448-4.372-2.304-2.447-4.277-2.281 4.372z" fill="#fff"/><path d="M135.553 234.209c-1.14 0-1.14 1.782 0 1.782 1.165 0 1.165-1.782 0-1.782zM161.902 212.803c-1.14 0-1.14 1.782 0 1.782 1.141 0 1.141-1.782 0-1.782zM107.565 202.373c-1.14 0-1.14 1.782 0 1.782 1.141 0 1.141-1.782 0-1.782zM133.914 203.466c-1.14 0-1.14 1.782 0 1.782s1.14-1.782 0-1.782zM60.902 176.025c-1.14 0-1.14 1.782 0 1.782 1.164 0 1.164-1.782 0-1.782zM61.472 199.617c-1.14 0-1.14 1.782 0 1.782s1.14-1.782 0-1.782zM82.88 211.71c-1.141 0-1.141 1.782 0 1.782 1.14 0 1.14-1.782 0-1.782zM37.855 166.686c-1.14 0-1.14 1.782 0 1.782s1.165-1.782 0-1.782z" fill="#fff"/><path fill-rule="evenodd" clip-rule="evenodd" d="M155.868 235.635l-2.162-1.236 2.209-1.14 1.236-2.186 1.164 2.21 2.162 1.259-2.21 1.14-1.235 2.186-1.164-2.233zM44.223 187.356l-2.162-1.236 2.21-1.164 1.235-2.162 1.164 2.21 2.162 1.235-2.21 1.165-1.235 2.162-1.164-2.21zM130.422 191.135l-2.186-1.235 2.233-1.165 1.236-2.162 1.164 2.21 2.162 1.235-2.21 1.165-1.235 2.185-1.164-2.233zM117.568 260.797l-4.277-2.448 4.372-2.281 2.423-4.276 2.305 4.348 4.277 2.447-4.372 2.305-2.447 4.276-2.281-4.371z" fill="#fff"/><path d="M286.349 355.519c-1.14 0-1.14-1.782 0-1.782 1.164 0 1.164 1.782 0 1.782zM312.698 376.925c-1.14 0-1.14-1.782 0-1.782 1.141 0 1.141 1.782 0 1.782zM258.361 387.355c-1.14 0-1.14-1.782 0-1.782 1.141 0 1.141 1.782 0 1.782zM284.71 386.262c-1.141 0-1.141-1.782 0-1.782 1.14 0 1.14 1.782 0 1.782zM211.698 413.703c-1.141 0-1.141-1.782 0-1.782 1.164 0 1.164 1.782 0 1.782zM212.268 390.111c-1.141 0-1.141-1.782 0-1.782 1.14 0 1.14 1.782 0 1.782zM233.675 378.018c-1.14 0-1.14-1.782 0-1.782s1.14 1.782 0 1.782zM188.651 423.042c-1.14 0-1.14-1.782 0-1.782 1.141 0 1.164 1.782 0 1.782z" fill="#fff"/><path fill-rule="evenodd" clip-rule="evenodd" d="M306.663 354.093l-2.162 1.236 2.21 1.14 1.235 2.186 1.165-2.21 2.162-1.259-2.21-1.14-1.235-2.186-1.165 2.233zM195.019 402.372l-2.162 1.236 2.209 1.164 1.236 2.162 1.164-2.21 2.162-1.235-2.209-1.164-1.236-2.162-1.164 2.209zM281.217 398.593l-2.185 1.236 2.233 1.164 1.235 2.162 1.165-2.21 2.162-1.235-2.21-1.164-1.235-2.186-1.165 2.233zM268.364 328.932l-4.277 2.447 4.372 2.281 2.423 4.276 2.305-4.348 4.276-2.447-4.371-2.304-2.447-4.277-2.281 4.372z" fill="#fff"/><path d="M502.804 161.967c-1.14 0-1.14-1.782 0-1.782 1.164 0 1.164 1.782 0 1.782zM529.153 183.373c-1.14 0-1.14-1.782 0-1.782 1.141 0 1.141 1.782 0 1.782zM474.816 193.803c-1.14 0-1.14-1.782 0-1.782 1.141 0 1.141 1.782 0 1.782zM501.165 192.71c-1.141 0-1.141-1.782 0-1.782 1.14 0 1.14 1.782 0 1.782zM428.153 220.151c-1.141 0-1.141-1.782 0-1.782 1.164 0 1.164 1.782 0 1.782zM428.723 196.559c-1.141 0-1.141-1.782 0-1.782 1.14 0 1.14 1.782 0 1.782zM450.13 184.466c-1.14 0-1.14-1.782 0-1.782s1.14 1.782 0 1.782zM405.106 229.49c-1.14 0-1.14-1.782 0-1.782 1.141 0 1.164 1.782 0 1.782z" fill="#fff"/><path fill-rule="evenodd" clip-rule="evenodd" d="M523.119 160.541l-2.163 1.236 2.21 1.14 1.236 2.186 1.164-2.21 2.162-1.259-2.21-1.14-1.235-2.186-1.164 2.233zM411.474 208.82l-2.162 1.236 2.209 1.164 1.236 2.162 1.164-2.21 2.162-1.235-2.209-1.164-1.236-2.163-1.164 2.21zM497.672 205.041l-2.185 1.235 2.233 1.165 1.235 2.162 1.165-2.21 2.162-1.235-2.21-1.165-1.235-2.185-1.165 2.233z" fill="#fff"/><circle opacity=".8" r="3.533" transform="matrix(-1 0 0 1 349.071 37.824)" fill="#fff"/><circle opacity=".8" r="1.796" transform="matrix(-1 0 0 1 456.427 120.637)" fill="#fff"/><circle opacity=".8" r="3.533" transform="matrix(-1 0 0 1 558.409 173.56)" fill="#fff"/><circle opacity=".8" r="1.631" transform="matrix(-1 0 0 1 282.608 17.64)" fill="#fff"/><path d="M1251.63 586.823c-1.14 0-1.14-1.782 0-1.782 1.16 0 1.16 1.782 0 1.782zM1277.98 608.23c-1.14 0-1.14-1.782 0-1.782s1.14 1.782 0 1.782zM1223.64 618.659c-1.14 0-1.14-1.782 0-1.782s1.14 1.782 0 1.782zM1249.99 617.566c-1.14 0-1.14-1.782 0-1.782s1.14 1.782 0 1.782zM1176.98 645.008c-1.14 0-1.14-1.782 0-1.782 1.16 0 1.16 1.782 0 1.782zM1177.55 621.415c-1.14 0-1.14-1.781 0-1.781s1.14 1.781 0 1.781zM1198.95 609.322c-1.14 0-1.14-1.782 0-1.782s1.14 1.782 0 1.782zM1153.93 654.347c-1.14 0-1.14-1.782 0-1.782s1.16 1.782 0 1.782z" fill="#fff"/><path fill-rule="evenodd" clip-rule="evenodd" d="M1271.94 585.397l-2.16 1.236 2.21 1.14 1.24 2.186 1.16-2.209 2.16-1.26-2.21-1.14-1.23-2.186-1.17 2.233zM1160.3 633.676l-2.16 1.236 2.21 1.164 1.23 2.162 1.17-2.209 2.16-1.236-2.21-1.164-1.24-2.162-1.16 2.209zM1246.5 629.897l-2.19 1.236 2.23 1.164 1.24 2.162 1.16-2.21 2.17-1.235-2.21-1.164-1.24-2.186-1.16 2.233zM1233.64 560.236l-4.27 2.447 4.37 2.281 2.42 4.277 2.31-4.348 4.27-2.448-4.37-2.304-2.45-4.277-2.28 4.372z" fill="#fff"/><path d="M1102.55 748.209c-1.14 0-1.14 1.782 0 1.782 1.17 0 1.17-1.782 0-1.782zM1128.9 726.803c-1.14 0-1.14 1.782 0 1.782s1.14-1.782 0-1.782zM1074.57 716.373c-1.15 0-1.15 1.782 0 1.782 1.14 0 1.14-1.782 0-1.782zM1100.91 717.466c-1.14 0-1.14 1.782 0 1.782s1.14-1.782 0-1.782zM1027.9 690.025c-1.14 0-1.14 1.782 0 1.782 1.17 0 1.17-1.782 0-1.782zM1028.47 713.617c-1.14 0-1.14 1.782 0 1.782s1.14-1.782 0-1.782zM1049.88 725.71c-1.14 0-1.14 1.782 0 1.782s1.14-1.782 0-1.782zM1004.86 680.686c-1.15 0-1.15 1.782 0 1.782 1.14 0 1.16-1.782 0-1.782z" fill="#fff"/><path fill-rule="evenodd" clip-rule="evenodd" d="M1122.87 749.635l-2.16-1.236 2.21-1.14 1.23-2.186 1.16 2.21 2.17 1.259-2.21 1.14-1.24 2.186-1.16-2.233zM1011.22 701.356l-2.16-1.236 2.21-1.164 1.24-2.162 1.16 2.21 2.16 1.235-2.21 1.165-1.23 2.162-1.17-2.21zM1097.42 705.135l-2.18-1.235 2.23-1.165 1.23-2.162 1.17 2.21 2.16 1.235-2.21 1.165-1.23 2.185-1.17-2.233zM1084.57 774.797l-4.28-2.448 4.37-2.281 2.43-4.276 2.3 4.348 4.28 2.447-4.37 2.305-2.45 4.276-2.28-4.371z" fill="#fff"/><path d="M1253.35 869.519c-1.14 0-1.14-1.782 0-1.782 1.16 0 1.16 1.782 0 1.782zM1279.7 890.925c-1.14 0-1.14-1.782 0-1.782s1.14 1.782 0 1.782zM1225.36 901.355c-1.14 0-1.14-1.782 0-1.782s1.14 1.782 0 1.782zM1251.71 900.262c-1.14 0-1.14-1.782 0-1.782s1.14 1.782 0 1.782zM1178.7 927.703c-1.14 0-1.14-1.781 0-1.781 1.16 0 1.16 1.781 0 1.781zM1179.27 904.111c-1.14 0-1.14-1.782 0-1.782s1.14 1.782 0 1.782zM1200.68 892.018c-1.15 0-1.15-1.782 0-1.782 1.14 0 1.14 1.782 0 1.782zM1155.65 937.042c-1.14 0-1.14-1.782 0-1.782s1.17 1.782 0 1.782z" fill="#fff"/><path fill-rule="evenodd" clip-rule="evenodd" d="M1273.66 868.093l-2.16 1.236 2.21 1.14 1.24 2.186 1.16-2.21 2.16-1.259-2.21-1.14-1.23-2.186-1.17 2.233zM1162.02 916.372l-2.16 1.236 2.21 1.164 1.23 2.162 1.17-2.21 2.16-1.235-2.21-1.164-1.24-2.162-1.16 2.209zM1248.22 912.593l-2.19 1.236 2.23 1.164 1.24 2.162 1.16-2.21 2.17-1.235-2.21-1.164-1.24-2.186-1.16 2.233zM1235.36 842.932l-4.27 2.447 4.37 2.281 2.42 4.276 2.31-4.348 4.27-2.447-4.37-2.304-2.45-4.277-2.28 4.372z" fill="#fff"/><path d="M1469.8 675.967c-1.14 0-1.14-1.782 0-1.782 1.17 0 1.17 1.782 0 1.782zM1496.15 697.373c-1.14 0-1.14-1.782 0-1.782s1.14 1.782 0 1.782zM1441.82 707.803c-1.14 0-1.14-1.782 0-1.782s1.14 1.782 0 1.782zM1468.16 706.71c-1.14 0-1.14-1.782 0-1.782 1.15 0 1.15 1.782 0 1.782zM1395.15 734.151c-1.14 0-1.14-1.782 0-1.782 1.17 0 1.17 1.782 0 1.782zM1395.72 710.559c-1.14 0-1.14-1.782 0-1.782s1.14 1.782 0 1.782zM1417.13 698.466c-1.14 0-1.14-1.782 0-1.782s1.14 1.782 0 1.782zM1372.11 743.49c-1.14 0-1.14-1.782 0-1.782s1.16 1.782 0 1.782z" fill="#fff"/><path fill-rule="evenodd" clip-rule="evenodd" d="M1490.12 674.541l-2.16 1.236 2.21 1.14 1.23 2.186 1.17-2.21 2.16-1.259-2.21-1.14-1.24-2.186-1.16 2.233zM1378.47 722.82l-2.16 1.236 2.21 1.164 1.24 2.162 1.16-2.21 2.16-1.235-2.21-1.164-1.23-2.163-1.17 2.21zM1464.67 719.041l-2.18 1.235 2.23 1.165 1.24 2.162 1.16-2.21 2.16-1.235-2.21-1.165-1.23-2.185-1.17 2.233z" fill="#fff"/><circle opacity=".8" r="3.533" transform="matrix(-1 0 0 1 1316.07 551.824)" fill="#fff"/><circle opacity=".8" r="1.796" transform="matrix(-1 0 0 1 1423.43 634.637)" fill="#fff"/><circle opacity=".8" r="3.533" transform="matrix(-1 0 0 1 1525.41 687.56)" fill="#fff"/><circle opacity=".8" r="1.631" transform="matrix(-1 0 0 1 1249.61 531.641)" fill="#fff"/><path d="M525.219 640.639c0-1.14 1.782-1.14 1.782 0 0 1.165-1.782 1.165-1.782 0zM503.813 666.989c0-1.141 1.782-1.141 1.782 0 0 1.14-1.782 1.14-1.782 0zM493.383 612.651c0-1.14 1.782-1.14 1.782 0 0 1.141-1.782 1.141-1.782 0zM494.476 639c0-1.14 1.782-1.14 1.782 0 0 1.141-1.782 1.141-1.782 0zM467.035 565.988c0-1.14 1.782-1.14 1.782 0 0 1.164-1.782 1.164-1.782 0zM490.627 566.558c0-1.14 1.782-1.14 1.782 0 0 1.141-1.782 1.141-1.782 0zM502.72 587.965c0-1.14 1.782-1.14 1.782 0 0 1.141-1.782 1.141-1.782 0zM457.696 542.941c0-1.14 1.782-1.14 1.782 0 0 1.141-1.782 1.165-1.782 0z" fill="#fff"/><path fill-rule="evenodd" clip-rule="evenodd" d="M526.645 660.954l-1.236-2.162-1.14 2.209-2.186 1.236 2.21 1.164 1.259 2.162 1.14-2.21 2.186-1.235-2.233-1.164zM478.366 549.309l-1.235-2.162-1.165 2.21-2.162 1.235 2.21 1.164 1.235 2.162 1.165-2.209 2.162-1.236-2.21-1.164zM482.145 635.508l-1.235-2.186-1.165 2.233-2.162 1.236 2.21 1.164 1.235 2.162 1.165-2.21 2.185-1.235-2.233-1.164zM551.807 622.654l-2.448-4.277-2.281 4.372-4.276 2.423 4.348 2.305 2.447 4.277 2.305-4.372 4.276-2.447-4.371-2.281z" fill="#fff"/><path d="M363.833 491.564c0-1.14-1.782-1.14-1.782 0 0 1.164 1.782 1.164 1.782 0zM385.24 517.913c0-1.14-1.782-1.14-1.782 0 0 1.141 1.782 1.141 1.782 0zM395.669 463.576c0-1.14-1.782-1.14-1.782 0 0 1.141 1.782 1.141 1.782 0zM394.576 489.925c0-1.141-1.782-1.141-1.782 0 0 1.14 1.782 1.14 1.782 0zM422.018 416.913c0-1.141-1.782-1.141-1.782 0 0 1.164 1.782 1.164 1.782 0zM398.425 417.483c0-1.141-1.781-1.141-1.781 0 0 1.14 1.781 1.14 1.781 0zM386.332 438.89c0-1.14-1.782-1.14-1.782 0s1.782 1.14 1.782 0zM431.357 393.866c0-1.14-1.782-1.14-1.782 0 0 1.141 1.782 1.164 1.782 0z" fill="#fff"/><path fill-rule="evenodd" clip-rule="evenodd" d="M362.407 511.878l1.236-2.162 1.14 2.21 2.186 1.235-2.209 1.165-1.26 2.162-1.14-2.21-2.186-1.235 2.233-1.165zM410.686 400.234l1.236-2.162 1.164 2.209 2.162 1.236-2.209 1.164-1.236 2.162-1.164-2.21-2.162-1.235 2.209-1.164zM406.907 486.432l1.236-2.185 1.164 2.233 2.162 1.235-2.21 1.165-1.235 2.162-1.164-2.21-2.186-1.235 2.233-1.165zM337.246 473.579l2.447-4.277 2.281 4.372 4.277 2.423-4.348 2.305-2.448 4.276-2.304-4.371-4.277-2.448 4.372-2.28z" fill="#fff"/><path d="M242.524 642.36c0-1.14 1.781-1.14 1.781 0 0 1.164-1.781 1.164-1.781 0zM221.117 668.709c0-1.14 1.782-1.14 1.782 0s-1.782 1.14-1.782 0zM210.688 614.372c0-1.141 1.781-1.141 1.781 0 0 1.14-1.781 1.14-1.781 0zM211.78 640.721c0-1.141 1.782-1.141 1.782 0 0 1.14-1.782 1.14-1.782 0zM184.339 567.709c0-1.141 1.782-1.141 1.782 0 0 1.164-1.782 1.164-1.782 0zM207.931 568.279c0-1.141 1.782-1.141 1.782 0 0 1.14-1.782 1.14-1.782 0zM220.024 589.686c0-1.141 1.782-1.141 1.782 0 0 1.14-1.782 1.14-1.782 0zM175 544.662c0-1.141 1.782-1.141 1.782 0 0 1.14-1.782 1.164-1.782 0z" fill="#fff"/><path fill-rule="evenodd" clip-rule="evenodd" d="M243.949 662.674l-1.235-2.162-1.141 2.21-2.186 1.235 2.21 1.164 1.259 2.163 1.141-2.21 2.186-1.236-2.234-1.164zM195.67 551.03l-1.235-2.163-1.164 2.21-2.163 1.236 2.21 1.164 1.236 2.162 1.164-2.21 2.162-1.235-2.21-1.164zM199.449 637.228l-1.235-2.186-1.164 2.234-2.162 1.235 2.209 1.164 1.236 2.162 1.164-2.209 2.186-1.236-2.234-1.164zM269.111 624.374l-2.447-4.276-2.281 4.371-4.277 2.424 4.348 2.305 2.447 4.276 2.305-4.372 4.276-2.447-4.371-2.281z" fill="#fff"/><path d="M436.076 858.815c0-1.14 1.782-1.14 1.782 0 0 1.164-1.782 1.164-1.782 0zM414.669 885.164c0-1.14 1.782-1.14 1.782 0s-1.782 1.14-1.782 0zM404.24 830.827c0-1.14 1.782-1.14 1.782 0s-1.782 1.14-1.782 0zM405.332 857.176c0-1.141 1.782-1.141 1.782 0 0 1.14-1.782 1.14-1.782 0zM377.891 784.164c0-1.141 1.782-1.141 1.782 0 0 1.164-1.782 1.164-1.782 0zM401.483 784.734c0-1.141 1.782-1.141 1.782 0 0 1.14-1.782 1.14-1.782 0zM413.576 806.141c0-1.141 1.782-1.141 1.782 0 0 1.14-1.782 1.14-1.782 0zM368.552 761.117c0-1.141 1.782-1.141 1.782 0 0 1.14-1.782 1.164-1.782 0z" fill="#fff"/><path fill-rule="evenodd" clip-rule="evenodd" d="M437.501 879.129l-1.235-2.162-1.141 2.21-2.186 1.235 2.21 1.164 1.259 2.163 1.141-2.21 2.186-1.236-2.234-1.164zM389.222 767.485l-1.235-2.162-1.164 2.209-2.162 1.236 2.209 1.164 1.236 2.162 1.164-2.21 2.162-1.235-2.21-1.164zM393.001 853.683l-1.235-2.186-1.164 2.234-2.162 1.235 2.209 1.164 1.236 2.163 1.164-2.21 2.186-1.236-2.234-1.164z" fill="#fff"/><circle opacity=".8" r="3.533" transform="matrix(0 -1 -1 0 560.218 705.082)" fill="#fff"/><circle opacity=".8" r="1.796" transform="matrix(0 -1 -1 0 477.406 812.438)" fill="#fff"/><circle opacity=".8" r="3.533" transform="matrix(0 -1 -1 0 424.482 914.42)" fill="#fff"/><circle opacity=".8" r="1.631" transform="matrix(0 -1 -1 0 580.402 638.618)" fill="#fff"/><path d="M56.629 755.823c-1.14 0-1.14-1.782 0-1.782 1.164 0 1.164 1.782 0 1.782zM82.978 777.229c-1.14 0-1.14-1.782 0-1.782s1.14 1.782 0 1.782zM28.64 787.659c-1.14 0-1.14-1.782 0-1.782 1.141 0 1.141 1.782 0 1.782zM54.99 786.565c-1.141 0-1.141-1.782 0-1.782 1.14 0 1.14 1.782 0 1.782z" fill="#fff"/><path fill-rule="evenodd" clip-rule="evenodd" d="M76.943 754.397l-2.162 1.236 2.21 1.14 1.235 2.186 1.164-2.209 2.162-1.26-2.21-1.14-1.235-2.186-1.164 2.233zM51.497 798.895l-2.186 1.236 2.233 1.164 1.236 2.162 1.164-2.209 2.162-1.236-2.21-1.164-1.235-2.186-1.164 2.233zM38.643 729.235l-4.276 2.447 4.371 2.281 2.424 4.277 2.304-4.348 4.277-2.447-4.372-2.305-2.447-4.277-2.28 4.372z" fill="#fff"/><path d="M274.804 844.968c-1.14 0-1.14-1.782 0-1.782 1.164 0 1.164 1.782 0 1.782zM301.153 866.374c-1.14 0-1.14-1.782 0-1.782 1.141 0 1.141 1.782 0 1.782zM246.816 876.804c-1.14 0-1.14-1.782 0-1.782 1.141 0 1.141 1.782 0 1.782zM273.165 875.711c-1.141 0-1.141-1.782 0-1.782 1.14 0 1.14 1.782 0 1.782zM200.153 903.152c-1.141 0-1.141-1.782 0-1.782 1.164 0 1.164 1.782 0 1.782zM200.723 879.56c-1.141 0-1.141-1.782 0-1.782 1.14 0 1.14 1.782 0 1.782zM222.13 867.467c-1.14 0-1.14-1.782 0-1.782s1.14 1.782 0 1.782zM177.106 912.491c-1.14 0-1.14-1.782 0-1.782 1.141 0 1.164 1.782 0 1.782z" fill="#fff"/><path fill-rule="evenodd" clip-rule="evenodd" d="M295.119 843.542l-2.163 1.236 2.21 1.14 1.236 2.186 1.164-2.21 2.162-1.259-2.21-1.14-1.235-2.186-1.164 2.233zM183.474 891.821l-2.162 1.235 2.209 1.165 1.236 2.162 1.164-2.21 2.162-1.235-2.209-1.165-1.236-2.162-1.164 2.21zM269.673 888.042l-2.186 1.235 2.233 1.165 1.236 2.162 1.164-2.21 2.162-1.235-2.21-1.165-1.235-2.185-1.164 2.233z" fill="#fff"/><circle opacity=".8" r="3.533" transform="matrix(-1 0 0 1 121.071 720.824)" fill="#fff"/><circle opacity=".8" r="1.796" transform="matrix(-1 0 0 1 228.427 803.636)" fill="#fff"/><circle opacity=".8" r="3.533" transform="matrix(-1 0 0 1 330.409 856.56)" fill="#fff"/><circle opacity=".8" r="1.631" transform="matrix(-1 0 0 1 54.608 700.641)" fill="#fff"/><defs><linearGradient id="paint0_linear" x1="767" y1="0" x2="767" y2="942" gradientUnits="userSpaceOnUse"><stop stop-color="#C3BBD6"/><stop offset=".516" stop-color="#CFCAE7"/><stop offset="1" stop-color="#FFE1D5"/></linearGradient></defs></svg>