<svg width="270" height="180" fill="none" xmlns="http://www.w3.org/2000/svg"><ellipse cx="134.637" cy="89.998" rx="134.637" ry="89.998" fill="#BFB9DF" fill-opacity=".3"/><path fill-rule="evenodd" clip-rule="evenodd" d="M219.489 155.606l1.8-1.03-1.84-.96-1.02-1.8-.97 1.83-1.8 1.03 1.84.97 1.03 1.8.96-1.84z" fill="#fff"/><path d="M177.356 23.912c.48 0 .48-.75 0-.75-.49 0-.49.75 0 .75zM166.266 32.922c.48 0 .48-.75 0-.75s-.48.75 0 .75zM189.136 37.312c.48 0 .48-.75 0-.75s-.48.75 0 .75zM178.047 36.852c.48 0 .48-.75 0-.75s-.48.75 0 .75zM208.776 48.401c.48 0 .48-.75 0-.75-.49 0-.49.75 0 .75zM208.536 38.472c.48 0 .48-.75 0-.75s-.48.75 0 .75zM199.526 33.382c.48 0 .48-.75 0-.75s-.48.75 0 .75zM218.476 52.332c.48 0 .48-.75 0-.75s-.49.75 0 .75z" fill="#fff"/><path fill-rule="evenodd" clip-rule="evenodd" d="M168.806 23.312l.91.52-.93.48-.52.92-.49-.93-.91-.53.93-.48.52-.92.49.94zM215.796 43.632l.91.52-.93.49-.52.91-.49-.93-.91-.52.93-.49.52-.91.49.93zM179.516 42.042l.92.52-.94.49-.52.91-.49-.93-.91-.52.93-.49.52-.92.49.94zM184.926 12.722l1.8 1.03-1.84.96-1.02 1.8-.97-1.83-1.8-1.03 1.84-.97 1.03-1.8.96 1.84z" fill="#fff"/><path d="M240.1 91.838c.48 0 .48.75 0 .75-.49 0-.49-.75 0-.75zM229.01 82.828c.48 0 .48.75 0 .75s-.48-.75 0-.75zM251.881 78.439c.48 0 .48.75 0 .75s-.48-.75 0-.75zM240.791 78.898c.48 0 .48.75 0 .75s-.48-.75 0-.75z" fill="#fff"/><path fill-rule="evenodd" clip-rule="evenodd" d="M231.55 92.438l.91-.52-.93-.48-.52-.92-.49.93-.91.53.93.48.52.92.49-.94zM242.26 73.708l.92-.52-.94-.49-.52-.91-.49.93-.91.52.93.49.52.92.49-.94zM247.67 103.028l1.8-1.03-1.84-.96-1.02-1.8-.97 1.83-1.8 1.03 1.84.97 1.03 1.8.96-1.84z" fill="#fff"/><path d="M26.088 98.03c.48 0 .48-.75 0-.75-.49 0-.49.75 0 .75zM14.998 107.04c.48 0 .48-.75 0-.75s-.48.75 0 .75zM37.868 111.43c.48 0 .48-.75 0-.75s-.48.75 0 .75zM26.778 110.97c.48 0 .48-.75 0-.75s-.48.75 0 .75z" fill="#fff"/><path fill-rule="evenodd" clip-rule="evenodd" d="M17.538 97.43l.91.52-.93.48-.52.92-.49-.93-.91-.53.93-.48.52-.92.49.94zM28.248 116.16l.92.52-.94.49-.52.91-.49-.93-.91-.52.93-.49.52-.92.49.94zM33.658 86.84l1.8 1.03-1.84.96-1.02 1.8-.97-1.83-1.8-1.03 1.84-.97 1.03-1.8.96 1.84z" fill="#fff"/><path d="M98.051 147.13c.48 0 .48-.75 0-.75-.49 0-.49.75 0 .75zM86.96 156.14c.48 0 .48-.75 0-.75s-.48.75 0 .75zM109.831 160.529c.48 0 .48-.75 0-.75s-.48.75 0 .75zM98.74 160.069c.48 0 .48-.75 0-.75s-.48.75 0 .75zM129.471 171.619c.48 0 .48-.75 0-.75-.49 0-.49.75 0 .75zM129.231 161.689c.48 0 .48-.75 0-.75s-.48.75 0 .75zM120.22 156.6c.48 0 .48-.75 0-.75s-.48.75 0 .75zM139.17 175.55c.48 0 .48-.75 0-.75s-.49.75 0 .75z" fill="#fff"/><path fill-rule="evenodd" clip-rule="evenodd" d="M89.5 146.53l.91.52-.93.48-.52.92-.49-.93-.91-.53.93-.48.52-.92.49.94zM136.491 166.85l.91.52-.93.49-.52.91-.49-.93-.91-.52.93-.49.52-.91.49.93zM100.211 165.259l.92.52-.94.49-.52.91-.49-.93-.91-.52.93-.49.52-.92.49.94zM59.468 150.84l1.8 1.03-1.84.96-1.02 1.8-.97-1.83-1.8-1.03 1.84-.97 1.03-1.8.96 1.84z" fill="#fff"/><path d="M50.051 33.54c.48 0 .48-.75 0-.75-.49 0-.49.75 0 .75zM38.96 42.55c.48 0 .48-.75 0-.75s-.48.75 0 .75zM61.83 46.94c.48 0 .48-.75 0-.75s-.48.75 0 .75zM50.74 46.48c.48 0 .48-.75 0-.75s-.48.75 0 .75zM81.471 58.03c.48 0 .48-.75 0-.75-.49 0-.49.75 0 .75zM81.231 48.1c.48 0 .48-.75 0-.75s-.48.75 0 .75zM72.22 43.01c.48 0 .48-.75 0-.75s-.48.75 0 .75zM91.17 61.96c.48 0 .48-.75 0-.75s-.49.75 0 .75z" fill="#fff"/><path fill-rule="evenodd" clip-rule="evenodd" d="M41.5 32.94l.91.52-.93.48-.52.92-.49-.93-.91-.53.93-.48.52-.92.49.94zM88.49 53.26l.91.52-.93.49-.52.91-.49-.93-.91-.52.93-.49.52-.91.49.93zM52.21 51.67l.92.52-.94.49-.52.91-.49-.93-.91-.52.93-.49.52-.92.49.94z" fill="#fff"/><circle cx="222.47" cy="32.532" r="1.487" fill="url(#paint0_linear)" fill-opacity=".05"/><circle cx="134.092" cy="35.506" r="1.487" fill="url(#paint1_linear)" fill-opacity=".05"/><circle cx="183.263" cy="159.487" r="1.487" fill="url(#paint2_linear)" fill-opacity=".05"/><circle cx="231.624" cy="145.203" r="1.487" fill="url(#paint3_linear)" fill-opacity=".05"/><circle cx="236.404" cy="53.819" r="1.487" fill="url(#paint4_linear)" fill-opacity=".05"/><circle cx="43.125" cy="140.487" r="1.487" fill="url(#paint5_linear)" fill-opacity=".05"/><circle cx="20.125" cy="67.487" r="1.487" fill="url(#paint6_linear)" fill-opacity=".05"/><circle cx="142.386" cy="163.496" r="1.487" fill="url(#paint7_linear)" fill-opacity=".05"/><circle opacity=".8" cx="111.991" cy="49.081" r="1.487" fill="#fff"/><circle opacity=".8" cx="70.642" cy="131.352" r="1.487" fill="#fff"/><circle opacity=".8" cx="180.381" cy="143.716" r="1.487" fill="#fff"/><circle opacity=".8" cx="230.137" cy="120.003" r="1.487" fill="#fff"/><circle opacity=".8" cx="109.324" cy="167.686" r=".686" fill="#fff"/><circle opacity=".8" cx="192.29" cy="174.863" r=".686" fill="#fff"/><circle opacity=".8" cx="241.996" cy="65.511" r=".686" fill="#fff"/><circle opacity=".8" cx="87.287" cy="23.654" r=".686" fill="#fff"/><circle opacity=".8" cx="184.627" cy="74.809" r=".686" fill="#fff"/><circle opacity=".8" cx="64.298" cy="104.868" r=".686" fill="#fff"/><circle opacity=".8" cx="166.324" cy="168.162" r=".686" fill="#fff"/><path d="M178.296 71.126c-4.482-5.508-10.569-9.858-18.261-13.051-7.692-3.193-16.095-4.79-25.207-4.79-6.797 0-13.295.943-19.493 2.83-6.199 1.885-11.539 4.434-16.02 7.645-4.483 3.212-8.048 7.03-10.7 11.455-2.652 4.425-3.977 9.065-3.977 13.92 0 5.601 1.689 10.85 5.069 15.741 3.38 4.892 8 9 13.864 12.324a35.674 35.674 0 01-1.457 4.256c-.56 1.344-1.064 2.447-1.512 3.306-.449.859-1.055 1.811-1.821 2.857-.765 1.045-1.344 1.783-1.736 2.212-.392.43-1.036 1.14-1.933 2.128-.896.991-1.475 1.635-1.736 1.934-.038.017-.187.187-.448.504l-.392.475-.337.503c-.186.281-.27.458-.252.532.019.073-.019.261-.112.559-.093.299-.084.524.028.673v.056c.15.673.477 1.214.98 1.624a2.192 2.192 0 001.71.503c2.427-.299 4.555-.708 6.385-1.231 9.784-2.503 18.373-7.021 25.767-13.557 2.8.299 5.508.449 8.122.449 9.112 0 17.514-1.597 25.207-4.791 7.692-3.192 13.779-7.543 18.26-13.05 4.482-5.506 6.722-11.51 6.722-18.007.001-6.498-2.24-12.502-6.72-18.009z" fill="url(#paint8_linear)"/><path fill-rule="evenodd" clip-rule="evenodd" d="M110.638 77a1 1 0 011-1h23a1 1 0 010 2h-23a1 1 0 01-1-1zM110.638 85a1 1 0 011-1h47a1 1 0 010 2h-47a1 1 0 01-1-1zM110.638 101a1 1 0 011-1h47a1 1 0 010 2h-47a1 1 0 01-1-1zM110.638 93a1 1 0 011-1h47a1 1 0 010 2h-47a1 1 0 01-1-1z" fill="#E5E1FC"/><defs><linearGradient id="paint0_linear" x1="222.47" y1="34.019" x2="222.47" y2="31.045" gradientUnits="userSpaceOnUse"><stop offset="0" stop-color="#6050B0"/><stop offset="1" stop-color="#351C75"/></linearGradient><linearGradient id="paint1_linear" x1="134.092" y1="36.993" x2="134.092" y2="34.019" gradientUnits="userSpaceOnUse"><stop offset="0" stop-color="#6050B0"/><stop offset="1" stop-color="#351C75"/></linearGradient><linearGradient id="paint2_linear" x1="183.263" y1="160.974" x2="183.263" y2="158" gradientUnits="userSpaceOnUse"><stop offset="0" stop-color="#6050B0"/><stop offset="1" stop-color="#351C75"/></linearGradient><linearGradient id="paint3_linear" x1="231.624" y1="146.69" x2="231.624" y2="143.716" gradientUnits="userSpaceOnUse"><stop offset="0" stop-color="#6050B0"/><stop offset="1" stop-color="#351C75"/></linearGradient><linearGradient id="paint4_linear" x1="236.404" y1="55.306" x2="236.404" y2="52.332" gradientUnits="userSpaceOnUse"><stop offset="0" stop-color="#6050B0"/><stop offset="1" stop-color="#351C75"/></linearGradient><linearGradient id="paint5_linear" x1="43.125" y1="141.974" x2="43.125" y2="139" gradientUnits="userSpaceOnUse"><stop offset="0" stop-color="#6050B0"/><stop offset="1" stop-color="#351C75"/></linearGradient><linearGradient id="paint6_linear" x1="20.125" y1="68.974" x2="20.125" y2="66" gradientUnits="userSpaceOnUse"><stop offset="0" stop-color="#6050B0"/><stop offset="1" stop-color="#351C75"/></linearGradient><linearGradient id="paint7_linear" x1="142.386" y1="164.983" x2="142.386" y2="162.009" gradientUnits="userSpaceOnUse"><stop offset="0" stop-color="#6050B0"/><stop offset="1" stop-color="#351C75"/></linearGradient><linearGradient id="paint8_linear" x1="213.138" y1="40.5" x2="71.138" y2="155.5" gradientUnits="userSpaceOnUse"><stop offset="0" stop-color="#6050B0"/><stop offset="1" stop-color="#8870C4"/></linearGradient></defs></svg>