<svg width="24" height="25" fill="none" xmlns="http://www.w3.org/2000/svg"><rect y=".099" width="24" height="24" rx="4" fill="url(#paint0_linear)"/><path d="M9.354 4.099l1.139 2.885a.088.088 0 00.107.051l2.966-.907c.077-.022.141.06.098.124L12.12 8.94a.088.088 0 00.026.115l2.56 1.75c.064.044.042.146-.035.16l-3.064.466c-.043.008-.077.047-.073.09l.227 3.09a.086.086 0 01-.146.069l-2.277-2.106c-.034-.03-.085-.03-.115 0L6.944 14.68c-.055.05-.15.008-.145-.069l.227-3.09a.082.082 0 00-.073-.09l-3.065-.467a.087.087 0 01-.034-.158l2.56-1.75a.088.088 0 00.025-.116L4.894 6.252c-.038-.069.026-.15.099-.124l2.966.907a.088.088 0 00.107-.051l1.138-2.885c.018-.077.12-.077.15 0z" fill="#fff"/><path d="M17.87 12.504l.715 1.447 1.6.235-1.155 1.126.27 1.592-1.43-.753-1.43.753.274-1.592-1.155-1.126 1.596-.235.715-1.447z" fill="url(#paint1_linear)"/><path d="M9.803 20.348a1.283 1.283 0 100-2.567 1.283 1.283 0 000 2.567z" fill="#FFC9C9"/><defs><linearGradient id="paint0_linear" x1="-8.384" y1="7.926" x2="46.292" y2="7.195" gradientUnits="userSpaceOnUse"><stop offset=".021" stop-color="#FEAE6F"/><stop offset=".41" stop-color="#D66F8D"/><stop offset=".72" stop-color="#8E54A5"/><stop offset=".911" stop-color="#7652AB"/></linearGradient><linearGradient id="paint1_linear" x1="7.703" y1="20.634" x2="12.138" y2="9.07" gradientUnits="userSpaceOnUse"><stop stop-color="#FD9292"/><stop offset="1" stop-color="#FFC9C9"/></linearGradient></defs></svg>