<svg width="205" height="173" fill="none" xmlns="http://www.w3.org/2000/svg"><path opacity=".6" fill-rule="evenodd" clip-rule="evenodd" d="M197.886 85.685c0 46.792-38.056 84.723-84.999 84.723-46.944 0-85-37.931-85-84.723 0-46.791 38.056-84.722 85-84.722 46.943 0 84.999 37.931 84.999 84.722z" fill="#F1F6F8"/><path fill-rule="evenodd" clip-rule="evenodd" d="M198.082 61.554h-38.394a5.345 5.345 0 01-5.349-5.34V17.875a5.345 5.345 0 015.349-5.34h38.394a5.347 5.347 0 015.352 5.34v38.339c0 2.95-2.397 5.34-5.352 5.34z" fill="url(#paint0_linear)"/><g clip-path="url(#clip0)" fill="#fff"><path d="M188.82 26.09h-20.002a3.598 3.598 0 00-3.599 3.587V44.63a3.598 3.598 0 003.599 3.587h20.002a3.597 3.597 0 003.599-3.587V29.677a3.597 3.597 0 00-3.599-3.587zm1.402 18.54c0 .77-.629 1.397-1.402 1.397h-20.002a1.4 1.4 0 01-1.401-1.397V29.677a1.4 1.4 0 011.401-1.396h20.002c.773 0 1.402.626 1.402 1.396V44.63z"/><path d="M192.22 29.05a1.1 1.1 0 00-1.53-.27l-11.871 8.283-11.871-8.283a1.1 1.1 0 00-1.53.27 1.093 1.093 0 00.27 1.525l12.501 8.722a1.1 1.1 0 001.26 0l12.501-8.722c.497-.347.618-1.03.27-1.526z"/></g><mask id="a" maskUnits="userSpaceOnUse" x="47" y="20" width="141" height="151"><path fill-rule="evenodd" clip-rule="evenodd" d="M187.034 51.456c0 65.644-9.193 118.847-74.436 118.847-65.244 0-68.901-113.934-63.988-118.847 4.913-4.914-1.256-30.691 63.988-30.691 65.243 0 74.436 30.69 74.436 30.69z" fill="#DDE4E9"/></mask><g mask="url(#a)"><path d="M152.595 121.748H88.808c-9.332 0-15.783 7.79-15.783 17.126l19.234 33.497-20.349 25.143c0 5.312 2.458 10.049 6.29 13.147v87.23h3.757l6.95-83.476H152.5l6.949 83.476h3.757v-87.23c3.835-3.098 6.29-7.835 6.29-13.147v-58.865c0-9.333-7.566-16.901-16.902-16.901z" fill="#B6D5E1"/><path d="M164.007 110.516c-2.087-10.511-11.309-18.083-22.025-18.083h-13.036c0 4.219-7.188 7.639-16.053 7.639-8.865 0-16.05-3.42-16.053-7.639H80.993c-9.39 0-17.79 5.845-21.056 14.652l-6.93 18.696 19.316 13.151 5.003 33.435h71.133l4.387-29.331 17.157-2.303-5.996-30.217z" fill="#FF6361"/><path d="M120.666 92.436l.037-.01V69.84c2.27-.647 3.943-2.71 3.943-5.189 0-2.478-1.673-4.542-3.943-5.188a5.338 5.338 0 00-1.478-.229c-1.07 0-2.06.32-2.898.855-3.775-2.71-4.943-7.508-4.943-7.508-15.753 0-19.359 9.239-19.359 9.239v12.854c0 3.488 3.246 6.067 6.643 5.283l6.42-1.68V92.44h-8.242c0 4.218 7.188 7.639 16.053 7.639 8.865 0 16.05-3.42 16.053-7.64h-8.286v-.003z" fill="#F5C5B6"/><path d="M122.579 46.642a9.527 9.527 0 00-4.593-17.874c-5.262 0-9.527 4.265-9.527 9.527 0 1.475.343 2.865.942 4.111-9.053.293-20.86 4.488-17.376 19.41 0 0 3.606-9.239 19.359-9.239 0 0 1.169 4.798 4.943 7.508a5.362 5.362 0 012.898-.855 5.37 5.37 0 011.478.229c2.27.646 3.943 2.71 3.943 5.188 0 2.478-1.673 4.542-3.943 5.188v7.485s8.242-5.606 8.242-17.003c0-5.982-2.592-10.615-6.366-13.675z" fill="#2C2C4E"/><path d="M140.704 117.485l-1.461.317 5.719 26.362 1.46-.317-5.718-26.362zM69.995 118.368l-1.474.246 3.46 20.705 1.473-.247-3.459-20.704zM107.319 59.793a5.126 5.126 0 00-5.034 4.194h-2.836c-.44-2.38-2.525-4.194-5.034-4.194a5.132 5.132 0 00-5.13 5.124 5.132 5.132 0 005.13 5.124 5.126 5.126 0 005.034-4.194h2.836c.44 2.38 2.525 4.194 5.034 4.194a5.132 5.132 0 005.13-5.124 5.135 5.135 0 00-5.13-5.124zM94.415 68.18a3.27 3.27 0 01-3.267-3.264 3.267 3.267 0 016.535 0 3.272 3.272 0 01-3.268 3.264zm12.904 0a3.27 3.27 0 01-3.268-3.264 3.267 3.267 0 016.535 0 3.27 3.27 0 01-3.267 3.264z" fill="#203254"/><path d="M172.483 150.89l-2.481-10.158-57.114 7.667-6.326-3.714-12.31 5.084v13.824h68.255c6.66.003 11.558-6.235 9.976-12.703z" fill="#F5C5B6"/></g><path d="M53.013 134.584l-6.952 18.76-30.268 6.104-7.848-5.953-7.447 7.448V172.4H52.569c6.013 0 11.44-3.61 13.766-9.155l6.39-15.234-19.712-13.427z" fill="#F5C5B6"/><path d="M158.158 158.267h46.34v13.201h-46.34a6.602 6.602 0 01-6.602-6.603 6.599 6.599 0 016.602-6.598z" fill="#FF6361"/><path d="M158.16 166.984a2.12 2.12 0 01-2.118-2.118 2.12 2.12 0 012.118-2.118h46.34v4.236h-46.34z" fill="#EBEBE2"/><path d="M159.014 138.689h35.694c5.407 0 9.787 4.383 9.787 9.787 0 5.407-4.383 9.787-9.787 9.787h-35.694v-19.574z" fill="url(#paint1_linear)"/><path d="M159.014 153.782v-10.609h35.694a5.308 5.308 0 015.303 5.303 5.308 5.308 0 01-5.303 5.302h-35.694v.004z" fill="#EBEBE2"/><path fill-rule="evenodd" clip-rule="evenodd" d="M98.316 163.551l-13.52-53.36H.498l15.724 62.051h115.397v-8.691H98.316z" fill="url(#paint2_linear)"/><defs><linearGradient id="paint0_linear" x1="150.543" y1="57.363" x2="198.638" y2="19.309" gradientUnits="userSpaceOnUse"><stop stop-color="#FFB36D"/><stop offset="1" stop-color="#F88"/></linearGradient><linearGradient id="paint1_linear" x1="169.879" y1="135.85" x2="186.848" y2="165.321" gradientUnits="userSpaceOnUse"><stop stop-color="#FFD3AA"/><stop offset="1" stop-color="#FF9696"/></linearGradient><linearGradient id="paint2_linear" x1="-9.639" y1="166.936" x2="45.516" y2="74.862" gradientUnits="userSpaceOnUse"><stop stop-color="#FFB36D"/><stop offset="1" stop-color="#F88"/></linearGradient><clipPath id="clip0"><path fill="#fff" transform="translate(165.219 23.598)" d="M0 0h27.2v27.111H0z"/></clipPath></defs></svg>