<svg width="112" height="34" viewBox="0 0 112 34" fill="none" xmlns="http://www.w3.org/2000/svg">
<g clip-path="url(#clip0)">
<path d="M30.2836 15.8763C30.4019 13.4272 28.6914 11.8022 26.76 10.6865L25.5059 18.0592C26.3743 18.0106 26.7991 18.3402 26.9533 18.4955C27.1467 18.6899 27.6295 19.2721 27.0495 20.1934C28.2561 19.999 30.141 18.8347 30.2836 15.8763V15.8763Z" fill="url(#paint0_linear)"/>
<path fill-rule="evenodd" clip-rule="evenodd" d="M13.8248 7.29222L12.3287 5.78979C14.5813 5.51509 20.5244 5.86692 26.2774 9.47612C26.3746 9.86388 26.2774 10.446 26.2774 10.446L26.7602 10.689C27.1786 11.2871 27.8897 12.9881 27.3878 15.0051C26.8859 17.0231 26.0206 17.8831 25.6498 18.0606C24.8785 18.0606 23.5652 18.5076 23.1405 20.4865C22.7157 22.4654 21.9011 22.8955 21.5472 22.8638L13.0525 22.9599L7.45376 19.6613L6.63281 12.8222L8.2261 10.688L11.0735 8.3604L13.1011 7.53628L13.8248 7.29328V7.29222ZM23.8579 10.1175C23.4828 10.5084 23.1331 10.6943 23.0327 10.7461C20.8456 10.2812 20.0574 9.14859 20.0574 9.14859C22.1209 9.13591 23.9825 9.62615 25.3455 10.4566C25.3455 10.4566 24.608 10.2178 23.8579 10.1175Z" fill="url(#paint1_linear)"/>
<path fill-rule="evenodd" clip-rule="evenodd" d="M23.1686 20.4873C21.6609 21.2226 19.8742 21.6484 17.9598 21.6484C12.5745 21.6484 8.20773 18.2822 8.20773 14.13C8.20773 11.0617 10.5934 8.4214 14.0125 7.25391C7.51463 7.6237 2.29102 12.8167 2.29102 19.2247C2.29102 26.6195 8.91563 32.7285 17.086 32.7285C23.1876 32.7285 28.2665 29.2092 30.9226 24.499C27.2691 25.3168 22.9435 23.7626 23.1675 20.4862L23.1686 20.4873Z" fill="url(#paint2_linear)"/>
<path d="M17 34C26.3888 34 34 26.3888 34 17C34 7.61116 26.3888 0 17 0C7.61116 0 0 7.61116 0 17C0 26.3888 7.61116 34 17 34Z" fill="url(#paint3_linear)" fill-opacity="0.05"/>
<path fill-rule="evenodd" clip-rule="evenodd" d="M59.9802 3.37988C61.3558 3.37988 62.4344 3.79298 63.1378 4.49206C63.7162 5.11169 64.0444 5.92199 64.0444 6.89117L64.044 6.98227C64.0214 8.73447 62.9959 9.80351 61.5478 10.2613L61.4495 10.2912L64.404 14.5016H62.1217L59.433 10.6249L58.0217 10.6246L59.0121 8.89274L59.8395 8.89308C61.1838 8.89308 62.0504 8.21024 62.0891 7.11149L62.0905 7.03416L62.0901 6.96001C62.0709 5.78002 61.245 5.15936 59.8238 5.15936H57.0257L57.0255 8.59737L57.0239 8.59715V11.0774L57.0255 11.0765L57.0257 14.5016H55.103V3.37988H59.9802ZM50.8527 28.9374C49.7597 30.125 48.4819 30.8499 46.4806 30.8499C43.34 30.8499 41 28.3976 41 25.2975L41.0007 25.1747C41.046 22.1473 43.3263 19.6833 46.5422 19.6833C48.5435 19.6833 49.7443 20.3774 50.7758 21.3645L49.5596 22.768C48.6821 21.966 47.7738 21.4416 46.5268 21.4416C44.4946 21.4416 42.9859 23.1228 42.9859 25.2358L42.9864 25.3299C43.0159 27.4137 44.4999 29.0917 46.5422 29.0917C47.8507 29.0917 48.7128 28.5673 49.6365 27.7036L50.8527 28.9374ZM63.3303 25.3572C63.2841 28.3406 60.9578 30.8499 57.681 30.8499C54.3711 30.8499 52.0619 28.3359 52.0619 25.2975L52.0626 25.1761C52.1088 22.1927 54.435 19.6833 57.7118 19.6833C61.0217 19.6833 63.331 22.1974 63.331 25.2358L63.3303 25.3572ZM54.0483 25.3295C54.0781 27.3986 55.5781 29.0917 57.7118 29.0917C59.8517 29.0917 61.345 27.3951 61.345 25.2975L61.3446 25.2038C61.3148 23.1347 59.8148 21.4416 57.681 21.4416C55.5411 21.4416 54.0478 23.1382 54.0478 25.2358L54.0483 25.3295ZM74.1477 25.9915C74.1477 29.2151 72.3311 30.8345 69.5138 30.8345C66.7273 30.8345 64.9261 29.2151 64.9261 26.0841V19.8684H66.8197V26.007C66.8197 28.0274 67.8358 29.0762 69.5446 29.0762C71.2227 29.0762 72.2541 28.0737 72.2541 26.0841V19.8684H74.1477V25.9915ZM89.7851 21.6267V30.6649H91.6787V21.6267H95.1117V19.8684H86.352V21.6267H89.7851ZM84.383 20.9071C83.6798 20.2256 82.6015 19.8229 81.2264 19.8229H76.3508V30.6652H78.2729L78.2729 27.3261L78.2711 27.327V24.9091L78.2729 24.9092L78.2729 21.5577H81.0701C82.4908 21.5577 83.3164 22.1627 83.3356 23.3131L83.336 23.3854L83.3346 23.4607C83.2959 24.5319 82.4296 25.1976 81.0857 25.1976L80.2589 25.1973L79.2685 26.8857L80.6794 26.8859L83.3672 30.6652H85.6487L82.6953 26.5606L82.7935 26.5314C84.2412 26.0851 85.2663 25.0429 85.2889 23.3348L85.2893 23.246C85.2893 22.3011 84.9612 21.5112 84.383 20.9071ZM87.2048 4.86533C86.0815 3.91187 84.8957 3.38043 83.0079 3.38043C79.7364 3.38043 77.4264 5.919 77.3766 8.93895L77.3758 9.06995C77.3758 12.2586 79.6224 14.6969 83.0392 14.6969C84.9737 14.6969 86.5027 13.9154 87.5948 12.9932V8.39783L85.7382 10.0859V12.1179C85.0674 12.6181 84.1469 12.9463 83.1016 12.9463C80.9033 12.9463 79.4321 11.3379 79.3894 9.1376L79.3884 9.00742C79.3884 6.91293 80.9329 5.16231 82.9299 5.16231C84.3029 5.16231 85.1454 5.59997 85.9879 6.31897L87.2048 4.86533ZM100.497 9.00742C100.497 5.92821 98.1571 3.38043 94.8027 3.38043C91.4845 3.38043 89.1281 5.9196 89.0778 8.94002L89.077 9.06995C89.077 12.1492 91.4172 14.6969 94.7715 14.6969C98.0898 14.6969 100.446 12.1578 100.496 9.13734L100.497 9.00742ZM52.5016 14.5094L47.6963 3.48985H45.9177L41.1124 14.5094L43.031 14.5093L46.7758 5.78753L50.5481 14.5093L52.5016 14.5094ZM77.0638 14.5094L72.2585 3.48985H70.4799L65.6746 14.5094L67.5932 14.5093L71.338 5.78753L75.1103 14.5093L77.0638 14.5094ZM110.094 11.1332L104.243 3.568H102.465V14.5094H104.352V6.72537L110.375 14.5094H111.981V3.568H110.094V11.1332ZM91.0896 9.00742C91.0896 6.88167 92.6029 5.16231 94.7715 5.16231C96.9236 5.16231 98.4396 6.86182 98.4837 8.94515L98.4847 9.06995C98.4847 11.1957 96.9713 12.9151 94.8027 12.9151C92.6506 12.9151 91.1347 11.2155 91.0905 9.13222L91.0896 9.00742Z" fill="url(#paint4_linear)"/>
</g>
<defs>
<linearGradient id="paint0_linear" x1="27.1055" y1="12.9898" x2="36.1972" y2="15.2192" gradientUnits="userSpaceOnUse">
<stop stop-color="#FFC58F"/>
<stop offset="1" stop-color="#FF7C7C"/>
</linearGradient>
<linearGradient id="paint1_linear" x1="11.6324" y1="3.21497" x2="28.8353" y2="18.8203" gradientUnits="userSpaceOnUse">
<stop stop-color="#FFC58F"/>
<stop offset="1" stop-color="#FF7C7C"/>
</linearGradient>
<linearGradient id="paint2_linear" x1="11.8676" y1="13.4263" x2="35.2228" y2="30.3967" gradientUnits="userSpaceOnUse">
<stop stop-color="#FFC58F"/>
<stop offset="1" stop-color="#FF7C7C"/>
</linearGradient>
<linearGradient id="paint3_linear" x1="17" y1="11.8968" x2="17" y2="34.4469" gradientUnits="userSpaceOnUse">
<stop stop-color="#FF9230"/>
<stop offset="1" stop-color="#FFD5AB"/>
</linearGradient>
<linearGradient id="paint4_linear" x1="41.1126" y1="9.28725" x2="109.442" y2="-8.3919" gradientUnits="userSpaceOnUse">
<stop stop-color="#FFC58F"/>
<stop offset="1" stop-color="#FF7C7C"/>
</linearGradient>
<clipPath id="clip0">
<rect width="112" height="34" fill="white"/>
</clipPath>
</defs>
</svg>
