<svg version="1.1" id="Layer_1" xmlns="http://www.w3.org/2000/svg" x="0" y="0" viewBox="0 0 130 32" xml:space="preserve"><style>.st0{fill:#321f6c}</style><path class="st0" d="M50.3 27c-1.2 0-2.3-.2-3.2-.5-.9-.4-1.7-.9-2.3-1.5-.6-.6-1.1-1.4-1.4-2.3-.3-.9-.4-2-.4-3.1 0-1.7.3-3.3.8-4.8s1.3-2.9 2.3-4c1-1.2 2.2-2.1 3.5-2.8 1.4-.7 2.9-1.1 4.6-1.1 1.4 0 2.6.1 3.4.4.9.3 1.5.6 1.9.8l-1.1 2.2c-.4-.3-1-.5-1.8-.8-.7-.2-1.6-.3-2.6-.3-1.3 0-2.4.3-3.4.9-1 .6-1.9 1.4-2.6 2.3-.7.9-1.2 2-1.6 3.2-.4 1.2-.6 2.4-.6 3.5 0 3.6 1.6 5.4 4.7 5.4.7 0 1.3 0 1.8-.1s1-.2 1.4-.3c.4-.1.8-.3 1.1-.4.3-.1.6-.3.8-.4l.3 2.3c-.2.1-.5.3-.9.4-.4.1-.8.3-1.3.4-.5.1-1 .2-1.6.3-.5.3-1.1.3-1.8.3zM61.2 19c1.1 0 2.1-.1 2.9-.2.9-.1 1.7-.3 2.3-.5.6-.3 1.1-.6 1.5-1 .4-.4.6-1 .6-1.7 0-.2 0-.3-.1-.5s-.2-.4-.3-.5c-.1-.2-.4-.3-.6-.4-.3-.1-.6-.2-1-.2-.6 0-1.3.1-1.8.4-.6.3-1.1.6-1.5 1.1-.4.4-.8 1-1.1 1.6-.5.6-.7 1.2-.9 1.9zm2.6 7.9c-.9 0-1.8-.1-2.4-.4-.7-.3-1.3-.6-1.7-1.1-.5-.5-.8-1-1-1.7-.2-.6-.3-1.3-.3-2 0-1.3.2-2.5.6-3.8.4-1.2.9-2.3 1.7-3.2.7-.9 1.6-1.7 2.6-2.2 1-.6 2.2-.8 3.5-.8.8 0 1.4.1 1.9.3.6.2 1 .4 1.3.8.4.3.6.7.8 1.2.2.4.3.9.3 1.3 0 .9-.2 1.6-.5 2.2-.3.6-.7 1.1-1.3 1.5-.5.4-1.1.7-1.8.9-.7.2-1.4.4-2.2.5-.7.1-1.5.2-2.3.3-.8 0-1.5.1-2.2.1V21.4c0 .4 0 .8.1 1.2.1.4.3.7.6 1 .3.3.7.5 1.1.7.5.2 1.1.3 1.9.3.4 0 .7 0 1.1-.1.4-.1.8-.2 1.1-.3.4-.1.7-.2.9-.3.3-.1.5-.2.6-.3l.2 2.2c-.4.2-1 .4-1.8.6-.7.4-1.6.5-2.8.5zM75.9 20.2l-.3 1.2c-.1.4-.1.8-.1 1.1 0 .6.1 1.1.4 1.5.3.4.9.6 1.7.7l-.6 2.1c-.8 0-1.4-.1-1.9-.3-.5-.2-.9-.5-1.3-.9-.3-.4-.5-.8-.7-1.3-.1-.5-.2-1-.2-1.6 0-.4 0-.9.1-1.3.1-.5.2-.9.3-1.4l3.5-14.6 2.7-.4-3.6 15.2zM83 19c1.1 0 2.1-.1 2.9-.2.9-.1 1.7-.3 2.3-.5.6-.3 1.1-.6 1.5-1 .4-.4.6-1 .6-1.7 0-.2 0-.3-.1-.5s-.2-.4-.3-.5c-.1-.2-.4-.3-.6-.4-.3-.2-.7-.2-1.1-.2-.6 0-1.3.1-1.8.4-.6.3-1.1.6-1.5 1.1-.4.4-.8 1-1.1 1.6-.4.6-.6 1.2-.8 1.9zm2.7 7.9c-.9 0-1.8-.1-2.4-.4-.7-.3-1.3-.6-1.7-1.1-.5-.5-.8-1-1-1.7-.2-.6-.3-1.3-.3-2 0-1.3.2-2.5.6-3.8.4-1.2.9-2.3 1.7-3.2.7-.9 1.6-1.7 2.6-2.2 1-.6 2.2-.8 3.5-.8.8 0 1.4.1 1.9.3.6.2 1 .4 1.3.8.4.3.6.7.8 1.2.2.4.3.9.3 1.3 0 .9-.2 1.6-.5 2.2-.3.6-.7 1.1-1.3 1.5-.5.4-1.1.7-1.8.9-.7.2-1.4.4-2.2.5-.7.1-1.5.2-2.3.3-.8 0-1.5.1-2.2.1V21.4c0 .4 0 .8.1 1.2.1.4.3.7.6 1 .3.3.7.5 1.1.7.5.2 1.1.3 1.9.3.4 0 .7 0 1.1-.1.4-.1.8-.2 1.1-.3.4-.1.7-.2.9-.3.3-.1.5-.2.6-.3l.2 2.2c-.4.2-1 .4-1.8.6-.7.4-1.7.5-2.8.5zM97.5 24.8c.4 0 .8 0 1.2-.1.4-.1.8-.2 1.1-.4.3-.2.6-.4.8-.7.2-.3.3-.7.3-1.1 0-.3 0-.5-.1-.7-.1-.2-.2-.4-.4-.6-.2-.2-.5-.4-.8-.5-.3-.2-.7-.4-1.1-.6l-1.2-.6c-.4-.2-.7-.4-.9-.7-.3-.3-.5-.6-.6-1-.1-.4-.2-.9-.2-1.4 0-1.4.5-2.5 1.5-3.3 1-.9 2.5-1.3 4.4-1.3.9 0 1.7.1 2.3.3.7.2 1.2.3 1.4.5l-1 2.1c-.3-.1-.7-.3-1.3-.5-.6-.2-1.2-.3-1.9-.3-.4 0-.7 0-1.1.1-.4.1-.7.2-1 .4-.3.2-.5.4-.7.7-.2.3-.3.6-.3 1 0 .5.2.9.6 1.3.4.3 1 .6 1.8 1 .5.2.9.5 1.3.7.4.2.7.5 1 .8.3.3.5.6.6 1 .1.4.2.9.2 1.4 0 .8-.1 1.5-.4 2.1-.3.6-.7 1.1-1.3 1.5-.5.4-1.1.7-1.9.9-.7.2-1.5.3-2.4.3-.6 0-1.2 0-1.7-.1s-.9-.2-1.3-.3c-.4-.1-.7-.2-.9-.3l-.6-.3 1-2.1c.1.1.3.2.5.3.2.1.5.2.8.3.3.1.7.2 1.1.3.3-.2.8-.1 1.2-.1zM110.3 27c-1.4 0-2.4-.3-3.1-.9-.6-.6-1-1.5-1-2.7 0-.8.1-1.7.4-2.9l3-12.4 2.7-.4-1.1 4.5h4.9l-.5 2.2h-4.9l-1.5 6.4c-.2.9-.3 1.6-.3 2.3 0 .6.2 1.1.5 1.3.3.3.9.4 1.7.4.5 0 1.1-.1 1.6-.3.5-.2.9-.4 1.2-.5l.2 2.2c-.3.2-.8.3-1.4.5-.8.2-1.6.3-2.4.3zM119.6 19c1.1 0 2.1-.1 2.9-.2.9-.1 1.7-.3 2.3-.5.6-.3 1.2-.6 1.5-1 .4-.4.6-1 .6-1.7 0-.2 0-.3-.1-.5s-.2-.4-.3-.5c-.1-.2-.4-.3-.6-.4-.3-.1-.6-.2-1-.2-.6 0-1.3.1-1.8.4-.6.3-1.1.6-1.5 1.1-.4.4-.8 1-1.1 1.6-.5.6-.8 1.2-.9 1.9zm2.6 7.9c-.9 0-1.8-.1-2.4-.4-.7-.3-1.3-.6-1.7-1.1-.5-.5-.8-1-1-1.7-.2-.6-.3-1.3-.3-2 0-1.3.2-2.5.6-3.8.4-1.2.9-2.3 1.7-3.2.7-.9 1.6-1.7 2.6-2.2 1-.6 2.2-.8 3.5-.8.8 0 1.4.1 1.9.3.6.2 1 .4 1.3.8.4.3.6.7.8 1.2.2.4.3.9.3 1.3 0 .9-.2 1.6-.5 2.2-.3.6-.7 1.1-1.3 1.5-.5.4-1.1.7-1.8.9-.7.2-1.4.4-2.2.5-.7.1-1.5.2-2.3.3-.8 0-1.5.1-2.2.1V21.4c0 .4 0 .8.1 1.2.1.4.3.7.6 1 .3.3.7.5 1.1.7.5.2 1.1.3 1.9.3.4 0 .7 0 1.1-.1.4-.1.8-.2 1.1-.3.4-.1.7-.2.9-.3.3-.1.5-.2.6-.3l.2 2.2c-.4.2-1 .4-1.8.6-.7.4-1.7.5-2.8.5z"/><linearGradient id="SVGID_1_" gradientUnits="userSpaceOnUse" x1="16.349" y1="21.871" x2="13.072" y2="15.215" gradientTransform="rotate(180 16 17)"><stop offset="0" stop-color="#d66f8d" stop-opacity="0"/><stop offset="1" stop-color="#d66fc6"/></linearGradient><path d="M12.5 14.1c.5.6 1.4.6 1.9.1.5-.4 1.1-.7 1.7-.6.6 0 1.2.3 1.7.8.4.5.7 1.1.6 1.7 0 .6-.3 1.2-.8 1.7-.6.5-.6 1.4-.1 1.9.5.6 1.4.6 1.9.1 1-.9 1.6-2.2 1.7-3.6.1-1.4-.4-2.7-1.3-3.7s-2.2-1.6-3.6-1.7c-1.4-.1-2.7.4-3.7 1.3-.3.3-.4.6-.4.9 0 .5.1.9.4 1.1z" fill="url(#SVGID_1_)"/><linearGradient id="SVGID_2_" gradientUnits="userSpaceOnUse" x1="3.078" y1="7.379" x2="4.987" y2="26.137" gradientTransform="rotate(180 16 17)"><stop offset=".232" stop-color="#8453a8"/><stop offset="1" stop-color="#d66fc6" stop-opacity="0"/></linearGradient><path d="M25.1 25.1c4.2-4.2 5-10.6 1.9-15.7-.4-.7-.2-1.7.5-2.1.7-.4 1.7-.2 2.1.5 3.8 6.3 2.8 14.3-2.4 19.5-.6.6-1.6.6-2.2 0-.3-.3-.5-.7-.5-1.1.1-.4.3-.8.6-1.1z" fill="url(#SVGID_2_)"/><linearGradient id="SVGID_3_" gradientUnits="userSpaceOnUse" x1="21.46" y1="21.237" x2="14.481" y2="13.609" gradientTransform="rotate(180 16 17)"><stop offset=".232" stop-color="#d66fc6"/><stop offset="1" stop-color="#d66f8d" stop-opacity="0"/></linearGradient><path d="M12.3 19.5c.9 1 2.2 1.6 3.6 1.7 1.4.1 2.7-.4 3.7-1.3.6-.5.6-1.4.1-1.9-.5-.6-1.4-.6-1.9-.1-.5.4-1.1.7-1.7.6-.6 0-1.2-.3-1.7-.8-.9-1-.8-2.5.2-3.4.6-.5.6-1.4.1-1.9-.5-.6-1.4-.6-1.9-.1-1.1 1-1.6 2.2-1.7 3.6s.2 2.5 1.2 3.6z" fill="url(#SVGID_3_)"/><linearGradient id="SVGID_4_" gradientUnits="userSpaceOnUse" x1="5.414" y1="30.932" x2="24.166" y2="29.054" gradientTransform="rotate(180 16 17)"><stop offset=".232" stop-color="#8453a8"/><stop offset="1" stop-color="#d66fc6" stop-opacity="0"/></linearGradient><path d="M25.1 6.9C20.9 2.7 14.4 1.9 9.4 5c-.8.4-1.7.2-2.2-.5-.4-.8-.2-1.7.5-2.2C14-1.5 22-.5 27.3 4.6c.6.6.6 1.6 0 2.2-.3.3-.7.5-1.1.5-.4 0-.8-.1-1.1-.4z" fill="url(#SVGID_4_)"/><linearGradient id="SVGID_5_" gradientUnits="userSpaceOnUse" x1="5.54" y1="17.925" x2="16.15" y2="29.987" gradientTransform="rotate(180 16 17)"><stop offset="0" stop-color="#8e54a5"/><stop offset=".803" stop-color="#d66fc6" stop-opacity="0"/></linearGradient><path d="M23.6 16c0-3.5-2.3-6.5-5.7-7.3-.7-.2-1.2-.9-1-1.6.2-.7.9-1.2 1.6-1 4.6 1.1 7.8 5.3 7.8 10 0 .7-.6 1.4-1.4 1.4-.7-.1-1.3-.7-1.3-1.5z" fill="url(#SVGID_5_)"/><linearGradient id="SVGID_6_" gradientUnits="userSpaceOnUse" x1="26.491" y1="5.753" x2="8.864" y2="5.567" gradientTransform="rotate(180 16 17)"><stop offset=".232" stop-color="#8453a8"/><stop offset="1" stop-color="#d66fc6" stop-opacity="0"/></linearGradient><path d="M6.8 25.1c4.2 4.2 10.6 5 15.7 2 .7-.4 1.7-.2 2.1.5.4.7.2 1.7-.5 2.1-6.3 3.7-14.3 2.7-19.5-2.5-.6-.6-.6-1.6 0-2.2.3-.3.7-.4 1.1-.4.5 0 .9.2 1.1.5z" fill="url(#SVGID_6_)"/><linearGradient id="SVGID_7_" gradientUnits="userSpaceOnUse" x1="29.361" y1="29.532" x2="26.349" y2="10.21" gradientTransform="rotate(180 16 17)"><stop offset=".232" stop-color="#8453a8"/><stop offset="1" stop-color="#d66fc6" stop-opacity="0"/></linearGradient><path d="M7 6.8C2.8 11 1.9 17.4 4.9 22.5c.4.7.2 1.7-.6 2.1-.7.4-1.7.2-2.1-.6C-1.5 17.8-.5 9.7 4.8 4.6 5.4 4 6.4 4 7 4.6c.3.3.5.7.4 1.1 0 .4-.1.8-.4 1.1z" fill="url(#SVGID_7_)"/><linearGradient id="SVGID_8_" gradientUnits="userSpaceOnUse" x1="15.9" y1="28.433" x2="28.381" y2="17.672" gradientTransform="rotate(180 16 17)"><stop offset="0" stop-color="#8e54a5"/><stop offset=".049" stop-color="#8e54a5"/><stop offset=".737" stop-color="#d66fc6" stop-opacity="0"/></linearGradient><path d="M16 8.4c-3.5 0-6.5 2.4-7.3 5.7-.2.7-.9 1.2-1.6 1-.7-.2-1.2-.9-1-1.6 1.1-4.6 5.2-7.8 10-7.8.7 0 1.4.6 1.4 1.4s-.7 1.3-1.5 1.3z" fill="url(#SVGID_8_)"/><linearGradient id="SVGID_9_" gradientUnits="userSpaceOnUse" x1="16.374" y1="6.645" x2="5.504" y2="18.135" gradientTransform="rotate(180 16 17)"><stop offset="0" stop-color="#8d54a5"/><stop offset=".098" stop-color="#8d54a5"/><stop offset=".85" stop-color="#d66fc6" stop-opacity="0"/></linearGradient><path d="M16 23.6c3.5 0 6.5-2.4 7.3-5.7.2-.7.9-1.2 1.6-1 .7.2 1.2.9 1 1.6-1.1 4.6-5.2 7.8-10 7.8-.7 0-1.4-.6-1.4-1.4.1-.7.7-1.3 1.5-1.3z" fill="url(#SVGID_9_)"/><linearGradient id="SVGID_10_" gradientUnits="userSpaceOnUse" x1="26.231" y1="17.787" x2="16.661" y2="6.972" gradientTransform="rotate(180 16 17)"><stop offset="0" stop-color="#8d54a5"/><stop offset=".852" stop-color="#d66fc6" stop-opacity="0"/></linearGradient><path d="M8.4 16c0 3.5 2.3 6.5 5.7 7.3.7.2 1.2.9 1 1.6-.2.7-.9 1.2-1.6 1-4.6-1.1-7.8-5.2-7.8-10 0-.7.6-1.4 1.4-1.4.7.1 1.3.7 1.3 1.5z" fill="url(#SVGID_10_)"/></svg>