<svg width="78" height="62" fill="none" xmlns="http://www.w3.org/2000/svg"><path fill-rule="evenodd" clip-rule="evenodd" d="M43.096 34.038l.005-.003h.001l.002-.002-.008.005z" fill="#2B2C2A"/><path clip-rule="evenodd" d="M43.096 34.038l.005-.003h.001l.002-.002-.008.005z" stroke="#F8F2E6" stroke-width=".8" stroke-linecap="round" stroke-linejoin="round"/><path fill-rule="evenodd" clip-rule="evenodd" d="M43.105 34.031l.01-.005-.01.005z" fill="#2B2C2A"/><path clip-rule="evenodd" d="M43.105 34.031s0 0 0 0l.01-.005s0 0 0 0l-.01.005z" stroke="#F8F2E6" stroke-width=".8" stroke-linecap="round" stroke-linejoin="round"/><g clip-path="url(#clip0)"><path d="M46.987 26.859l-6.726-3.852a2.58 2.58 0 00-2.585.008l-6.701 3.898a2.593 2.593 0 00-1.287 2.24l.027 7.754a2.597 2.597 0 001.302 2.236l6.724 3.85a2.58 2.58 0 002.587-.007l6.704-3.9a2.602 2.602 0 001.28-2.242l-.027-7.754a2.598 2.598 0 00-1.298-2.231z" fill="#FFF19F"/><path d="M43.937 29.206l-4.157-2.38a1.594 1.594 0 00-1.598.005L34.04 29.24a1.601 1.601 0 00-.795 1.384l.016 4.792a1.606 1.606 0 00.805 1.383l4.156 2.38a1.596 1.596 0 001.599-.005l4.143-2.41a1.608 1.608 0 00.79-1.387l-.015-4.792a1.608 1.608 0 00-.802-1.38z" fill="#FFDD0F"/><path d="M42.051 30.655l-2.57-1.471a.986.986 0 00-.987.003l-2.559 1.489a.99.99 0 00-.491.856l.01 2.961a.994.994 0 00.497.855l2.569 1.47a.986.986 0 00.988-.002l2.56-1.49a.993.993 0 00.49-.857l-.01-2.962a.994.994 0 00-.497-.852z" fill="#FFDD0F"/><path d="M67.711 26.786l-6.726-3.851a2.579 2.579 0 00-2.585.008l-6.702 3.898a2.593 2.593 0 00-1.286 2.24l.026 7.754a2.596 2.596 0 001.303 2.236l6.724 3.85a2.581 2.581 0 002.587-.007l6.704-3.899a2.601 2.601 0 001.28-2.243l-.027-7.754a2.6 2.6 0 00-1.298-2.232z" fill="#FFF19F"/><path d="M64.66 29.133l-4.157-2.38a1.594 1.594 0 00-1.598.005l-4.142 2.41a1.603 1.603 0 00-.795 1.384l.017 4.792a1.605 1.605 0 00.804 1.382l4.156 2.38a1.594 1.594 0 001.6-.004l4.142-2.41a1.608 1.608 0 00.791-1.387l-.016-4.792a1.606 1.606 0 00-.802-1.38z" fill="#FFEB6F"/><path d="M25.94 26.93l-6.726-3.85a2.58 2.58 0 00-2.585.008l-6.702 3.898a2.594 2.594 0 00-1.286 2.239l.026 7.754a2.597 2.597 0 001.303 2.236l6.724 3.85a2.581 2.581 0 002.587-.007l6.703-3.899a2.602 2.602 0 001.28-2.243l-.026-7.754a2.598 2.598 0 00-1.298-2.231z" fill="#FFF19F"/><path d="M22.889 29.276l-4.157-2.38a1.593 1.593 0 00-1.598.005l-4.142 2.409a1.603 1.603 0 00-.795 1.384l.017 4.793a1.606 1.606 0 00.805 1.382l4.155 2.38a1.595 1.595 0 001.6-.005l4.142-2.41a1.608 1.608 0 00.791-1.386l-.016-4.792a1.608 1.608 0 00-.802-1.38z" fill="#FFEB6F"/><path d="M57.301 8.404l-6.726-3.852a2.579 2.579 0 00-2.585.008l-6.702 3.898a2.594 2.594 0 00-1.286 2.24l.026 7.753a2.598 2.598 0 001.303 2.237l6.724 3.85a2.582 2.582 0 002.587-.007l6.703-3.9a2.602 2.602 0 001.28-2.242l-.026-7.754A2.6 2.6 0 0057.3 8.404z" fill="#FFF19F"/><path d="M54.25 10.749l-4.157-2.38a1.594 1.594 0 00-1.598.004l-4.141 2.41a1.603 1.603 0 00-.795 1.384l.016 4.792a1.605 1.605 0 00.805 1.383l4.156 2.38a1.595 1.595 0 001.599-.005l4.143-2.41a1.608 1.608 0 00.79-1.386l-.016-4.792a1.605 1.605 0 00-.802-1.38z" fill="#FFEB6F"/><path d="M33.227 10.749l-4.157-2.38a1.594 1.594 0 00-1.598.004l-4.142 2.41a1.603 1.603 0 00-.794 1.384l.016 4.792a1.606 1.606 0 00.805 1.383l4.155 2.38a1.595 1.595 0 001.6-.005l4.142-2.41a1.608 1.608 0 00.791-1.386l-.016-4.792a1.605 1.605 0 00-.802-1.38zM52.365 12.198l-2.57-1.471a.985.985 0 00-.987.003l-2.56 1.489a.99.99 0 00-.49.856l.01 2.961a.992.992 0 00.497.854l2.568 1.471a.985.985 0 00.989-.003l2.56-1.489a.994.994 0 00.489-.857l-.01-2.962a.993.993 0 00-.496-.852z" fill="#FFDD0F"/><path d="M36.214 8.474l-6.726-3.852a2.579 2.579 0 00-2.585.009L20.2 8.529a2.594 2.594 0 00-1.286 2.24l.026 7.753a2.598 2.598 0 001.303 2.236l6.724 3.85a2.581 2.581 0 002.587-.007l6.703-3.899a2.603 2.603 0 001.28-2.243l-.026-7.754a2.599 2.599 0 00-1.298-2.231zM57.301 45.314l-6.726-3.852a2.579 2.579 0 00-2.585.009l-6.702 3.898a2.594 2.594 0 00-1.286 2.24l.026 7.753a2.598 2.598 0 001.303 2.236l6.724 3.85a2.582 2.582 0 002.587-.007l6.703-3.899a2.601 2.601 0 001.28-2.243l-.026-7.754a2.6 2.6 0 00-1.298-2.231z" fill="#FFF19F"/><path d="M54.25 47.615l-4.157-2.38a1.594 1.594 0 00-1.598.006l-4.141 2.409a1.603 1.603 0 00-.795 1.384l.016 4.792a1.605 1.605 0 00.805 1.382l4.156 2.38a1.595 1.595 0 001.599-.004l4.143-2.41a1.608 1.608 0 00.79-1.387l-.016-4.792a1.606 1.606 0 00-.802-1.38z" fill="#FFEB6F"/><path d="M33.202 47.66l-4.156-2.38a1.594 1.594 0 00-1.598.005l-4.142 2.41a1.604 1.604 0 00-.795 1.384l.016 4.792a1.605 1.605 0 00.805 1.382l4.156 2.38a1.595 1.595 0 001.599-.005l4.143-2.41a1.608 1.608 0 00.79-1.386l-.015-4.793a1.606 1.606 0 00-.803-1.379zM52.365 49.112l-2.57-1.471a.985.985 0 00-.987.003l-2.56 1.489a.992.992 0 00-.49.856l.01 2.961a.991.991 0 00.497.854l2.568 1.471a.985.985 0 00.989-.002l2.56-1.49a.993.993 0 00.489-.857l-.01-2.962a.993.993 0 00-.496-.852z" fill="#FFDD0F"/><path d="M36.253 45.388l-6.726-3.852a2.579 2.579 0 00-2.585.009l-6.701 3.898a2.594 2.594 0 00-1.286 2.24l.026 7.754a2.598 2.598 0 001.302 2.236l6.725 3.85a2.58 2.58 0 002.587-.007l6.703-3.9a2.601 2.601 0 001.28-2.243l-.027-7.753a2.6 2.6 0 00-1.298-2.232z" fill="#FFF19F"/><path d="M22.84 15.028l-4.157-2.38a1.594 1.594 0 00-1.598.005l-4.141 2.409a1.603 1.603 0 00-.795 1.384l.016 4.792a1.606 1.606 0 00.805 1.383l4.156 2.38a1.595 1.595 0 001.598-.005l4.143-2.41a1.607 1.607 0 00.791-1.386l-.016-4.792a1.607 1.607 0 00-.801-1.38z" fill="#FFDD0F"/><path d="M33.149 10.749l-4.158-2.38a1.594 1.594 0 00-1.597.004l-4.142 2.41a1.603 1.603 0 00-.795 1.384l.016 4.792a1.606 1.606 0 00.805 1.383l4.156 2.38a1.595 1.595 0 001.599-.005l4.143-2.41a1.607 1.607 0 00.79-1.386l-.015-4.792a1.607 1.607 0 00-.802-1.38zM33.149 47.567l-4.158-2.38a1.594 1.594 0 00-1.597.005L23.252 47.6a1.603 1.603 0 00-.795 1.384l.016 4.793a1.605 1.605 0 00.805 1.382l4.156 2.38a1.595 1.595 0 001.599-.005l4.143-2.41a1.607 1.607 0 00.79-1.386l-.015-4.792a1.607 1.607 0 00-.802-1.38z" fill="#FFEB6F"/></g><path opacity=".8" d="M71.25 45.569c0 1.09-.695 2.262-2.266 3.443-1.558 1.172-3.86 2.26-6.771 3.186-5.815 1.85-13.895 3.006-22.853 3.006-8.958 0-17.038-1.156-22.852-3.006-2.912-.926-5.214-2.014-6.772-3.186-1.57-1.181-2.266-2.353-2.266-3.443 0-1.09.695-2.262 2.266-3.443 1.558-1.172 3.86-2.26 6.772-3.186 5.814-1.85 13.894-3.006 22.852-3.006s17.038 1.156 22.852 3.006c2.912.927 5.214 2.014 6.772 3.186 1.57 1.181 2.266 2.353 2.266 3.443z" stroke="url(#paint0_linear)" stroke-width="1.5"/><g opacity=".8" filter="url(#filter0_f)"><path d="M71.25 45.569c0 1.09-.695 2.262-2.266 3.443-1.558 1.172-3.86 2.26-6.771 3.186-5.815 1.85-13.895 3.006-22.853 3.006-8.958 0-17.038-1.156-22.852-3.006-2.912-.926-5.214-2.014-6.772-3.186-1.57-1.181-2.266-2.353-2.266-3.443 0-1.09.695-2.262 2.266-3.443 1.558-1.172 3.86-2.26 6.772-3.186 5.814-1.85 13.894-3.006 22.852-3.006s17.038 1.156 22.852 3.006c2.912.927 5.214 2.014 6.772 3.186 1.57 1.181 2.266 2.353 2.266 3.443z" stroke="url(#paint1_linear)" stroke-width="1.5"/></g><path opacity=".8" d="M71.25 31.227c0 1.09-.695 2.262-2.266 3.443-1.558 1.172-3.86 2.26-6.771 3.186-5.815 1.85-13.895 3.007-22.853 3.007-8.958 0-17.038-1.157-22.852-3.007-2.912-.926-5.214-2.014-6.772-3.186-1.57-1.181-2.266-2.352-2.266-3.443 0-1.09.695-2.261 2.266-3.443 1.558-1.172 3.86-2.26 6.772-3.186 5.814-1.85 13.894-3.006 22.852-3.006s17.038 1.156 22.852 3.006c2.912.927 5.214 2.014 6.772 3.186 1.57 1.182 2.266 2.353 2.266 3.443z" stroke="url(#paint2_linear)" stroke-width="1.5"/><g opacity=".8" filter="url(#filter1_f)"><path d="M71.25 31.227c0 1.09-.695 2.262-2.266 3.443-1.558 1.172-3.86 2.26-6.771 3.186-5.815 1.85-13.895 3.007-22.853 3.007-8.958 0-17.038-1.157-22.852-3.007-2.912-.926-5.214-2.014-6.772-3.186-1.57-1.181-2.266-2.352-2.266-3.443 0-1.09.695-2.261 2.266-3.443 1.558-1.172 3.86-2.26 6.772-3.186 5.814-1.85 13.894-3.006 22.852-3.006s17.038 1.156 22.852 3.006c2.912.927 5.214 2.014 6.772 3.186 1.57 1.182 2.266 2.353 2.266 3.443z" stroke="url(#paint3_linear)" stroke-width="1.5"/></g><path opacity=".8" d="M71.25 16.885c0 1.09-.695 2.262-2.266 3.443-1.558 1.172-3.86 2.26-6.771 3.186-5.815 1.85-13.895 3.007-22.853 3.007-8.958 0-17.037-1.157-22.852-3.007-2.912-.926-5.214-2.014-6.772-3.186-1.57-1.181-2.266-2.352-2.266-3.443 0-1.09.696-2.261 2.266-3.443 1.558-1.172 3.86-2.259 6.772-3.185C22.323 8.407 30.402 7.25 39.36 7.25s17.038 1.156 22.853 3.007c2.911.926 5.213 2.013 6.771 3.185 1.57 1.182 2.266 2.353 2.266 3.443z" stroke="url(#paint4_linear)" stroke-width="1.5"/><g opacity=".8" filter="url(#filter2_f)"><path d="M71.25 16.885c0 1.09-.695 2.262-2.266 3.443-1.558 1.172-3.86 2.26-6.771 3.186-5.815 1.85-13.895 3.007-22.853 3.007-8.958 0-17.037-1.157-22.852-3.007-2.912-.926-5.214-2.014-6.772-3.186-1.57-1.181-2.266-2.352-2.266-3.443 0-1.09.696-2.261 2.266-3.443 1.558-1.172 3.86-2.259 6.772-3.185C22.323 8.407 30.402 7.25 39.36 7.25s17.038 1.156 22.853 3.007c2.911.926 5.213 2.013 6.771 3.185 1.57 1.182 2.266 2.353 2.266 3.443z" stroke="url(#paint5_linear)" stroke-width="1.5"/></g><defs><linearGradient id="paint0_linear" x1="50.487" y1="54.965" x2="40.839" y2="26.737" gradientUnits="userSpaceOnUse"><stop stop-color="#FFDD0F"/><stop offset=".838" stop-color="#FFDD0F" stop-opacity="0"/></linearGradient><linearGradient id="paint1_linear" x1="50.487" y1="54.965" x2="40.839" y2="26.737" gradientUnits="userSpaceOnUse"><stop stop-color="#FFDD0F"/><stop offset=".838" stop-color="#FFEF91"/></linearGradient><linearGradient id="paint2_linear" x1="50.487" y1="40.623" x2="40.839" y2="12.395" gradientUnits="userSpaceOnUse"><stop stop-color="#FFDD0F"/><stop offset=".838" stop-color="#FFDD0F" stop-opacity="0"/></linearGradient><linearGradient id="paint3_linear" x1="50.487" y1="40.623" x2="40.839" y2="12.395" gradientUnits="userSpaceOnUse"><stop stop-color="#FFDD0F"/><stop offset=".838" stop-color="#FFEF91"/></linearGradient><linearGradient id="paint4_linear" x1="50.487" y1="26.282" x2="40.839" y2="-1.947" gradientUnits="userSpaceOnUse"><stop stop-color="#FFDD0F"/><stop offset=".838" stop-color="#FFDD0F" stop-opacity="0"/></linearGradient><linearGradient id="paint5_linear" x1="50.487" y1="26.282" x2="40.839" y2="-1.947" gradientUnits="userSpaceOnUse"><stop stop-color="#FFDD0F"/><stop offset=".838" stop-color="#FFEF91"/></linearGradient><filter id="filter0_f" x=".72" y="29.184" width="77.28" height="32.771" filterUnits="userSpaceOnUse" color-interpolation-filters="sRGB"><feFlood flood-opacity="0" result="BackgroundImageFix"/><feBlend in="SourceGraphic" in2="BackgroundImageFix" result="shape"/><feGaussianBlur stdDeviation="3" result="effect1_foregroundBlur"/></filter><filter id="filter1_f" x=".72" y="14.842" width="77.28" height="32.771" filterUnits="userSpaceOnUse" color-interpolation-filters="sRGB"><feFlood flood-opacity="0" result="BackgroundImageFix"/><feBlend in="SourceGraphic" in2="BackgroundImageFix" result="shape"/><feGaussianBlur stdDeviation="3" result="effect1_foregroundBlur"/></filter><filter id="filter2_f" x=".72" y=".5" width="77.28" height="32.771" filterUnits="userSpaceOnUse" color-interpolation-filters="sRGB"><feFlood flood-opacity="0" result="BackgroundImageFix"/><feBlend in="SourceGraphic" in2="BackgroundImageFix" result="shape"/><feGaussianBlur stdDeviation="3" result="effect1_foregroundBlur"/></filter><clipPath id="clip0"><rect x="22" y="16" width="34" height="34" rx="17" fill="#fff"/></clipPath></defs></svg>