<svg width="44" height="44" fill="none" xmlns="http://www.w3.org/2000/svg"><path fill-rule="evenodd" clip-rule="evenodd" d="M21.563 43.49c11.874 0 21.5-9.626 21.5-21.5 0-11.875-9.626-21.5-21.5-21.5s-21.5 9.625-21.5 21.5c0 11.874 9.626 21.5 21.5 21.5z" fill="url(#paint0_linear)"/><path d="M15.074 17.475c1.749.596 4.067.925 6.527.925 2.461 0 4.78-.329 6.528-.925 1.864-.635 2.89-1.527 2.89-2.51 0-.984-1.026-1.876-2.89-2.511-1.749-.597-4.067-.925-6.528-.925-2.46 0-4.778.329-6.527.925-1.864.635-2.89 1.527-2.89 2.51 0 .984 1.026 1.876 2.89 2.511z" fill="#fff"/><path opacity=".668" fill-rule="evenodd" clip-rule="evenodd" d="M30.377 18.786c-.147 0-.307.05-.49.152-.267.152-.606.269-.964.392l-.104.036c-1.957.677-4.52 1.05-7.217 1.05-2.698 0-5.26-.373-7.218-1.05-.553-.191-.707-.252-.912-.357a1.26 1.26 0 00-.575-.164.67.67 0 00-.67.503 1.47 1.47 0 00-.044.354c0 .998 1.027 1.902 2.89 2.546 1.75.605 4.068.938 6.528.938 2.461 0 4.78-.333 6.528-.938 1.864-.644 2.89-1.548 2.89-2.546a1.49 1.49 0 00-.075-.465c-.129-.393-.41-.451-.567-.451zM30.377 23.418c-.147 0-.307.05-.489.152-.268.152-.606.268-.964.392l-.105.036c-1.957.677-4.52 1.05-7.217 1.05-2.698 0-5.26-.373-7.218-1.05-.553-.192-.707-.252-.912-.357a1.261 1.261 0 00-.575-.164.67.67 0 00-.67.503 1.47 1.47 0 00-.044.354c0 .998 1.027 1.902 2.89 2.546 1.75.605 4.068.938 6.528.938 2.461 0 4.78-.333 6.528-.938 1.864-.644 2.89-1.548 2.89-2.546 0-.155-.024-.311-.075-.465-.128-.393-.41-.451-.567-.451zM30.377 28.05c-.147 0-.307.05-.49.152-.268.152-.606.269-.965.392l-.103.036c-1.957.677-4.52 1.05-7.217 1.05-2.698 0-5.26-.373-7.218-1.05-.553-.191-.707-.252-.912-.357a1.26 1.26 0 00-.575-.164.67.67 0 00-.67.503 1.47 1.47 0 00-.044.354c0 .998 1.027 1.902 2.89 2.546 1.75.605 4.068.938 6.528.938 2.461 0 4.78-.333 6.528-.938 1.864-.644 2.89-1.548 2.89-2.546 0-.155-.024-.31-.075-.465-.129-.393-.41-.451-.567-.451z" fill="#fff"/><defs><linearGradient id="paint0_linear" x1="-14.243" y1="3.174" x2="68.157" y2="50.922" gradientUnits="userSpaceOnUse"><stop stop-color="#FFECD0"/><stop offset="1" stop-color="#FFD7C6"/></linearGradient></defs></svg>