<svg width="44" height="44" fill="none" xmlns="http://www.w3.org/2000/svg"><path d="M22.027 43.225c11.874 0 21.5-9.626 21.5-21.5S33.9.225 22.027.225s-21.5 9.626-21.5 21.5 9.626 21.5 21.5 21.5z" fill="url(#paint0_linear)"/><path d="M16.254 18.93a2.972 2.972 0 10-4.204 4.202 2.972 2.972 0 004.204-4.203z" fill="#FFC297" fill-opacity=".7"/><path fill-rule="evenodd" clip-rule="evenodd" d="M14.273 24.929h-.316c-3.32.008-6.01 2.73-6.019 6.09v.43c0 .236.19.428.423.428h11.506a.425.425 0 00.423-.428v-.43c-.01-3.358-2.697-6.079-6.017-6.09z" fill="#FFC297" fill-opacity=".7"/><path d="M20.907 10.276c2-1.403 4.392-2.137 6.833-2.098a11.577 11.577 0 016.832 2.098c1.812 1.338 2.933 3.195 2.933 5.267 0 2.072-1.118 3.934-2.933 5.271a11.577 11.577 0 01-6.832 2.098c-.868 0-1.734-.087-2.585-.262a11.72 11.72 0 01-2.098-.636l-3.565 2.203a.613.613 0 01-.879-.789l1.55-3.224a7.215 7.215 0 01-1.52-1.967 5.822 5.822 0 01-.669-2.69c0-2.072 1.118-3.934 2.933-5.271zm6.968 8.735a.818.818 0 00-.814.821c0 .454.364.821.814.821.45 0 .814-.367.814-.82a.818.818 0 00-.814-.822zm0-8.595c-.351 0-.686.148-.923.408-.238.26-.357.61-.327.963l.505 5.248.002.02a.75.75 0 00.743.67.75.75 0 00.744-.69l.506-5.248.002-.033a1.272 1.272 0 00-.33-.93 1.25 1.25 0 00-.922-.409z" fill="#fff"/><defs><linearGradient id="paint0_linear" x1="-13.779" y1="2.91" x2="68.621" y2="50.658" gradientUnits="userSpaceOnUse"><stop stop-color="#FFECD0"/><stop offset="1" stop-color="#FFD7C6"/></linearGradient></defs></svg>