<svg width="57" height="56" fill="none" xmlns="http://www.w3.org/2000/svg"><path d="M55.567 28c0 14.894-12.074 26.968-26.968 26.968S1.631 42.894 1.631 28 13.705 1.032 28.599 1.032 55.567 13.106 55.567 28z" stroke="#FFD9B8" stroke-width="1.8"/><path opacity=".7" d="M24.856 36.66c0 .913.749 1.662 1.663 1.662h8.624L34.037 43.6a1.86 1.86 0 00.506 1.712l1.323 1.324 8.214-8.214a2.48 2.48 0 00.732-1.762V25.853a2.49 2.49 0 00-2.494-2.494H31.092c-1.03 0-1.918.624-2.295 1.52l-3.766 8.799c-.108.28-.175.58-.175.904v2.079-.002z" fill="url(#paint0_linear)"/><path d="M32.838 21.364a1.668 1.668 0 00-1.664-1.663h-8.623l1.106-5.277a1.86 1.86 0 00-.507-1.712l-1.322-1.324-8.214 8.214a2.483 2.483 0 00-.732 1.762V32.17a2.49 2.49 0 002.494 2.494h11.226c1.03 0 1.918-.623 2.294-1.52l3.767-8.795c.108-.282.175-.582.175-.906v-2.079z" fill="url(#paint1_linear)"/><defs><linearGradient id="paint0_linear" x1="23.313" y1="44.645" x2="45.104" y2="29.886" gradientUnits="userSpaceOnUse"><stop stop-color="#FFBE94"/><stop offset="1" stop-color="#FFE0B1"/></linearGradient><linearGradient id="paint1_linear" x1="-16.965" y1="60.524" x2="89.43" y2="-13.557" gradientUnits="userSpaceOnUse"><stop stop-color="#FFD9A1"/><stop offset="1" stop-color="#FFAE8D"/></linearGradient></defs></svg>