<svg width="48" height="48" fill="none" xmlns="http://www.w3.org/2000/svg"><g clip-path="url(#clip0)"><path d="M35.276 15.328L25.78 9.891a3.641 3.641 0 00-3.65.011l-9.46 5.503a3.66 3.66 0 00-1.816 3.162l.037 10.947a3.668 3.668 0 001.839 3.156l9.493 5.436a3.644 3.644 0 003.652-.01l9.464-5.505a3.673 3.673 0 001.806-3.167l-.037-10.946a3.67 3.67 0 00-1.832-3.15z" fill="#FFF19F"/><path d="M30.969 18.64L25.1 15.28a2.251 2.251 0 00-2.256.007l-5.847 3.401a2.263 2.263 0 00-1.122 1.955l.023 6.765a2.266 2.266 0 001.136 1.952l5.867 3.36a2.252 2.252 0 002.258-.007l5.849-3.402a2.27 2.27 0 001.116-1.958l-.023-6.766a2.267 2.267 0 00-1.132-1.947z" fill="#FFDD0F"/><path d="M28.307 20.688L24.68 18.61a1.39 1.39 0 00-1.394.004l-3.613 2.102a1.398 1.398 0 00-.693 1.208l.014 4.182a1.401 1.401 0 00.702 1.206l3.626 2.076a1.391 1.391 0 001.395-.004l3.615-2.103a1.403 1.403 0 00.69-1.21l-.014-4.18a1.402 1.402 0 00-.7-1.204z" fill="#FFDD0F"/><path d="M64.533 15.228l-9.495-5.437a3.641 3.641 0 00-3.65.012l-9.46 5.503a3.662 3.662 0 00-1.817 3.162l.037 10.947a3.667 3.667 0 001.84 3.156l9.492 5.436a3.642 3.642 0 003.653-.01l9.463-5.505a3.672 3.672 0 001.807-3.166l-.038-10.947a3.67 3.67 0 00-1.832-3.15z" fill="#FFF19F"/><path d="M60.225 18.54l-5.868-3.36a2.25 2.25 0 00-2.256.008l-5.847 3.4a2.264 2.264 0 00-1.123 1.955l.023 6.765a2.266 2.266 0 001.137 1.952l5.867 3.36a2.252 2.252 0 002.257-.006l5.849-3.402a2.27 2.27 0 001.116-1.958l-.022-6.765a2.267 2.267 0 00-1.133-1.948z" fill="#FFEB6F"/><path d="M5.562 15.43l-9.496-5.438a3.641 3.641 0 00-3.65.012l-9.46 5.503a3.661 3.661 0 00-1.816 3.161l.037 10.947a3.666 3.666 0 001.84 3.157l9.492 5.436a3.643 3.643 0 003.652-.01l9.464-5.505a3.673 3.673 0 001.806-3.167l-.037-10.947a3.67 3.67 0 00-1.832-3.15z" fill="#FFF19F"/><path d="M1.255 18.742l-5.869-3.36a2.25 2.25 0 00-2.255.007l-5.848 3.4a2.264 2.264 0 00-1.122 1.955l.023 6.766a2.266 2.266 0 001.136 1.951l5.867 3.36a2.253 2.253 0 002.258-.006l5.849-3.402a2.27 2.27 0 001.116-1.957l-.023-6.766a2.268 2.268 0 00-1.132-1.948z" fill="#FFEB6F"/><path d="M49.836-10.728l-9.495-5.438a3.641 3.641 0 00-3.65.012l-9.46 5.503a3.661 3.661 0 00-1.816 3.161l.037 10.947a3.667 3.667 0 001.839 3.157l9.493 5.436a3.644 3.644 0 003.652-.01l9.463-5.505a3.673 3.673 0 001.807-3.167L51.669-7.58a3.67 3.67 0 00-1.833-3.15z" fill="#FFF19F"/><path d="M45.53-7.416l-5.87-3.36a2.25 2.25 0 00-2.255.006l-5.847 3.402a2.262 2.262 0 00-1.122 1.954l.022 6.766a2.266 2.266 0 001.137 1.951l5.867 3.36a2.251 2.251 0 002.257-.006l5.849-3.402a2.269 2.269 0 001.117-1.958l-.023-6.765a2.268 2.268 0 00-1.133-1.948z" fill="#FFEB6F"/><path d="M15.85-7.416l-5.87-3.36a2.25 2.25 0 00-2.255.006L1.878-7.368A2.263 2.263 0 00.756-5.414l.023 6.766a2.266 2.266 0 001.136 1.951l5.867 3.36a2.251 2.251 0 002.258-.006l5.848-3.402a2.269 2.269 0 001.117-1.958l-.023-6.765a2.268 2.268 0 00-1.132-1.948zM42.867-5.37L39.24-7.449a1.39 1.39 0 00-1.394.005l-3.613 2.102a1.399 1.399 0 00-.694 1.208l.014 4.181a1.4 1.4 0 00.703 1.206l3.626 2.076a1.392 1.392 0 001.395-.004l3.615-2.102a1.403 1.403 0 00.69-1.21l-.014-4.181a1.402 1.402 0 00-.7-1.204z" fill="#FFDD0F"/><path d="M20.066-10.63l-9.495-5.436a3.642 3.642 0 00-3.65.011l-9.46 5.503A3.661 3.661 0 00-4.356-7.39l.037 10.946A3.667 3.667 0 00-2.48 6.713l9.493 5.436a3.643 3.643 0 003.653-.01l9.463-5.505a3.673 3.673 0 001.807-3.167l-.037-10.946a3.668 3.668 0 00-1.833-3.15zM49.836 41.385l-9.495-5.438a3.64 3.64 0 00-3.65.012l-9.46 5.503a3.662 3.662 0 00-1.816 3.162l.037 10.947a3.667 3.667 0 001.839 3.157l9.493 5.436a3.645 3.645 0 003.652-.01l9.463-5.505a3.673 3.673 0 001.807-3.167l-.037-10.947a3.67 3.67 0 00-1.833-3.15z" fill="#FFF19F"/><path d="M45.53 44.63l-5.87-3.36a2.25 2.25 0 00-2.255.007l-5.847 3.401a2.262 2.262 0 00-1.122 1.955l.022 6.765a2.266 2.266 0 001.137 1.951l5.867 3.36a2.25 2.25 0 002.257-.006l5.849-3.402a2.269 2.269 0 001.117-1.958l-.023-6.765a2.268 2.268 0 00-1.133-1.948z" fill="#FFEB6F"/><path d="M15.815 44.698l-5.869-3.36a2.251 2.251 0 00-2.255.008l-5.847 3.4A2.263 2.263 0 00.72 46.702l.023 6.766a2.266 2.266 0 001.136 1.95l5.868 3.36a2.25 2.25 0 002.257-.006l5.849-3.402a2.27 2.27 0 001.117-1.957l-.023-6.767a2.269 2.269 0 00-1.133-1.947zM42.867 46.744l-3.627-2.077a1.39 1.39 0 00-1.394.005l-3.613 2.102a1.399 1.399 0 00-.694 1.208l.014 4.181a1.4 1.4 0 00.703 1.206l3.626 2.077a1.392 1.392 0 001.395-.004l3.615-2.103a1.402 1.402 0 00.69-1.21l-.014-4.181a1.402 1.402 0 00-.7-1.204z" fill="#FFDD0F"/><path d="M20.123 41.486l-9.496-5.437a3.64 3.64 0 00-3.65.012l-9.46 5.502A3.661 3.661 0 00-4.3 44.726l.037 10.946a3.667 3.667 0 001.839 3.157l9.493 5.436a3.643 3.643 0 003.652-.01l9.463-5.505a3.672 3.672 0 001.807-3.167l-.037-10.946a3.668 3.668 0 00-1.832-3.15z" fill="#FFF19F"/><path d="M1.186-1.373l-5.869-3.36a2.25 2.25 0 00-2.256.006l-5.847 3.402A2.263 2.263 0 00-13.908.629l.023 6.766a2.266 2.266 0 001.136 1.951l5.867 3.36a2.251 2.251 0 002.257-.006l5.85-3.402A2.27 2.27 0 002.34 7.34L2.318.575a2.268 2.268 0 00-1.132-1.948z" fill="#FFDD0F"/><path d="M15.739-7.416l-5.869-3.36a2.25 2.25 0 00-2.255.006L1.767-7.368A2.263 2.263 0 00.645-5.414l.023 6.766a2.266 2.266 0 001.136 1.951l5.867 3.36a2.251 2.251 0 002.258-.006l5.848-3.402a2.27 2.27 0 001.117-1.958l-.023-6.765a2.267 2.267 0 00-1.132-1.948zM15.739 44.562l-5.869-3.36a2.25 2.25 0 00-2.255.007L1.767 44.61a2.263 2.263 0 00-1.122 1.955l.023 6.765a2.266 2.266 0 001.136 1.952l5.867 3.36a2.252 2.252 0 002.258-.007l5.848-3.402a2.27 2.27 0 001.117-1.957l-.023-6.766a2.267 2.267 0 00-1.132-1.948z" fill="#FFEB6F"/></g><defs><clipPath id="clip0"><rect width="48" height="48" rx="24" fill="#fff"/></clipPath></defs></svg>