<svg width="44" height="44" fill="none" xmlns="http://www.w3.org/2000/svg"><path fill-rule="evenodd" clip-rule="evenodd" d="M21.955 43.616c11.874 0 21.5-9.626 21.5-21.5S33.83.616 21.955.616s-21.5 9.626-21.5 21.5 9.626 21.5 21.5 21.5z" fill="url(#paint0_linear)"/><path fill-rule="evenodd" clip-rule="evenodd" d="M18.622 27.186c-.045-4.893 2.232-7.607 6.832-8.143h4.223c4.519.467 6.778 3.238 6.778 8.312a1836.23 1836.23 0 00-17.376 0l-.457-.17z" fill="#FFF0D9"/><path d="M27.558 17.837a3.71 3.71 0 100-7.422 3.71 3.71 0 000 7.422z" fill="#FFF0D9"/><path fill-rule="evenodd" clip-rule="evenodd" d="M8.456 30.794c-.045-4.892 2.232-7.606 6.832-8.142h4.223c4.518.467 6.778 3.238 6.778 8.312-4.574-.027-10.366-.027-17.376 0l-.457-.17z" fill="#fff"/><path d="M17.393 21.445a3.71 3.71 0 100-7.421 3.71 3.71 0 000 7.421z" fill="#fff"/><defs><linearGradient id="paint0_linear" x1="-13.851" y1="3.301" x2="68.549" y2="51.049" gradientUnits="userSpaceOnUse"><stop stop-color="#FFD9A2"/><stop offset="1" stop-color="#FFAE8D"/></linearGradient></defs></svg>