<svg width="16" height="17" fill="none" xmlns="http://www.w3.org/2000/svg"><path d="M11.156 11.13a4.426 4.426 0 10-6.26-6.26 4.426 4.426 0 006.26 6.26z" fill="#fff" fill-opacity=".2"/><path opacity=".88" d="M14.316 8A6.29 6.29 0 101.734 8a6.29 6.29 0 0012.582 0z" fill="#fff" fill-opacity=".2"/><path opacity=".76" d="M16 8A8 8 0 100 8a8 8 0 0016 0z" fill="#fff" fill-opacity=".2"/><path d="M9.628 6.221A2.269 2.269 0 106.42 9.43a2.269 2.269 0 003.21-3.208z" fill="#fff"/><path fill-rule="evenodd" clip-rule="evenodd" d="M12.386 14.914a4.276 4.276 0 00-4.25-3.932h-.223a4.274 4.274 0 00-4.248 3.898 8.118 8.118 0 004.387 1.28 8.117 8.117 0 004.334-1.246z" fill="#fff"/></svg>