<svg width="13" height="13" fill="none" xmlns="http://www.w3.org/2000/svg"><g clip-path="url(#clip0)"><path d="M9.554 4.15L6.982 2.679a.986.986 0 00-.988.003L3.43 4.171a.992.992 0 00-.492.857l.01 2.965a.993.993 0 00.499.855l2.57 1.472a.986.986 0 00.99-.003l2.563-1.49a.995.995 0 00.489-.859l-.01-2.964a.993.993 0 00-.496-.853z" fill="#FFF19F"/><path d="M8.387 5.048l-1.59-.91a.61.61 0 00-.61.002l-1.584.92a.613.613 0 00-.304.53l.007 1.832a.614.614 0 00.307.53l1.59.909a.61.61 0 00.61-.002l1.585-.921a.615.615 0 00.302-.53l-.006-1.833a.614.614 0 00-.307-.527z" fill="#FFDD0F"/><path d="M7.666 5.603l-.982-.563a.377.377 0 00-.377.002l-.979.569a.379.379 0 00-.188.327l.004 1.132a.38.38 0 00.19.327l.982.562a.377.377 0 00.378 0l.98-.57a.38.38 0 00.186-.328L7.856 5.93a.38.38 0 00-.19-.326z" fill="#FFDD0F"/><path d="M17.477 4.123l-2.571-1.472a.986.986 0 00-.989.003l-2.562 1.49a.991.991 0 00-.492.857l.01 2.964a.994.994 0 00.498.855l2.571 1.473a.986.986 0 00.99-.003l2.563-1.49a.995.995 0 00.489-.859l-.01-2.964a.994.994 0 00-.497-.854z" fill="#FFF19F"/><path d="M16.311 5.02l-1.59-.91a.61.61 0 00-.61.002l-1.584.921a.613.613 0 00-.304.53l.006 1.832a.614.614 0 00.308.529l1.59.91a.61.61 0 00.61-.002l1.585-.921a.615.615 0 00.302-.53l-.006-1.833a.615.615 0 00-.307-.528z" fill="#FFEB6F"/><path d="M1.506 4.178l-2.571-1.473a.986.986 0 00-.989.004l-2.562 1.49a.992.992 0 00-.492.856l.01 2.965a.993.993 0 00.498.855l2.571 1.472a.987.987 0 00.99-.003l2.562-1.49a.995.995 0 00.49-.858l-.01-2.965a.994.994 0 00-.497-.853z" fill="#FFF19F"/><path d="M.34 5.075l-1.59-.91a.61.61 0 00-.61.002l-1.584.921a.613.613 0 00-.304.53l.006 1.832a.614.614 0 00.308.528l1.589.91a.61.61 0 00.611-.001L.35 7.965a.615.615 0 00.303-.53L.647 5.603a.614.614 0 00-.307-.528z" fill="#FFEB6F"/><path d="M13.498-2.908L10.926-4.38a.986.986 0 00-.989.004l-2.562 1.49a.992.992 0 00-.492.856l.01 2.965a.993.993 0 00.498.855L9.962 3.26a.987.987 0 00.99-.003l2.563-1.49a.994.994 0 00.489-.858l-.01-2.965a.993.993 0 00-.496-.853z" fill="#FFF19F"/><path d="M12.331-2.01l-1.59-.91a.61.61 0 00-.61.001l-1.584.921a.613.613 0 00-.304.53L8.25.364a.614.614 0 00.308.528l1.59.91a.61.61 0 00.61-.001l1.585-.922a.615.615 0 00.302-.53l-.006-1.832a.614.614 0 00-.307-.528z" fill="#FFEB6F"/><path d="M4.293-2.01l-1.59-.91a.61.61 0 00-.61.001l-1.584.921a.613.613 0 00-.304.53L.21.364a.614.614 0 00.308.528l1.589.91a.61.61 0 00.61-.001L4.304.879a.615.615 0 00.302-.53L4.6-1.483a.614.614 0 00-.306-.528zM11.61-1.456l-.982-.562a.377.377 0 00-.378.001l-.979.57a.379.379 0 00-.188.326L9.088.012a.38.38 0 00.19.326l.983.563A.377.377 0 0010.637.9l.98-.57a.38.38 0 00.186-.327L11.8-1.13a.38.38 0 00-.19-.326z" fill="#FFDD0F"/><path d="M5.435-2.879L2.863-4.35a.986.986 0 00-.989.003l-2.562 1.49A.992.992 0 00-1.18-2l.01 2.964a.993.993 0 00.498.855L1.9 3.29a.987.987 0 00.99-.002l2.563-1.491A.995.995 0 005.94.939l-.01-2.965a.994.994 0 00-.496-.853zM13.498 11.207l-2.572-1.472a.986.986 0 00-.989.003l-2.562 1.49a.992.992 0 00-.492.857l.01 2.964a.993.993 0 00.498.855l2.571 1.473a.987.987 0 00.99-.003l2.563-1.491a.994.994 0 00.489-.858l-.01-2.964a.993.993 0 00-.496-.854z" fill="#FFF19F"/><path d="M12.331 12.087l-1.59-.91a.61.61 0 00-.61.002l-1.584.92a.613.613 0 00-.304.53l.006 1.833a.614.614 0 00.308.528l1.59.91a.61.61 0 00.61-.002l1.585-.921a.615.615 0 00.302-.53l-.006-1.833a.614.614 0 00-.307-.527z" fill="#FFEB6F"/><path d="M4.283 12.106l-1.59-.91a.61.61 0 00-.61.002l-1.584.921a.614.614 0 00-.304.53l.007 1.832a.613.613 0 00.307.528l1.59.91a.61.61 0 00.61-.001l1.585-.922a.615.615 0 00.302-.53l-.006-1.832a.614.614 0 00-.307-.528zM11.61 12.66l-.982-.563a.376.376 0 00-.378.001l-.979.57a.379.379 0 00-.188.327l.004 1.132a.38.38 0 00.19.327l.983.562a.378.378 0 00.377-.001l.98-.57a.381.381 0 00.186-.327l-.003-1.133a.38.38 0 00-.19-.325z" fill="#FFDD0F"/><path d="M5.45 11.235L2.878 9.762a.986.986 0 00-.988.003l-2.563 1.49a.992.992 0 00-.492.857l.01 2.965a.993.993 0 00.499.855l2.57 1.472a.988.988 0 00.99-.003l2.563-1.49a.994.994 0 00.489-.858l-.01-2.965a.994.994 0 00-.496-.853z" fill="#FFF19F"/><path d="M.322-.372l-1.59-.91a.61.61 0 00-.611.002l-1.584.92a.613.613 0 00-.304.53l.007 1.833a.614.614 0 00.307.528l1.59.91a.61.61 0 00.61-.002l1.585-.921a.615.615 0 00.302-.53L.628.156a.614.614 0 00-.306-.528z" fill="#FFDD0F"/><path d="M4.263-2.01l-1.59-.91a.61.61 0 00-.61.001l-1.584.921a.613.613 0 00-.304.53L.18.364a.614.614 0 00.308.528l1.589.91a.61.61 0 00.611-.001L4.273.879a.615.615 0 00.303-.53l-.007-1.832a.614.614 0 00-.306-.528zM4.263 12.07l-1.59-.91a.61.61 0 00-.61.001l-1.584.921a.613.613 0 00-.304.53l.006 1.832a.613.613 0 00.308.529l1.589.91a.61.61 0 00.611-.002l1.584-.922a.615.615 0 00.303-.53l-.007-1.832a.614.614 0 00-.306-.528z" fill="#FFEB6F"/></g><defs><clipPath id="clip0"><rect width="13" height="13" rx="6.5" fill="#fff"/></clipPath></defs></svg>