<svg width="44" height="44" fill="none" xmlns="http://www.w3.org/2000/svg"><path fill-rule="evenodd" clip-rule="evenodd" d="M22.491 43.616c11.874 0 21.5-9.626 21.5-21.5s-9.626-21.5-21.5-21.5-21.5 9.626-21.5 21.5 9.626 21.5 21.5 21.5z" fill="url(#paint0_linear)"/><path d="M19.375 28.12c0 .68.558 1.238 1.24 1.238h6.421l-.824 3.93c-.1.461.043.942.378 1.274l.984.986 6.117-6.116c.336-.335.545-.798.545-1.313v-8.047c0-1.027-.83-1.857-1.857-1.857h-8.36a1.85 1.85 0 00-1.708 1.132L19.506 25.9c-.08.21-.13.432-.13.674v1.548-.002z" fill="#FFF0D9"/><path d="M25.32 16.73a1.242 1.242 0 00-1.24-1.239H17.66l.824-3.93c.099-.462-.043-.943-.378-1.275L17.12 9.3l-6.116 6.117c-.336.335-.545.8-.545 1.312v8.047c0 1.028.829 1.858 1.857 1.858h8.36c.767 0 1.428-.465 1.708-1.133l2.805-6.549c.08-.21.13-.433.13-.675V16.73z" fill="#fff"/><defs><linearGradient id="paint0_linear" x1="-13.315" y1="3.301" x2="69.085" y2="51.049" gradientUnits="userSpaceOnUse"><stop stop-color="#FFD9A2"/><stop offset="1" stop-color="#FFAE8D"/></linearGradient></defs></svg>