<svg width="44" height="44" fill="none" xmlns="http://www.w3.org/2000/svg"><path d="M21.955 43.49c11.874 0 21.5-9.626 21.5-21.5 0-11.875-9.626-21.5-21.5-21.5s-21.5 9.625-21.5 21.5c0 11.874 9.626 21.5 21.5 21.5z" fill="url(#paint0_linear)"/><path fill-rule="evenodd" clip-rule="evenodd" d="M18.622 26.26c-.045-4.893 2.232-7.607 6.832-8.143h4.223c4.519.468 6.778 3.238 6.778 8.312a1843.03 1843.03 0 00-17.376 0l-.457-.169z" fill="#FFC297" fill-opacity=".7"/><path d="M27.558 16.911a3.71 3.71 0 100-7.422 3.71 3.71 0 000 7.422z" fill="#FFC297" fill-opacity=".7"/><path fill-rule="evenodd" clip-rule="evenodd" d="M8.456 29.869c-.045-4.893 2.232-7.607 6.832-8.143h4.223c4.518.468 6.778 3.238 6.778 8.312-4.574-.027-10.366-.027-17.376 0l-.457-.17z" fill="#fff"/><path d="M17.393 20.52a3.71 3.71 0 100-7.422 3.71 3.71 0 000 7.422z" fill="#fff"/><defs><linearGradient id="paint0_linear" x1="-13.851" y1="3.174" x2="68.549" y2="50.922" gradientUnits="userSpaceOnUse"><stop stop-color="#FFECD0"/><stop offset="1" stop-color="#FFD7C6"/></linearGradient></defs></svg>