<svg width="94" height="91" fill="none" xmlns="http://www.w3.org/2000/svg"><ellipse opacity=".5" cx="47.057" cy="45.377" rx="46.089" ry="45" fill="url(#paint0_linear)"/><mask id="a" maskUnits="userSpaceOnUse" x="1" y="0" width="92" height="91"><g clip-path="url(#clip0)" fill="#FFDD0F"><path opacity=".8" d="M72.886 35.401c0-2.664-1.51-5.16-3.875-6.502L50.828 18.765a7.894 7.894 0 00-7.712.037L25.008 29.05c-2.366 1.34-3.838 3.837-3.838 6.52l.056 20.418a7.598 7.598 0 003.912 6.52l18.145 10.135a7.866 7.866 0 003.838 1.006 7.69 7.69 0 003.894-1.062L69.123 62.34a7.509 7.509 0 003.819-6.52l-.056-20.42zm-4.49 25.71L50.288 71.355a6.35 6.35 0 01-3.13.839c-1.08.037-2.18-.261-3.13-.801L25.866 61.259c-1.92-1.099-3.13-3.11-3.13-5.253l-.093-20.419a6.04 6.04 0 013.092-5.253l18.09-10.246c.987-.54 2.049-.839 3.13-.839 1.099 0 2.16.28 3.166.839l18.164 10.134c1.92 1.062 3.13 3.074 3.13 5.235l.056 20.418c.019 2.124-1.155 4.136-3.074 5.235zm4.21-25.71h.02-.02z"/><path opacity=".8" d="M63.31 39.388a5.033 5.033 0 00-2.552-4.266l-11.234-6.26c-1.565-.894-3.52-.894-5.048 0l-11.197 6.334c-1.565.894-2.515 2.515-2.515 4.266l.037 12.594c0 1.751.988 3.39 2.553 4.266l11.233 6.26a4.99 4.99 0 002.515.67c.895 0 1.77-.223 2.534-.67l11.197-6.353c1.564-.894 2.514-2.515 2.514-4.266l-.037-12.575zM60.07 54.98l-11.197 6.353a3.532 3.532 0 01-1.77.465 3.547 3.547 0 01-1.807-.484l-11.233-6.26c-1.118-.614-1.807-1.788-1.807-2.999l-.038-12.594c0-1.23.69-2.384 1.77-2.999l11.197-6.334a3.756 3.756 0 011.807-.485c.633 0 1.23.15 1.77.466h.018l11.234 6.26c1.117.652 1.807 1.788 1.807 3l.037 12.593a3.55 3.55 0 01-1.788 3.018zm29.061 9.652l-6.762-3.764c-1.92-1.099-3.13-3.11-3.13-5.253l-.056-20.418a6.04 6.04 0 013.093-5.254L89 26.123l.223-.13-.111-.223c-.056-.15-.13-.28-.205-.41a3.73 3.73 0 01-.187-.391l-.13-.28-.26.15-6.782 3.856c-2.422 1.341-3.912 3.875-3.875 6.52l.056 20.418c0 2.683 1.509 5.18 3.912 6.52l6.819 3.783.242.13.13-.242c.168-.28.298-.56.41-.838l.112-.243-.224-.111z"/><path opacity=".8" d="M91.833 55.876l-1.789-.987c-1.118-.615-1.807-1.789-1.807-3L88.2 39.297c0-1.23.69-2.385 1.77-3l1.788-1.024.168-.093-.038-.205c-.055-.317-.167-.634-.26-.932l-.112-.335-.298.168-1.993 1.136a4.874 4.874 0 00-2.515 4.266l.037 12.594c0 1.751.987 3.39 2.552 4.266l2.012 1.118.298.168.093-.336c.056-.149.093-.316.13-.466l.112-.447.075-.223-.186-.075zm-75.786-20.25c0-2.664-1.51-5.16-3.875-6.502l-6.148-3.428-.26-.15-.131.28c-.056.13-.13.261-.186.392-.075.13-.15.279-.205.41l-.112.242.223.13 6.074 3.39c1.919 1.1 3.13 3.112 3.13 5.236l.055 20.418a6.04 6.04 0 01-3.092 5.253l-6.055 3.428-.223.13.111.224c.056.15.13.28.205.41.075.13.13.26.187.391l.13.28.26-.15 6.111-3.465c2.366-1.378 3.838-3.875 3.838-6.52l-.037-20.4z"/><path opacity=".8" d="M6.453 39.555c0-1.751-.988-3.39-2.553-4.266l-1.266-.69-.299-.167-.093.335a9.594 9.594 0 00-.223.931l-.056.187.186.093 1.025.577c1.118.615 1.807 1.789 1.807 3l.037 12.593c0 1.23-.69 2.385-1.77 3l-1.024.577-.187.093.038.205c.056.317.167.634.26.932l.112.335.298-.167 1.267-.727c1.528-.838 2.515-2.478 2.478-4.248l-.037-12.593zM85.07 20.144c-.186-.224-.317-.466-.522-.745l-.149-.205-.223.13-6.074 3.428a6.3 6.3 0 01-3.13.838 6.541 6.541 0 01-3.13-.8L53.68 12.654c-1.919-1.1-3.13-3.111-3.13-5.254l-.037-6.353v-.26l-.242-.02c-.168-.018-.317-.018-.485-.036-.149 0-.298-.019-.447-.038l-.316-.018v.316l.037 6.41c.037 2.719 1.546 5.215 3.912 6.557l18.145 10.134a7.866 7.866 0 003.838 1.006h.037a7.733 7.733 0 003.875-1.024l6.148-3.484.28-.168-.224-.28z"/><path opacity=".8" d="M78.68 12.915c-.112-.093-.223-.205-.354-.316-.111-.112-.242-.205-.354-.317l-.149-.13-.167.093-.895.503a3.513 3.513 0 01-1.77.484 3.597 3.597 0 01-1.806-.484L61.95 6.488c-1.118-.615-1.807-1.788-1.807-3V2.54l-.205-.056a7.88 7.88 0 00-.95-.242l-.336-.075V3.49c0 1.75.988 3.39 2.553 4.266l11.233 6.26c.746.41 1.621.67 2.515.67.876 0 1.752-.223 2.515-.67l1.137-.652.335-.205-.26-.243zM34.08 2.519c-.149.037-.316.093-.465.13-.15.038-.317.093-.466.13l-.205.057v.559c0 1.23-.69 2.384-1.77 2.999l-11.196 6.39a3.597 3.597 0 01-3.577-.019l-.354-.167-.168-.094-.149.13c-.13.094-.242.206-.354.318-.112.093-.223.204-.354.298l-.298.26.335.205.56.336c.782.447 1.676.652 2.552.652.913 0 1.788-.224 2.552-.67l11.196-6.354c1.528-.894 2.515-2.515 2.515-4.266v-.987l-.354.093z"/><path opacity=".8" d="M43.898 1.142V.844L43.6.862a3.835 3.835 0 01-.465.038 3.921 3.921 0 01-.466.037l-.26.019v.26l.036 6.279a6.04 6.04 0 01-3.092 5.253L21.245 23.032a6.3 6.3 0 01-3.13.838c-1.1 0-2.161-.28-3.111-.801l-5.459-3.13-.205-.13-.149.186c-.186.242-.354.503-.54.764l-.168.26.224.15 5.589 3.13c1.155.614 2.496.987 3.838.987 1.378 0 2.72-.335 3.875-1.025l18.108-10.246c2.366-1.341 3.837-3.875 3.819-6.52l-.038-6.353zm41.097 69.711l-6.297-3.52c-2.403-1.305-5.365-1.305-7.73.055l-18.09 10.247c-2.366 1.341-3.838 3.837-3.838 6.52l.037 6.222v.28h.28c.316 0 .652-.037.95-.056l.26-.019v-.26l-.037-6.186a6.04 6.04 0 013.093-5.253L71.73 68.637c.987-.54 2.05-.839 3.13-.839 1.062 0 2.16.261 3.092.801l6.241 3.484.205.112.15-.186a8.62 8.62 0 00.54-.783l.13-.242-.224-.13z"/><path opacity=".8" d="M78.605 78.1l-1.23-.69a5.086 5.086 0 00-5.048 0l-11.196 6.354c-1.565.894-2.515 2.515-2.515 4.266v1.267l.354-.112.447-.112c.149-.037.316-.074.484-.13l.205-.056v-.875c0-1.23.69-2.385 1.77-3l11.196-6.353a3.78 3.78 0 011.807-.466c.597 0 1.23.168 1.77.485l.988.54.167.093.15-.13a12.1 12.1 0 00.726-.652l.26-.261-.335-.168zm-44.264 9.801a5.123 5.123 0 00-2.57-4.229l-11.234-6.26c-1.565-.894-3.484-.856-5.049 0l-.428.243-.354.205.298.26c.111.094.223.206.354.317.111.112.242.205.354.317l.149.13.167-.093.224-.112a3.799 3.799 0 011.807-.484c.596 0 1.23.168 1.77.484l11.233 6.26c1.118.615 1.808 1.789 1.808 3v.633l.204.056c.15.037.317.093.466.13.15.037.317.093.466.13l.354.112v-.372l-.019-.727z"/><path opacity=".8" d="M43.898 90.34l-.037-6.129c0-2.683-1.51-5.179-3.875-6.52L21.803 67.556c-2.403-1.341-5.346-1.341-7.712.037l-5.254 2.981-.28.168.206.26c.093.112.167.224.242.355.093.13.167.26.28.39l.148.187.205-.112 5.18-2.943c.987-.54 2.048-.839 3.129-.839 1.062 0 2.161.261 3.093.801l18.182 10.135c1.919 1.1 3.13 3.111 3.13 5.235l.037 6.073v.261l.242.019c.15.018.317.037.466.037.15.019.317.037.466.037l.316.037.02-.335z"/></g></mask><g mask="url(#a)"><ellipse cx="47" cy="45.676" rx="46.296" ry="45" fill="#FFEB6F"/></g><defs><linearGradient id="paint0_linear" x1="-1.158" y1="79.474" x2="88.358" y2="64.264" gradientUnits="userSpaceOnUse"><stop stop-color="#FFEB6F" stop-opacity="0"/><stop offset="1" stop-color="#FFEB6F" stop-opacity=".8"/></linearGradient><clipPath id="clip0"><path fill="#fff" transform="translate(1.963 .676)" d="M0 0h90.075v90H0z"/></clipPath></defs></svg>