<svg width="44" height="44" fill="none" xmlns="http://www.w3.org/2000/svg"><path fill-rule="evenodd" clip-rule="evenodd" d="M21.883 43.616c11.874 0 21.5-9.626 21.5-21.5s-9.626-21.5-21.5-21.5-21.5 9.626-21.5 21.5 9.626 21.5 21.5 21.5z" fill="url(#paint0_linear)"/><path d="M18.504 10.701l1.67 4.23a.13.13 0 00.156.075l4.349-1.33c.113-.032.207.087.144.181l-2.265 3.94a.129.129 0 00.037.17l3.753 2.567c.094.062.062.213-.05.232l-4.493.684c-.063.012-.113.069-.107.131l.333 4.53a.126.126 0 01-.214.101l-3.338-3.087c-.05-.044-.125-.044-.17 0l-3.338 3.087c-.081.076-.22.013-.213-.1l.333-4.53a.12.12 0 00-.107-.132l-4.493-.684a.127.127 0 01-.05-.232l3.752-2.567a.129.129 0 00.038-.17l-2.265-3.94c-.057-.1.038-.22.144-.182l4.349 1.33a.13.13 0 00.156-.075l1.67-4.229c.025-.113.175-.113.22 0zM30.988 23.023l1.048 2.12 2.347.346-1.695 1.65.396 2.334-2.096-1.104-2.096 1.104.402-2.334-1.694-1.65 2.34-.345 1.048-2.121zM19.162 34.523a1.881 1.881 0 100-3.763 1.881 1.881 0 000 3.762z" fill="#fff"/><defs><linearGradient id="paint0_linear" x1="-13.923" y1="3.301" x2="68.477" y2="51.049" gradientUnits="userSpaceOnUse"><stop stop-color="#FFD9A2"/><stop offset="1" stop-color="#FFAE8D"/></linearGradient></defs></svg>