<svg width="50" height="50" fill="none" xmlns="http://www.w3.org/2000/svg"><circle opacity=".5" cx="25" cy="25" r="25" fill="#2ED2A1"/><mask id="a" maskUnits="userSpaceOnUse" x="0" y="0" width="50" height="50"><circle cx="25" cy="25" r="25" fill="#26C395"/></mask><g mask="url(#a)"><path d="M25.015 52.416c21.462 0 38.861-15.186 38.861-33.92 0-18.733-17.399-33.92-38.86-33.92-21.463 0-38.862 15.187-38.862 33.92 0 18.734 17.399 33.92 38.861 33.92z" fill="#2ED2A1" fill-opacity=".9"/><path d="M25.015 51.325c21.462 0 38.861-14.942 38.861-33.374 0-18.433-17.399-33.375-38.86-33.375-21.463 0-38.862 14.942-38.862 33.375 0 18.432 17.399 33.374 38.861 33.374z" fill="#fff" fill-opacity=".3"/><path d="M24.94 50.678c21.234 0 38.448-14.723 38.448-32.885S46.174-15.092 24.94-15.092C3.705-15.092-13.51-.369-13.51 17.793S3.705 50.678 24.94 50.678z" fill="#fff" fill-opacity=".3"/><path d="M24.289 51.608c15.1 0 27.34-12.088 27.34-27 0-14.91-12.24-26.999-27.34-26.999s-27.34 12.088-27.34 27c0 14.91 12.24 26.999 27.34 26.999z" fill="#fff" fill-opacity=".3"/><path d="M24.93 46c12.405 0 22.461-8.13 22.461-18.158 0-10.029-10.056-18.158-22.46-18.158-12.405 0-22.461 8.13-22.461 18.158S12.526 46 24.93 46z" fill="#fff" fill-opacity=".3"/><path d="M24.94 42.331c8.923 0 16.156-4.626 16.156-10.332 0-5.707-7.233-10.333-16.155-10.333-8.923 0-16.156 4.626-16.156 10.333 0 5.706 7.233 10.332 16.156 10.332z" fill="#fff" fill-opacity=".3"/><path d="M24.941 46c12.41 0 22.471-8.13 22.471-18.158 0-10.029-10.06-18.158-22.471-18.158-12.41 0-22.471 8.13-22.471 18.158S12.53 46 24.94 46z" stroke="#2ED2A1" stroke-width=".5" stroke-miterlimit="10"/><path d="M24.942 51.237c15.6 0 28.247-12.083 28.247-26.988 0-14.906-12.647-26.99-28.247-26.99C9.34-2.74-3.306 9.344-3.306 24.25c0 14.905 12.647 26.988 28.248 26.988z" stroke="#2ED2A1" stroke-width=".5" stroke-miterlimit="10"/><path d="M25.042-29v69.972M-11.999-24.086S4.821-16.114 12.006 3.02c7.185 19.135 5.445 32.452 5.445 32.452M32.5 35.664s-1.74-13.361 5.445-32.559c5.831-15.58 18.008-23.783 22.39-26.322M8.785 32.276S4.527 21.752-6.346 13.226C-17.22 4.7-29.57 5.79-29.57 5.79M41.096 32.276s4.258-10.524 15.13-19.05C67.1 4.7 79.452 5.79 79.452 5.79M10.232 36.345s-9.11-2.683-19.547 3.405M35.278 40.022s2.564 4.623 2.564 14.863M14.663 40.022s-2.42 5.476-2.42 14.863M40.227 35.517s9.11-2.683 19.547 3.405" stroke="#2ED2A1" stroke-width=".5" stroke-miterlimit="10" stroke-linecap="round" stroke-linejoin="round"/><path d="M24.94 42.248c8.923 0 16.156-4.607 16.156-10.29 0-5.684-7.233-10.292-16.155-10.292-8.923 0-16.156 4.607-16.156 10.291s7.233 10.291 16.156 10.291z" stroke="#2ED2A1" stroke-width=".5" stroke-miterlimit="10"/><path d="M24.941 40.993c4.431 0 8.024-1.786 8.024-3.989s-3.593-3.988-8.024-3.988c-4.43 0-8.023 1.785-8.023 3.988 0 2.203 3.592 3.99 8.023 3.99z" fill="#fff" fill-opacity=".3"/><path d="M24.94 40.926c4.43 0 8.023-1.772 8.023-3.957 0-2.186-3.593-3.957-8.024-3.957-4.43 0-8.023 1.771-8.023 3.957 0 2.185 3.592 3.957 8.023 3.957z" stroke="#2ED2A1" stroke-width=".5" stroke-miterlimit="10"/></g><circle cx="32.003" cy="21.934" r="5.471" fill="url(#paint0_linear)"/><path opacity=".1" fill-rule="evenodd" clip-rule="evenodd" d="M33.796 16.764a5.462 5.462 0 00-1.793-.301 5.446 5.446 0 00-2.833.79c.299.574.987.838 1.61 1.047 1.102.368 2.224.74 3.384.76.143.002.286 0 .43-.003.507-.01 1.013-.02 1.49.203a.574.574 0 01.331.593c-.058.405-.505.48-.867.488-1.05.024-2.099-.04-3.147-.105-.941-.058-1.882-.116-2.825-.11-.944.007-1.905.086-2.83.287a5.471 5.471 0 006.476 6.855h-.005c-1.886-.434-3.852-.906-5.333-2.153-.191-.16-.38-.346-.455-.585-.139-.452.184-.926.579-1.185.636-.417 1.457-.467 2.204-.317.654.132 1.268.403 1.88.674l.26.114c.884.387 1.784.733 2.7 1.04.439.148.887.288 1.346.337a5.45 5.45 0 00.83-1.629 3.064 3.064 0 00-.71-.316c-.725-.244-1.47-.425-2.215-.605-.92-.223-1.838-.446-2.719-.787-.117-.045-.25-.112-.27-.237-.015-.089.037-.175.096-.244.49-.563 1.372-.367 2.11-.203l.07.015a7.86 7.86 0 003.36.005c.149-.032.304-.078.454-.138a5.446 5.446 0 00-1.118-2.525c-.242-.07-.486-.13-.731-.191a13.445 13.445 0 01-1.222-.346 7.38 7.38 0 01-.553-.22c-.47-.21-.394-.846.016-1.008z" fill="#fff"/><defs><linearGradient id="paint0_linear" x1="35.355" y1="18.914" x2="26.749" y2="29.819" gradientUnits="userSpaceOnUse"><stop stop-color="#FF9B73"/><stop offset="1" stop-color="#FFC3AB"/></linearGradient></defs></svg>