<svg xmlns="http://www.w3.org/2000/svg" viewBox="0 0 43 43"><linearGradient id="a" gradientUnits="userSpaceOnUse" x1="-2.455" y1="3.576" x2="39.719" y2="36.893" gradientTransform="rotate(180 21.5 22)"><stop offset="0" stop-color="#ffb36d"/><stop offset="1" stop-color="#f88"/></linearGradient><path d="M43 21.5C43 9.6 33.4 0 21.5 0S0 9.6 0 21.5 9.6 43 21.5 43 43 33.4 43 21.5z" fill-rule="evenodd" clip-rule="evenodd" fill="url(#a)"/><linearGradient id="b" gradientUnits="userSpaceOnUse" x1="-13.468" y1="42.763" x2="68.932" y2="-4.985" gradientTransform="rotate(180 21.5 22)"><stop offset="0" stop-color="#ffd9a2"/><stop offset="1" stop-color="#ffae8d"/></linearGradient><path d="M43 21.5C43 9.6 33.4 0 21.5 0S0 9.6 0 21.5 9.6 43 21.5 43 43 33.4 43 21.5z" fill-rule="evenodd" clip-rule="evenodd" fill="url(#b)"/><linearGradient id="c" gradientUnits="userSpaceOnUse" x1="23.518" y1="26.747" x2="16.261" y2="19.938" gradientTransform="rotate(180 21.5 22)"><stop offset="0" stop-color="#fff" stop-opacity="0"/><stop offset=".768" stop-color="#fff"/></linearGradient><path d="M18.1 19.7c.5.5 1.3.6 1.9.1.5-.4 1.1-.6 1.7-.6.6 0 1.2.3 1.6.8.4.5.6 1.1.6 1.7 0 .6-.3 1.2-.8 1.6-.5.5-.6 1.3-.1 1.9.5.5 1.3.6 1.9.1 1-.9 1.6-2.1 1.6-3.4.1-1.3-.4-2.6-1.3-3.6s-2.1-1.6-3.4-1.6c-1.3-.1-2.6.4-3.6 1.3-.3.3-.4.6-.4.9-.1.2.1.5.3.8z" fill="url(#c)"/><linearGradient id="d" gradientUnits="userSpaceOnUse" x1="8.969" y1="12.201" x2="10.82" y2="30.39" gradientTransform="rotate(180 21.5 22)"><stop offset=".232" stop-color="#fff"/><stop offset="1" stop-color="#fff" stop-opacity="0"/></linearGradient><path d="M30.3 30.3c4.1-4.1 4.8-10.3 1.9-15.2-.4-.7-.2-1.6.5-2.1.7-.4 1.6-.2 2.1.5 3.7 6.1 2.7 13.9-2.3 18.9-.6.6-1.5.6-2.1 0-.3-.3-.4-.7-.4-1.1-.1-.3 0-.7.3-1z" fill="url(#d)"/><linearGradient id="e" gradientUnits="userSpaceOnUse" x1="26.839" y1="25.521" x2="19.268" y2="17.691" gradientTransform="rotate(180 21.5 22)"><stop offset=".232" stop-color="#fff"/><stop offset="1" stop-color="#fff" stop-opacity="0"/></linearGradient><path d="M17.9 24.9c.9 1 2.1 1.6 3.4 1.6 1.3.1 2.6-.4 3.6-1.3.5-.5.6-1.3.1-1.9-.5-.5-1.3-.6-1.9-.1-.5.4-1.1.6-1.7.6-.6 0-1.2-.3-1.6-.8-.9-1-.8-2.4.2-3.3.5-.5.6-1.3.1-1.9-.5-.5-1.3-.6-1.9-.1-1 .9-1.6 2.2-1.6 3.4-.1 1.4.4 2.7 1.3 3.8z" fill="url(#e)"/><linearGradient id="f" gradientUnits="userSpaceOnUse" x1="11.363" y1="35.767" x2="29.366" y2="31.851" gradientTransform="rotate(180 21.5 22)"><stop offset="0" stop-color="#fff"/><stop offset="1" stop-color="#fff" stop-opacity="0"/></linearGradient><path d="M30.3 12.6c-4.1-4-10.3-4.8-15.2-1.8-.7.4-1.6.2-2.1-.5-.4-.7-.2-1.6.5-2.1 6.1-3.7 13.9-2.8 18.9 2.3.6.6.6 1.5 0 2.1-.3.3-.7.4-1.1.4-.3.1-.7-.1-1-.4z" fill="url(#f)"/><linearGradient id="g" gradientUnits="userSpaceOnUse" x1="31.673" y1="10.623" x2="14.58" y2="10.442" gradientTransform="rotate(180 21.5 22)"><stop offset=".232" stop-color="#fff"/><stop offset="1" stop-color="#fff" stop-opacity="0"/></linearGradient><path d="M12.6 30.3c4 4.1 10.3 4.9 15.2 1.9.7-.4 1.7-.2 2.1.5.4.7.2 1.7-.5 2.1-6.1 3.6-13.9 2.6-18.9-2.4-.6-.6-.6-1.6 0-2.1.3-.3.7-.4 1.1-.4.4 0 .7.1 1 .4z" fill="url(#g)"/><linearGradient id="h" gradientUnits="userSpaceOnUse" x1="34.456" y1="33.684" x2="31.535" y2="14.947" gradientTransform="rotate(180 21.5 22)"><stop offset=".232" stop-color="#fff"/><stop offset="1" stop-color="#fff" stop-opacity="0"/></linearGradient><path d="M12.7 12.6c-4.1 4-4.9 10.3-2 15.2.4.7.2 1.6-.5 2.1-.7.4-1.6.2-2.1-.5-3.6-6.1-2.6-13.9 2.5-18.9.6-.6 1.6-.6 2.1 0 .3.3.4.7.4 1.1.1.3-.1.7-.4 1z" fill="url(#h)"/><linearGradient id="i" gradientUnits="userSpaceOnUse" x1="19.656" y1="11.43" x2="14.308" y2="24.067" gradientTransform="rotate(180 21.5 22)"><stop offset=".232" stop-color="#fff"/><stop offset=".85" stop-color="#fff" stop-opacity="0"/></linearGradient><path d="M21.5 28.8c3.4 0 6.3-2.3 7.1-5.5.2-.7.9-1.1 1.6-1 .7.2 1.1.9 1 1.6-1.1 4.4-5.1 7.5-9.7 7.5-.7 0-1.3-.6-1.3-1.3 0-.7.6-1.3 1.3-1.3z" fill="url(#i)"/><linearGradient id="j" gradientUnits="userSpaceOnUse" x1="32.564" y1="20.656" x2="19.929" y2="15.312" gradientTransform="rotate(180 21.5 22)"><stop offset=".232" stop-color="#fff"/><stop offset=".85" stop-color="#fff" stop-opacity="0"/></linearGradient><path d="M14.2 21.5c0 3.4 2.3 6.3 5.5 7.1.7.2 1.1.9 1 1.6-.2.7-.9 1.1-1.6 1-4.4-1.1-7.5-5.1-7.5-9.7 0-.7.6-1.3 1.3-1.3.7 0 1.3.6 1.3 1.3z" fill="url(#j)"/><linearGradient id="k" gradientUnits="userSpaceOnUse" x1="10.466" y1="24.322" x2="23.119" y2="29.624" gradientTransform="rotate(180 21.5 22)"><stop offset=".232" stop-color="#fff"/><stop offset=".85" stop-color="#fff" stop-opacity="0"/></linearGradient><path d="M28.8 21.5c0-3.4-2.3-6.3-5.6-7.1-.7-.2-1.1-.9-1-1.6s.9-1.1 1.6-1c4.4 1.1 7.6 5.1 7.6 9.6 0 .7-.6 1.3-1.3 1.3-.7.2-1.3-.4-1.3-1.2z" fill="url(#k)"/><linearGradient id="l" gradientUnits="userSpaceOnUse" x1="23.42" y1="33.588" x2="28.632" y2="20.894" gradientTransform="rotate(180 21.5 22)"><stop offset=".232" stop-color="#fff"/><stop offset=".85" stop-color="#fff" stop-opacity="0"/></linearGradient><path d="M21.5 14.1c-3.4 0-6.3 2.3-7 5.6-.2.7-.9 1.1-1.6 1-.7-.2-1.1-.9-1-1.6 1.1-4.4 5-7.6 9.6-7.6.7 0 1.3.6 1.3 1.3 0 .7-.6 1.3-1.3 1.3z" fill="url(#l)"/></svg>