<svg width="270" height="195" fill="none" xmlns="http://www.w3.org/2000/svg"><circle cx="239.737" cy="28.2" r="18.757" fill="url(#paint0_linear)"/><path opacity=".1" fill-rule="evenodd" clip-rule="evenodd" d="M245.888 10.475a18.733 18.733 0 00-6.151-1.032c-3.557 0-6.882.99-9.716 2.71 1.026 1.969 3.385 2.876 5.524 3.59 3.776 1.263 7.624 2.539 11.601 2.606.49.008.981-.002 1.472-.011 1.738-.035 3.474-.07 5.111.697.774.364 1.255 1.188 1.133 2.032-.2 1.389-1.731 1.644-2.973 1.673-3.6.084-7.194-.138-10.789-.36-3.227-.199-6.453-.398-9.683-.376-3.238.024-6.534.294-9.703.985a18.742 18.742 0 00-.734 5.21c0 10.36 8.398 18.757 18.757 18.757a18.82 18.82 0 004.173-.466l-.013-.003c-6.466-1.485-13.204-3.103-18.281-7.377-.657-.553-1.305-1.188-1.56-2.008-.477-1.547.632-3.174 1.982-4.06 2.184-1.431 4.998-1.603 7.558-1.088 2.242.45 4.349 1.382 6.445 2.31l.89.392a112.763 112.763 0 009.256 3.567c1.506.505 3.043.983 4.616 1.152a18.699 18.699 0 002.843-5.584c-.736-.482-1.588-.803-2.428-1.084-2.488-.837-5.043-1.456-7.597-2.075-3.152-.763-6.301-1.526-9.32-2.697-.402-.155-.858-.385-.929-.812-.05-.305.13-.602.331-.836 1.678-1.93 4.702-1.259 7.232-.698l.241.054c3.777.836 7.738.84 11.518.017a10 10 0 001.559-.474 18.667 18.667 0 00-3.832-8.657 76.727 76.727 0 00-2.509-.655c-1.411-.352-2.823-.704-4.189-1.185a25.455 25.455 0 01-1.894-.757c-1.616-.718-1.351-2.904.059-3.457z" fill="#fff"/><path fill-rule="evenodd" clip-rule="evenodd" d="M240.092 155.868l1.8-1.03-1.84-.96-1.02-1.8-.97 1.83-1.8 1.03 1.84.97 1.03 1.8.96-1.84z" fill="#C5C0E2"/><path d="M197.958 24.174c.48 0 .48-.75 0-.75-.49 0-.49.75 0 .75zM186.868 33.184c.48 0 .48-.75 0-.75s-.48.75 0 .75zM209.738 37.573c.48 0 .48-.75 0-.75s-.48.75 0 .75zM198.648 37.113c.48 0 .48-.75 0-.75s-.48.75 0 .75zM229.378 48.663c.48 0 .48-.75 0-.75-.49 0-.49.75 0 .75zM216.669 34.076c.48 0 .48-.75 0-.75s-.48.75 0 .75zM239.078 52.594c.48 0 .48-.75 0-.75s-.49.75 0 .75z" fill="#C5C0E2"/><path fill-rule="evenodd" clip-rule="evenodd" d="M189.408 23.574l.91.52-.93.48-.52.92-.49-.93-.91-.53.93-.48.52-.92.49.94zM200.118 42.303l.92.52-.94.49-.52.91-.49-.93-.91-.52.93-.49.52-.92.49.94zM205.528 12.984l1.8 1.03-1.84.96-1.02 1.8-.97-1.83-1.8-1.03 1.84-.97 1.03-1.8.96 1.84z" fill="#C5C0E2"/><path d="M68.716 21.563c-.48 0-.48-.75 0-.75.49 0 .49.75 0 .75zM79.805 30.573c-.48 0-.48-.75 0-.75s.48.75 0 .75zM56.936 34.962c-.48 0-.48-.75 0-.75s.48.75 0 .75zM68.026 34.502c-.48 0-.48-.75 0-.75s.48.75 0 .75zM37.296 46.052c-.48 0-.48-.75 0-.75.49 0 .49.75 0 .75zM37.535 36.123c-.48 0-.48-.75 0-.75s.48.75 0 .75zM46.545 31.033c-.48 0-.48-.75 0-.75s.48.75 0 .75zM27.595 49.983c-.48 0-.48-.75 0-.75s.49.75 0 .75z" fill="#C5C0E2"/><path fill-rule="evenodd" clip-rule="evenodd" d="M77.266 20.963l-.91.52.93.48.52.92.49-.93.91-.53-.93-.48-.52-.92-.49.94zM30.276 41.283l-.91.52.93.49.52.91.49-.93.91-.52-.93-.49-.52-.91-.49.93zM66.556 39.692l-.92.52.94.49.52.91.49-.93.91-.52-.93-.49-.52-.92-.49.94zM61.146 10.373l-1.8 1.03 1.84.96 1.02 1.8.97-1.83 1.8-1.03-1.84-.97-1.03-1.8-.96 1.84z" fill="#C5C0E2"/><path d="M260.702 92.1c.48 0 .48.75 0 .75-.49 0-.49-.75 0-.75zM15.554 92.1c-.48 0-.48.75 0 .75.49 0 .49-.75 0-.75zM249.612 83.09c.48 0 .48.75 0 .75s-.48-.75 0-.75zM26.644 83.09c-.48 0-.48.75 0 .75s.48-.75 0-.75zM261.392 79.16c.48 0 .48.75 0 .75s-.48-.75 0-.75zM14.865 79.16c-.48 0-.48.75 0 .75s.48-.75 0-.75z" fill="#C5C0E2"/><path fill-rule="evenodd" clip-rule="evenodd" d="M252.152 92.7l.91-.52-.93-.48-.52-.92-.49.93-.91.53.93.48.52.92.49-.94zM24.104 92.7l-.91-.52.93-.48.52-.92.49.93.91.53-.93.48-.52.92-.49-.94zM262.862 73.97l.92-.52-.94-.49-.52-.91-.49.93-.91.52.93.49.52.92.49-.94zM13.395 73.97l-.92-.52.94-.49.52-.91.49.93.91.52-.93.49-.52.92-.49-.94zM267.893 103.29l1.8-1.03-1.84-.96-1.02-1.8-.97 1.83-1.8 1.03 1.84.97 1.03 1.8.96-1.84zM2.107 123.976l-1.8-1.03 1.84-.96 1.02-1.8.97 1.83 1.8 1.03-1.84.97-1.03 1.8-.96-1.84z" fill="#C5C0E2"/><path d="M19.635 153.405c.48 0 .48-.75 0-.75-.49 0-.49.75 0 .75zM8.545 162.415c.48 0 .48-.75 0-.75s-.48.75 0 .75zM31.415 166.805c.48 0 .48-.75 0-.75s-.48.75 0 .75zM20.325 166.345c.48 0 .48-.75 0-.75s-.48.75 0 .75zM51.055 177.894c.48 0 .48-.75 0-.75-.49 0-.49.75 0 .75zM50.815 167.965c.48 0 .48-.75 0-.75s-.48.75 0 .75zM41.805 162.875c.48 0 .48-.75 0-.75s-.48.75 0 .75zM60.755 181.825c.48 0 .48-.75 0-.75s-.49.75 0 .75z" fill="#C5C0E2"/><path fill-rule="evenodd" clip-rule="evenodd" d="M11.085 152.805l.91.52-.93.48-.52.92-.49-.93-.91-.53.93-.48.52-.92.49.94zM58.075 173.125l.91.52-.93.49-.52.91-.49-.93-.91-.52.93-.49.52-.91.49.93zM21.795 171.535l.92.52-.94.49-.52.91-.49-.93-.91-.52.93-.49.52-.92.49.94zM27.205 142.215l1.8 1.03-1.84.96-1.02 1.8-.97-1.83-1.8-1.03 1.84-.97 1.03-1.8.96 1.84z" fill="#C5C0E2"/><path d="M79.928 182.842c.48 0 .48.75 0 .75s-.48-.75 0-.75zM97.036 189.155c.48 0 .48.75 0 .75s-.48-.75 0-.75zM88.026 194.244c.48 0 .48.75 0 .75s-.48-.75 0-.75z" fill="#C5C0E2"/><circle cx="154.694" cy="35.767" r="1.487" fill="url(#paint1_linear)"/><circle cx="187.995" cy="178.261" r="1.487" fill="url(#paint2_linear)"/><circle cx="252.226" cy="145.465" r="1.487" fill="url(#paint3_linear)"/><circle cx="257.007" cy="54.081" r="1.487" fill="url(#paint4_linear)"/><circle cx="134.08" cy="10.93" r="1.487" fill="url(#paint5_linear)"/><circle opacity=".8" cx="170.835" cy="9.443" r="1.487" fill="#C5C0E2"/><circle opacity=".8" cx="250.739" cy="120.264" r="1.487" fill="#C5C0E2"/><circle opacity=".8" r="1.487" transform="matrix(-1 0 0 1 25.517 120.264)" fill="#C5C0E2"/><circle opacity=".8" cx="212.892" cy="175.125" r=".686" fill="#C5C0E2"/><circle opacity=".8" cx="262.598" cy="65.772" r=".686" fill="#C5C0E2"/><circle opacity=".8" cx="198.809" cy=".948" r=".686" fill="#C5C0E2"/><circle opacity=".8" cx="107.89" cy="23.916" r=".686" fill="#C5C0E2"/><circle opacity=".8" cx="171.057" cy="193.937" r=".686" fill="#C5C0E2"/><path d="M135.061 190.293c54.676 0 99-35.659 99-79.646 0-43.988-44.324-79.647-99-79.647s-99 35.66-99 79.647c0 43.987 44.324 79.646 99 79.646z" fill="#BFB9DF" fill-opacity=".9"/><path d="M135.284 181.582c44.977 0 81.437-28.928 81.437-64.613s-36.46-64.613-81.437-64.613-81.437 28.928-81.437 64.613 36.46 64.613 81.437 64.613z" fill="#fff" fill-opacity=".3"/><path d="M135.278 174.479c36.362 0 65.84-23.184 65.84-51.783 0-28.6-29.478-51.783-65.84-51.783-36.363 0-65.84 23.184-65.84 51.783s29.477 51.783 65.84 51.783z" fill="#fff" fill-opacity=".3"/><path d="M135.289 167.413c26.386 0 47.777-16.736 47.777-37.382 0-20.645-21.391-37.382-47.777-37.382-26.387 0-47.778 16.737-47.778 37.382 0 20.646 21.391 37.382 47.778 37.382z" fill="#fff" fill-opacity=".3"/><path d="M134.971 167.413c21.081 0 38.172-12.105 38.172-27.038s-17.091-27.038-38.172-27.038c-21.082 0-38.172 12.105-38.172 27.038s17.09 27.038 38.172 27.038z" fill="#fff" fill-opacity=".3"/><path d="M135.279 167.413c15.279 0 27.665-7.514 27.665-16.782 0-9.269-12.386-16.783-27.665-16.783s-27.665 7.514-27.665 16.783c0 9.268 12.386 16.782 27.665 16.782z" fill="#fff" fill-opacity=".3"/><path d="M135.279 167.413c7.588 0 13.739-3.162 13.739-7.062 0-3.9-6.151-7.062-13.739-7.062-7.588 0-13.739 3.162-13.739 7.062 0 3.9 6.151 7.062 13.739 7.062z" fill="#fff" fill-opacity=".3"/><path d="M135.278 166.833c7.588 0 13.739-3.034 13.739-6.776s-6.151-6.776-13.739-6.776c-7.588 0-13.74 3.034-13.74 6.776s6.152 6.776 13.74 6.776z" stroke="#5D4DAC" stroke-opacity=".12" stroke-width="1.19" stroke-miterlimit="10"/><path d="M135.279 167.102c15.279 0 27.665-7.444 27.665-16.627 0-9.182-12.386-16.627-27.665-16.627s-27.665 7.445-27.665 16.627c0 9.183 12.386 16.627 27.665 16.627z" stroke="url(#paint6_linear)" stroke-opacity=".2" stroke-width="1.19" stroke-miterlimit="10"/><path d="M135.279 167.908c21.252 0 38.481-12.216 38.481-27.286 0-15.069-17.229-27.285-38.481-27.285-21.252 0-38.48 12.216-38.48 27.285 0 15.07 17.228 27.286 38.48 27.286z" stroke="url(#paint7_linear)" stroke-opacity=".4" stroke-width="1.19" stroke-miterlimit="10"/><path d="M135.279 167.993c26.715 0 48.372-16.997 48.372-37.965 0-20.967-21.657-37.965-48.372-37.965-26.714 0-48.37 16.998-48.37 37.965 0 20.968 21.656 37.965 48.37 37.965z" stroke="url(#paint8_linear)" stroke-opacity=".6" stroke-width="1.19" stroke-miterlimit="10"/><path d="M135.279 175.09c36.693 0 66.439-23.321 66.439-52.089 0-28.767-29.746-52.088-66.439-52.088S68.839 94.233 68.839 123s29.747 52.089 66.44 52.089z" stroke="url(#paint9_linear)" stroke-opacity=".8" stroke-width="1.19" stroke-miterlimit="10"/><path d="M135.28 182.196c45.298 0 82.019-29.201 82.019-65.221s-36.721-65.221-82.019-65.221c-45.299 0-82.02 29.2-82.02 65.221 0 36.02 36.721 65.221 82.02 65.221z" stroke="url(#paint10_linear)" stroke-width="1.19" stroke-miterlimit="10"/><path d="M135.279 36.733v130.672" stroke="url(#paint11_linear)" stroke-width="1.19" stroke-miterlimit="10" stroke-linecap="round" stroke-linejoin="round"/><path d="M72.022 55.499s28.804 13.696 41.107 46.57 9.323 55.755 9.323 55.755" stroke="url(#paint12_linear)" stroke-width="1.19" stroke-miterlimit="10" stroke-linecap="round" stroke-linejoin="round"/><path d="M198.655 55.499s-28.803 13.696-41.107 46.57c-12.303 32.874-9.323 55.755-9.323 55.755" stroke="url(#paint13_linear)" stroke-width="1.19" stroke-miterlimit="10" stroke-linecap="round" stroke-linejoin="round"/><path d="M107.615 152.015s-7.292-18.02-25.912-32.62c-18.619-14.6-39.77-12.736-39.77-12.736" stroke="url(#paint14_linear)" stroke-width="1.19" stroke-miterlimit="10" stroke-linecap="round" stroke-linejoin="round"/><path d="M162.943 152.015s7.292-18.02 25.912-32.62c18.619-14.6 39.77-12.736 39.77-12.736" stroke="url(#paint15_linear)" stroke-width="1.19" stroke-miterlimit="10" stroke-linecap="round" stroke-linejoin="round"/><path d="M100.429 155.864s-15.6-4.594-33.473 5.832" stroke="url(#paint16_linear)" stroke-width="1.19" stroke-miterlimit="10" stroke-linecap="round" stroke-linejoin="round"/><path d="M152.982 164.842s3.658 4.896 3.658 18.75" stroke="url(#paint17_linear)" stroke-width="1.19" stroke-miterlimit="10" stroke-linecap="round" stroke-linejoin="round"/><path d="M117.679 164.842s-3.658 4.896-3.658 18.75" stroke="url(#paint18_linear)" stroke-width="1.19" stroke-miterlimit="10" stroke-linecap="round" stroke-linejoin="round"/><path d="M170.125 155.864s15.6-4.594 33.474 5.832" stroke="url(#paint19_linear)" stroke-width="1.19" stroke-miterlimit="10" stroke-linecap="round" stroke-linejoin="round"/><defs><linearGradient id="paint10_linear" x1="135.279" y1="-273.598" x2="135.279" y2="240.009" gradientUnits="userSpaceOnUse"><stop stop-color="#5D4DAC"/><stop offset="1" stop-color="#5D4DAC" stop-opacity="0"/></linearGradient><linearGradient id="paint0_linear" x1="251.228" y1="17.845" x2="221.722" y2="55.234" gradientUnits="userSpaceOnUse"><stop stop-color="#FF9B73"/><stop offset="1" stop-color="#FFC3AB"/></linearGradient><linearGradient id="paint2_linear" x1="187.995" y1="179.748" x2="187.995" y2="176.774" gradientUnits="userSpaceOnUse"><stop offset="0" stop-color="#6050B0"/><stop offset="1" stop-color="#351C75"/></linearGradient><linearGradient id="paint3_linear" x1="252.226" y1="146.952" x2="252.226" y2="143.978" gradientUnits="userSpaceOnUse"><stop offset="0" stop-color="#6050B0"/><stop offset="1" stop-color="#351C75"/></linearGradient><linearGradient id="paint4_linear" x1="257.007" y1="55.568" x2="257.007" y2="52.594" gradientUnits="userSpaceOnUse"><stop offset="0" stop-color="#6050B0"/><stop offset="1" stop-color="#351C75"/></linearGradient><linearGradient id="paint5_linear" x1="134.08" y1="12.417" x2="134.08" y2="9.443" gradientUnits="userSpaceOnUse"><stop offset="0" stop-color="#6050B0"/><stop offset="1" stop-color="#351C75"/></linearGradient><linearGradient id="paint6_linear" x1="135.279" y1="133.848" x2="135.279" y2="186.914" gradientUnits="userSpaceOnUse"><stop stop-color="#5D4DAC"/><stop offset="1" stop-color="#5D4DAC" stop-opacity="0"/></linearGradient><linearGradient id="paint7_linear" x1="135.279" y1="98.487" x2="135.279" y2="167.908" gradientUnits="userSpaceOnUse"><stop stop-color="#5D4DAC"/><stop offset="1" stop-color="#5D4DAC" stop-opacity="0"/></linearGradient><linearGradient id="paint8_linear" x1="135.279" y1="47.954" x2="135.279" y2="184.754" gradientUnits="userSpaceOnUse"><stop stop-color="#5D4DAC"/><stop offset="1" stop-color="#5D4DAC" stop-opacity="0"/></linearGradient><linearGradient id="paint9_linear" x1="135.279" y1="-94.144" x2="135.279" y2="225.118" gradientUnits="userSpaceOnUse"><stop stop-color="#5D4DAC"/><stop offset="1" stop-color="#5D4DAC" stop-opacity="0"/></linearGradient><linearGradient id="paint1_linear" x1="154.694" y1="37.254" x2="154.694" y2="34.28" gradientUnits="userSpaceOnUse"><stop offset="0" stop-color="#6050B0"/><stop offset="1" stop-color="#351C75"/></linearGradient><linearGradient id="paint11_linear" x1="135.779" y1="-83.371" x2="135.779" y2="167.405" gradientUnits="userSpaceOnUse"><stop stop-color="#5D4DAC"/><stop offset="1" stop-color="#5D4DAC" stop-opacity="0"/></linearGradient><linearGradient id="paint12_linear" x1="31.843" y1="-25.02" x2="124.358" y2="163.031" gradientUnits="userSpaceOnUse"><stop stop-color="#5D4DAC"/><stop offset="1" stop-color="#5D4DAC" stop-opacity="0"/></linearGradient><linearGradient id="paint13_linear" x1="271.62" y1="-21.397" x2="145.134" y2="164.151" gradientUnits="userSpaceOnUse"><stop stop-color="#5D4DAC" stop-opacity=".9"/><stop offset="1" stop-color="#5D4DAC" stop-opacity="0"/></linearGradient><linearGradient id="paint14_linear" x1="-37.846" y1="73.585" x2="109.298" y2="153.84" gradientUnits="userSpaceOnUse"><stop stop-color="#5D4DAC"/><stop offset="1" stop-color="#5D4DAC" stop-opacity="0"/></linearGradient><linearGradient id="paint15_linear" x1="289.42" y1="78.635" x2="161.26" y2="153.84" gradientUnits="userSpaceOnUse"><stop stop-color="#5D4DAC" stop-opacity=".9"/><stop offset="1" stop-color="#5D4DAC" stop-opacity="0"/></linearGradient><linearGradient id="paint16_linear" x1="15.964" y1="183.074" x2="103.99" y2="156.552" gradientUnits="userSpaceOnUse"><stop stop-color="#5D4DAC"/><stop offset="1" stop-color="#5D4DAC" stop-opacity="0"/></linearGradient><linearGradient id="paint17_linear" x1="160.634" y1="220.308" x2="152.231" y2="163.482" gradientUnits="userSpaceOnUse"><stop stop-color="#5D4DAC"/><stop offset="1" stop-color="#5D4DAC" stop-opacity="0"/></linearGradient><linearGradient id="paint18_linear" x1="110.027" y1="220.308" x2="118.43" y2="163.482" gradientUnits="userSpaceOnUse"><stop stop-color="#5D4DAC"/><stop offset="1" stop-color="#5D4DAC" stop-opacity="0"/></linearGradient><linearGradient id="paint19_linear" x1="249.701" y1="182.327" x2="168.654" y2="155.603" gradientUnits="userSpaceOnUse"><stop stop-color="#5D4DAC" stop-opacity=".9"/><stop offset="1" stop-color="#5D4DAC" stop-opacity="0"/></linearGradient></defs></svg>