<svg width="141" height="141" fill="none" xmlns="http://www.w3.org/2000/svg"><circle cx="70.637" cy="70.627" r="69" stroke="#38CCB6" stroke-width="2"/><g clip-path="url(#clip0)"><path d="M73.504 46.37h0l16.616 9.515s0 0 0 0a5.922 5.922 0 012.956 5.082s0 0 0 0l.066 19.154a5.928 5.928 0 01-2.915 5.11l-.001.001-16.558 9.631h0a5.877 5.877 0 01-5.891.017h-.001l-16.612-9.513s0 0 0 0a5.917 5.917 0 01-2.967-5.093s0 0 0 0l-.065-19.154s0 0 0 0a5.908 5.908 0 012.93-5.1v-.001l16.555-9.63h.001a5.871 5.871 0 015.886-.019z" fill="#38CCB6" fill-opacity=".4" stroke="url(#paint0_linear)"/><path d="M82.833 61.248l-10.27-5.88a3.939 3.939 0 00-3.948.012l-10.232 5.952a3.96 3.96 0 00-1.964 3.42l.04 11.84a3.967 3.967 0 001.988 3.415l10.268 5.88a3.941 3.941 0 003.95-.011L82.9 79.922a3.972 3.972 0 001.955-3.427l-.04-11.84a3.967 3.967 0 00-1.982-3.407z" fill="#fff"/><path d="M124.703 46.197h.001l16.616 9.514h.001a5.923 5.923 0 012.956 5.084s0 0 0 0l.064 19.154s0 0 0 0a5.93 5.93 0 01-2.914 5.11l-.001.001-16.558 9.631h-.001a5.873 5.873 0 01-5.89.017h-.001l-16.612-9.513h-.001a5.915 5.915 0 01-2.966-5.093s0 0 0 0l-.065-19.154v-.001a5.91 5.91 0 012.929-5.102l16.556-9.63h.001a5.871 5.871 0 015.885-.018z" fill="#AFEBE2" stroke="url(#paint1_linear)"/><path d="M134.032 61.074l-10.271-5.88a3.938 3.938 0 00-3.947.012l-10.233 5.952a3.968 3.968 0 00-1.964 3.42l.041 11.84a3.955 3.955 0 001.988 3.415l10.267 5.88a3.94 3.94 0 003.951-.011l10.235-5.954a3.964 3.964 0 001.954-3.425l-.04-11.84a3.978 3.978 0 00-.537-1.968 3.977 3.977 0 00-1.444-1.44z" fill="#fff"/><path d="M21.504 46.547h0l16.616 9.514h.001a5.921 5.921 0 012.956 5.083s0 0 0 0l.065 19.153a5.927 5.927 0 01-2.915 5.111s0 0 0 0L21.667 95.04h0a5.876 5.876 0 01-5.89.017h-.002L-.835 85.543s0 0 0 0a5.917 5.917 0 01-2.968-5.093v-.001l-.065-19.154s0 0 0 0a5.908 5.908 0 012.93-5.1s0 0 0 0l16.556-9.63h0a5.871 5.871 0 015.886-.02z" fill="#AFEBE2" stroke="url(#paint2_linear)"/><path d="M30.833 61.425l-10.27-5.881a3.938 3.938 0 00-3.947.012L6.383 61.508a3.961 3.961 0 00-1.964 3.42l.04 11.84a3.965 3.965 0 001.989 3.416l10.267 5.88a3.941 3.941 0 003.95-.012l10.236-5.954a3.972 3.972 0 001.954-3.425l-.04-11.84a3.969 3.969 0 00-1.982-3.408z" fill="#fff"/><path d="M98.985.77h0a5.872 5.872 0 00-5.886.018h0l-16.557 9.63L98.985.77zm0 0l16.615 9.515h.001a5.919 5.919 0 012.957 5.08v.002l.064 19.153s0 0 0 0a5.93 5.93 0 01-2.914 5.11l-.001.002-16.558 9.63v.001a5.876 5.876 0 01-5.891.017h-.001l-16.612-9.513s0 0 0 0a5.917 5.917 0 01-2.163-2.151l-.432.251M98.985.77L74.05 37.867m0 0l.432-.251a5.917 5.917 0 01-.804-2.943s0 0 0 0l-.066-19.154s0 0 0 0a5.908 5.908 0 012.93-5.1L74.05 37.867z" fill="#AFEBE2" stroke="url(#paint3_linear)"/><path d="M108.314 15.648l-10.271-5.88a3.938 3.938 0 00-3.947.012l-10.233 5.952a3.96 3.96 0 00-1.964 3.42l.04 11.84a3.966 3.966 0 001.989 3.415l10.267 5.88a3.94 3.94 0 003.95-.011l10.236-5.954a3.972 3.972 0 001.954-3.425l-.04-11.84a3.968 3.968 0 00-1.981-3.409z" fill="#fff"/><path d="M103.655 19.23l-6.348-3.634a2.434 2.434 0 00-2.44.008l-6.322 3.678a2.448 2.448 0 00-1.214 2.114l.025 7.318a2.45 2.45 0 001.229 2.11l6.345 3.633a2.437 2.437 0 002.442-.006l6.326-3.68a2.458 2.458 0 001.208-2.117l-.025-7.317a2.452 2.452 0 00-1.226-2.107z" fill="#FFDD0F"/><path d="M46.887.947h0A5.871 5.871 0 0041 .966h0l-16.556 9.63s0 0 0 0a5.909 5.909 0 00-2.93 5.1s0 0 0 0l.065 19.154s0 0 0 0a5.916 5.916 0 002.967 5.093L46.886.947zm0 0l16.616 9.514h.001a5.922 5.922 0 012.956 5.083s0 0 0 0l.065 19.154a5.926 5.926 0 01-2.915 5.11s0 0 0 0L47.05 49.44h0a5.876 5.876 0 01-5.89.017h-.002l-16.612-9.513L46.887.947z" fill="#AFEBE2" stroke="url(#paint4_linear)"/><path d="M98.985 91.97h0a5.871 5.871 0 00-5.886.02h0l-16.557 9.629 22.443-9.648zm0 0l16.615 9.515h.002a5.939 5.939 0 012.153 2.149c.518.892.795 1.904.803 2.935 0 0 0 0 0 0l.064 19.154a5.919 5.919 0 01-2.914 5.11l-.001.001-16.558 9.631h0a5.876 5.876 0 01-5.891.017l-.001-.001m5.728-48.51l-5.728 48.51m0 0l-16.612-9.512s0 0 0 0a5.918 5.918 0 01-2.163-2.151l-.432.252m19.207 11.411L74.05 129.07m0 0l.432-.252a5.918 5.918 0 01-.804-2.942v-.001l-.066-19.153v-.001a5.909 5.909 0 012.93-5.101l-2.492 27.45z" fill="#AFEBE2" stroke="url(#paint5_linear)"/><path d="M108.314 106.73l-10.271-5.88a3.944 3.944 0 00-3.947.013l-10.233 5.952a3.954 3.954 0 00-1.964 3.42l.04 11.84a3.965 3.965 0 001.989 3.414l10.267 5.879a3.935 3.935 0 003.95-.011l10.236-5.953a3.969 3.969 0 001.954-3.426l-.04-11.839a3.967 3.967 0 00-1.981-3.409z" fill="#fff"/><path d="M103.655 110.431l-6.348-3.635a2.433 2.433 0 00-2.44.008l-6.322 3.678a2.457 2.457 0 00-1.214 2.114l.025 7.318a2.452 2.452 0 001.229 2.11l6.345 3.634a2.446 2.446 0 002.442-.007l6.326-3.68a2.458 2.458 0 001.208-2.117l-.025-7.317a2.45 2.45 0 00-1.226-2.106z" fill="#FFDD0F"/><path d="M46.985 92.147h0a5.871 5.871 0 00-5.886.019h0l-16.556 9.63s0 0 0 0a5.905 5.905 0 00-2.93 5.101v.001l.065 19.153v.001a5.914 5.914 0 002.966 5.093l22.341-38.998zm0 0l16.616 9.514.001.001a5.92 5.92 0 012.956 5.083v.001l.065 19.153a5.926 5.926 0 01-2.915 5.111s0 0 0 0l-16.559 9.632h0a5.874 5.874 0 01-5.89.016h-.002l-16.612-9.512 22.34-38.999z" fill="#AFEBE2" stroke="url(#paint6_linear)"/><path d="M30.714 26.224l-10.272-5.88a3.939 3.939 0 00-3.947.012L6.262 26.308a3.96 3.96 0 00-1.964 3.42l.04 11.84a3.965 3.965 0 001.989 3.416l10.267 5.88a3.94 3.94 0 003.95-.012L30.78 44.9a3.972 3.972 0 001.954-3.426l-.04-11.84a3.968 3.968 0 00-1.98-3.409z" fill="#FFDD0F"/><path d="M56.18 15.648l-10.27-5.88a3.938 3.938 0 00-3.947.012L31.73 15.732a3.96 3.96 0 00-1.964 3.42l.04 11.84a3.967 3.967 0 001.988 3.415l10.268 5.88a3.94 3.94 0 003.95-.011l10.236-5.954a3.973 3.973 0 001.954-3.425l-.04-11.84a3.969 3.969 0 00-1.982-3.409zM56.18 106.612l-10.27-5.881a3.944 3.944 0 00-3.947.013l-10.233 5.952a3.954 3.954 0 00-1.964 3.42l.04 11.84a3.967 3.967 0 001.988 3.415l10.268 5.88a3.94 3.94 0 003.95-.011l10.236-5.954a3.968 3.968 0 001.954-3.425l-.04-11.84a3.97 3.97 0 00-1.982-3.409z" fill="#fff"/></g><circle cx="96.728" cy="92.263" r="20.886" fill="#fff" stroke="#38CCB6" stroke-width="1.5"/><path d="M106.121 84.093h0L92.504 97.69l-5.17-5.162s0 0 0 0a1.297 1.297 0 00-1.831 0h0a1.292 1.292 0 000 1.83l6.085 6.076a1.297 1.297 0 001.832 0l14.533-14.512a1.293 1.293 0 000-1.83 1.297 1.297 0 00-1.832 0z" fill="#38CCB6" stroke="#38CCB6" stroke-width=".3"/><defs><linearGradient id="paint0_linear" x1="70.637" y1="53.214" x2="70.637" y2="117.057" gradientUnits="userSpaceOnUse"><stop stop-color="#38CCB6"/><stop offset="1" stop-color="#38CCB6" stop-opacity="0"/></linearGradient><linearGradient id="paint1_linear" x1="121.837" y1="53.041" x2="121.837" y2="116.886" gradientUnits="userSpaceOnUse"><stop stop-color="#38CCB6"/><stop offset="1" stop-color="#38CCB6" stop-opacity="0"/></linearGradient><linearGradient id="paint2_linear" x1="18.637" y1="53.391" x2="18.637" y2="117.234" gradientUnits="userSpaceOnUse"><stop stop-color="#38CCB6"/><stop offset="1" stop-color="#38CCB6" stop-opacity="0"/></linearGradient><linearGradient id="paint3_linear" x1="96.118" y1="7.614" x2="96.118" y2="71.457" gradientUnits="userSpaceOnUse"><stop stop-color="#38CCB6"/><stop offset="1" stop-color="#38CCB6" stop-opacity="0"/></linearGradient><linearGradient id="paint4_linear" x1="44.02" y1="7.791" x2="44.02" y2="71.634" gradientUnits="userSpaceOnUse"><stop stop-color="#38CCB6"/><stop offset="1" stop-color="#38CCB6" stop-opacity="0"/></linearGradient><linearGradient id="paint5_linear" x1="96.118" y1="98.815" x2="96.118" y2="162.66" gradientUnits="userSpaceOnUse"><stop stop-color="#38CCB6"/><stop offset="1" stop-color="#38CCB6" stop-opacity="0"/></linearGradient><linearGradient id="paint6_linear" x1="44.118" y1="98.991" x2="44.118" y2="162.836" gradientUnits="userSpaceOnUse"><stop stop-color="#38CCB6"/><stop offset="1" stop-color="#38CCB6" stop-opacity="0"/></linearGradient><clipPath id="clip0"><rect x="28.637" y="28.627" width="84" height="84" rx="42" fill="#fff"/></clipPath></defs></svg>