<svg width="140" height="140" fill="none" xmlns="http://www.w3.org/2000/svg"><g clip-path="url(#clip0)"><path d="M89.733 54.825L73.116 45.31a6.372 6.372 0 00-6.387.02l-16.556 9.63a6.409 6.409 0 00-3.178 5.533l.065 19.157a6.418 6.418 0 003.218 5.524l16.613 9.513a6.375 6.375 0 006.391-.018l16.561-9.633a6.427 6.427 0 003.162-5.543l-.065-19.156a6.422 6.422 0 00-3.207-5.512z" fill="#FFE1E1"/><path fill-rule="evenodd" clip-rule="evenodd" d="M72.618 46.177a5.374 5.374 0 00-5.385.017l-16.556 9.63a5.412 5.412 0 00-2.682 4.667v.002l.065 19.15v.002a5.417 5.417 0 002.716 4.662l16.613 9.513a5.377 5.377 0 005.39-.015l16.556-9.63a5.426 5.426 0 002.67-4.678v-.002l-.065-19.15v-.002a5.422 5.422 0 00-2.705-4.651l-.002-.001-16.615-9.514zm17.115 8.648a6.422 6.422 0 013.207 5.512l.065 19.156a6.427 6.427 0 01-3.162 5.543l-16.56 9.633a6.377 6.377 0 01-6.392.018l-16.613-9.513a6.417 6.417 0 01-3.218-5.524l-.065-19.157a6.408 6.408 0 013.178-5.533l16.556-9.63a6.371 6.371 0 016.387-.02l16.617 9.515z" fill="url(#paint0_linear)"/><path d="M82.196 60.621l-10.27-5.88a3.938 3.938 0 00-3.948.012l-10.232 5.952a3.96 3.96 0 00-1.964 3.42l.04 11.84a3.965 3.965 0 001.988 3.415l10.268 5.88a3.942 3.942 0 003.95-.011l10.236-5.954a3.972 3.972 0 001.954-3.427l-.04-11.84a3.969 3.969 0 00-1.982-3.407z" fill="#fff"/><path d="M140.933 54.651l-16.617-9.515a6.371 6.371 0 00-6.387.02l-16.556 9.63a6.41 6.41 0 00-3.178 5.535l.065 19.156a6.418 6.418 0 003.218 5.525l16.613 9.513a6.373 6.373 0 006.391-.019l16.561-9.632a6.423 6.423 0 003.162-5.543l-.065-19.156a6.427 6.427 0 00-3.207-5.514z" fill="#FFE1E1"/><path fill-rule="evenodd" clip-rule="evenodd" d="M123.817 46.003a5.369 5.369 0 00-5.384.017h-.001l-16.555 9.63a5.414 5.414 0 00-2.682 4.67l.065 19.151v.001a5.418 5.418 0 002.715 4.662h.001l16.613 9.514a5.38 5.38 0 005.39-.015l16.556-9.63.003-.002a5.435 5.435 0 002.667-4.677v-.002l-.065-19.15v-.002a5.418 5.418 0 00-2.706-4.652l-.001-.001-16.616-9.514zm17.116 8.648a6.424 6.424 0 013.207 5.514l.065 19.156a6.424 6.424 0 01-3.162 5.543l-16.561 9.632a6.375 6.375 0 01-6.391.019l-16.613-9.513a6.414 6.414 0 01-3.218-5.525l-.065-19.156a6.408 6.408 0 013.178-5.534l16.556-9.63a6.372 6.372 0 016.387-.02l16.617 9.514z" fill="url(#paint1_linear)"/><path d="M133.395 60.447l-10.27-5.88a3.94 3.94 0 00-3.948.012l-10.232 5.952a3.968 3.968 0 00-1.965 3.42l.041 11.84a3.966 3.966 0 001.988 3.415l10.268 5.88a3.939 3.939 0 003.95-.011l10.235-5.954a3.974 3.974 0 001.955-3.425l-.041-11.84a3.968 3.968 0 00-1.981-3.409z" fill="#fff"/><path d="M37.734 55.002l-16.618-9.516a6.371 6.371 0 00-6.386.02l-16.557 9.63a6.408 6.408 0 00-3.177 5.533l.065 19.157a6.417 6.417 0 003.218 5.524l16.612 9.513a6.377 6.377 0 006.392-.018l16.56-9.632a6.428 6.428 0 003.162-5.543l-.065-19.156A6.421 6.421 0 0037.734 55z" fill="#FFE1E1"/><path fill-rule="evenodd" clip-rule="evenodd" d="M20.618 46.353a5.371 5.371 0 00-5.385.017v.001l-16.556 9.63a5.412 5.412 0 00-2.681 4.667v.002l.065 19.15v.001a5.417 5.417 0 002.716 4.662l16.613 9.513a5.376 5.376 0 005.39-.015l16.556-9.63.002-.001a5.428 5.428 0 002.667-4.679l-.065-19.15v-.002a5.421 5.421 0 00-2.705-4.65l-.002-.002-16.615-9.514zm20.322 14.16l.065 19.157a6.427 6.427 0 01-3.161 5.543l-16.561 9.632a6.377 6.377 0 01-6.392.018L-1.722 85.35a6.416 6.416 0 01-3.217-5.524l-.065-19.157a6.408 6.408 0 013.177-5.532l16.556-9.63a6.372 6.372 0 016.387-.02L37.734 55a6.422 6.422 0 013.206 5.513z" fill="url(#paint2_linear)"/><path d="M30.196 60.798l-10.27-5.881a3.937 3.937 0 00-3.947.012L5.746 60.881a3.96 3.96 0 00-1.964 3.42l.04 11.84a3.966 3.966 0 001.989 3.416l10.267 5.88a3.941 3.941 0 003.95-.012l10.236-5.953a3.972 3.972 0 001.954-3.426l-.04-11.84a3.969 3.969 0 00-1.982-3.408z" fill="#fff"/><path d="M115.214 9.225L98.597-.291a6.371 6.371 0 00-6.387.02L75.654 9.36a6.407 6.407 0 00-3.178 5.533l.065 19.157a6.417 6.417 0 003.218 5.524l16.613 9.513a6.376 6.376 0 006.391-.018l16.561-9.633a6.423 6.423 0 003.162-5.542l-.065-19.157a6.428 6.428 0 00-3.207-5.511z" fill="#FFE1E1"/><path fill-rule="evenodd" clip-rule="evenodd" d="M98.098.576a5.371 5.371 0 00-5.384.017l-.001.001-16.555 9.63a5.412 5.412 0 00-2.682 4.667v.002l.065 19.15v.001a5.417 5.417 0 002.716 4.662L92.87 48.22a5.377 5.377 0 005.39-.015l16.556-9.63.002-.001a5.434 5.434 0 002.668-4.677v-.002l-.065-19.15v-.002a5.424 5.424 0 00-2.708-4.651L98.098.576zm17.116 8.649a6.428 6.428 0 013.207 5.511l.065 19.157a6.424 6.424 0 01-3.162 5.542l-16.56 9.633a6.376 6.376 0 01-6.392.018l-16.613-9.513a6.417 6.417 0 01-3.218-5.524l-.065-19.157a6.409 6.409 0 013.178-5.532L92.21-.27a6.371 6.371 0 016.387-.02l16.617 9.515z" fill="url(#paint3_linear)"/><path d="M107.677 15.021l-10.27-5.88a3.938 3.938 0 00-3.948.012l-10.232 5.952a3.959 3.959 0 00-1.965 3.42l.04 11.84a3.966 3.966 0 001.989 3.416l10.268 5.879a3.94 3.94 0 003.95-.011l10.235-5.954a3.978 3.978 0 001.955-3.426l-.041-11.839a3.958 3.958 0 00-1.981-3.409z" fill="#fff"/><path d="M103.019 18.604l-6.349-3.635a2.433 2.433 0 00-2.44.008l-6.322 3.678a2.447 2.447 0 00-1.214 2.114l.025 7.318a2.45 2.45 0 001.229 2.11l6.346 3.634a2.436 2.436 0 002.441-.007l6.326-3.68a2.458 2.458 0 001.208-2.117l-.025-7.317a2.452 2.452 0 00-1.225-2.107z" fill="#FFDD0F"/><path d="M63.117 9.401L46.499-.114a6.371 6.371 0 00-6.386.02l-16.557 9.63a6.409 6.409 0 00-3.178 5.534l.065 19.156a6.417 6.417 0 003.218 5.524l16.613 9.513a6.377 6.377 0 006.392-.018l16.56-9.633a6.427 6.427 0 003.162-5.542l-.065-19.156A6.42 6.42 0 0063.117 9.4z" fill="#FFE1E1"/><path fill-rule="evenodd" clip-rule="evenodd" d="M46 .753a5.37 5.37 0 00-5.383.018h-.002l-16.555 9.63a5.41 5.41 0 00-2.682 4.667v.002l.065 19.15v.001a5.418 5.418 0 002.717 4.663l16.613 9.513a5.376 5.376 0 005.39-.016l16.556-9.63.002-.002a5.427 5.427 0 002.667-4.678l-.065-19.15v-.002a5.42 5.42 0 00-2.705-4.65l-.002-.002L46.001.753zm17.117 8.648a6.42 6.42 0 013.206 5.513l.065 19.156a6.426 6.426 0 01-3.162 5.542l-16.56 9.633a6.376 6.376 0 01-6.392.018L23.661 39.75a6.417 6.417 0 01-3.218-5.524l-.065-19.156a6.408 6.408 0 013.178-5.533l16.557-9.63a6.37 6.37 0 016.386-.02L63.117 9.4z" fill="url(#paint4_linear)"/><path d="M115.214 100.425L98.597 90.91a6.372 6.372 0 00-6.387.02l-16.556 9.631a6.404 6.404 0 00-3.178 5.534l.065 19.156a6.42 6.42 0 003.218 5.525l16.613 9.512a6.376 6.376 0 006.391-.018l16.561-9.632a6.428 6.428 0 003.162-5.543l-.065-19.156a6.422 6.422 0 00-3.207-5.514z" fill="#FFE1E1"/><path fill-rule="evenodd" clip-rule="evenodd" d="M98.763 140.27l16.561-9.632a6.428 6.428 0 003.162-5.543l-.065-19.156a6.422 6.422 0 00-3.207-5.514L98.597 90.91a6.372 6.372 0 00-6.387.02l-16.556 9.631a6.404 6.404 0 00-3.178 5.534l.065 19.156a6.42 6.42 0 003.218 5.525l16.613 9.512a6.376 6.376 0 006.391-.018zm-22.506-10.361l16.613 9.513a5.372 5.372 0 005.39-.016l16.556-9.63.002-.001a5.43 5.43 0 002.668-4.677v-.002l-.065-19.15v-.002a5.432 5.432 0 00-.735-2.686 5.432 5.432 0 00-1.971-1.966l-.002-.001-16.615-9.514a5.372 5.372 0 00-5.384.017l-.001.001-16.555 9.629a5.408 5.408 0 00-2.682 4.669v.002l.065 19.15v.001a5.416 5.416 0 002.716 4.663z" fill="url(#paint5_linear)"/><path d="M107.677 106.103l-10.27-5.88a3.938 3.938 0 00-3.948.013l-10.232 5.952a3.954 3.954 0 00-1.965 3.42l.04 11.84a3.965 3.965 0 001.989 3.414l10.268 5.879a3.935 3.935 0 003.95-.011l10.235-5.953a3.975 3.975 0 001.955-3.426l-.041-11.839a3.967 3.967 0 00-1.981-3.409z" fill="#fff"/><path d="M103.019 109.804l-6.349-3.635a2.44 2.44 0 00-2.44.008l-6.322 3.678a2.451 2.451 0 00-1.214 2.114l.025 7.318a2.45 2.45 0 001.229 2.11l6.346 3.634a2.446 2.446 0 002.441-.007l6.326-3.68a2.45 2.45 0 001.208-2.117l-.025-7.317a2.45 2.45 0 00-1.225-2.106z" fill="#FFDD0F"/><path d="M63.215 100.602l-16.618-9.516a6.37 6.37 0 00-6.387.021l-16.556 9.63a6.404 6.404 0 00-3.178 5.534l.065 19.157a6.415 6.415 0 003.218 5.524l16.613 9.513a6.375 6.375 0 006.392-.018l16.56-9.633a6.43 6.43 0 003.162-5.542l-.065-19.157a6.421 6.421 0 00-3.207-5.513z" fill="#FFE1E1"/><path fill-rule="evenodd" clip-rule="evenodd" d="M46.098 91.953a5.37 5.37 0 00-5.384.018l-16.556 9.63a5.408 5.408 0 00-2.682 4.669v.001l.065 19.151v.001a5.42 5.42 0 002.717 4.662l16.613 9.513c.82.472 1.75.719 2.696.717a5.386 5.386 0 002.693-.732l16.556-9.63.003-.002a5.427 5.427 0 002.667-4.677v-.001l-.065-19.151v-.002a5.422 5.422 0 00-2.705-4.652l-.002-.001-16.616-9.514zm17.117 8.649a6.42 6.42 0 013.206 5.513l.065 19.157a6.426 6.426 0 01-3.162 5.542l-16.56 9.633a6.375 6.375 0 01-6.392.018l-16.613-9.513a6.419 6.419 0 01-3.218-5.524l-.065-19.157a6.408 6.408 0 013.178-5.534l16.556-9.63a6.37 6.37 0 016.387-.02l16.617 9.515z" fill="url(#paint6_linear)"/><path d="M30.077 25.598l-10.272-5.881a3.937 3.937 0 00-3.947.013L5.625 25.68a3.96 3.96 0 00-1.964 3.42l.04 11.84a3.965 3.965 0 001.989 3.416l10.267 5.88a3.94 3.94 0 003.95-.012l10.236-5.953a3.973 3.973 0 001.954-3.426l-.04-11.84a3.969 3.969 0 00-1.98-3.409z" fill="#FFDD0F"/><path d="M55.543 15.021l-10.27-5.88a3.938 3.938 0 00-3.947.012l-10.233 5.952a3.96 3.96 0 00-1.964 3.42l.04 11.84a3.966 3.966 0 001.989 3.416l10.267 5.879a3.94 3.94 0 003.95-.011l10.236-5.954a3.972 3.972 0 001.954-3.425l-.04-11.84a3.969 3.969 0 00-1.982-3.409zM55.543 105.985l-10.27-5.881a3.94 3.94 0 00-3.947.013l-10.233 5.952a3.962 3.962 0 00-1.964 3.42l.04 11.84a3.966 3.966 0 001.989 3.415l10.267 5.88a3.94 3.94 0 003.95-.011l10.236-5.954a3.968 3.968 0 001.954-3.425l-.04-11.84a3.97 3.97 0 00-1.982-3.409z" fill="#fff"/></g><circle cx="70" cy="70" r="69" stroke="#FF7163" stroke-width="2"/><circle cx="93.904" cy="89.991" r="21.636" fill="#fff"/><circle cx="93.904" cy="89.991" r="21.636" fill="#fff"/><circle cx="93.904" cy="89.991" r="21.136" stroke="url(#paint7_linear)"/><path d="M103.604 81.416l-1.125-1.124-8.575 8.575-8.574-8.575-1.125 1.124 8.575 8.575-8.575 8.575 1.125 1.124 8.574-8.575 8.575 8.575 1.125-1.124-8.576-8.575 8.576-8.575z" fill="#FF7C7C" stroke="#FF7C7C"/><defs><linearGradient id="paint0_linear" x1="70" y1="28.691" x2="70" y2="116.43" gradientUnits="userSpaceOnUse"><stop stop-color="#FF7163"/><stop offset="1" stop-color="#FF7C7C" stop-opacity="0"/></linearGradient><linearGradient id="paint1_linear" x1="121.2" y1="8.5" x2="121.2" y2="116.259" gradientUnits="userSpaceOnUse"><stop stop-color="#FF7163"/><stop offset="1" stop-color="#FF7C7C" stop-opacity="0"/></linearGradient><linearGradient id="paint2_linear" x1="18" y1="10.5" x2="18" y2="116.607" gradientUnits="userSpaceOnUse"><stop stop-color="#FF7163"/><stop offset="1" stop-color="#FF7C7C" stop-opacity="0"/></linearGradient><linearGradient id="paint3_linear" x1="95.481" y1="6.987" x2="95.481" y2="70.83" gradientUnits="userSpaceOnUse"><stop stop-color="#FF7163"/><stop offset="1" stop-color="#FF7C7C" stop-opacity="0"/></linearGradient><linearGradient id="paint4_linear" x1="43.383" y1="7.164" x2="43.383" y2="71.007" gradientUnits="userSpaceOnUse"><stop stop-color="#FF7163"/><stop offset="1" stop-color="#FF7C7C" stop-opacity="0"/></linearGradient><linearGradient id="paint5_linear" x1="95.481" y1="58" x2="95.481" y2="162.033" gradientUnits="userSpaceOnUse"><stop stop-color="#FF7163"/><stop offset="1" stop-color="#FF7C7C" stop-opacity="0"/></linearGradient><linearGradient id="paint6_linear" x1="43.481" y1="41" x2="43.481" y2="162.209" gradientUnits="userSpaceOnUse"><stop stop-color="#FF7163"/><stop offset="1" stop-color="#FF7C7C" stop-opacity="0"/></linearGradient><linearGradient id="paint7_linear" x1="93.904" y1="75.239" x2="93.904" y2="129.329" gradientUnits="userSpaceOnUse"><stop stop-color="#FF7163"/><stop offset="1" stop-color="#FF7C7C" stop-opacity="0"/></linearGradient><clipPath id="clip0"><rect x="28" y="28" width="84" height="84" rx="42" fill="#fff"/></clipPath></defs></svg>