<svg width="24" height="24" viewBox="0 0 24 24" fill="none" xmlns="http://www.w3.org/2000/svg">
<rect width="24" height="24" rx="4" fill="url(#paint0_linear)"/>
<path d="M19.2 12C18.7582 12 18.4053 12.36 18.3501 12.7983C17.954 15.9452 15.2498 18.4 12 18.4C8.48 18.4 5.6 15.52 5.6 12C5.6 8.48 8.48 5.6 12 5.6C12.4621 5.6 12.8825 5.6417 13.2913 5.72511C13.5832 5.78468 13.8907 5.70934 14.1013 5.49866C14.5326 5.06741 14.3577 4.33403 13.7619 4.20392C13.1844 4.07782 12.5922 4 12 4C7.6 4 4 7.6 4 12C4 16.4 7.6 20 12 20C16.1305 20 19.556 16.8275 19.9601 12.7988C20.0042 12.3592 19.6418 12 19.2 12Z" fill="url(#paint1_linear)"/>
<path d="M7.6001 11.6001L8.7201 10.4801L11.2001 12.9601L18.0801 6.08008L19.2001 7.20008L11.2001 15.2001L7.6001 11.6001Z" fill="white"/>
<defs>
<linearGradient id="paint0_linear" x1="-8.38409" y1="7.82766" x2="46.2924" y2="7.09591" gradientUnits="userSpaceOnUse">
<stop offset="0.0206505" stop-color="#FEAE6F"/>
<stop offset="0.410035" stop-color="#D66F8D"/>
<stop offset="0.719671" stop-color="#8E54A5"/>
<stop offset="0.911161" stop-color="#7652AB"/>
</linearGradient>
<linearGradient id="paint1_linear" x1="19.5" y1="13.5" x2="20" y2="2.5" gradientUnits="userSpaceOnUse">
<stop stop-color="#FFE5DB"/>
<stop offset="1" stop-color="#FFD8C9" stop-opacity="0"/>
</linearGradient>
</defs>
</svg>
