<svg width="38" height="36" fill="none" xmlns="http://www.w3.org/2000/svg"><path d="M18.956 22.364c11.914 0 18.21-3.12 18.7-3.374.017-.01.023-.026.03-.042.019-.335.032-.674.032-1.016 0-.342-.013-.68-.032-1.016-.004-.016-.01-.035-.03-.042-.49-.255-6.786-3.374-18.7-3.374C7.04 13.5.746 16.616.255 16.87c-.016.01-.023.027-.03.043-.018.338-.031.674-.031 1.016 0 .342.013.68.032 1.016.003.016.01.035.029.042.49.255 6.786 3.377 18.7 3.377z" fill="url(#paint0_radial_139:1689)"/><path d="M18.956 6.053c-7.5 0-12.766 1.236-15.763 2.213a17.24 17.24 0 00-2.628 6.132c.013.01.032.012.048.006 1.532-.71 7.686-3.203 18.343-3.203s16.81 2.493 18.343 3.203a.052.052 0 00.048-.006 17.266 17.266 0 00-2.629-6.132c-3-.977-8.263-2.213-15.762-2.213z" fill="url(#paint1_radial_139:1689)"/><path d="M5.635 30.492c3.4 3.261 8.112 5.28 13.32 5.28 5.21 0 9.922-2.019 13.322-5.28-3.11.784-7.551 1.513-13.321 1.513s-10.212-.73-13.321-1.513z" fill="url(#paint2_radial_139:1689)"/><path d="M5.635 5.366c3.4-3.261 8.112-5.28 13.32-5.28 5.21 0 9.922 2.019 13.322 5.28-3.11-.784-7.551-1.513-13.321-1.513s-10.212.73-13.321 1.513z" fill="url(#paint3_radial_139:1689)"/><path d="M18.956 29.757c-7.5 0-12.766-1.236-15.763-2.213a17.24 17.24 0 01-2.628-6.131.052.052 0 01.048-.007c1.532.71 7.686 3.203 18.343 3.203s16.81-2.493 18.343-3.203a.052.052 0 01.048.007 17.266 17.266 0 01-2.629 6.13c-3 .982-8.263 2.214-15.762 2.214z" fill="url(#paint4_radial_139:1689)"/><defs><radialGradient id="paint0_radial_139:1689" cx="0" cy="0" r="1" gradientUnits="userSpaceOnUse" gradientTransform="rotate(11.066 -75.587 -47.12) scale(52.0912)"><stop stop-color="#FEAE6F"/><stop offset=".316" stop-color="#FF9B73"/><stop offset=".631" stop-color="#D66F8D"/><stop offset=".855" stop-color="#8E54A5"/><stop offset=".991" stop-color="#6050B0"/></radialGradient><radialGradient id="paint1_radial_139:1689" cx="0" cy="0" r="1" gradientUnits="userSpaceOnUse" gradientTransform="rotate(9.144 -72.523 26.3) scale(47.6969 28.8448)"><stop offset=".021" stop-color="#FEAE6F"/><stop offset=".497" stop-color="#D66F8D"/><stop offset=".795" stop-color="#8E54A5"/><stop offset=".984" stop-color="#7652AB"/></radialGradient><radialGradient id="paint2_radial_139:1689" cx="0" cy="0" r="1" gradientUnits="userSpaceOnUse" gradientTransform="translate(12.247 22.01) scale(22.315)"><stop offset=".071" stop-color="#FF9B73"/><stop offset=".261" stop-color="#F4A575"/><stop offset=".368" stop-color="#EE977B"/><stop offset=".57" stop-color="#DF7389"/><stop offset=".607" stop-color="#DC6B8C"/><stop offset=".612" stop-color="#DA6B8D"/><stop offset=".731" stop-color="#B06099"/><stop offset=".839" stop-color="#9259A2"/><stop offset=".931" stop-color="#8055A7"/><stop offset=".996" stop-color="#7953A9"/></radialGradient><radialGradient id="paint3_radial_139:1689" cx="0" cy="0" r="1" gradientUnits="userSpaceOnUse" gradientTransform="rotate(1.325 -523.586 293.494) scale(27.9072)"><stop offset=".109" stop-color="#FEAE6F"/><stop offset=".391" stop-color="#FEAE6F"/><stop offset=".641" stop-color="#DF7389"/><stop offset=".907" stop-color="#B56398"/><stop offset=".996" stop-color="#7852AA"/></radialGradient><radialGradient id="paint4_radial_139:1689" cx="0" cy="0" r="1" gradientUnits="userSpaceOnUse" gradientTransform="rotate(4.712 -269.677 -230.007) scale(58.9013)"><stop offset=".071" stop-color="#FF9B73"/><stop offset=".39" stop-color="#F4A575"/><stop offset=".589" stop-color="#DF7389"/><stop offset=".645" stop-color="#DC6B8C"/><stop offset=".915" stop-color="#7953A9"/></radialGradient></defs></svg>