<svg width="181" height="180" fill="none" xmlns="http://www.w3.org/2000/svg"><path fill-rule="evenodd" clip-rule="evenodd" d="M180.723 89.97c0 49.544-40.295 89.706-90 89.706-49.706 0-90-40.162-90-89.707 0-49.543 40.294-89.706 90-89.706 49.705 0 90 40.163 90 89.706z" fill="#BFB9DF" fill-opacity=".3"/><path fill-rule="evenodd" clip-rule="evenodd" d="M180.723 89.97c0 49.544-40.295 89.706-90 89.706-49.706 0-90-40.162-90-89.707 0-49.543 40.294-89.706 90-89.706 49.705 0 90 40.163 90 89.706z" fill="#BFB9DF" fill-opacity=".3"/><path d="M152.557 102.256c.48 0 .48.75 0 .75-.49 0-.49-.75 0-.75zm-11.09-9.01c.48 0 .48.75 0 .75s-.48-.75 0-.75zm22.871-4.39c.48 0 .48.75 0 .75s-.48-.75 0-.75zm-11.09.46c.48 0 .48.75 0 .75s-.48-.75 0-.75zm21.479 3.47c.48 0 .48.75 0 .75s-.48-.75 0-.75z" fill="#fff"/><path fill-rule="evenodd" clip-rule="evenodd" d="M154.717 84.126l.92-.52-.94-.49-.52-.91-.49.93-.91.52.93.49.52.92.49-.94zm5.41 29.32l1.8-1.03-1.84-.96-1.02-1.8-.97 1.83-1.8 1.03 1.84.97 1.03 1.8.96-1.84z" fill="#fff"/><path d="M50.446 52.227c.48 0 .48-.75 0-.75-.49 0-.49.75 0 .75zm-21.94 6.358c.48 0 .48-.75 0-.75s-.48.75 0 .75zm33.72 7.042c.48 0 .48-.75 0-.75s-.48.75 0 .75zm-11.09-.46c.48 0 .48-.75 0-.75s-.48.75 0 .75zm30.729 11.55c.48 0 .48-.75 0-.75-.49 0-.49.75 0 .75zm-.239-9.93c.48 0 .48-.75 0-.75s-.48.75 0 .75zm-9.01-5.09c.48 0 .48-.75 0-.75s-.48.75 0 .75zm18.95 18.95c.48 0 .48-.75 0-.75s-.49.75 0 .75z" fill="#fff"/><path fill-rule="evenodd" clip-rule="evenodd" d="M41.896 51.627l.91.52-.93.48-.52.92-.49-.93-.91-.53.93-.48.52-.92.49.94zm86.82 26.02l.91.52-.93.49-.52.91-.49-.93-.91-.52.93-.49.52-.91.49.93zM14.13 73.092l1.8 1.03-1.84.96-1.02 1.8-.97-1.83-1.8-1.03 1.84-.97 1.03-1.8.96 1.84z" fill="#fff"/><path d="M90.277 32.612c.48 0 .48-.75 0-.75-.49 0-.49.75 0 .75zm-11.091 9.01c.48 0 .48-.75 0-.75s-.48.75 0 .75zm22.87 4.389c.48 0 .48-.75 0-.75s-.48.75 0 .75zm-11.09-.46c.48 0 .48-.75 0-.75s-.48.75 0 .75zm30.731 11.55c.48 0 .48-.75 0-.75-.49 0-.49.75 0 .75zm-.24-9.93c.48 0 .48-.75 0-.75s-.48.75 0 .75zm-9.011-5.09c.48 0 .48-.75 0-.75s-.48.75 0 .75zm18.95 18.951c.48 0 .48-.75 0-.75s-.49.75 0 .75z" fill="#fff"/><path fill-rule="evenodd" clip-rule="evenodd" d="M81.726 32.012l.91.52-.93.48-.52.92-.49-.93-.91-.53.93-.48.52-.92.49.94zM14.382 99.5l.91.52-.93.48-.52.92-.49-.93-.91-.53.93-.48.52-.92.49.94zm114.334-47.168l.91.52-.93.49-.52.91-.49-.93-.91-.52.93-.49.52-.91.49.93zm-36.28-1.591l.92.52-.94.49-.52.91-.49-.93-.91-.52.93-.49.52-.92.49.94zm5.411-29.319l1.8 1.03-1.84.96-1.02 1.8-.97-1.83-1.8-1.03 1.84-.97 1.03-1.8.96 1.84z" fill="#fff"/><path d="M108.302 89.566c.48 0 .48-.75 0-.75-.49 0-.49.75 0 .75zm-21.94 6.357c.48 0 .48-.75 0-.75s-.48.75 0 .75zm33.719 7.042c.48 0 .48-.75 0-.75s-.48.75 0 .75zm-11.09-.46c.48 0 .48-.75 0-.75s-.48.75 0 .75zm30.731 11.55c.48 0 .48-.75 0-.75-.49 0-.49.75 0 .75zm-.24-9.93c.48 0 .48-.75 0-.75s-.48.75 0 .75zm-9.011-5.09c.48 0 .48-.75 0-.75s-.48.75 0 .75zm18.95 18.951c.48 0 .48-.75 0-.75s-.49.75 0 .75z" fill="#fff"/><path fill-rule="evenodd" clip-rule="evenodd" d="M94.751 88.966l.91.52-.93.48-.52.92-.49-.93-.91-.53.93-.48.52-.92.49.94zm51.99 20.32l.91.52-.93.49-.52.91-.49-.93-.91-.52.93-.49.52-.91.49.93zM79.66 103.26l1.8 1.03-1.84.96-1.02 1.8-.97-1.83-1.8-1.03 1.84-.97 1.03-1.8.96 1.84z" fill="#fff"/><path d="M14.522 124.199c.48 0 .48-.75 0-.75s-.48.75 0 .75zm13.64 8.09c.48 0 .48-.75 0-.75-.49 0-.49.75 0 .75zm-.24-9.93c.48 0 .48-.75 0-.75s-.48.75 0 .75zm9.94 13.861c.48 0 .48-.75 0-.75s-.49.75 0 .75z" fill="#fff"/><path fill-rule="evenodd" clip-rule="evenodd" d="M35.182 127.52l.91.52-.93.49-.52.91-.49-.93-.91-.52.93-.49.52-.91.49.93z" fill="#fff"/><circle cx="41.744" cy="33.349" r="1.487" fill="url(#paint0_linear)"/><circle cx="130.831" cy="131.526" r="1.487" fill="url(#paint1_linear)"/><circle opacity=".8" cx="62.69" cy="19.599" r="1.487" fill="#fff"/><circle opacity=".8" cx="87.939" cy="8.275" r=".686" fill="#fff"/><path fill="url(#paint2_linear)" d="M61.611 114.162h18.578v24.593H61.611z"/><path d="M34.45 62.443c-7.44 15.754 4.8 40.136 28.826 56.138 24.025 16.002 51.241 17.901 62.911 4.965L34.449 62.443z" fill="url(#paint3_linear)"/><path d="M43.231 141.829a3.074 3.074 0 013.075-3.074h49.189a3.074 3.074 0 013.074 3.074v4.612H43.231v-4.612z" fill="#4D3996"/><path stroke="#4D3996" stroke-width="1.537" d="M98.671 65.15L58.175 78.81m40.762-13.482l3.002 42.632m-2.875-43.112L79.465 94.273"/><rect x="35.402" y="59.218" width="112.212" height="4.749" rx="2.375" transform="rotate(33.666 35.402 59.218)" fill="#6050B0"/><circle cx="98.846" cy="64.422" r="4.5" fill="#4D3996"/><path fill-rule="evenodd" clip-rule="evenodd" d="M160.656 146.441c-16.501 20.276-41.699 33.235-69.934 33.235-28.234 0-53.432-12.959-69.933-33.235h139.867z" fill="url(#paint4_linear)"/><path fill-rule="evenodd" clip-rule="evenodd" d="M164.93 61.42h-40.653a5.66 5.66 0 01-5.664-5.656V15.17a5.66 5.66 0 015.664-5.654h40.653c3.129 0 5.667 2.532 5.667 5.654v40.594c0 3.123-2.538 5.655-5.667 5.655z" fill="url(#paint5_linear)"/><g clip-path="url(#clip0)" fill="#fff"><path d="M155.123 23.869h-21.179a3.808 3.808 0 00-3.81 3.798v15.832a3.808 3.808 0 003.81 3.798h21.179a3.81 3.81 0 003.811-3.798V27.667a3.81 3.81 0 00-3.811-3.798zm1.484 19.63c0 .816-.666 1.48-1.484 1.48h-21.179a1.483 1.483 0 01-1.483-1.48V27.667c0-.816.665-1.48 1.483-1.48h21.179c.818 0 1.484.664 1.484 1.48v15.832z"/><path d="M158.723 27.002a1.165 1.165 0 00-1.62-.285l-12.569 8.77-12.57-8.77a1.166 1.166 0 00-1.62.285 1.158 1.158 0 00.286 1.615l13.237 9.235a1.162 1.162 0 001.334 0l13.236-9.235c.527-.367.655-1.09.286-1.615z"/></g><defs><linearGradient id="paint0_linear" x1="41.744" y1="34.836" x2="41.744" y2="31.862" gradientUnits="userSpaceOnUse"><stop offset="0" stop-color="#6050B0"/><stop offset="1" stop-color="#351C75"/></linearGradient><linearGradient id="paint1_linear" x1="130.831" y1="133.013" x2="130.831" y2="130.039" gradientUnits="userSpaceOnUse"><stop offset="0" stop-color="#6050B0"/><stop offset="1" stop-color="#351C75"/></linearGradient><linearGradient id="paint2_linear" x1="70.9" y1="138.755" x2="70.9" y2="114.162" gradientUnits="userSpaceOnUse"><stop offset="0" stop-color="#6050B0"/><stop offset="1" stop-color="#351C75"/></linearGradient><linearGradient id="paint3_linear" x1="63.276" y1="118.581" x2="80.319" y2="92.995" gradientUnits="userSpaceOnUse"><stop offset="0" stop-color="#6050B0"/><stop offset="1" stop-color="#351C75"/></linearGradient><linearGradient id="paint4_linear" x1="90.723" y1="179.676" x2="90.723" y2="146.441" gradientUnits="userSpaceOnUse"><stop offset="0" stop-color="#6050B0"/><stop offset="1" stop-color="#351C75"/></linearGradient><linearGradient id="paint5_linear" x1="120.364" y1="41.92" x2="208.909" y2="-6.354" gradientUnits="userSpaceOnUse"><stop stop-color="#FFC3AB"/><stop offset="1" stop-color="#FF9B73"/></linearGradient><clipPath id="clip0"><path fill="#fff" transform="translate(130.134 21.23)" d="M0 0h28.8v28.706H0z"/></clipPath></defs></svg>