<svg width="120" height="119" fill="none" xmlns="http://www.w3.org/2000/svg"><mask id="a" maskUnits="userSpaceOnUse" x="0" y="0" width="120" height="119"><path fill="#C4C4C4" d="M.726.04h118.289v118.288H.726z"/></mask><g mask="url(#a)"><circle cx="59.865" cy="59.179" r="59.139" fill="#BFB9DF" fill-opacity=".3"/><mask id="b" maskUnits="userSpaceOnUse" x="0" y="0" width="120" height="119"><circle cx="59.865" cy="59.179" r="59.139" fill="#BFB9DF"/></mask><g mask="url(#b)"><circle cx="8.672" cy="110.535" r="57.389" fill="url(#paint0_linear)"/><path opacity=".1" d="M27.491 56.302a57.308 57.308 0 00-18.82-3.157c-10.882 0-21.057 3.03-29.728 8.29 3.138 6.027 10.356 8.802 16.9 10.987 11.555 3.865 23.328 7.768 35.498 7.972 1.497.026 3-.004 4.503-.034 5.318-.106 10.63-.211 15.638 2.133 2.367 1.113 3.839 3.634 3.468 6.22-.614 4.248-5.298 5.028-9.098 5.118-11.013.256-22.012-.422-33.012-1.101-9.871-.609-19.743-1.218-29.627-1.151-9.907.072-19.99.899-29.688 3.013a57.42 57.42 0 00-2.243 15.942c0 31.696 25.694 57.39 57.39 57.39a57.57 57.57 0 0012.768-1.426l-.042-.009C1.614 161.946-19 156.994-34.535 143.916c-2.01-1.689-3.993-3.634-4.773-6.142-1.46-4.735 1.932-9.713 6.065-12.426 6.68-4.376 15.292-4.901 23.123-3.327 6.86 1.379 13.307 4.23 19.72 7.066.909.402 1.817.804 2.725 1.201a344.963 344.963 0 0028.319 10.915c4.608 1.547 9.31 3.01 14.123 3.524a57.2 57.2 0 008.7-17.086c-2.25-1.474-4.86-2.455-7.43-3.316-7.612-2.561-15.43-4.455-23.245-6.348-9.642-2.335-19.278-4.67-28.516-8.253-1.228-.474-2.623-1.177-2.84-2.483-.154-.934.396-1.842 1.01-2.559 5.134-5.902 14.389-3.85 22.13-2.134l.737.163a82.43 82.43 0 0035.242.052 30.659 30.659 0 004.77-1.449A57.131 57.131 0 0053.6 74.826c-2.536-.723-5.106-1.363-7.678-2.005-4.316-1.075-8.639-2.152-12.817-3.623a78.16 78.16 0 01-5.796-2.316c-4.945-2.198-4.134-8.888.181-10.58z" fill="#fff"/></g><g clip-path="url(#clip0)"><mask id="c" maskUnits="userSpaceOnUse" x="0" y="0" width="120" height="119"><circle cx="59.865" cy="59.179" r="59.139" fill="#BFB9DF"/></mask><g mask="url(#c)"><path d="M49.834 50.576c-6.902 4.72-8.694 14.197-4.005 21.073 4.725 6.868 14.234 8.637 21.144 3.953l98.587-67.2-17.13-24.991-98.596 67.165z" fill="url(#paint1_linear)"/><path d="M52.822 56.266c-4.363 2.98-5.49 8.933-2.507 13.275 2.983 4.342 8.956 5.455 13.319 2.475l62.084-42.285-10.776-15.758-62.12 42.293z" fill="url(#paint2_linear)"/><path d="M78.24 50.739S65.554 67.23 62.591 69.255a6.518 6.518 0 01-9.038-1.688c-2.027-2.949-1.253-6.985 1.71-9.009s22.977-7.82 22.977-7.82z" fill="url(#paint3_linear)"/><circle opacity=".8" cx="52.309" cy="34.567" r=".875" fill="#fff"/><circle opacity=".8" cx="40.145" cy="12.035" r=".513" fill="#fff"/></g></g><path d="M73.719 17.044c.282 0 .282-.441 0-.441-.288 0-.288.441 0 .441zM67.193 22.346c.282 0 .282-.442 0-.442s-.282.442 0 .442zM80.65 24.929c.283 0 .283-.441 0-.441-.282 0-.282.44 0 .44zM74.125 24.658c.282 0 .282-.441 0-.441-.283 0-.283.441 0 .441zM92.207 31.454c.283 0 .283-.44 0-.44-.288 0-.288.44 0 .44zM92.066 25.611c.283 0 .283-.44 0-.44-.282 0-.282.44 0 .44zM86.764 22.616c.283 0 .283-.44 0-.44-.282 0-.282.44 0 .44zM97.915 33.767c.283 0 .283-.44 0-.44-.282 0-.288.44 0 .44z" fill="#fff"/><path fill-rule="evenodd" clip-rule="evenodd" d="M68.688 16.691l.535.306-.547.282-.306.542-.288-.547-.536-.312.547-.283.306-.541.289.553zM96.338 28.648l.536.306-.548.288-.305.536-.289-.547-.535-.306.547-.289.306-.535.288.547zM74.99 27.712l.541.306-.553.288-.306.536-.288-.547-.536-.306.547-.289.306-.541.289.553zM78.173 10.46l1.06.605-1.083.565-.6 1.06-.571-1.077-1.06-.606 1.083-.571.606-1.06.565 1.083z" fill="#fff"/><path d="M110.64 57.014c.282 0 .282.441 0 .441-.289 0-.289-.44 0-.44zM104.114 51.712c.282 0 .282.442 0 .442-.283 0-.283-.442 0-.442zM117.571 49.13c.283 0 .283.44 0 .44-.282 0-.282-.44 0-.44zM111.046 49.4c.282 0 .282.441 0 .441-.283 0-.283-.44 0-.44z" fill="#fff"/><path fill-rule="evenodd" clip-rule="evenodd" d="M105.609 57.367l.535-.306-.547-.282-.306-.542-.289.548-.535.312.547.282.306.541.289-.553zM111.911 46.346l.541-.306-.553-.288-.306-.536-.288.548-.536.305.547.289.306.541.289-.553zM115.094 63.599l1.059-.606-1.082-.565-.601-1.06-.57 1.078-1.06.606 1.083.57.606 1.06.565-1.083z" fill="#fff"/><path d="M73.293 87.058c.282 0 .282-.441 0-.441-.289 0-.289.441 0 .441zM66.767 92.36c.282 0 .282-.441 0-.441s-.282.441 0 .441zM80.225 94.943c.282 0 .282-.441 0-.441-.283 0-.283.441 0 .441zM73.699 94.672c.282 0 .282-.441 0-.441-.283 0-.283.441 0 .441zM91.781 101.469c.283 0 .283-.442 0-.442-.288 0-.288.442 0 .442zM91.64 95.626c.283 0 .283-.442 0-.442-.282 0-.282.442 0 .442zM86.338 92.63c.283 0 .283-.44 0-.44-.282 0-.282.44 0 .44zM97.49 103.782c.282 0 .282-.442 0-.442-.283 0-.29.442 0 .442z" fill="#fff"/><path fill-rule="evenodd" clip-rule="evenodd" d="M68.262 86.705l.535.306-.547.283-.306.541-.288-.547-.536-.312.547-.283.306-.54.289.552zM95.912 98.662l.536.306-.548.289-.306.535-.288-.547-.535-.306.547-.288.306-.536.288.547zM74.564 97.726l.541.306-.553.289-.306.535-.288-.547-.536-.306.547-.288.306-.542.289.553zM77.747 80.474l1.06.606-1.083.564-.6 1.06-.571-1.077-1.06-.606 1.083-.571.606-1.06.565 1.084z" fill="#fff"/><path d="M19.684 39.122c.283 0 .283-.441 0-.441-.288 0-.288.441 0 .441zM13.159 44.424c.282 0 .282-.442 0-.442-.283 0-.283.442 0 .442zM26.616 47.007c.282 0 .282-.442 0-.442s-.282.442 0 .442zM20.09 46.736c.283 0 .283-.441 0-.441-.282 0-.282.441 0 .441zM38.173 53.532c.282 0 .282-.44 0-.44-.288 0-.288.44 0 .44zM38.032 47.69c.282 0 .282-.442 0-.442-.283 0-.283.441 0 .441zM32.73 44.694c.282 0 .282-.44 0-.44s-.282.44 0 .44zM43.88 55.845c.283 0 .283-.441 0-.441-.282 0-.288.441 0 .441z" fill="#fff"/><path fill-rule="evenodd" clip-rule="evenodd" d="M14.653 38.769l.536.306-.548.282-.306.542-.288-.547-.535-.312.547-.283.306-.541.288.553zM42.304 50.726l.535.306-.547.288-.306.536-.288-.547-.536-.306.547-.289.306-.535.289.547zM20.955 49.79l.542.306-.553.288-.306.536-.289-.547-.535-.306.547-.289.306-.541.288.553z" fill="#fff"/><circle opacity=".8" cx="57.759" cy="8.376" r=".875" fill="#fff"/><circle opacity=".8" cx="31.17" cy="28.886" r=".445" fill="#fff"/><circle opacity=".8" cx="5.913" cy="41.994" r=".875" fill="#fff"/><circle opacity=".8" cx="74.219" cy="3.378" r=".404" fill="#fff"/></g><defs><linearGradient id="paint0_linear" x1="5.554" y1="52.292" x2="8.287" y2="189.602" gradientUnits="userSpaceOnUse"><stop offset=".223" stop-color="#3C0289"/><stop offset=".651" stop-color="#6050B0"/><stop offset="1" stop-color="#80C3FF"/></linearGradient><linearGradient id="paint1_linear" x1="45.856" y1="71.648" x2="156.792" y2="-4.396" gradientUnits="userSpaceOnUse"><stop stop-color="#F2CC33" stop-opacity=".2"/><stop offset=".999" stop-color="#DA185E" stop-opacity="0"/></linearGradient><linearGradient id="paint2_linear" x1="50.305" y1="69.539" x2="120.154" y2="21.66" gradientUnits="userSpaceOnUse"><stop stop-color="#F2CC33" stop-opacity=".8"/><stop offset=".28" stop-color="#E98644" stop-opacity=".511"/><stop offset=".62" stop-color="#DE3757" stop-opacity=".161"/><stop offset=".776" stop-color="#DA185E" stop-opacity="0"/></linearGradient><linearGradient id="paint3_linear" x1="53.545" y1="67.555" x2="78.201" y2="50.654" gradientUnits="userSpaceOnUse"><stop stop-color="#F2CC33"/><stop offset="1" stop-color="#F7DC6B" stop-opacity=".3"/></linearGradient><clipPath id="clip0"><path fill="#fff" transform="rotate(-12.832 60.871 -131.764)" d="M0 0h131.815v72.821H0z"/></clipPath></defs></svg>