<svg width="1534" height="942" fill="none" xmlns="http://www.w3.org/2000/svg"><path fill="url(#paint0_linear)" d="M0 0h1534v942H0z"/><path d="M1286.31 72.823c1.14 0 1.14-1.782 0-1.782-1.16 0-1.16 1.782 0 1.782zm-26.35 21.407c1.15 0 1.15-1.782 0-1.782-1.14 0-1.14 1.782 0 1.782zm54.34 10.429c1.14 0 1.14-1.782 0-1.782s-1.14 1.782 0 1.782zm-26.35-1.093c1.14 0 1.14-1.782 0-1.782s-1.14 1.782 0 1.782zm73.02 27.442c1.14 0 1.14-1.782 0-1.782-1.17 0-1.17 1.782 0 1.782zm-.58-23.593c1.15 0 1.15-1.781 0-1.781-1.14 0-1.14 1.781 0 1.781zm-21.4-12.093c1.14 0 1.14-1.782 0-1.782s-1.14 1.782 0 1.782zm45.02 45.025c1.14 0 1.14-1.782 0-1.782s-1.16 1.782 0 1.782z" fill="#fff"/><path fill-rule="evenodd" clip-rule="evenodd" d="M1266 71.397l2.16 1.236-2.21 1.14-1.23 2.186-1.17-2.21-2.16-1.259 2.21-1.14 1.24-2.186 1.16 2.233zm111.64 48.279l2.17 1.236-2.21 1.164-1.24 2.162-1.16-2.209-2.17-1.236 2.21-1.164 1.24-2.162 1.16 2.209zm-86.19-3.779l2.18 1.236-2.23 1.164-1.24 2.162-1.16-2.21-2.16-1.235 2.21-1.164 1.23-2.186 1.17 2.233zm12.85-69.661l4.28 2.447-4.38 2.28-2.42 4.278-2.3-4.348-4.28-2.448 4.37-2.304 2.45-4.277 2.28 4.372z" fill="#fff"/><path d="M1435.39 234.209c1.14 0 1.14 1.782 0 1.782-1.17 0-1.17-1.782 0-1.782zm-26.35-21.406c1.14 0 1.14 1.782 0 1.782s-1.14-1.782 0-1.782zm54.34-10.43c1.14 0 1.14 1.782 0 1.782s-1.14-1.782 0-1.782zm-26.35 1.093c1.14 0 1.14 1.782 0 1.782s-1.14-1.782 0-1.782zm73.01-27.441c1.14 0 1.14 1.782 0 1.782-1.16 0-1.16-1.782 0-1.782zm-.57 23.592c1.14 0 1.14 1.782 0 1.782s-1.14-1.782 0-1.782zm-21.41 12.093c1.14 0 1.14 1.782 0 1.782s-1.14-1.782 0-1.782zm45.03-45.024c1.14 0 1.14 1.782 0 1.782s-1.17-1.782 0-1.782z" fill="#fff"/><path fill-rule="evenodd" clip-rule="evenodd" d="M1415.07 235.635l2.17-1.236-2.21-1.14-1.24-2.186-1.16 2.21-2.16 1.259 2.21 1.14 1.23 2.186 1.16-2.233zm111.65-48.279l2.16-1.236-2.21-1.164-1.23-2.162-1.17 2.21-2.16 1.235 2.21 1.165 1.24 2.162 1.16-2.21zm-86.2 3.779l2.19-1.235-2.24-1.165-1.23-2.162-1.17 2.21-2.16 1.235 2.21 1.165 1.24 2.185 1.16-2.233zm12.85 69.662l4.28-2.448-4.37-2.281-2.42-4.276-2.31 4.348-4.28 2.447 4.38 2.305 2.44 4.276 2.28-4.371z" fill="#fff"/><path d="M1284.59 355.519c1.14 0 1.14-1.782 0-1.782-1.16 0-1.16 1.782 0 1.782zm-26.35 21.406c1.14 0 1.14-1.782 0-1.782s-1.14 1.782 0 1.782zm54.34 10.43c1.14 0 1.14-1.782 0-1.782s-1.14 1.782 0 1.782zm-26.35-1.093c1.14 0 1.14-1.782 0-1.782s-1.14 1.782 0 1.782zm73.01 27.441c1.14 0 1.14-1.782 0-1.782-1.16 0-1.16 1.782 0 1.782zm-.57-23.592c1.14 0 1.14-1.782 0-1.782s-1.14 1.782 0 1.782zm-21.4-12.093c1.14 0 1.14-1.782 0-1.782s-1.14 1.782 0 1.782zm45.02 45.024c1.14 0 1.14-1.782 0-1.782s-1.16 1.782 0 1.782z" fill="#fff"/><path fill-rule="evenodd" clip-rule="evenodd" d="M1264.28 354.093l2.16 1.236-2.21 1.14-1.23 2.186-1.17-2.21-2.16-1.259 2.21-1.14 1.23-2.186 1.17 2.233zm111.64 48.279l2.17 1.236-2.21 1.164-1.24 2.162-1.16-2.21-2.17-1.235 2.21-1.164 1.24-2.162 1.16 2.209zm-86.2-3.779l2.19 1.236-2.23 1.164-1.24 2.162-1.16-2.21-2.16-1.235 2.21-1.164 1.23-2.186 1.16 2.233zm12.86-69.661l4.28 2.447-4.38 2.281-2.42 4.276-2.3-4.348-4.28-2.447 4.37-2.304 2.45-4.277 2.28 4.372z" fill="#fff"/><path d="M1068.14 161.967c1.14 0 1.14-1.782 0-1.782-1.17 0-1.17 1.782 0 1.782zm-26.35 21.406c1.14 0 1.14-1.782 0-1.782s-1.14 1.782 0 1.782zm54.34 10.43c1.14 0 1.14-1.782 0-1.782s-1.14 1.782 0 1.782zm-26.35-1.093c1.14 0 1.14-1.782 0-1.782s-1.14 1.782 0 1.782zm73.01 27.441c1.14 0 1.14-1.782 0-1.782-1.16 0-1.16 1.782 0 1.782zm-.57-23.592c1.14 0 1.14-1.782 0-1.782s-1.14 1.782 0 1.782zm-21.41-12.093c1.14 0 1.14-1.782 0-1.782s-1.14 1.782 0 1.782zm45.03 45.024c1.14 0 1.14-1.782 0-1.782s-1.17 1.782 0 1.782z" fill="#fff"/><path fill-rule="evenodd" clip-rule="evenodd" d="M1047.82 160.541l2.17 1.236-2.21 1.14-1.24 2.186-1.16-2.21-2.17-1.259 2.21-1.14 1.24-2.186 1.16 2.233zm111.65 48.279l2.16 1.236-2.21 1.164-1.23 2.162-1.17-2.21-2.16-1.235 2.21-1.164 1.23-2.163 1.17 2.21zm-86.2-3.779l2.19 1.235-2.24 1.165-1.23 2.162-1.17-2.21-2.16-1.235 2.21-1.165 1.24-2.185 1.16 2.233z" fill="#fff"/><circle opacity=".8" cx="1221.87" cy="37.824" r="3.533" fill="#fff"/><circle opacity=".8" cx="1114.52" cy="120.637" r="1.796" fill="#fff"/><circle opacity=".8" cx="1012.53" cy="173.56" r="3.533" fill="#fff"/><circle opacity=".8" cx="1288.33" cy="17.641" r="1.631" fill="#fff"/><path d="M284.629 72.823c-1.141 0-1.141-1.782 0-1.782 1.164 0 1.164 1.782 0 1.782zm26.349 21.407c-1.141 0-1.141-1.782 0-1.782 1.14 0 1.14 1.782 0 1.782zm-54.337 10.429c-1.141 0-1.141-1.782 0-1.782 1.14 0 1.14 1.782 0 1.782zm26.348-1.093c-1.14 0-1.14-1.782 0-1.782 1.141 0 1.141 1.782 0 1.782zm-73.012 27.442c-1.14 0-1.14-1.782 0-1.782 1.165 0 1.165 1.782 0 1.782zm.57-23.593c-1.14 0-1.14-1.781 0-1.781 1.141 0 1.141 1.781 0 1.781zm21.408-12.093c-1.141 0-1.141-1.782 0-1.782 1.14 0 1.14 1.782 0 1.782zm-45.024 45.025c-1.141 0-1.141-1.782 0-1.782 1.14 0 1.164 1.782 0 1.782z" fill="#fff"/><path fill-rule="evenodd" clip-rule="evenodd" d="M304.943 71.397l-2.162 1.236 2.21 1.14 1.235 2.186 1.164-2.21 2.162-1.259-2.209-1.14-1.236-2.186-1.164 2.233zm-111.645 48.279l-2.162 1.236 2.21 1.164 1.235 2.162 1.165-2.209 2.162-1.236-2.21-1.164-1.235-2.162-1.165 2.209zm86.199-3.779l-2.186 1.236 2.234 1.164 1.235 2.162 1.164-2.21 2.162-1.235-2.209-1.164-1.236-2.186-1.164 2.233zm-12.854-69.661l-4.276 2.447 4.371 2.28 2.424 4.278 2.304-4.348 4.277-2.448-4.372-2.304-2.447-4.277-2.281 4.372z" fill="#fff"/><path d="M135.553 234.209c-1.14 0-1.14 1.782 0 1.782 1.165 0 1.165-1.782 0-1.782zm26.349-21.406c-1.14 0-1.14 1.782 0 1.782 1.141 0 1.141-1.782 0-1.782zm-54.337-10.43c-1.14 0-1.14 1.782 0 1.782 1.141 0 1.141-1.782 0-1.782zm26.349 1.093c-1.14 0-1.14 1.782 0 1.782s1.14-1.782 0-1.782zm-73.012-27.441c-1.14 0-1.14 1.782 0 1.782 1.164 0 1.164-1.782 0-1.782zm.57 23.592c-1.14 0-1.14 1.782 0 1.782s1.14-1.782 0-1.782zM82.88 211.71c-1.141 0-1.141 1.782 0 1.782 1.14 0 1.14-1.782 0-1.782zm-45.025-45.024c-1.14 0-1.14 1.782 0 1.782s1.165-1.782 0-1.782z" fill="#fff"/><path fill-rule="evenodd" clip-rule="evenodd" d="M155.868 235.635l-2.162-1.236 2.209-1.14 1.236-2.186 1.164 2.21 2.162 1.259-2.21 1.14-1.235 2.186-1.164-2.233zM44.223 187.356l-2.162-1.236 2.21-1.164 1.235-2.162 1.164 2.21 2.162 1.235-2.21 1.165-1.235 2.162-1.164-2.21zm86.199 3.779l-2.186-1.235 2.233-1.165 1.236-2.162 1.164 2.21 2.162 1.235-2.21 1.165-1.235 2.185-1.164-2.233zm-12.854 69.662l-4.277-2.448 4.372-2.281 2.423-4.276 2.305 4.348 4.277 2.447-4.372 2.305-2.447 4.276-2.281-4.371z" fill="#fff"/><path d="M286.349 355.519c-1.14 0-1.14-1.782 0-1.782 1.164 0 1.164 1.782 0 1.782zm26.349 21.406c-1.14 0-1.14-1.782 0-1.782 1.141 0 1.141 1.782 0 1.782zm-54.337 10.43c-1.14 0-1.14-1.782 0-1.782 1.141 0 1.141 1.782 0 1.782zm26.349-1.093c-1.141 0-1.141-1.782 0-1.782 1.14 0 1.14 1.782 0 1.782zm-73.012 27.441c-1.141 0-1.141-1.782 0-1.782 1.164 0 1.164 1.782 0 1.782zm.57-23.592c-1.141 0-1.141-1.782 0-1.782 1.14 0 1.14 1.782 0 1.782zm21.407-12.093c-1.14 0-1.14-1.782 0-1.782s1.14 1.782 0 1.782zm-45.024 45.024c-1.14 0-1.14-1.782 0-1.782 1.141 0 1.164 1.782 0 1.782z" fill="#fff"/><path fill-rule="evenodd" clip-rule="evenodd" d="M306.663 354.093l-2.162 1.236 2.21 1.14 1.235 2.186 1.165-2.21 2.162-1.259-2.21-1.14-1.235-2.186-1.165 2.233zm-111.644 48.279l-2.162 1.236 2.209 1.164 1.236 2.162 1.164-2.21 2.162-1.235-2.209-1.164-1.236-2.162-1.164 2.209zm86.198-3.779l-2.185 1.236 2.233 1.164 1.235 2.162 1.165-2.21 2.162-1.235-2.21-1.164-1.235-2.186-1.165 2.233zm-12.853-69.661l-4.277 2.447 4.372 2.281 2.423 4.276 2.305-4.348 4.276-2.447-4.371-2.304-2.447-4.277-2.281 4.372z" fill="#fff"/><path d="M502.804 161.967c-1.14 0-1.14-1.782 0-1.782 1.164 0 1.164 1.782 0 1.782zm26.349 21.406c-1.14 0-1.14-1.782 0-1.782 1.141 0 1.141 1.782 0 1.782zm-54.337 10.43c-1.14 0-1.14-1.782 0-1.782 1.141 0 1.141 1.782 0 1.782zm26.349-1.093c-1.141 0-1.141-1.782 0-1.782 1.14 0 1.14 1.782 0 1.782zm-73.012 27.441c-1.141 0-1.141-1.782 0-1.782 1.164 0 1.164 1.782 0 1.782zm.57-23.592c-1.141 0-1.141-1.782 0-1.782 1.14 0 1.14 1.782 0 1.782zm21.407-12.093c-1.14 0-1.14-1.782 0-1.782s1.14 1.782 0 1.782zm-45.024 45.024c-1.14 0-1.14-1.782 0-1.782 1.141 0 1.164 1.782 0 1.782z" fill="#fff"/><path fill-rule="evenodd" clip-rule="evenodd" d="M523.119 160.541l-2.163 1.236 2.21 1.14 1.236 2.186 1.164-2.21 2.162-1.259-2.21-1.14-1.235-2.186-1.164 2.233zM411.474 208.82l-2.162 1.236 2.209 1.164 1.236 2.162 1.164-2.21 2.162-1.235-2.209-1.164-1.236-2.163-1.164 2.21zm86.198-3.779l-2.185 1.235 2.233 1.165 1.235 2.162 1.165-2.21 2.162-1.235-2.21-1.165-1.235-2.185-1.165 2.233z" fill="#fff"/><circle opacity=".8" r="3.533" transform="matrix(-1 0 0 1 349.071 37.824)" fill="#fff"/><circle opacity=".8" r="1.796" transform="matrix(-1 0 0 1 456.427 120.637)" fill="#fff"/><circle opacity=".8" r="3.533" transform="matrix(-1 0 0 1 558.409 173.56)" fill="#fff"/><circle opacity=".8" r="1.631" transform="matrix(-1 0 0 1 282.608 17.64)" fill="#fff"/><path d="M1251.63 586.823c-1.14 0-1.14-1.782 0-1.782 1.16 0 1.16 1.782 0 1.782zm26.35 21.407c-1.14 0-1.14-1.782 0-1.782s1.14 1.782 0 1.782zm-54.34 10.429c-1.14 0-1.14-1.782 0-1.782s1.14 1.782 0 1.782zm26.35-1.093c-1.14 0-1.14-1.782 0-1.782s1.14 1.782 0 1.782zm-73.01 27.442c-1.14 0-1.14-1.782 0-1.782 1.16 0 1.16 1.782 0 1.782zm.57-23.593c-1.14 0-1.14-1.781 0-1.781s1.14 1.781 0 1.781zm21.4-12.093c-1.14 0-1.14-1.782 0-1.782s1.14 1.782 0 1.782zm-45.02 45.025c-1.14 0-1.14-1.782 0-1.782s1.16 1.782 0 1.782z" fill="#fff"/><path fill-rule="evenodd" clip-rule="evenodd" d="M1271.94 585.397l-2.16 1.236 2.21 1.14 1.24 2.186 1.16-2.209 2.16-1.26-2.21-1.14-1.23-2.186-1.17 2.233zm-111.64 48.279l-2.16 1.236 2.21 1.164 1.23 2.162 1.17-2.209 2.16-1.236-2.21-1.164-1.24-2.162-1.16 2.209zm86.2-3.779l-2.19 1.236 2.23 1.164 1.24 2.162 1.16-2.21 2.17-1.235-2.21-1.164-1.24-2.186-1.16 2.233zm-12.86-69.661l-4.27 2.447 4.37 2.281 2.42 4.277 2.31-4.348 4.27-2.448-4.37-2.304-2.45-4.277-2.28 4.372z" fill="#fff"/><path d="M1102.55 748.209c-1.14 0-1.14 1.782 0 1.782 1.17 0 1.17-1.782 0-1.782zm26.35-21.406c-1.14 0-1.14 1.782 0 1.782s1.14-1.782 0-1.782zm-54.33-10.43c-1.15 0-1.15 1.782 0 1.782 1.14 0 1.14-1.782 0-1.782zm26.34 1.093c-1.14 0-1.14 1.782 0 1.782s1.14-1.782 0-1.782zm-73.01-27.441c-1.14 0-1.14 1.782 0 1.782 1.17 0 1.17-1.782 0-1.782zm.57 23.592c-1.14 0-1.14 1.782 0 1.782s1.14-1.782 0-1.782zm21.41 12.093c-1.14 0-1.14 1.782 0 1.782s1.14-1.782 0-1.782zm-45.02-45.024c-1.15 0-1.15 1.782 0 1.782 1.14 0 1.16-1.782 0-1.782z" fill="#fff"/><path fill-rule="evenodd" clip-rule="evenodd" d="M1122.87 749.635l-2.16-1.236 2.21-1.14 1.23-2.186 1.16 2.21 2.17 1.259-2.21 1.14-1.24 2.186-1.16-2.233zm-111.65-48.279l-2.16-1.236 2.21-1.164 1.24-2.162 1.16 2.21 2.16 1.235-2.21 1.165-1.23 2.162-1.17-2.21zm86.2 3.779l-2.18-1.235 2.23-1.165 1.23-2.162 1.17 2.21 2.16 1.235-2.21 1.165-1.23 2.185-1.17-2.233zm-12.85 69.662l-4.28-2.448 4.37-2.281 2.43-4.276 2.3 4.348 4.28 2.447-4.37 2.305-2.45 4.276-2.28-4.371z" fill="#fff"/><path d="M1253.35 869.519c-1.14 0-1.14-1.782 0-1.782 1.16 0 1.16 1.782 0 1.782zm26.35 21.406c-1.14 0-1.14-1.782 0-1.782s1.14 1.782 0 1.782zm-54.34 10.43c-1.14 0-1.14-1.782 0-1.782s1.14 1.782 0 1.782zm26.35-1.093c-1.14 0-1.14-1.782 0-1.782s1.14 1.782 0 1.782zm-73.01 27.441c-1.14 0-1.14-1.781 0-1.781 1.16 0 1.16 1.781 0 1.781zm.57-23.592c-1.14 0-1.14-1.782 0-1.782s1.14 1.782 0 1.782zm21.41-12.093c-1.15 0-1.15-1.782 0-1.782 1.14 0 1.14 1.782 0 1.782zm-45.03 45.024c-1.14 0-1.14-1.782 0-1.782s1.17 1.782 0 1.782z" fill="#fff"/><path fill-rule="evenodd" clip-rule="evenodd" d="M1273.66 868.093l-2.16 1.236 2.21 1.14 1.24 2.186 1.16-2.21 2.16-1.259-2.21-1.14-1.23-2.186-1.17 2.233zm-111.64 48.279l-2.16 1.236 2.21 1.164 1.23 2.162 1.17-2.21 2.16-1.235-2.21-1.164-1.24-2.162-1.16 2.209zm86.2-3.779l-2.19 1.236 2.23 1.164 1.24 2.162 1.16-2.21 2.17-1.235-2.21-1.164-1.24-2.186-1.16 2.233zm-12.86-69.661l-4.27 2.447 4.37 2.281 2.42 4.276 2.31-4.348 4.27-2.447-4.37-2.304-2.45-4.277-2.28 4.372z" fill="#fff"/><path d="M1469.8 675.967c-1.14 0-1.14-1.782 0-1.782 1.17 0 1.17 1.782 0 1.782zm26.35 21.406c-1.14 0-1.14-1.782 0-1.782s1.14 1.782 0 1.782zm-54.33 10.43c-1.14 0-1.14-1.782 0-1.782s1.14 1.782 0 1.782zm26.34-1.093c-1.14 0-1.14-1.782 0-1.782 1.15 0 1.15 1.782 0 1.782zm-73.01 27.441c-1.14 0-1.14-1.782 0-1.782 1.17 0 1.17 1.782 0 1.782zm.57-23.592c-1.14 0-1.14-1.782 0-1.782s1.14 1.782 0 1.782zm21.41-12.093c-1.14 0-1.14-1.782 0-1.782s1.14 1.782 0 1.782zm-45.02 45.024c-1.14 0-1.14-1.782 0-1.782s1.16 1.782 0 1.782z" fill="#fff"/><path fill-rule="evenodd" clip-rule="evenodd" d="M1490.12 674.541l-2.16 1.236 2.21 1.14 1.23 2.186 1.17-2.21 2.16-1.259-2.21-1.14-1.24-2.186-1.16 2.233zm-111.65 48.279l-2.16 1.236 2.21 1.164 1.24 2.162 1.16-2.21 2.16-1.235-2.21-1.164-1.23-2.163-1.17 2.21zm86.2-3.779l-2.18 1.235 2.23 1.165 1.24 2.162 1.16-2.21 2.16-1.235-2.21-1.165-1.23-2.185-1.17 2.233z" fill="#fff"/><circle opacity=".8" r="3.533" transform="matrix(-1 0 0 1 1316.07 551.824)" fill="#fff"/><circle opacity=".8" r="1.796" transform="matrix(-1 0 0 1 1423.43 634.637)" fill="#fff"/><circle opacity=".8" r="3.533" transform="matrix(-1 0 0 1 1525.41 687.56)" fill="#fff"/><circle opacity=".8" r="1.631" transform="matrix(-1 0 0 1 1249.61 531.641)" fill="#fff"/><path d="M525.219 640.639c0-1.14 1.782-1.14 1.782 0 0 1.165-1.782 1.165-1.782 0zm-21.406 26.35c0-1.141 1.782-1.141 1.782 0 0 1.14-1.782 1.14-1.782 0zm-10.43-54.338c0-1.14 1.782-1.14 1.782 0 0 1.141-1.782 1.141-1.782 0zM494.476 639c0-1.14 1.782-1.14 1.782 0 0 1.141-1.782 1.141-1.782 0zm-27.441-73.012c0-1.14 1.782-1.14 1.782 0 0 1.164-1.782 1.164-1.782 0zm23.592.57c0-1.14 1.782-1.14 1.782 0 0 1.141-1.782 1.141-1.782 0zm12.093 21.407c0-1.14 1.782-1.14 1.782 0 0 1.141-1.782 1.141-1.782 0zm-45.024-45.024c0-1.14 1.782-1.14 1.782 0 0 1.141-1.782 1.165-1.782 0z" fill="#fff"/><path fill-rule="evenodd" clip-rule="evenodd" d="M526.645 660.954l-1.236-2.162-1.14 2.209-2.186 1.236 2.21 1.164 1.259 2.162 1.14-2.21 2.186-1.235-2.233-1.164zm-48.279-111.645l-1.235-2.162-1.165 2.21-2.162 1.235 2.21 1.164 1.235 2.162 1.165-2.209 2.162-1.236-2.21-1.164zm3.779 86.199l-1.235-2.186-1.165 2.233-2.162 1.236 2.21 1.164 1.235 2.162 1.165-2.21 2.185-1.235-2.233-1.164zm69.662-12.854l-2.448-4.277-2.281 4.372-4.276 2.423 4.348 2.305 2.447 4.277 2.305-4.372 4.276-2.447-4.371-2.281z" fill="#fff"/><path d="M363.833 491.564c0-1.14-1.782-1.14-1.782 0 0 1.164 1.782 1.164 1.782 0zm21.407 26.349c0-1.14-1.782-1.14-1.782 0 0 1.141 1.782 1.141 1.782 0zm10.429-54.337c0-1.14-1.782-1.14-1.782 0 0 1.141 1.782 1.141 1.782 0zm-1.093 26.349c0-1.141-1.782-1.141-1.782 0 0 1.14 1.782 1.14 1.782 0zm27.442-73.012c0-1.141-1.782-1.141-1.782 0 0 1.164 1.782 1.164 1.782 0zm-23.593.57c0-1.141-1.781-1.141-1.781 0 0 1.14 1.781 1.14 1.781 0zm-12.093 21.407c0-1.14-1.782-1.14-1.782 0s1.782 1.14 1.782 0zm45.025-45.024c0-1.14-1.782-1.14-1.782 0 0 1.141 1.782 1.164 1.782 0z" fill="#fff"/><path fill-rule="evenodd" clip-rule="evenodd" d="M362.407 511.878l1.236-2.162 1.14 2.21 2.186 1.235-2.209 1.165-1.26 2.162-1.14-2.21-2.186-1.235 2.233-1.165zm48.279-111.644l1.236-2.162 1.164 2.209 2.162 1.236-2.209 1.164-1.236 2.162-1.164-2.21-2.162-1.235 2.209-1.164zm-3.779 86.198l1.236-2.185 1.164 2.233 2.162 1.235-2.21 1.165-1.235 2.162-1.164-2.21-2.186-1.235 2.233-1.165zm-69.661-12.853l2.447-4.277 2.281 4.372 4.277 2.423-4.348 2.305-2.448 4.276-2.304-4.371-4.277-2.448 4.372-2.28z" fill="#fff"/><path d="M242.524 642.36c0-1.14 1.781-1.14 1.781 0 0 1.164-1.781 1.164-1.781 0zm-21.407 26.349c0-1.14 1.782-1.14 1.782 0s-1.782 1.14-1.782 0zm-10.429-54.337c0-1.141 1.781-1.141 1.781 0 0 1.14-1.781 1.14-1.781 0zm1.092 26.349c0-1.141 1.782-1.141 1.782 0 0 1.14-1.782 1.14-1.782 0zm-27.441-73.012c0-1.141 1.782-1.141 1.782 0 0 1.164-1.782 1.164-1.782 0zm23.592.57c0-1.141 1.782-1.141 1.782 0 0 1.14-1.782 1.14-1.782 0zm12.093 21.407c0-1.141 1.782-1.141 1.782 0 0 1.14-1.782 1.14-1.782 0zM175 544.662c0-1.141 1.782-1.141 1.782 0 0 1.14-1.782 1.164-1.782 0z" fill="#fff"/><path fill-rule="evenodd" clip-rule="evenodd" d="M243.949 662.674l-1.235-2.162-1.141 2.21-2.186 1.235 2.21 1.164 1.259 2.163 1.141-2.21 2.186-1.236-2.234-1.164zM195.67 551.03l-1.235-2.163-1.164 2.21-2.163 1.236 2.21 1.164 1.236 2.162 1.164-2.21 2.162-1.235-2.21-1.164zm3.779 86.198l-1.235-2.186-1.164 2.234-2.162 1.235 2.209 1.164 1.236 2.162 1.164-2.209 2.186-1.236-2.234-1.164zm69.662-12.854l-2.447-4.276-2.281 4.371-4.277 2.424 4.348 2.305 2.447 4.276 2.305-4.372 4.276-2.447-4.371-2.281z" fill="#fff"/><path d="M436.076 858.815c0-1.14 1.782-1.14 1.782 0 0 1.164-1.782 1.164-1.782 0zm-21.407 26.349c0-1.14 1.782-1.14 1.782 0s-1.782 1.14-1.782 0zm-10.429-54.337c0-1.14 1.782-1.14 1.782 0s-1.782 1.14-1.782 0zm1.092 26.349c0-1.141 1.782-1.141 1.782 0 0 1.14-1.782 1.14-1.782 0zm-27.441-73.012c0-1.141 1.782-1.141 1.782 0 0 1.164-1.782 1.164-1.782 0zm23.592.57c0-1.141 1.782-1.141 1.782 0 0 1.14-1.782 1.14-1.782 0zm12.093 21.407c0-1.141 1.782-1.141 1.782 0 0 1.14-1.782 1.14-1.782 0zm-45.024-45.024c0-1.141 1.782-1.141 1.782 0 0 1.14-1.782 1.164-1.782 0z" fill="#fff"/><path fill-rule="evenodd" clip-rule="evenodd" d="M437.501 879.129l-1.235-2.162-1.141 2.21-2.186 1.235 2.21 1.164 1.259 2.163 1.141-2.21 2.186-1.236-2.234-1.164zm-48.279-111.644l-1.235-2.162-1.164 2.209-2.162 1.236 2.209 1.164 1.236 2.162 1.164-2.21 2.162-1.235-2.21-1.164zm3.779 86.198l-1.235-2.186-1.164 2.234-2.162 1.235 2.209 1.164 1.236 2.163 1.164-2.21 2.186-1.236-2.234-1.164z" fill="#fff"/><circle opacity=".8" r="3.533" transform="matrix(0 -1 -1 0 560.218 705.082)" fill="#fff"/><circle opacity=".8" r="1.796" transform="matrix(0 -1 -1 0 477.406 812.438)" fill="#fff"/><circle opacity=".8" r="3.533" transform="matrix(0 -1 -1 0 424.482 914.42)" fill="#fff"/><circle opacity=".8" r="1.631" transform="matrix(0 -1 -1 0 580.402 638.618)" fill="#fff"/><path d="M56.629 755.823c-1.14 0-1.14-1.782 0-1.782 1.164 0 1.164 1.782 0 1.782zm26.349 21.406c-1.14 0-1.14-1.782 0-1.782s1.14 1.782 0 1.782zm-54.338 10.43c-1.14 0-1.14-1.782 0-1.782 1.141 0 1.141 1.782 0 1.782zm26.35-1.094c-1.141 0-1.141-1.782 0-1.782 1.14 0 1.14 1.782 0 1.782z" fill="#fff"/><path fill-rule="evenodd" clip-rule="evenodd" d="M76.943 754.397l-2.162 1.236 2.21 1.14 1.235 2.186 1.164-2.209 2.162-1.26-2.21-1.14-1.235-2.186-1.164 2.233zm-25.446 44.498l-2.186 1.236 2.233 1.164 1.236 2.162 1.164-2.209 2.162-1.236-2.21-1.164-1.235-2.186-1.164 2.233zm-12.854-69.66l-4.276 2.447 4.371 2.281 2.424 4.277 2.304-4.348 4.277-2.447-4.372-2.305-2.447-4.277-2.28 4.372z" fill="#fff"/><path d="M274.804 844.968c-1.14 0-1.14-1.782 0-1.782 1.164 0 1.164 1.782 0 1.782zm26.349 21.406c-1.14 0-1.14-1.782 0-1.782 1.141 0 1.141 1.782 0 1.782zm-54.337 10.43c-1.14 0-1.14-1.782 0-1.782 1.141 0 1.141 1.782 0 1.782zm26.349-1.093c-1.141 0-1.141-1.782 0-1.782 1.14 0 1.14 1.782 0 1.782zm-73.012 27.441c-1.141 0-1.141-1.782 0-1.782 1.164 0 1.164 1.782 0 1.782zm.57-23.592c-1.141 0-1.141-1.782 0-1.782 1.14 0 1.14 1.782 0 1.782zm21.407-12.093c-1.14 0-1.14-1.782 0-1.782s1.14 1.782 0 1.782zm-45.024 45.024c-1.14 0-1.14-1.782 0-1.782 1.141 0 1.164 1.782 0 1.782z" fill="#fff"/><path fill-rule="evenodd" clip-rule="evenodd" d="M295.119 843.542l-2.163 1.236 2.21 1.14 1.236 2.186 1.164-2.21 2.162-1.259-2.21-1.14-1.235-2.186-1.164 2.233zm-111.645 48.279l-2.162 1.235 2.209 1.165 1.236 2.162 1.164-2.21 2.162-1.235-2.209-1.165-1.236-2.162-1.164 2.21zm86.199-3.779l-2.186 1.235 2.233 1.165 1.236 2.162 1.164-2.21 2.162-1.235-2.21-1.165-1.235-2.185-1.164 2.233z" fill="#fff"/><circle opacity=".8" r="3.533" transform="matrix(-1 0 0 1 121.071 720.824)" fill="#fff"/><circle opacity=".8" r="1.796" transform="matrix(-1 0 0 1 228.427 803.636)" fill="#fff"/><circle opacity=".8" r="3.533" transform="matrix(-1 0 0 1 330.409 856.56)" fill="#fff"/><circle opacity=".8" r="1.631" transform="matrix(-1 0 0 1 54.608 700.641)" fill="#fff"/><defs><linearGradient id="paint0_linear" x1="767" y1="0" x2="767" y2="942" gradientUnits="userSpaceOnUse"><stop stop-color="#C3BBD6"/><stop offset=".516" stop-color="#CFCAE7"/><stop offset="1" stop-color="#FFE1D5"/></linearGradient></defs></svg>