<svg width="165" height="31" fill="none" xmlns="http://www.w3.org/2000/svg"><path fill-rule="evenodd" clip-rule="evenodd" d="M58.199 12.105l.049.076 1.234-.63-.06-.094c-1.444-2.208-3.998-3.555-7.578-3.555-2.839 0-5.11.792-6.672 2.204-1.563 1.413-2.407 3.44-2.407 5.885 0 2.446.844 4.472 2.402 5.885 1.556 1.412 3.817 2.204 6.634 2.204 3.622 0 6.177-1.346 7.62-3.555l.061-.093-1.235-.63-.049.076c-1.247 1.966-3.447 2.947-6.375 2.947-2.342 0-4.27-.61-5.611-1.763-1.34-1.152-2.105-2.856-2.105-5.07 0-2.216.766-3.92 2.105-5.071 1.342-1.154 3.27-1.763 5.61-1.763 2.928 0 5.108.98 6.377 2.947zM77.413 22.372H64.34V16.48h11.025v-1.255H64.34V9.588h12.855V8.356H63.022v15.273h14.39v-1.257zM94.48 22.372H82.574V8.355h-1.32v15.273h13.228v-1.256zM111.919 22.372h-13.07V16.48h11.025v-1.255H98.849V9.588h12.855V8.356H97.529v15.273h14.39v-1.257zM117.13 15.322c1.45.612 3.385.909 5.334 1.092 2.166.204 3.864.451 5.02.903.577.225 1.011.499 1.3.837.287.335.437.74.437 1.24 0 .978-.549 1.832-1.621 2.445-1.075.616-2.671.986-4.739.986-3.19 0-5.893-.92-7.72-2.939l-.07-.077-.962.937.066.072c1.983 2.158 5.136 3.262 8.643 3.262 2.478 0 4.41-.508 5.726-1.356 1.318-.85 2.019-2.043 2.019-3.395 0-.725-.2-1.33-.575-1.832-.374-.5-.918-.894-1.597-1.206-1.354-.625-3.27-.938-5.521-1.132-1.884-.172-3.601-.397-4.844-.837-1.247-.44-1.977-1.079-1.977-2.056 0-1.047.818-1.83 2.036-2.352 1.215-.52 2.794-.767 4.237-.756 2.656.021 4.906.706 6.388 2.293l.064.07 1.04-.863-.077-.077c-1.595-1.617-4.163-2.679-7.457-2.679-1.949 0-3.84.384-5.247 1.12-1.406.737-2.346 1.836-2.346 3.265 0 1.48.991 2.422 2.443 3.035zM147.675 9.567l.001-1.212H131.65v1.212h7.342v14.06h1.319V9.568h7.364zM165 22.372h-12.97V16.48h11.024v-1.255H152.03V9.588h12.754V8.356H150.71v15.273H165v-1.257z" fill="#432D89"/><path d="M16.298 19.352c10.35 0 15.82-2.71 16.245-2.93.014-.01.02-.023.026-.037.016-.292.027-.586.027-.883 0-.297-.01-.591-.027-.883-.003-.014-.009-.03-.026-.036-.426-.221-5.895-2.93-16.245-2.93C5.948 11.652.48 14.358.053 14.58c-.014.009-.02.023-.025.037-.017.294-.028.585-.028.882 0 .297.011.591.028.883.003.014.008.03.025.036.426.222 5.895 2.934 16.245 2.934z" fill="url(#paint0_radial)"/><path d="M16.298 5.184c-6.514 0-11.09 1.073-13.692 1.922a14.977 14.977 0 00-2.284 5.326.045.045 0 00.042.005c1.331-.616 6.677-2.782 15.934-2.782 9.258 0 14.604 2.166 15.934 2.783.014.005.031.002.042-.006a15 15 0 00-2.283-5.326c-2.606-.85-7.178-1.922-13.693-1.922z" fill="url(#paint1_radial)"/><path d="M4.727 26.414c2.953 2.833 7.046 4.587 11.571 4.587 4.525 0 8.619-1.754 11.572-4.587-2.701.68-6.56 1.314-11.572 1.314s-8.87-.633-11.571-1.314z" fill="url(#paint2_radial)"/><path d="M4.727 4.586C7.68 1.753 11.773-.001 16.298-.001c4.525 0 8.619 1.754 11.572 4.587-2.701-.68-6.56-1.314-11.572-1.314s-8.87.633-11.571 1.314z" fill="url(#paint3_radial)"/><path d="M16.298 25.776c-6.514 0-11.09-1.073-13.692-1.922a14.977 14.977 0 01-2.284-5.326.044.044 0 01.042-.006c1.331.617 6.677 2.783 15.934 2.783 9.258 0 14.604-2.166 15.934-2.783a.044.044 0 01.042.006 14.999 14.999 0 01-2.283 5.326c-2.606.852-7.178 1.922-13.693 1.922z" fill="url(#paint4_radial)"/><defs><radialGradient id="paint0_radial" cx="0" cy="0" r="1" gradientUnits="userSpaceOnUse" gradientTransform="rotate(11.066 -65.358 -41.838) scale(45.2505)"><stop stop-color="#FEAE6F"/><stop offset=".316" stop-color="#FF9B73"/><stop offset=".631" stop-color="#D66F8D"/><stop offset=".855" stop-color="#8E54A5"/><stop offset=".991" stop-color="#6050B0"/></radialGradient><radialGradient id="paint1_radial" cx="0" cy="0" r="1" gradientUnits="userSpaceOnUse" gradientTransform="rotate(9.144 -62.615 21.757) scale(41.4333 25.0568)"><stop offset=".021" stop-color="#FEAE6F"/><stop offset=".497" stop-color="#D66F8D"/><stop offset=".795" stop-color="#8E54A5"/><stop offset=".984" stop-color="#7652AB"/></radialGradient><radialGradient id="paint2_radial" cx="0" cy="0" r="1" gradientUnits="userSpaceOnUse" gradientTransform="translate(10.47 19.046) scale(19.3845)"><stop offset=".071" stop-color="#FF9B73"/><stop offset=".261" stop-color="#F4A575"/><stop offset=".368" stop-color="#EE977B"/><stop offset=".57" stop-color="#DF7389"/><stop offset=".607" stop-color="#DC6B8C"/><stop offset=".612" stop-color="#DA6B8D"/><stop offset=".731" stop-color="#B06099"/><stop offset=".839" stop-color="#9259A2"/><stop offset=".931" stop-color="#8055A7"/><stop offset=".996" stop-color="#7953A9"/></radialGradient><radialGradient id="paint3_radial" cx="0" cy="0" r="1" gradientUnits="userSpaceOnUse" gradientTransform="rotate(1.325 -451.653 247.64) scale(24.2423)"><stop offset=".109" stop-color="#FEAE6F"/><stop offset=".391" stop-color="#FEAE6F"/><stop offset=".641" stop-color="#DF7389"/><stop offset=".907" stop-color="#B56398"/><stop offset=".996" stop-color="#7852AA"/></radialGradient><radialGradient id="paint4_radial" cx="0" cy="0" r="1" gradientUnits="userSpaceOnUse" gradientTransform="rotate(4.712 -233.465 -201.882) scale(51.1663)"><stop offset=".071" stop-color="#FF9B73"/><stop offset=".39" stop-color="#F4A575"/><stop offset=".589" stop-color="#DF7389"/><stop offset=".645" stop-color="#DC6B8C"/><stop offset=".915" stop-color="#7953A9"/></radialGradient></defs></svg>