<svg width="24" height="24" fill="none" xmlns="http://www.w3.org/2000/svg"><path fill-rule="evenodd" clip-rule="evenodd" d="M12 24c6.627 0 12-5.373 12-12S18.627 0 12 0 0 5.373 0 12s5.373 12 12 12z" fill="url(#paint0_linear)"/><path d="M8.378 9.48c.976.333 2.27.516 3.643.516 1.374 0 2.668-.183 3.644-.516 1.04-.354 1.613-.852 1.613-1.401s-.573-1.047-1.613-1.401c-.976-.333-2.27-.516-3.643-.516-1.374 0-2.668.183-3.644.516-1.04.354-1.613.852-1.613 1.401s.573 1.047 1.613 1.401z" fill="#fff"/><path opacity=".668" fill-rule="evenodd" clip-rule="evenodd" d="M16.92 10.212a.56.56 0 00-.274.085c-.15.085-.338.15-.538.219l-.058.02c-1.093.377-2.523.585-4.028.585-1.506 0-2.936-.208-4.029-.585-.309-.107-.395-.14-.509-.2a.704.704 0 00-.32-.091c-.21 0-.34.141-.375.28a.821.821 0 00-.024.198c0 .557.573 1.062 1.613 1.421.976.338 2.27.524 3.643.524 1.374 0 2.668-.186 3.644-.523 1.04-.36 1.613-.865 1.613-1.421a.83.83 0 00-.042-.26c-.072-.22-.229-.252-.316-.252z" fill="url(#paint1_linear)"/><path opacity=".668" fill-rule="evenodd" clip-rule="evenodd" d="M16.92 12.797a.56.56 0 00-.273.085c-.15.085-.339.15-.539.219l-.058.02c-1.093.378-2.523.586-4.028.586-1.506 0-2.936-.208-4.029-.586-.309-.107-.395-.14-.509-.2a.704.704 0 00-.32-.09c-.21 0-.34.14-.375.28a.821.821 0 00-.024.198c0 .556.573 1.061 1.613 1.42.976.338 2.27.524 3.643.524 1.374 0 2.668-.186 3.644-.523 1.04-.36 1.613-.865 1.613-1.421a.83.83 0 00-.042-.26c-.072-.22-.229-.252-.316-.252z" fill="url(#paint2_linear)"/><path opacity=".668" fill-rule="evenodd" clip-rule="evenodd" d="M16.92 15.382a.56.56 0 00-.273.086c-.15.084-.34.15-.54.218l-.057.02c-1.093.378-2.523.586-4.028.586-1.506 0-2.936-.208-4.029-.586-.309-.107-.395-.14-.509-.199a.704.704 0 00-.32-.091c-.21 0-.34.14-.375.28a.82.82 0 00-.024.198c0 .557.573 1.061 1.613 1.421.976.337 2.27.523 3.643.523 1.374 0 2.668-.186 3.644-.523 1.04-.36 1.613-.864 1.613-1.421a.832.832 0 00-.042-.26c-.072-.219-.229-.252-.316-.252z" fill="url(#paint3_linear)"/><defs><linearGradient id="paint0_linear" x1="-7.985" y1="1.498" x2="38.006" y2="28.148" gradientUnits="userSpaceOnUse"><stop stop-color="#FFD9A2"/><stop offset="1" stop-color="#FFAE8D"/></linearGradient><linearGradient id="paint1_linear" x1="25.849" y1="12.844" x2="25.206" y2="8.937" gradientUnits="userSpaceOnUse"><stop stop-color="#fff" stop-opacity=".01"/><stop offset="1" stop-color="#fff"/></linearGradient><linearGradient id="paint2_linear" x1="25.849" y1="15.429" x2="25.206" y2="11.522" gradientUnits="userSpaceOnUse"><stop stop-color="#fff" stop-opacity=".01"/><stop offset="1" stop-color="#fff"/></linearGradient><linearGradient id="paint3_linear" x1="25.849" y1="18.014" x2="25.206" y2="14.107" gradientUnits="userSpaceOnUse"><stop stop-color="#fff" stop-opacity=".01"/><stop offset="1" stop-color="#fff"/></linearGradient></defs></svg>