<svg width="56" height="57" fill="none" xmlns="http://www.w3.org/2000/svg"><path d="M54.98 28.575c0 14.894-12.075 26.968-26.969 26.968-14.894 0-26.968-12.074-26.968-26.968 0-14.895 12.074-26.969 26.968-26.969S54.98 13.68 54.98 28.574z" stroke="#FEC3C3" stroke-width="1.8"/><path opacity=".7" d="M24.268 37.233c0 .914.749 1.664 1.663 1.664h8.624l-1.106 5.277a1.86 1.86 0 00.507 1.712l1.322 1.324 8.214-8.214a2.48 2.48 0 00.732-1.763V26.428a2.49 2.49 0 00-2.494-2.495H30.504c-1.03 0-1.918.624-2.295 1.521l-3.766 8.798c-.108.281-.175.58-.175.905v2.078-.002z" fill="url(#paint0_linear)"/><path d="M32.25 21.939a1.668 1.668 0 00-1.663-1.663h-8.624l1.106-5.278a1.86 1.86 0 00-.506-1.711l-1.323-1.324-8.214 8.213a2.483 2.483 0 00-.732 1.763v10.805a2.49 2.49 0 002.494 2.495h11.226c1.03 0 1.918-.624 2.295-1.52l3.766-8.795c.108-.283.175-.583.175-.907V21.94z" fill="url(#paint1_linear)"/><defs><linearGradient id="paint0_linear" x1="22.725" y1="45.219" x2="44.516" y2="30.46" gradientUnits="userSpaceOnUse"><stop stop-color="#FF6969"/><stop offset="1" stop-color="#F88"/></linearGradient><linearGradient id="paint1_linear" x1="-17.553" y1="61.098" x2="36.011" y2="23.265" gradientUnits="userSpaceOnUse"><stop stop-color="#FFA1A1"/><stop offset="1" stop-color="#FF6969"/></linearGradient></defs></svg>