<svg width="28" height="20" fill="none" xmlns="http://www.w3.org/2000/svg"><path fill-rule="evenodd" clip-rule="evenodd" d="M14.296 20c5.523 0 10-4.477 10-10s-4.477-10-10-10c-5.522 0-10 4.477-10 10s4.478 10 10 10zm8.822-10a8.822 8.822 0 11-17.643 0 8.822 8.822 0 0117.643 0z" fill="#818181"/><path fill-rule="evenodd" clip-rule="evenodd" d="M21.994 4.5l.132.184.221-.05.406-.086c1.27-.26 2.29-.358 3.008-.311.36.023.6.081.748.145.071.03.106.057.122.07l.005.005v.007c0 .02-.004.064-.028.138-.05.152-.167.371-.389.656-.441.567-1.192 1.264-2.23 2.041-2.067 1.547-5.13 3.314-8.697 4.917-3.569 1.602-6.923 2.719-9.452 3.235-1.271.26-2.29.359-3.008.312-.36-.024-.601-.082-.748-.145a.463.463 0 01-.122-.07l-.005-.005a.474.474 0 01.04-.18c.067-.18.216-.433.483-.754.507-.609 1.338-1.344 2.457-2.153l.184-.133-.05-.222a9.394 9.394 0 01-.091-.454l-.095-.537-.444.317c-1.234.88-2.208 1.72-2.828 2.466-.31.372-.543.734-.67 1.08-.129.345-.16.704-.014 1.031.136.303.396.51.707.646.31.134.691.207 1.122.235.862.057 1.994-.064 3.307-.332 2.632-.537 6.067-1.685 9.687-3.312 3.621-1.626 6.76-3.431 8.91-5.042 1.073-.803 1.915-1.57 2.445-2.251.265-.34.464-.675.57-.995.105-.323.123-.654-.014-.957-.146-.327-.436-.542-.78-.676-.342-.133-.77-.2-1.253-.216-.969-.031-2.245.139-3.722.477l-.531.122.338.427c.096.12.189.244.279.37z" fill="#818181"/><circle cx="12.099" cy="13.91" r="2.198" fill="#FFBF95"/></svg>