<svg width="57" height="56" fill="none" xmlns="http://www.w3.org/2000/svg"><path d="M20.287 22.858c2.105.717 4.895 1.113 7.857 1.113 2.962 0 5.752-.396 7.857-1.113 2.243-.765 3.479-1.838 3.479-3.022 0-1.184-1.236-2.257-3.48-3.022-2.104-.718-4.895-1.113-7.856-1.113-2.962 0-5.752.395-7.857 1.113-2.243.765-3.479 1.838-3.479 3.022 0 1.184 1.236 2.257 3.48 3.022z" fill="#B7F1DD"/><path fill-rule="evenodd" clip-rule="evenodd" d="M38.706 24.435c-.178 0-.37.06-.589.184-.322.183-.73.323-1.161.471l-.125.044c-2.356.814-5.44 1.263-8.687 1.263-3.246 0-6.331-.449-8.687-1.263-.666-.23-.851-.303-1.097-.43-.25-.13-.483-.197-.693-.197a.807.807 0 00-.806.605 1.77 1.77 0 00-.053.427c0 1.2 1.236 2.288 3.479 3.064 2.105.728 4.895 1.128 7.857 1.128 2.961 0 5.752-.4 7.857-1.128 2.243-.776 3.479-1.864 3.479-3.065 0-.186-.03-.374-.092-.56-.154-.472-.493-.543-.682-.543z" fill="#B7F1DD"/><path fill-rule="evenodd" clip-rule="evenodd" d="M38.706 30.01c-.177 0-.37.06-.589.184-.322.183-.73.323-1.16.471l-.126.044c-2.356.814-5.44 1.263-8.687 1.263-3.246 0-6.331-.449-8.687-1.263-.666-.23-.851-.303-1.097-.43-.25-.13-.483-.197-.693-.197a.807.807 0 00-.806.606 1.77 1.77 0 00-.053.426c0 1.2 1.236 2.289 3.479 3.064 2.105.728 4.895 1.129 7.857 1.129 2.961 0 5.752-.401 7.857-1.129 2.243-.775 3.479-1.864 3.479-3.064 0-.187-.03-.375-.092-.56-.154-.473-.493-.543-.681-.543zM38.706 35.586c-.178 0-.37.06-.589.184-.323.183-.73.323-1.162.472l-.124.043c-2.356.814-5.44 1.263-8.687 1.263-3.246 0-6.331-.45-8.687-1.264-.666-.23-.851-.302-1.097-.429-.25-.13-.483-.197-.693-.197a.807.807 0 00-.806.605 1.77 1.77 0 00-.053.426c0 1.2 1.236 2.289 3.479 3.065 2.105.727 4.895 1.128 7.857 1.128 2.961 0 5.752-.4 7.857-1.128 2.243-.776 3.479-1.864 3.479-3.065 0-.187-.03-.374-.092-.56-.154-.472-.493-.543-.682-.543z" fill="#9DEFD2"/><path d="M55.336 28c0 14.894-12.074 26.968-26.968 26.968S1.4 42.894 1.4 28 13.474 1.032 28.368 1.032 55.336 13.106 55.336 28z" stroke="#9DEFD2" stroke-width="1.8"/></svg>