<svg width="48" height="48" fill="none" xmlns="http://www.w3.org/2000/svg"><circle cx="24" cy="24" r="24" fill="url(#paint0_linear)" fill-opacity=".3"/><path d="M34.5 23.286v-2.143c0-.79-.672-1.429-1.5-1.429H16.5c-.827 0-1.5-.64-1.5-1.428 0-.788.673-1.429 1.5-1.429H33c.828 0 1.5-.64 1.5-1.428 0-.79-.672-1.429-1.5-1.429H16.5c-2.482 0-4.5 1.922-4.5 4.286v12.857C12 32.72 13.343 34 15 34h18c.828 0 1.5-.64 1.5-1.429V30.43c.828 0 1.5-.64 1.5-1.429v-4.286c0-.789-.672-1.428-1.5-1.428zm-2.25 5c-.828 0-1.5-.64-1.5-1.429s.672-1.428 1.5-1.428 1.5.64 1.5 1.428c0 .79-.672 1.429-1.5 1.429z" fill="url(#paint1_linear)"/><defs><linearGradient id="paint0_linear" x1="-15.97" y1="2.997" x2="76.012" y2="56.297" gradientUnits="userSpaceOnUse"><stop stop-color="#FFD9A2"/><stop offset="1" stop-color="#FFAE8D"/></linearGradient><linearGradient id="paint1_linear" x1="43.5" y1="6.5" x2="15.723" y2="35.199" gradientUnits="userSpaceOnUse"><stop stop-color="#FF9B73"/><stop offset="1" stop-color="#FFBE95"/></linearGradient></defs></svg>