<svg width="43" height="43" fill="none" xmlns="http://www.w3.org/2000/svg"><path fill-rule="evenodd" clip-rule="evenodd" d="M21.5 43C33.374 43 43 33.374 43 21.5S33.374 0 21.5 0 0 9.626 0 21.5 9.626 43 21.5 43z" fill="url(#paint0_linear)"/><path fill-rule="evenodd" clip-rule="evenodd" d="M21.5 43C33.374 43 43 33.374 43 21.5S33.374 0 21.5 0 0 9.626 0 21.5 9.626 43 21.5 43z" fill="url(#paint1_linear)"/><path d="M9.559 10.318l3.736 1.562a.115.115 0 00.145-.053l1.853-3.602c.05-.091.184-.077.206.021l1.107 3.894a.115.115 0 00.132.081l3.969-.8c.098-.02.175.093.117.176l-2.355 3.293c-.031.047-.026.114.018.15l3.098 2.602a.113.113 0 01-.069.198l-4.044.213c-.06.005-.106.053-.105.108l-.104 4.048c-.003.1-.129.148-.197.074l-2.684-3.027a.107.107 0 00-.15-.014l-3.228 2.443a.113.113 0 01-.18-.112l.694-3.99a.115.115 0 00-.085-.129L7.51 16.451c-.1-.026-.117-.16-.027-.205l3.55-1.948a.115.115 0 00.05-.147l-1.662-3.693c-.056-.086.037-.182.137-.14z" fill="#fff"/><path d="M21.494 21.514l2.75.89 2.303-1.76v2.89l2.382 1.644-2.754.893-.82 2.777-1.701-2.341-2.89.076 1.694-2.344-.964-2.725zM33.178 32.403a1.792 1.792 0 10-2.568-2.5 1.792 1.792 0 002.568 2.5z" fill="#FFF0D9"/><defs><linearGradient id="paint0_linear" x1="13.334" y1="60.41" x2="55.508" y2="27.093" gradientUnits="userSpaceOnUse"><stop stop-color="#FFB36D"/><stop offset="1" stop-color="#F88"/></linearGradient><linearGradient id="paint1_linear" x1="-14.306" y1="2.685" x2="68.094" y2="50.432" gradientUnits="userSpaceOnUse"><stop stop-color="#FFECD0"/><stop offset="1" stop-color="#FFD7C6"/></linearGradient></defs></svg>