<svg width="44" height="44" fill="none" xmlns="http://www.w3.org/2000/svg"><path d="M22.491 43.49c11.874 0 21.5-9.626 21.5-21.5 0-11.875-9.626-21.5-21.5-21.5s-21.5 9.625-21.5 21.5c0 11.874 9.626 21.5 21.5 21.5z" fill="url(#paint0_linear)"/><path d="M19.908 27.8c0 .68.557 1.239 1.238 1.239h6.422l-.824 3.93c-.099.461.043.942.378 1.274l.985.986 6.117-6.116c.335-.335.545-.798.545-1.313v-8.047c0-1.027-.83-1.857-1.858-1.857h-8.36c-.766 0-1.428.464-1.708 1.132l-2.805 6.552c-.08.21-.13.432-.13.674v1.548-.002z" fill="#FFC297" fill-opacity=".7"/><path d="M25.852 16.41a1.242 1.242 0 00-1.239-1.238h-6.422l.824-3.93c.1-.462-.043-.943-.377-1.275l-.985-.986-6.117 6.117a1.85 1.85 0 00-.545 1.312v8.047c0 1.028.83 1.858 1.857 1.858h8.36c.767 0 1.429-.465 1.71-1.133l2.804-6.549c.08-.21.13-.433.13-.674V16.41z" fill="#fff"/><defs><linearGradient id="paint0_linear" x1="-13.315" y1="3.174" x2="69.085" y2="50.922" gradientUnits="userSpaceOnUse"><stop stop-color="#FFECD0"/><stop offset="1" stop-color="#FFD7C6"/></linearGradient></defs></svg>