<svg width="44" height="44" fill="none" xmlns="http://www.w3.org/2000/svg"><path d="M22.419 43.49c11.874 0 21.5-9.626 21.5-21.5 0-11.875-9.626-21.5-21.5-21.5s-21.5 9.625-21.5 21.5c0 11.874 9.626 21.5 21.5 21.5z" fill="url(#paint0_linear)"/><path d="M31.513 17.221c-.938-1.152-2.211-2.062-3.82-2.73-1.61-.668-3.368-1.002-5.274-1.002-1.422 0-2.781.198-4.078.592-1.297.395-2.414.928-3.352 1.6-.937.671-1.683 1.47-2.238 2.396-.555.925-.832 1.896-.832 2.911 0 1.172.353 2.27 1.06 3.293.708 1.023 1.674 1.882 2.9 2.578-.085.312-.187.609-.304.89a9.092 9.092 0 01-.316.691 4.76 4.76 0 01-.381.598c-.16.218-.281.373-.363.463l-.405.445-.363.404a.828.828 0 00-.094.106l-.082.099-.07.105c-.04.059-.057.096-.053.111a.314.314 0 01-.023.117c-.02.063-.018.11.005.141v.012c.032.14.1.254.206.34a.459.459 0 00.357.105 8.802 8.802 0 001.336-.258c2.047-.523 3.844-1.468 5.39-2.835.587.062 1.153.093 1.7.093 1.906 0 3.664-.334 5.273-1.002 1.61-.667 2.883-1.578 3.82-2.73.938-1.151 1.407-2.407 1.407-3.766 0-1.36-.469-2.615-1.406-3.767z" fill="#fff"/><defs><linearGradient id="paint0_linear" x1="-13.387" y1="3.174" x2="69.013" y2="50.922" gradientUnits="userSpaceOnUse"><stop stop-color="#FFECD0"/><stop offset="1" stop-color="#FFD7C6"/></linearGradient></defs></svg>