<svg width="202" height="202" fill="none" xmlns="http://www.w3.org/2000/svg"><circle cx="101" cy="100.939" r="100.502" fill="#BFB9DF" fill-opacity=".3"/><path fill-rule="evenodd" clip-rule="evenodd" d="M167.932 165.11l1.8-1.03-1.84-.96-1.02-1.8-.97 1.83-1.8 1.03 1.84.97 1.03 1.8.96-1.84z" fill="#fff"/><circle cx="101" cy="100.939" r="58.903" fill="url(#paint0_linear)" fill-opacity=".05"/><circle cx="101" cy="100.939" r="44.848" fill="url(#paint1_linear)"/><path d="M125.799 33.416c.48 0 .48-.75 0-.75-.49 0-.49.75 0 .75zM114.709 42.426c.48 0 .48-.75 0-.75s-.48.75 0 .75zM137.579 46.815c.48 0 .48-.75 0-.75s-.48.75 0 .75zM126.489 46.355c.48 0 .48-.75 0-.75s-.48.75 0 .75zM157.219 57.905c.48 0 .48-.75 0-.75-.49 0-.49.75 0 .75zM156.979 47.976c.48 0 .48-.75 0-.75s-.48.75 0 .75zM147.969 42.886c.48 0 .48-.75 0-.75s-.48.75 0 .75zM166.919 61.836c.48 0 .48-.75 0-.75s-.49.75 0 .75z" fill="#fff"/><path fill-rule="evenodd" clip-rule="evenodd" d="M117.249 32.816l.91.52-.93.48-.52.92-.49-.93-.91-.53.93-.48.52-.92.49.94zM164.239 53.136l.91.52-.93.49-.52.91-.49-.93-.91-.52.93-.49.52-.91.49.93zM127.959 51.545l.92.52-.94.49-.52.91-.49-.93-.91-.52.93-.49.52-.92.49.94zM133.369 22.226l1.8 1.03-1.84.96-1.02 1.8-.97-1.83-1.8-1.03 1.84-.97 1.03-1.8.96 1.84z" fill="#fff"/><path d="M188.543 101.342c.48 0 .48.75 0 .75-.49 0-.49-.75 0-.75zM177.453 92.332c.48 0 .48.75 0 .75s-.48-.75 0-.75zM189.233 88.402c.48 0 .48.75 0 .75s-.48-.75 0-.75z" fill="#fff"/><path fill-rule="evenodd" clip-rule="evenodd" d="M179.993 101.942l.91-.52-.93-.48-.52-.92-.49.93-.91.53.93.48.52.92.49-.94zM190.703 83.212l.92-.52-.94-.49-.52-.91-.49.93-.91.52.93.49.52.92.49-.94zM196.113 112.532l1.8-1.03-1.84-.96-1.02-1.8-.97 1.83-1.8 1.03 1.84.97 1.03 1.8.96-1.84z" fill="#fff"/><path d="M46.493 156.634c.48 0 .48-.75 0-.75-.49 0-.49.75 0 .75zM35.404 165.643c.48 0 .48-.75 0-.75s-.48.75 0 .75zM58.273 170.033c.48 0 .48-.75 0-.75s-.48.75 0 .75zM47.184 169.573c.48 0 .48-.75 0-.75s-.48.75 0 .75zM77.913 181.123c.48 0 .48-.75 0-.75-.49 0-.49.75 0 .75zM77.674 171.193c.48 0 .48-.75 0-.75s-.48.75 0 .75zM68.663 166.103c.48 0 .48-.75 0-.75s-.48.75 0 .75zM87.614 185.053c.48 0 .48-.75 0-.75s-.49.75 0 .75z" fill="#fff"/><path fill-rule="evenodd" clip-rule="evenodd" d="M37.943 156.033l.91.52-.93.48-.52.92-.49-.93-.91-.53.93-.48.52-.92.49.94zM84.933 176.354l.91.52-.93.49-.52.91-.49-.93-.91-.52.93-.49.52-.91.49.93zM48.653 174.763l.92.52-.94.49-.52.91-.49-.93-.91-.52.93-.49.52-.92.49.94zM54.063 145.443l1.8 1.03-1.84.96-1.02 1.8-.97-1.83-1.8-1.03 1.84-.97 1.03-1.8.96 1.84z" fill="#fff"/><path opacity=".1" fill-rule="evenodd" clip-rule="evenodd" d="M115.707 58.558A44.786 44.786 0 00101 56.09a44.638 44.638 0 00-23.232 6.478c2.453 4.71 8.094 6.879 13.207 8.586 9.03 3.02 18.23 6.07 27.74 6.23 1.17.02 2.345-.003 3.52-.027 4.155-.082 8.306-.165 12.22 1.667 1.85.87 3 2.84 2.71 4.86-.48 3.32-4.14 3.93-7.11 4-8.606.2-17.201-.33-25.797-.86-7.714-.476-15.429-.952-23.153-.9-7.742.057-15.621.703-23.2 2.356a44.868 44.868 0 00-1.753 12.458c0 24.769 20.08 44.848 44.848 44.848 3.43 0 6.769-.385 9.978-1.114l-.033-.008c-15.46-3.55-31.57-7.42-43.71-17.64-1.57-1.32-3.12-2.84-3.73-4.8-1.14-3.7 1.51-7.59 4.74-9.71 5.22-3.42 11.95-3.83 18.07-2.6 5.36 1.078 10.4 3.306 15.411 5.522.71.314 1.42.628 2.129.938 7.25 3.17 14.63 6.01 22.13 8.53 3.602 1.209 7.277 2.352 11.038 2.754a44.713 44.713 0 006.799-13.352c-1.76-1.152-3.798-1.918-5.807-2.592-5.949-2.001-12.059-3.481-18.166-4.96-7.534-1.825-15.065-3.649-22.284-6.45-.96-.37-2.05-.92-2.22-1.94-.12-.73.31-1.44.79-2 4.012-4.612 11.245-3.009 17.294-1.667l.576.127c9.03 2 18.5 2.01 27.54.04a23.875 23.875 0 003.727-1.131 44.639 44.639 0 00-9.161-20.7c-1.981-.566-3.99-1.066-6-1.567-3.373-.84-6.751-1.682-10.016-2.832-1.54-.54-3.04-1.15-4.53-1.81-3.864-1.717-3.23-6.945.142-8.267z" fill="#fff"/><path fill-rule="evenodd" clip-rule="evenodd" d="M137.491 74.86a117.42 117.42 0 011.88-.4c5.873-1.2 10.694-1.683 14.179-1.455 1.744.114 3.045.4 3.944.79.885.385 1.246.804 1.397 1.14.151.336.225.884-.076 1.8-.306.932-.956 2.094-2.029 3.474-2.144 2.757-5.708 6.04-10.505 9.634-9.568 7.166-23.687 15.301-40.084 22.666-16.397 7.365-31.856 12.516-43.568 14.908-5.873 1.2-10.694 1.683-14.179 1.455-1.745-.115-3.045-.401-3.944-.791-.885-.384-1.246-.803-1.397-1.139-.162-.36-.236-.973.152-2.019.392-1.055 1.193-2.364 2.476-3.904 2.44-2.93 6.358-6.382 11.525-10.12a44.751 44.751 0 01-.432-2.152c-11.195 7.977-17.334 15.032-15.546 19.014 3.323 7.398 32.753 1.386 65.733-13.428 32.98-14.813 57.022-32.82 53.699-40.218-1.789-3.982-11.144-4.078-24.546-1.007.454.573.895 1.157 1.321 1.752z" fill="#fff"/><circle cx="82.534" cy="122.698" r="6.808" fill="url(#paint2_linear)"/><circle cx="170.913" cy="42.036" r="1.487" fill="url(#paint3_linear)" fill-opacity=".05"/><circle cx="82.535" cy="45.01" r="1.487" fill="url(#paint4_linear)" fill-opacity=".05"/><circle cx="32.512" cy="96.319" r="1.487" fill="url(#paint5_linear)"/><circle cx="115.836" cy="187.504" r="1.487" fill="url(#paint6_linear)" fill-opacity=".05"/><circle cx="180.067" cy="154.707" r="1.487" fill="url(#paint7_linear)" fill-opacity=".05"/><circle cx="184.847" cy="63.323" r="1.487" fill="url(#paint8_linear)" fill-opacity=".05"/><circle cx="61.921" cy="20.173" r="1.487" fill="url(#paint9_linear)" fill-opacity=".05"/><circle cx="31.025" cy="82.14" r="1.487" fill="url(#paint10_linear)"/><circle cx="90.829" cy="173" r="1.487" fill="url(#paint11_linear)" fill-opacity=".05"/><circle opacity=".8" cx="98.675" cy="18.685" r="1.487" fill="#fff"/><circle opacity=".8" cx="60.434" cy="58.585" r="1.487" fill="#fff"/><circle opacity=".8" cx="19.085" cy="140.856" r="1.487" fill="#fff"/><circle opacity=".8" cx="128.823" cy="153.219" r="1.487" fill="#fff"/><circle opacity=".8" cx="10.568" cy="75.815" r="1.487" fill="#fff"/><circle opacity=".8" cx="178.58" cy="129.507" r="1.487" fill="#fff"/><circle opacity=".8" cx="58.146" cy="177.532" r=".686" fill="#fff"/><circle opacity=".8" cx="140.733" cy="184.367" r=".686" fill="#fff"/><circle opacity=".8" cx="190.438" cy="75.014" r=".686" fill="#fff"/><circle opacity=".8" cx="126.65" cy="10.19" r=".686" fill="#fff"/><circle opacity=".8" cx="35.73" cy="33.158" r=".686" fill="#fff"/><circle opacity=".8" cx="12.741" cy="114.372" r=".686" fill="#fff"/><circle opacity=".8" cx="98.897" cy="196.179" r=".686" fill="#fff"/><defs><linearGradient id="paint6_linear" x1="115.836" y1="188.991" x2="115.836" y2="186.017" gradientUnits="userSpaceOnUse"><stop offset="0" stop-color="#6050B0"/><stop offset="1" stop-color="#351C75"/></linearGradient><linearGradient id="paint0_linear" x1="101.001" y1="159.842" x2="101.001" y2="42.036" gradientUnits="userSpaceOnUse"><stop offset="0" stop-color="#6050B0"/><stop offset="1" stop-color="#351C75"/></linearGradient><linearGradient id="paint2_linear" x1="70.97" y1="120.331" x2="101.989" y2="119.916" gradientUnits="userSpaceOnUse"><stop offset=".021" stop-color="#FEAE6F"/><stop offset=".41" stop-color="#D66F8D"/><stop offset=".72" stop-color="#8E54A5"/><stop offset=".911" stop-color="#7652AB"/></linearGradient><linearGradient id="paint3_linear" x1="170.913" y1="43.523" x2="170.913" y2="40.549" gradientUnits="userSpaceOnUse"><stop offset="0" stop-color="#6050B0"/><stop offset="1" stop-color="#351C75"/></linearGradient><linearGradient id="paint4_linear" x1="82.535" y1="46.496" x2="82.535" y2="43.523" gradientUnits="userSpaceOnUse"><stop offset="0" stop-color="#6050B0"/><stop offset="1" stop-color="#351C75"/></linearGradient><linearGradient id="paint5_linear" x1="32.512" y1="97.806" x2="32.512" y2="94.832" gradientUnits="userSpaceOnUse"><stop offset="0" stop-color="#6050B0"/><stop offset="1" stop-color="#351C75"/></linearGradient><linearGradient id="paint1_linear" x1="98.564" y1="55.425" x2="100.699" y2="162.728" gradientUnits="userSpaceOnUse"><stop offset=".223" stop-color="#3C0289"/><stop offset=".651" stop-color="#6050B0"/><stop offset="1" stop-color="#80C3FF"/></linearGradient><linearGradient id="paint7_linear" x1="180.067" y1="156.194" x2="180.067" y2="153.22" gradientUnits="userSpaceOnUse"><stop offset="0" stop-color="#6050B0"/><stop offset="1" stop-color="#351C75"/></linearGradient><linearGradient id="paint8_linear" x1="184.847" y1="64.81" x2="184.847" y2="61.836" gradientUnits="userSpaceOnUse"><stop offset="0" stop-color="#6050B0"/><stop offset="1" stop-color="#351C75"/></linearGradient><linearGradient id="paint9_linear" x1="61.921" y1="21.66" x2="61.921" y2="18.686" gradientUnits="userSpaceOnUse"><stop offset="0" stop-color="#6050B0"/><stop offset="1" stop-color="#351C75"/></linearGradient><linearGradient id="paint10_linear" x1="31.025" y1="83.627" x2="31.025" y2="80.653" gradientUnits="userSpaceOnUse"><stop offset="0" stop-color="#6050B0"/><stop offset="1" stop-color="#351C75"/></linearGradient><linearGradient id="paint11_linear" x1="90.829" y1="174.487" x2="90.829" y2="171.513" gradientUnits="userSpaceOnUse"><stop offset="0" stop-color="#6050B0"/><stop offset="1" stop-color="#351C75"/></linearGradient></defs></svg>