<svg width="242" height="204" fill="none" xmlns="http://www.w3.org/2000/svg"><circle cx="141.257" cy="100.939" r="100.502" fill="#BFB9DF" fill-opacity=".3"/><path d="M5.602 155.834l40.786-35.431 28.96 50.818s-49.38 16.052-50.616 16.341c-1.478.343-3.03.518-4.636.518C9.13 188.073.24 179.499.24 168.923c0-5.06 2.036-9.662 5.362-13.089z" fill="url(#paint0_linear)"/><path d="M45.017 118.749l70.015-60.822 49.716 87.229s-84.764 27.556-86.887 28.046a35.37 35.37 0 01-7.962.887c-18.828 0-34.094-14.722-34.094-32.877 0-8.681 3.5-16.583 9.212-22.463z" fill="url(#paint1_linear)"/><path d="M180.202 108.248c0-27.482-23.101-49.763-51.604-49.763-4.992 0-9.817.686-14.379 1.962l-2.621-3.252L97.28 68.7v.006C84.957 77.796 77 92.13 77 108.248c0 27.482 23.101 49.763 51.604 49.763 7.673 0 14.957-1.619 21.508-4.515l12.028-4.973-1.996-.887c12.202-9.104 20.057-23.362 20.057-39.388zM45.172 134.07c0-7.996 2.58-15.407 6.975-21.508l-7.13 6.195c-5.711 5.879-9.205 13.781-9.205 22.469 0 18.155 15.266 32.877 34.094 32.877 2.761 0 5.415-.302 7.962-.887.269-.06 1.901-.571 4.535-1.404-20.735-.995-37.231-17.51-37.231-37.742zM5.75 164.582c0-4.678 1.51-9.013 4.08-12.582l-4.17 3.624c-3.341 3.439-5.385 8.062-5.385 13.144 0 10.62 8.93 19.232 19.944 19.232 1.615 0 3.168-.177 4.657-.519.157-.035 1.113-.334 2.653-.821-12.13-.582-21.779-10.243-21.779-22.078z" fill="#4D3996"/><path d="M143.454 151.923c29.116 0 52.72-23.603 52.72-52.72 0-29.115-23.604-52.719-52.72-52.719s-52.719 23.604-52.719 52.72 23.603 52.719 52.719 52.719z" fill="#6050B0"/><path d="M143.454 147.367c26.6 0 48.164-21.563 48.164-48.163 0-26.6-21.564-48.164-48.164-48.164S95.291 72.604 95.291 99.204s21.563 48.163 48.163 48.163z" fill="url(#paint2_linear)"/><path d="M153.172 132.406a33.724 33.724 0 008.253-11.91c7.123-17.286-1.116-37.072-18.402-44.195a33.71 33.71 0 00-22.605-1.131c9.385-8.707 23.329-11.689 35.942-6.492 17.285 7.123 25.524 26.909 18.402 44.194-4.042 9.81-12.163 16.706-21.59 19.534z" fill="#FFC3AB"/><path fill-rule="evenodd" clip-rule="evenodd" d="M120.489 199.247l21.677-46.665V152h3.015v.604l21.238 45.718c-.994.254-1.994.493-2.999.717l-18.239-39.275v41.61a100.5 100.5 0 01-3.015.065v-41.696l-18.622 40.103a99.295 99.295 0 01-3.055-.599z" fill="#4D3996"/><defs><linearGradient id="paint0_linear" x1="37.794" y1="188.079" x2="37.794" y2="57.5" gradientUnits="userSpaceOnUse"><stop offset="0" stop-color="#6050B0"/><stop offset="1" stop-color="#351C75"/></linearGradient><linearGradient id="paint1_linear" x1="100.277" y1="174.089" x2="100.277" y2="57.927" gradientUnits="userSpaceOnUse"><stop offset="0" stop-color="#6050B0"/><stop offset="1" stop-color="#351C75"/></linearGradient><linearGradient id="paint2_linear" x1="195.996" y1="48.89" x2="-46.708" y2="215.408" gradientUnits="userSpaceOnUse"><stop stop-color="#FFEEE7"/><stop offset="1" stop-color="#FFC5B1"/></linearGradient></defs></svg>